<?xml version="1.0" encoding="UTF-8" standalone="no"?>
<!DOCTYPE svg PUBLIC "-//W3C//DTD SVG 1.1//EN" "http://www.w3.org/Graphics/SVG/1.1/DTD/svg11.dtd">
<svg width="100%" height="100%" viewBox="0 0 234 148" version="1.1" xmlns="http://www.w3.org/2000/svg" xmlns:xlink="http://www.w3.org/1999/xlink" xml:space="preserve" xmlns:serif="http://www.serif.com/" style="fill-rule:evenodd;clip-rule:evenodd;stroke-linejoin:round;stroke-miterlimit:2;">
    <g transform="matrix(1,0,0,1,-273.46,-189.264)">
        <g transform="matrix(1,0,0,1,-31.169,-33.993)">
            <rect x="304.629" y="223.257" width="233.157" height="147.317" style="fill:white;"/>
        </g>
        <g transform="matrix(1,0,0,1,358.603,265.293)">
            <g transform="matrix(18,0,0,18,0,0)">
                <path d="M0.526,-0L0.441,-0L0.428,-0.398L0.423,-0.551L0.393,-0.462L0.299,-0.208L0.239,-0.208L0.149,-0.452L0.119,-0.551L0.117,-0.391L0.106,-0L0.024,-0L0.055,-0.638L0.158,-0.638L0.244,-0.398L0.272,-0.317L0.299,-0.398L0.389,-0.638L0.495,-0.638L0.526,-0Z" style="fill-rule:nonzero;"/>
            </g>
            <g transform="matrix(18,0,0,18,9.89648,0)">
                <path d="M0.492,-0.271C0.492,-0.259 0.492,-0.249 0.492,-0.241C0.491,-0.233 0.491,-0.225 0.49,-0.218L0.146,-0.218C0.146,-0.168 0.16,-0.129 0.188,-0.102C0.216,-0.075 0.256,-0.062 0.309,-0.062C0.323,-0.062 0.338,-0.063 0.352,-0.063C0.366,-0.065 0.38,-0.066 0.394,-0.068C0.407,-0.07 0.42,-0.072 0.432,-0.075C0.444,-0.077 0.455,-0.08 0.466,-0.083L0.466,-0.013C0.443,-0.007 0.417,-0.001 0.387,0.002C0.358,0.007 0.328,0.009 0.297,0.009C0.255,0.009 0.219,0.003 0.188,-0.008C0.158,-0.02 0.133,-0.036 0.114,-0.058C0.095,-0.079 0.08,-0.106 0.071,-0.137C0.062,-0.169 0.057,-0.204 0.057,-0.244C0.057,-0.279 0.062,-0.311 0.072,-0.342C0.082,-0.373 0.096,-0.4 0.115,-0.423C0.134,-0.446 0.158,-0.465 0.186,-0.479C0.213,-0.492 0.245,-0.499 0.28,-0.499C0.314,-0.499 0.344,-0.494 0.371,-0.483C0.397,-0.472 0.419,-0.457 0.437,-0.437C0.455,-0.417 0.469,-0.394 0.478,-0.365C0.487,-0.337 0.492,-0.306 0.492,-0.271ZM0.404,-0.283C0.405,-0.305 0.403,-0.325 0.397,-0.343C0.392,-0.361 0.384,-0.377 0.373,-0.39C0.362,-0.403 0.349,-0.413 0.333,-0.42C0.316,-0.427 0.297,-0.431 0.276,-0.431C0.257,-0.431 0.24,-0.428 0.225,-0.42C0.21,-0.413 0.197,-0.403 0.186,-0.39C0.174,-0.377 0.166,-0.361 0.159,-0.343C0.152,-0.325 0.148,-0.305 0.146,-0.283L0.404,-0.283Z" style="fill-rule:nonzero;"/>
            </g>
            <g transform="matrix(18,0,0,18,19.793,0)">
                <path d="M0.428,-0L0.428,-0.352C0.428,-0.367 0.427,-0.38 0.426,-0.39C0.425,-0.399 0.423,-0.407 0.42,-0.413C0.418,-0.418 0.415,-0.423 0.411,-0.425C0.408,-0.427 0.403,-0.428 0.397,-0.428C0.391,-0.428 0.385,-0.426 0.379,-0.422C0.374,-0.418 0.368,-0.412 0.361,-0.403C0.355,-0.395 0.348,-0.383 0.34,-0.368C0.333,-0.354 0.324,-0.336 0.313,-0.315L0.313,-0L0.236,-0L0.236,-0.343C0.236,-0.361 0.235,-0.375 0.234,-0.386C0.233,-0.397 0.231,-0.406 0.229,-0.412C0.226,-0.418 0.223,-0.423 0.219,-0.425C0.215,-0.427 0.211,-0.428 0.205,-0.428C0.199,-0.428 0.194,-0.427 0.188,-0.423C0.183,-0.42 0.177,-0.414 0.171,-0.406C0.165,-0.397 0.158,-0.386 0.15,-0.371C0.142,-0.356 0.133,-0.338 0.122,-0.315L0.122,-0L0.044,-0L0.044,-0.49L0.109,-0.49L0.113,-0.397C0.121,-0.416 0.129,-0.431 0.137,-0.444C0.145,-0.457 0.154,-0.468 0.162,-0.476C0.171,-0.484 0.18,-0.49 0.189,-0.493C0.199,-0.497 0.209,-0.499 0.221,-0.499C0.248,-0.499 0.268,-0.49 0.281,-0.473C0.295,-0.456 0.302,-0.429 0.302,-0.393C0.31,-0.41 0.317,-0.425 0.325,-0.438C0.332,-0.451 0.34,-0.462 0.349,-0.471C0.357,-0.48 0.367,-0.487 0.377,-0.492C0.388,-0.497 0.4,-0.499 0.414,-0.499C0.475,-0.499 0.506,-0.452 0.506,-0.357L0.506,-0L0.428,-0Z" style="fill-rule:nonzero;"/>
            </g>
            <g transform="matrix(18,0,0,18,29.6895,0)">
                <path d="M0.505,-0.249C0.505,-0.211 0.5,-0.176 0.489,-0.144C0.478,-0.112 0.463,-0.085 0.442,-0.063C0.422,-0.04 0.398,-0.022 0.369,-0.01C0.34,0.003 0.307,0.009 0.27,0.009C0.235,0.009 0.203,0.003 0.175,-0.007C0.148,-0.018 0.124,-0.035 0.104,-0.056C0.085,-0.077 0.07,-0.103 0.06,-0.134C0.05,-0.166 0.045,-0.201 0.045,-0.242C0.045,-0.28 0.05,-0.315 0.061,-0.346C0.072,-0.378 0.087,-0.405 0.107,-0.427C0.128,-0.45 0.152,-0.468 0.181,-0.48C0.21,-0.493 0.243,-0.499 0.28,-0.499C0.315,-0.499 0.346,-0.493 0.374,-0.482C0.402,-0.472 0.426,-0.456 0.445,-0.435C0.464,-0.414 0.479,-0.388 0.489,-0.356C0.5,-0.325 0.505,-0.289 0.505,-0.249ZM0.418,-0.245C0.418,-0.275 0.415,-0.302 0.408,-0.324C0.401,-0.347 0.392,-0.366 0.379,-0.381C0.367,-0.396 0.352,-0.408 0.334,-0.415C0.316,-0.423 0.297,-0.427 0.275,-0.427C0.25,-0.427 0.228,-0.422 0.209,-0.412C0.192,-0.402 0.177,-0.389 0.165,-0.372C0.154,-0.355 0.145,-0.336 0.14,-0.314C0.134,-0.292 0.132,-0.269 0.132,-0.245C0.132,-0.215 0.135,-0.188 0.142,-0.166C0.148,-0.143 0.158,-0.124 0.17,-0.108C0.183,-0.093 0.198,-0.082 0.215,-0.074C0.233,-0.067 0.253,-0.063 0.275,-0.063C0.3,-0.063 0.322,-0.068 0.34,-0.078C0.358,-0.088 0.373,-0.101 0.384,-0.118C0.396,-0.134 0.404,-0.153 0.41,-0.175C0.415,-0.197 0.418,-0.221 0.418,-0.245Z" style="fill-rule:nonzero;"/>
            </g>
            <g transform="matrix(18,0,0,18,39.5859,0)">
                <path d="M0.098,-0.49L0.176,-0.49L0.178,-0.4C0.207,-0.435 0.236,-0.46 0.264,-0.476C0.292,-0.491 0.32,-0.499 0.349,-0.499C0.4,-0.499 0.438,-0.483 0.464,-0.45C0.491,-0.417 0.503,-0.368 0.501,-0.303L0.415,-0.303C0.416,-0.346 0.41,-0.377 0.396,-0.396C0.383,-0.416 0.363,-0.426 0.337,-0.426C0.326,-0.426 0.314,-0.424 0.302,-0.419C0.291,-0.416 0.279,-0.409 0.267,-0.4C0.255,-0.391 0.242,-0.38 0.228,-0.366C0.214,-0.352 0.2,-0.335 0.184,-0.315L0.184,-0L0.098,-0L0.098,-0.49Z" style="fill-rule:nonzero;"/>
            </g>
            <g transform="matrix(18,0,0,18,49.4824,0)">
                <path d="M0.514,-0.49L0.347,-0.052C0.33,-0.007 0.312,0.031 0.293,0.063C0.275,0.096 0.255,0.122 0.233,0.143C0.212,0.163 0.188,0.179 0.162,0.188C0.136,0.198 0.106,0.203 0.074,0.203C0.066,0.203 0.058,0.203 0.051,0.203C0.044,0.202 0.037,0.202 0.029,0.201L0.029,0.124C0.036,0.125 0.044,0.126 0.052,0.126C0.061,0.127 0.07,0.128 0.079,0.128C0.095,0.128 0.109,0.126 0.123,0.121C0.136,0.117 0.149,0.109 0.161,0.099C0.173,0.089 0.185,0.075 0.196,0.059C0.207,0.043 0.218,0.023 0.228,-0L0.032,-0.49L0.129,-0.49L0.253,-0.166L0.278,-0.09L0.306,-0.168L0.421,-0.49L0.514,-0.49Z" style="fill-rule:nonzero;"/>
            </g>
        </g>
    </g>
</svg>
