<?xml version="1.0" encoding="UTF-8" standalone="no"?>
<!DOCTYPE svg PUBLIC "-//W3C//DTD SVG 1.1//EN" "http://www.w3.org/Graphics/SVG/1.1/DTD/svg11.dtd">
<svg width="100%" height="100%" viewBox="0 0 234 148" version="1.1" xmlns="http://www.w3.org/2000/svg" xmlns:xlink="http://www.w3.org/1999/xlink" xml:space="preserve" xmlns:serif="http://www.serif.com/" style="fill-rule:evenodd;clip-rule:evenodd;stroke-linejoin:round;stroke-miterlimit:2;">
    <g transform="matrix(1,0,0,1,-273.46,-189.264)">
        <g transform="matrix(1,0,0,1,-31.169,-33.993)">
            <rect x="304.629" y="223.257" width="233.157" height="147.317" style="fill:white;"/>
        </g>
        <g transform="matrix(1,0,0,1,374.943,254.84)">
            <g transform="matrix(18,0,0,18,0,0)">
                <path d="M0.513,-0L0.415,-0L0.32,-0.204C0.313,-0.22 0.305,-0.233 0.298,-0.243C0.29,-0.253 0.282,-0.261 0.273,-0.267C0.265,-0.273 0.256,-0.278 0.245,-0.28C0.235,-0.283 0.224,-0.284 0.211,-0.284L0.17,-0.284L0.17,-0L0.083,-0L0.083,-0.638L0.254,-0.638C0.291,-0.638 0.323,-0.634 0.35,-0.626C0.376,-0.618 0.398,-0.606 0.415,-0.592C0.432,-0.577 0.445,-0.559 0.453,-0.539C0.461,-0.518 0.465,-0.495 0.465,-0.47C0.465,-0.45 0.462,-0.431 0.456,-0.414C0.45,-0.396 0.441,-0.38 0.43,-0.365C0.418,-0.351 0.404,-0.338 0.387,-0.328C0.37,-0.317 0.35,-0.309 0.328,-0.304C0.346,-0.298 0.361,-0.287 0.374,-0.271C0.386,-0.256 0.399,-0.236 0.412,-0.21L0.513,-0ZM0.374,-0.463C0.374,-0.497 0.363,-0.523 0.342,-0.54C0.321,-0.556 0.291,-0.565 0.252,-0.565L0.17,-0.565L0.17,-0.354L0.24,-0.354C0.261,-0.354 0.279,-0.356 0.295,-0.361C0.312,-0.366 0.326,-0.373 0.337,-0.382C0.349,-0.391 0.358,-0.403 0.364,-0.416C0.371,-0.43 0.374,-0.445 0.374,-0.463Z" style="fill-rule:nonzero;"/>
            </g>
            <g transform="matrix(18,0,0,18,9.89648,0)">
                <path d="M0.523,-0.323C0.523,-0.266 0.516,-0.216 0.502,-0.175C0.489,-0.133 0.471,-0.099 0.448,-0.071C0.425,-0.044 0.398,-0.024 0.367,-0.011C0.337,0.002 0.304,0.009 0.27,0.009C0.229,0.009 0.193,0.001 0.163,-0.013C0.132,-0.028 0.107,-0.05 0.087,-0.078C0.067,-0.106 0.052,-0.14 0.042,-0.18C0.033,-0.22 0.028,-0.265 0.028,-0.316C0.028,-0.373 0.035,-0.422 0.048,-0.463C0.061,-0.505 0.079,-0.539 0.102,-0.566C0.125,-0.594 0.152,-0.614 0.183,-0.627C0.213,-0.64 0.246,-0.647 0.28,-0.647C0.321,-0.647 0.356,-0.639 0.387,-0.625C0.417,-0.61 0.443,-0.588 0.463,-0.56C0.483,-0.532 0.498,-0.499 0.508,-0.458C0.518,-0.418 0.523,-0.373 0.523,-0.323ZM0.433,-0.317C0.433,-0.354 0.43,-0.389 0.424,-0.419C0.418,-0.451 0.409,-0.478 0.396,-0.5C0.384,-0.522 0.367,-0.54 0.347,-0.552C0.327,-0.565 0.303,-0.571 0.275,-0.571C0.248,-0.571 0.224,-0.564 0.204,-0.551C0.185,-0.538 0.168,-0.52 0.156,-0.497C0.143,-0.475 0.134,-0.448 0.127,-0.417C0.121,-0.387 0.118,-0.355 0.118,-0.321C0.118,-0.283 0.121,-0.249 0.127,-0.217C0.133,-0.186 0.142,-0.16 0.154,-0.137C0.167,-0.115 0.183,-0.098 0.203,-0.085C0.223,-0.073 0.247,-0.067 0.275,-0.067C0.302,-0.067 0.326,-0.073 0.346,-0.086C0.366,-0.1 0.382,-0.118 0.395,-0.14C0.408,-0.163 0.417,-0.189 0.423,-0.22C0.43,-0.25 0.433,-0.282 0.433,-0.317Z" style="fill-rule:nonzero;"/>
            </g>
            <g transform="matrix(18,0,0,18,19.793,0)">
                <path d="M0.526,-0L0.441,-0L0.428,-0.398L0.423,-0.551L0.393,-0.462L0.299,-0.208L0.239,-0.208L0.149,-0.452L0.119,-0.551L0.117,-0.391L0.106,-0L0.024,-0L0.055,-0.638L0.158,-0.638L0.244,-0.398L0.272,-0.317L0.299,-0.398L0.389,-0.638L0.495,-0.638L0.526,-0Z" style="fill-rule:nonzero;"/>
            </g>
        </g>
        <g transform="matrix(1,0,0,1,328.25,282.232)">
            <g transform="matrix(14,0,0,14,0,0)">
                <path d="M0.513,-0L0.415,-0L0.32,-0.204C0.313,-0.22 0.305,-0.233 0.298,-0.243C0.29,-0.253 0.282,-0.261 0.273,-0.267C0.265,-0.273 0.256,-0.278 0.245,-0.28C0.235,-0.283 0.224,-0.284 0.211,-0.284L0.17,-0.284L0.17,-0L0.083,-0L0.083,-0.638L0.254,-0.638C0.291,-0.638 0.323,-0.634 0.35,-0.626C0.376,-0.618 0.398,-0.606 0.415,-0.592C0.432,-0.577 0.445,-0.559 0.453,-0.539C0.461,-0.518 0.465,-0.495 0.465,-0.47C0.465,-0.45 0.462,-0.431 0.456,-0.414C0.45,-0.396 0.441,-0.38 0.43,-0.365C0.418,-0.351 0.404,-0.338 0.387,-0.328C0.37,-0.317 0.35,-0.309 0.328,-0.304C0.346,-0.298 0.361,-0.287 0.374,-0.271C0.386,-0.256 0.399,-0.236 0.412,-0.21L0.513,-0ZM0.374,-0.463C0.374,-0.497 0.363,-0.523 0.342,-0.54C0.321,-0.556 0.291,-0.565 0.252,-0.565L0.17,-0.565L0.17,-0.354L0.24,-0.354C0.261,-0.354 0.279,-0.356 0.295,-0.361C0.312,-0.366 0.326,-0.373 0.337,-0.382C0.349,-0.391 0.358,-0.403 0.364,-0.416C0.371,-0.43 0.374,-0.445 0.374,-0.463Z" style="fill-rule:nonzero;"/>
            </g>
            <g transform="matrix(14,0,0,14,7.69727,0)">
                <path d="M0.492,-0.271C0.492,-0.259 0.492,-0.249 0.492,-0.241C0.491,-0.233 0.491,-0.225 0.49,-0.218L0.146,-0.218C0.146,-0.168 0.16,-0.129 0.188,-0.102C0.216,-0.075 0.256,-0.062 0.309,-0.062C0.323,-0.062 0.338,-0.063 0.352,-0.063C0.366,-0.065 0.38,-0.066 0.394,-0.068C0.407,-0.07 0.42,-0.072 0.432,-0.075C0.444,-0.077 0.455,-0.08 0.466,-0.083L0.466,-0.013C0.443,-0.007 0.417,-0.001 0.387,0.002C0.358,0.007 0.328,0.009 0.297,0.009C0.255,0.009 0.219,0.003 0.188,-0.008C0.158,-0.02 0.133,-0.036 0.114,-0.058C0.095,-0.079 0.08,-0.106 0.071,-0.137C0.062,-0.169 0.057,-0.204 0.057,-0.244C0.057,-0.279 0.062,-0.311 0.072,-0.342C0.082,-0.373 0.096,-0.4 0.115,-0.423C0.134,-0.446 0.158,-0.465 0.186,-0.479C0.213,-0.492 0.245,-0.499 0.28,-0.499C0.314,-0.499 0.344,-0.494 0.371,-0.483C0.397,-0.472 0.419,-0.457 0.437,-0.437C0.455,-0.417 0.469,-0.394 0.478,-0.365C0.487,-0.337 0.492,-0.306 0.492,-0.271ZM0.404,-0.283C0.405,-0.305 0.403,-0.325 0.397,-0.343C0.392,-0.361 0.384,-0.377 0.373,-0.39C0.362,-0.403 0.349,-0.413 0.333,-0.42C0.316,-0.427 0.297,-0.431 0.276,-0.431C0.257,-0.431 0.24,-0.428 0.225,-0.42C0.21,-0.413 0.197,-0.403 0.186,-0.39C0.174,-0.377 0.166,-0.361 0.159,-0.343C0.152,-0.325 0.148,-0.305 0.146,-0.283L0.404,-0.283Z" style="fill-rule:nonzero;"/>
            </g>
            <g transform="matrix(14,0,0,14,15.3945,0)">
                <path d="M0.393,-0L0.391,-0.066C0.364,-0.04 0.337,-0.021 0.31,-0.009C0.282,0.003 0.253,0.009 0.223,0.009C0.195,0.009 0.171,0.005 0.151,-0.002C0.132,-0.009 0.115,-0.019 0.102,-0.031C0.089,-0.044 0.08,-0.059 0.074,-0.076C0.068,-0.093 0.065,-0.111 0.065,-0.131C0.065,-0.18 0.083,-0.218 0.12,-0.246C0.156,-0.274 0.211,-0.288 0.282,-0.288L0.384,-0.288L0.384,-0.331C0.384,-0.36 0.375,-0.383 0.356,-0.4C0.337,-0.418 0.309,-0.427 0.271,-0.427C0.243,-0.427 0.216,-0.424 0.189,-0.417C0.162,-0.411 0.135,-0.403 0.106,-0.391L0.106,-0.468C0.117,-0.472 0.129,-0.475 0.142,-0.479C0.155,-0.483 0.169,-0.486 0.184,-0.489C0.198,-0.492 0.214,-0.494 0.229,-0.496C0.245,-0.498 0.262,-0.499 0.278,-0.499C0.307,-0.499 0.334,-0.496 0.358,-0.489C0.382,-0.483 0.402,-0.473 0.418,-0.459C0.435,-0.446 0.447,-0.429 0.456,-0.409C0.465,-0.389 0.469,-0.365 0.469,-0.338L0.469,-0L0.393,-0ZM0.384,-0.223L0.276,-0.223C0.255,-0.223 0.236,-0.221 0.221,-0.217C0.206,-0.213 0.193,-0.207 0.184,-0.199C0.174,-0.191 0.167,-0.181 0.162,-0.17C0.157,-0.16 0.155,-0.147 0.155,-0.134C0.155,-0.124 0.156,-0.115 0.159,-0.106C0.162,-0.098 0.167,-0.09 0.173,-0.083C0.18,-0.077 0.188,-0.072 0.199,-0.068C0.209,-0.064 0.222,-0.062 0.237,-0.062C0.256,-0.062 0.279,-0.068 0.304,-0.08C0.329,-0.092 0.356,-0.111 0.384,-0.136L0.384,-0.223Z" style="fill-rule:nonzero;"/>
            </g>
            <g transform="matrix(14,0,0,14,23.0918,0)">
                <path d="M0.053,-0.235C0.053,-0.277 0.059,-0.313 0.07,-0.346C0.082,-0.378 0.098,-0.406 0.119,-0.428C0.14,-0.45 0.165,-0.467 0.194,-0.479C0.224,-0.49 0.257,-0.496 0.293,-0.496C0.309,-0.496 0.324,-0.495 0.339,-0.493C0.354,-0.491 0.369,-0.488 0.384,-0.484L0.384,-0.69L0.469,-0.69L0.469,-0L0.393,-0L0.39,-0.093C0.366,-0.058 0.341,-0.033 0.313,-0.016C0.285,0 0.255,0.009 0.223,0.009C0.195,0.009 0.17,0.003 0.149,-0.009C0.128,-0.021 0.11,-0.037 0.096,-0.058C0.082,-0.08 0.071,-0.105 0.064,-0.135C0.057,-0.165 0.053,-0.198 0.053,-0.235ZM0.14,-0.24C0.14,-0.181 0.149,-0.137 0.166,-0.107C0.184,-0.078 0.208,-0.064 0.24,-0.064C0.262,-0.064 0.284,-0.074 0.308,-0.093C0.332,-0.112 0.357,-0.14 0.384,-0.178L0.384,-0.406C0.37,-0.412 0.354,-0.417 0.337,-0.42C0.32,-0.424 0.304,-0.426 0.287,-0.426C0.241,-0.426 0.205,-0.411 0.179,-0.381C0.153,-0.351 0.14,-0.304 0.14,-0.24Z" style="fill-rule:nonzero;"/>
            </g>
            <g transform="matrix(14,0,0,14,38.4863,0)">
                <path d="M0.523,-0.323C0.523,-0.266 0.516,-0.216 0.502,-0.175C0.489,-0.133 0.471,-0.099 0.448,-0.071C0.425,-0.044 0.398,-0.024 0.367,-0.011C0.337,0.002 0.304,0.009 0.27,0.009C0.229,0.009 0.193,0.001 0.163,-0.013C0.132,-0.028 0.107,-0.05 0.087,-0.078C0.067,-0.106 0.052,-0.14 0.042,-0.18C0.033,-0.22 0.028,-0.265 0.028,-0.316C0.028,-0.373 0.035,-0.422 0.048,-0.463C0.061,-0.505 0.079,-0.539 0.102,-0.566C0.125,-0.594 0.152,-0.614 0.183,-0.627C0.213,-0.64 0.246,-0.647 0.28,-0.647C0.321,-0.647 0.356,-0.639 0.387,-0.625C0.417,-0.61 0.443,-0.588 0.463,-0.56C0.483,-0.532 0.498,-0.499 0.508,-0.458C0.518,-0.418 0.523,-0.373 0.523,-0.323ZM0.433,-0.317C0.433,-0.354 0.43,-0.389 0.424,-0.419C0.418,-0.451 0.409,-0.478 0.396,-0.5C0.384,-0.522 0.367,-0.54 0.347,-0.552C0.327,-0.565 0.303,-0.571 0.275,-0.571C0.248,-0.571 0.224,-0.564 0.204,-0.551C0.185,-0.538 0.168,-0.52 0.156,-0.497C0.143,-0.475 0.134,-0.448 0.127,-0.417C0.121,-0.387 0.118,-0.355 0.118,-0.321C0.118,-0.283 0.121,-0.249 0.127,-0.217C0.133,-0.186 0.142,-0.16 0.154,-0.137C0.167,-0.115 0.183,-0.098 0.203,-0.085C0.223,-0.073 0.247,-0.067 0.275,-0.067C0.302,-0.067 0.326,-0.073 0.346,-0.086C0.366,-0.1 0.382,-0.118 0.395,-0.14C0.408,-0.163 0.417,-0.189 0.423,-0.22C0.43,-0.25 0.433,-0.282 0.433,-0.317Z" style="fill-rule:nonzero;"/>
            </g>
            <g transform="matrix(14,0,0,14,46.1836,0)">
                <path d="M0.078,-0.49L0.154,-0.49L0.157,-0.411C0.172,-0.428 0.185,-0.442 0.199,-0.453C0.212,-0.465 0.225,-0.474 0.238,-0.48C0.251,-0.487 0.264,-0.492 0.277,-0.495C0.291,-0.498 0.305,-0.499 0.319,-0.499C0.369,-0.499 0.407,-0.484 0.433,-0.454C0.459,-0.424 0.472,-0.38 0.472,-0.32L0.472,-0L0.387,-0L0.387,-0.313C0.387,-0.351 0.38,-0.38 0.366,-0.398C0.351,-0.417 0.33,-0.426 0.302,-0.426C0.291,-0.426 0.281,-0.424 0.271,-0.421C0.261,-0.418 0.251,-0.413 0.24,-0.405C0.229,-0.397 0.218,-0.387 0.205,-0.374C0.193,-0.361 0.179,-0.345 0.163,-0.325L0.163,-0L0.078,-0L0.078,-0.49Z" style="fill-rule:nonzero;"/>
            </g>
            <g transform="matrix(14,0,0,14,53.8809,0)">
                <path d="M0.245,-0.62L0.1,-0.62L0.1,-0.69L0.331,-0.69L0.331,-0.071L0.477,-0.071L0.477,-0L0.084,-0L0.084,-0.071L0.245,-0.071L0.245,-0.62Z" style="fill-rule:nonzero;"/>
            </g>
            <g transform="matrix(14,0,0,14,61.5781,0)">
                <path d="M0.514,-0.49L0.347,-0.052C0.33,-0.007 0.312,0.031 0.293,0.063C0.275,0.096 0.255,0.122 0.233,0.143C0.212,0.163 0.188,0.179 0.162,0.188C0.136,0.198 0.106,0.203 0.074,0.203C0.066,0.203 0.058,0.203 0.051,0.203C0.044,0.202 0.037,0.202 0.029,0.201L0.029,0.124C0.036,0.125 0.044,0.126 0.052,0.126C0.061,0.127 0.07,0.128 0.079,0.128C0.095,0.128 0.109,0.126 0.123,0.121C0.136,0.117 0.149,0.109 0.161,0.099C0.173,0.089 0.185,0.075 0.196,0.059C0.207,0.043 0.218,0.023 0.228,-0L0.032,-0.49L0.129,-0.49L0.253,-0.166L0.278,-0.09L0.306,-0.168L0.421,-0.49L0.514,-0.49Z" style="fill-rule:nonzero;"/>
            </g>
            <g transform="matrix(14,0,0,14,76.9727,0)">
                <path d="M0.526,-0L0.441,-0L0.428,-0.398L0.423,-0.551L0.393,-0.462L0.299,-0.208L0.239,-0.208L0.149,-0.452L0.119,-0.551L0.117,-0.391L0.106,-0L0.024,-0L0.055,-0.638L0.158,-0.638L0.244,-0.398L0.272,-0.317L0.299,-0.398L0.389,-0.638L0.495,-0.638L0.526,-0Z" style="fill-rule:nonzero;"/>
            </g>
            <g transform="matrix(14,0,0,14,84.6699,0)">
                <path d="M0.492,-0.271C0.492,-0.259 0.492,-0.249 0.492,-0.241C0.491,-0.233 0.491,-0.225 0.49,-0.218L0.146,-0.218C0.146,-0.168 0.16,-0.129 0.188,-0.102C0.216,-0.075 0.256,-0.062 0.309,-0.062C0.323,-0.062 0.338,-0.063 0.352,-0.063C0.366,-0.065 0.38,-0.066 0.394,-0.068C0.407,-0.07 0.42,-0.072 0.432,-0.075C0.444,-0.077 0.455,-0.08 0.466,-0.083L0.466,-0.013C0.443,-0.007 0.417,-0.001 0.387,0.002C0.358,0.007 0.328,0.009 0.297,0.009C0.255,0.009 0.219,0.003 0.188,-0.008C0.158,-0.02 0.133,-0.036 0.114,-0.058C0.095,-0.079 0.08,-0.106 0.071,-0.137C0.062,-0.169 0.057,-0.204 0.057,-0.244C0.057,-0.279 0.062,-0.311 0.072,-0.342C0.082,-0.373 0.096,-0.4 0.115,-0.423C0.134,-0.446 0.158,-0.465 0.186,-0.479C0.213,-0.492 0.245,-0.499 0.28,-0.499C0.314,-0.499 0.344,-0.494 0.371,-0.483C0.397,-0.472 0.419,-0.457 0.437,-0.437C0.455,-0.417 0.469,-0.394 0.478,-0.365C0.487,-0.337 0.492,-0.306 0.492,-0.271ZM0.404,-0.283C0.405,-0.305 0.403,-0.325 0.397,-0.343C0.392,-0.361 0.384,-0.377 0.373,-0.39C0.362,-0.403 0.349,-0.413 0.333,-0.42C0.316,-0.427 0.297,-0.431 0.276,-0.431C0.257,-0.431 0.24,-0.428 0.225,-0.42C0.21,-0.413 0.197,-0.403 0.186,-0.39C0.174,-0.377 0.166,-0.361 0.159,-0.343C0.152,-0.325 0.148,-0.305 0.146,-0.283L0.404,-0.283Z" style="fill-rule:nonzero;"/>
            </g>
            <g transform="matrix(14,0,0,14,92.3672,0)">
                <path d="M0.428,-0L0.428,-0.352C0.428,-0.367 0.427,-0.38 0.426,-0.39C0.425,-0.399 0.423,-0.407 0.42,-0.413C0.418,-0.418 0.415,-0.423 0.411,-0.425C0.408,-0.427 0.403,-0.428 0.397,-0.428C0.391,-0.428 0.385,-0.426 0.379,-0.422C0.374,-0.418 0.368,-0.412 0.361,-0.403C0.355,-0.395 0.348,-0.383 0.34,-0.368C0.333,-0.354 0.324,-0.336 0.313,-0.315L0.313,-0L0.236,-0L0.236,-0.343C0.236,-0.361 0.235,-0.375 0.234,-0.386C0.233,-0.397 0.231,-0.406 0.229,-0.412C0.226,-0.418 0.223,-0.423 0.219,-0.425C0.215,-0.427 0.211,-0.428 0.205,-0.428C0.199,-0.428 0.194,-0.427 0.188,-0.423C0.183,-0.42 0.177,-0.414 0.171,-0.406C0.165,-0.397 0.158,-0.386 0.15,-0.371C0.142,-0.356 0.133,-0.338 0.122,-0.315L0.122,-0L0.044,-0L0.044,-0.49L0.109,-0.49L0.113,-0.397C0.121,-0.416 0.129,-0.431 0.137,-0.444C0.145,-0.457 0.154,-0.468 0.162,-0.476C0.171,-0.484 0.18,-0.49 0.189,-0.493C0.199,-0.497 0.209,-0.499 0.221,-0.499C0.248,-0.499 0.268,-0.49 0.281,-0.473C0.295,-0.456 0.302,-0.429 0.302,-0.393C0.31,-0.41 0.317,-0.425 0.325,-0.438C0.332,-0.451 0.34,-0.462 0.349,-0.471C0.357,-0.48 0.367,-0.487 0.377,-0.492C0.388,-0.497 0.4,-0.499 0.414,-0.499C0.475,-0.499 0.506,-0.452 0.506,-0.357L0.506,-0L0.428,-0Z" style="fill-rule:nonzero;"/>
            </g>
            <g transform="matrix(14,0,0,14,100.064,0)">
                <path d="M0.505,-0.249C0.505,-0.211 0.5,-0.176 0.489,-0.144C0.478,-0.112 0.463,-0.085 0.442,-0.063C0.422,-0.04 0.398,-0.022 0.369,-0.01C0.34,0.003 0.307,0.009 0.27,0.009C0.235,0.009 0.203,0.003 0.175,-0.007C0.148,-0.018 0.124,-0.035 0.104,-0.056C0.085,-0.077 0.07,-0.103 0.06,-0.134C0.05,-0.166 0.045,-0.201 0.045,-0.242C0.045,-0.28 0.05,-0.315 0.061,-0.346C0.072,-0.378 0.087,-0.405 0.107,-0.427C0.128,-0.45 0.152,-0.468 0.181,-0.48C0.21,-0.493 0.243,-0.499 0.28,-0.499C0.315,-0.499 0.346,-0.493 0.374,-0.482C0.402,-0.472 0.426,-0.456 0.445,-0.435C0.464,-0.414 0.479,-0.388 0.489,-0.356C0.5,-0.325 0.505,-0.289 0.505,-0.249ZM0.418,-0.245C0.418,-0.275 0.415,-0.302 0.408,-0.324C0.401,-0.347 0.392,-0.366 0.379,-0.381C0.367,-0.396 0.352,-0.408 0.334,-0.415C0.316,-0.423 0.297,-0.427 0.275,-0.427C0.25,-0.427 0.228,-0.422 0.209,-0.412C0.192,-0.402 0.177,-0.389 0.165,-0.372C0.154,-0.355 0.145,-0.336 0.14,-0.314C0.134,-0.292 0.132,-0.269 0.132,-0.245C0.132,-0.215 0.135,-0.188 0.142,-0.166C0.148,-0.143 0.158,-0.124 0.17,-0.108C0.183,-0.093 0.198,-0.082 0.215,-0.074C0.233,-0.067 0.253,-0.063 0.275,-0.063C0.3,-0.063 0.322,-0.068 0.34,-0.078C0.358,-0.088 0.373,-0.101 0.384,-0.118C0.396,-0.134 0.404,-0.153 0.41,-0.175C0.415,-0.197 0.418,-0.221 0.418,-0.245Z" style="fill-rule:nonzero;"/>
            </g>
            <g transform="matrix(14,0,0,14,107.762,0)">
                <path d="M0.098,-0.49L0.176,-0.49L0.178,-0.4C0.207,-0.435 0.236,-0.46 0.264,-0.476C0.292,-0.491 0.32,-0.499 0.349,-0.499C0.4,-0.499 0.438,-0.483 0.464,-0.45C0.491,-0.417 0.503,-0.368 0.501,-0.303L0.415,-0.303C0.416,-0.346 0.41,-0.377 0.396,-0.396C0.383,-0.416 0.363,-0.426 0.337,-0.426C0.326,-0.426 0.314,-0.424 0.302,-0.419C0.291,-0.416 0.279,-0.409 0.267,-0.4C0.255,-0.391 0.242,-0.38 0.228,-0.366C0.214,-0.352 0.2,-0.335 0.184,-0.315L0.184,-0L0.098,-0L0.098,-0.49Z" style="fill-rule:nonzero;"/>
            </g>
            <g transform="matrix(14,0,0,14,115.459,0)">
                <path d="M0.514,-0.49L0.347,-0.052C0.33,-0.007 0.312,0.031 0.293,0.063C0.275,0.096 0.255,0.122 0.233,0.143C0.212,0.163 0.188,0.179 0.162,0.188C0.136,0.198 0.106,0.203 0.074,0.203C0.066,0.203 0.058,0.203 0.051,0.203C0.044,0.202 0.037,0.202 0.029,0.201L0.029,0.124C0.036,0.125 0.044,0.126 0.052,0.126C0.061,0.127 0.07,0.128 0.079,0.128C0.095,0.128 0.109,0.126 0.123,0.121C0.136,0.117 0.149,0.109 0.161,0.099C0.173,0.089 0.185,0.075 0.196,0.059C0.207,0.043 0.218,0.023 0.228,-0L0.032,-0.49L0.129,-0.49L0.253,-0.166L0.278,-0.09L0.306,-0.168L0.421,-0.49L0.514,-0.49Z" style="fill-rule:nonzero;"/>
            </g>
        </g>
    </g>
</svg>
