<?xml version="1.0" encoding="UTF-8" standalone="no"?>
<!DOCTYPE svg PUBLIC "-//W3C//DTD SVG 1.1//EN" "http://www.w3.org/Graphics/SVG/1.1/DTD/svg11.dtd">
<svg width="100%" height="100%" viewBox="0 0 234 148" version="1.1" xmlns="http://www.w3.org/2000/svg" xmlns:xlink="http://www.w3.org/1999/xlink" xml:space="preserve" xmlns:serif="http://www.serif.com/" style="fill-rule:evenodd;clip-rule:evenodd;stroke-linejoin:round;stroke-miterlimit:2;">
    <g transform="matrix(1,0,0,1,-273.46,-189.264)">
        <g transform="matrix(1,0,0,1,-31.169,-33.993)">
            <rect x="304.629" y="223.257" width="233.157" height="147.317" style="fill:white;"/>
        </g>
        <g transform="matrix(1,0,0,1,333.991,267.051)">
            <g transform="matrix(18,0,0,18,0,0)">
                <path d="M0.231,-0.565L0.084,-0.565L0.084,-0.638L0.466,-0.638L0.466,-0.565L0.319,-0.565L0.319,-0.074L0.466,-0.074L0.466,-0L0.084,-0L0.084,-0.074L0.231,-0.074L0.231,-0.565Z" style="fill-rule:nonzero;"/>
            </g>
            <g transform="matrix(18,0,0,18,9.89648,0)">
                <path d="M0.078,-0.49L0.154,-0.49L0.157,-0.411C0.172,-0.428 0.185,-0.442 0.199,-0.453C0.212,-0.465 0.225,-0.474 0.238,-0.48C0.251,-0.487 0.264,-0.492 0.277,-0.495C0.291,-0.498 0.305,-0.499 0.319,-0.499C0.369,-0.499 0.407,-0.484 0.433,-0.454C0.459,-0.424 0.472,-0.38 0.472,-0.32L0.472,-0L0.387,-0L0.387,-0.313C0.387,-0.351 0.38,-0.38 0.366,-0.398C0.351,-0.417 0.33,-0.426 0.302,-0.426C0.291,-0.426 0.281,-0.424 0.271,-0.421C0.261,-0.418 0.251,-0.413 0.24,-0.405C0.229,-0.397 0.218,-0.387 0.205,-0.374C0.193,-0.361 0.179,-0.345 0.163,-0.325L0.163,-0L0.078,-0L0.078,-0.49Z" style="fill-rule:nonzero;"/>
            </g>
            <g transform="matrix(18,0,0,18,19.793,0)">
                <path d="M0.473,-0.007C0.454,-0.002 0.434,0.001 0.414,0.003C0.393,0.006 0.372,0.007 0.351,0.007C0.29,0.007 0.244,-0.007 0.213,-0.035C0.183,-0.063 0.168,-0.105 0.168,-0.163L0.168,-0.419L0.031,-0.419L0.031,-0.49L0.168,-0.49L0.168,-0.625L0.253,-0.647L0.253,-0.49L0.473,-0.49L0.473,-0.419L0.253,-0.419L0.253,-0.17C0.253,-0.135 0.262,-0.108 0.281,-0.091C0.3,-0.074 0.327,-0.065 0.364,-0.065C0.379,-0.065 0.396,-0.066 0.415,-0.068C0.434,-0.071 0.453,-0.075 0.473,-0.08L0.473,-0.007Z" style="fill-rule:nonzero;"/>
            </g>
            <g transform="matrix(18,0,0,18,29.6895,0)">
                <path d="M0.492,-0.271C0.492,-0.259 0.492,-0.249 0.492,-0.241C0.491,-0.233 0.491,-0.225 0.49,-0.218L0.146,-0.218C0.146,-0.168 0.16,-0.129 0.188,-0.102C0.216,-0.075 0.256,-0.062 0.309,-0.062C0.323,-0.062 0.338,-0.063 0.352,-0.063C0.366,-0.065 0.38,-0.066 0.394,-0.068C0.407,-0.07 0.42,-0.072 0.432,-0.075C0.444,-0.077 0.455,-0.08 0.466,-0.083L0.466,-0.013C0.443,-0.007 0.417,-0.001 0.387,0.002C0.358,0.007 0.328,0.009 0.297,0.009C0.255,0.009 0.219,0.003 0.188,-0.008C0.158,-0.02 0.133,-0.036 0.114,-0.058C0.095,-0.079 0.08,-0.106 0.071,-0.137C0.062,-0.169 0.057,-0.204 0.057,-0.244C0.057,-0.279 0.062,-0.311 0.072,-0.342C0.082,-0.373 0.096,-0.4 0.115,-0.423C0.134,-0.446 0.158,-0.465 0.186,-0.479C0.213,-0.492 0.245,-0.499 0.28,-0.499C0.314,-0.499 0.344,-0.494 0.371,-0.483C0.397,-0.472 0.419,-0.457 0.437,-0.437C0.455,-0.417 0.469,-0.394 0.478,-0.365C0.487,-0.337 0.492,-0.306 0.492,-0.271ZM0.404,-0.283C0.405,-0.305 0.403,-0.325 0.397,-0.343C0.392,-0.361 0.384,-0.377 0.373,-0.39C0.362,-0.403 0.349,-0.413 0.333,-0.42C0.316,-0.427 0.297,-0.431 0.276,-0.431C0.257,-0.431 0.24,-0.428 0.225,-0.42C0.21,-0.413 0.197,-0.403 0.186,-0.39C0.174,-0.377 0.166,-0.361 0.159,-0.343C0.152,-0.325 0.148,-0.305 0.146,-0.283L0.404,-0.283Z" style="fill-rule:nonzero;"/>
            </g>
            <g transform="matrix(18,0,0,18,39.5859,0)">
                <path d="M0.098,-0.49L0.176,-0.49L0.178,-0.4C0.207,-0.435 0.236,-0.46 0.264,-0.476C0.292,-0.491 0.32,-0.499 0.349,-0.499C0.4,-0.499 0.438,-0.483 0.464,-0.45C0.491,-0.417 0.503,-0.368 0.501,-0.303L0.415,-0.303C0.416,-0.346 0.41,-0.377 0.396,-0.396C0.383,-0.416 0.363,-0.426 0.337,-0.426C0.326,-0.426 0.314,-0.424 0.302,-0.419C0.291,-0.416 0.279,-0.409 0.267,-0.4C0.255,-0.391 0.242,-0.38 0.228,-0.366C0.214,-0.352 0.2,-0.335 0.184,-0.315L0.184,-0L0.098,-0L0.098,-0.49Z" style="fill-rule:nonzero;"/>
            </g>
            <g transform="matrix(18,0,0,18,49.4824,0)">
                <path d="M0.497,-0.254C0.497,-0.21 0.491,-0.172 0.479,-0.14C0.466,-0.107 0.45,-0.08 0.428,-0.059C0.407,-0.037 0.381,-0.021 0.352,-0.01C0.323,0 0.291,0.006 0.257,0.006C0.241,0.006 0.226,0.005 0.21,0.003C0.195,0.002 0.179,-0.001 0.163,-0.005L0.163,0.2L0.078,0.2L0.078,-0.49L0.154,-0.49L0.159,-0.408C0.184,-0.442 0.21,-0.465 0.237,-0.479C0.265,-0.492 0.295,-0.499 0.327,-0.499C0.355,-0.499 0.38,-0.493 0.401,-0.481C0.422,-0.47 0.44,-0.453 0.454,-0.432C0.468,-0.41 0.479,-0.385 0.486,-0.354C0.493,-0.325 0.497,-0.291 0.497,-0.254ZM0.41,-0.25C0.41,-0.276 0.408,-0.299 0.404,-0.321C0.401,-0.342 0.395,-0.361 0.387,-0.376C0.379,-0.391 0.368,-0.403 0.355,-0.412C0.343,-0.42 0.328,-0.425 0.31,-0.425C0.299,-0.425 0.288,-0.423 0.277,-0.419C0.266,-0.416 0.255,-0.41 0.243,-0.402C0.231,-0.395 0.218,-0.384 0.205,-0.371C0.192,-0.358 0.178,-0.341 0.163,-0.322L0.163,-0.084C0.179,-0.077 0.195,-0.072 0.212,-0.068C0.23,-0.065 0.247,-0.063 0.263,-0.063C0.309,-0.063 0.345,-0.078 0.371,-0.109C0.397,-0.141 0.41,-0.188 0.41,-0.25Z" style="fill-rule:nonzero;"/>
            </g>
            <g transform="matrix(18,0,0,18,59.3789,0)">
                <path d="M0.098,-0.49L0.176,-0.49L0.178,-0.4C0.207,-0.435 0.236,-0.46 0.264,-0.476C0.292,-0.491 0.32,-0.499 0.349,-0.499C0.4,-0.499 0.438,-0.483 0.464,-0.45C0.491,-0.417 0.503,-0.368 0.501,-0.303L0.415,-0.303C0.416,-0.346 0.41,-0.377 0.396,-0.396C0.383,-0.416 0.363,-0.426 0.337,-0.426C0.326,-0.426 0.314,-0.424 0.302,-0.419C0.291,-0.416 0.279,-0.409 0.267,-0.4C0.255,-0.391 0.242,-0.38 0.228,-0.366C0.214,-0.352 0.2,-0.335 0.184,-0.315L0.184,-0L0.098,-0L0.098,-0.49Z" style="fill-rule:nonzero;"/>
            </g>
            <g transform="matrix(18,0,0,18,69.2754,0)">
                <path d="M0.492,-0.271C0.492,-0.259 0.492,-0.249 0.492,-0.241C0.491,-0.233 0.491,-0.225 0.49,-0.218L0.146,-0.218C0.146,-0.168 0.16,-0.129 0.188,-0.102C0.216,-0.075 0.256,-0.062 0.309,-0.062C0.323,-0.062 0.338,-0.063 0.352,-0.063C0.366,-0.065 0.38,-0.066 0.394,-0.068C0.407,-0.07 0.42,-0.072 0.432,-0.075C0.444,-0.077 0.455,-0.08 0.466,-0.083L0.466,-0.013C0.443,-0.007 0.417,-0.001 0.387,0.002C0.358,0.007 0.328,0.009 0.297,0.009C0.255,0.009 0.219,0.003 0.188,-0.008C0.158,-0.02 0.133,-0.036 0.114,-0.058C0.095,-0.079 0.08,-0.106 0.071,-0.137C0.062,-0.169 0.057,-0.204 0.057,-0.244C0.057,-0.279 0.062,-0.311 0.072,-0.342C0.082,-0.373 0.096,-0.4 0.115,-0.423C0.134,-0.446 0.158,-0.465 0.186,-0.479C0.213,-0.492 0.245,-0.499 0.28,-0.499C0.314,-0.499 0.344,-0.494 0.371,-0.483C0.397,-0.472 0.419,-0.457 0.437,-0.437C0.455,-0.417 0.469,-0.394 0.478,-0.365C0.487,-0.337 0.492,-0.306 0.492,-0.271ZM0.404,-0.283C0.405,-0.305 0.403,-0.325 0.397,-0.343C0.392,-0.361 0.384,-0.377 0.373,-0.39C0.362,-0.403 0.349,-0.413 0.333,-0.42C0.316,-0.427 0.297,-0.431 0.276,-0.431C0.257,-0.431 0.24,-0.428 0.225,-0.42C0.21,-0.413 0.197,-0.403 0.186,-0.39C0.174,-0.377 0.166,-0.361 0.159,-0.343C0.152,-0.325 0.148,-0.305 0.146,-0.283L0.404,-0.283Z" style="fill-rule:nonzero;"/>
            </g>
            <g transform="matrix(18,0,0,18,79.1719,0)">
                <path d="M0.473,-0.007C0.454,-0.002 0.434,0.001 0.414,0.003C0.393,0.006 0.372,0.007 0.351,0.007C0.29,0.007 0.244,-0.007 0.213,-0.035C0.183,-0.063 0.168,-0.105 0.168,-0.163L0.168,-0.419L0.031,-0.419L0.031,-0.49L0.168,-0.49L0.168,-0.625L0.253,-0.647L0.253,-0.49L0.473,-0.49L0.473,-0.419L0.253,-0.419L0.253,-0.17C0.253,-0.135 0.262,-0.108 0.281,-0.091C0.3,-0.074 0.327,-0.065 0.364,-0.065C0.379,-0.065 0.396,-0.066 0.415,-0.068C0.434,-0.071 0.453,-0.075 0.473,-0.08L0.473,-0.007Z" style="fill-rule:nonzero;"/>
            </g>
            <g transform="matrix(18,0,0,18,89.0684,0)">
                <path d="M0.492,-0.271C0.492,-0.259 0.492,-0.249 0.492,-0.241C0.491,-0.233 0.491,-0.225 0.49,-0.218L0.146,-0.218C0.146,-0.168 0.16,-0.129 0.188,-0.102C0.216,-0.075 0.256,-0.062 0.309,-0.062C0.323,-0.062 0.338,-0.063 0.352,-0.063C0.366,-0.065 0.38,-0.066 0.394,-0.068C0.407,-0.07 0.42,-0.072 0.432,-0.075C0.444,-0.077 0.455,-0.08 0.466,-0.083L0.466,-0.013C0.443,-0.007 0.417,-0.001 0.387,0.002C0.358,0.007 0.328,0.009 0.297,0.009C0.255,0.009 0.219,0.003 0.188,-0.008C0.158,-0.02 0.133,-0.036 0.114,-0.058C0.095,-0.079 0.08,-0.106 0.071,-0.137C0.062,-0.169 0.057,-0.204 0.057,-0.244C0.057,-0.279 0.062,-0.311 0.072,-0.342C0.082,-0.373 0.096,-0.4 0.115,-0.423C0.134,-0.446 0.158,-0.465 0.186,-0.479C0.213,-0.492 0.245,-0.499 0.28,-0.499C0.314,-0.499 0.344,-0.494 0.371,-0.483C0.397,-0.472 0.419,-0.457 0.437,-0.437C0.455,-0.417 0.469,-0.394 0.478,-0.365C0.487,-0.337 0.492,-0.306 0.492,-0.271ZM0.404,-0.283C0.405,-0.305 0.403,-0.325 0.397,-0.343C0.392,-0.361 0.384,-0.377 0.373,-0.39C0.362,-0.403 0.349,-0.413 0.333,-0.42C0.316,-0.427 0.297,-0.431 0.276,-0.431C0.257,-0.431 0.24,-0.428 0.225,-0.42C0.21,-0.413 0.197,-0.403 0.186,-0.39C0.174,-0.377 0.166,-0.361 0.159,-0.343C0.152,-0.325 0.148,-0.305 0.146,-0.283L0.404,-0.283Z" style="fill-rule:nonzero;"/>
            </g>
            <g transform="matrix(18,0,0,18,98.9648,0)">
                <path d="M0.098,-0.49L0.176,-0.49L0.178,-0.4C0.207,-0.435 0.236,-0.46 0.264,-0.476C0.292,-0.491 0.32,-0.499 0.349,-0.499C0.4,-0.499 0.438,-0.483 0.464,-0.45C0.491,-0.417 0.503,-0.368 0.501,-0.303L0.415,-0.303C0.416,-0.346 0.41,-0.377 0.396,-0.396C0.383,-0.416 0.363,-0.426 0.337,-0.426C0.326,-0.426 0.314,-0.424 0.302,-0.419C0.291,-0.416 0.279,-0.409 0.267,-0.4C0.255,-0.391 0.242,-0.38 0.228,-0.366C0.214,-0.352 0.2,-0.335 0.184,-0.315L0.184,-0L0.098,-0L0.098,-0.49Z" style="fill-rule:nonzero;"/>
            </g>
        </g>
    </g>
</svg>
