<?xml version="1.0" encoding="UTF-8" standalone="no"?>
<!DOCTYPE svg PUBLIC "-//W3C//DTD SVG 1.1//EN" "http://www.w3.org/Graphics/SVG/1.1/DTD/svg11.dtd">
<svg width="100%" height="100%" viewBox="0 0 234 148" version="1.1" xmlns="http://www.w3.org/2000/svg" xmlns:xlink="http://www.w3.org/1999/xlink" xml:space="preserve" xmlns:serif="http://www.serif.com/" style="fill-rule:evenodd;clip-rule:evenodd;stroke-linejoin:round;stroke-miterlimit:2;">
    <g transform="matrix(1,0,0,1,-273.46,-189.264)">
        <g transform="matrix(1,0,0,1,-31.169,-33.993)">
            <rect x="304.629" y="223.257" width="233.157" height="147.317" style="fill:white;"/>
        </g>
        <g transform="matrix(1,0,0,1,337.796,265.449)">
            <g transform="matrix(18,0,0,18,0,0)">
                <path d="M0.461,-0L0.098,-0L0.098,-0.638L0.461,-0.638L0.461,-0.565L0.185,-0.565L0.185,-0.367L0.45,-0.367L0.45,-0.294L0.185,-0.294L0.185,-0.074L0.461,-0.074L0.461,-0Z" style="fill-rule:nonzero;"/>
            </g>
            <g transform="matrix(18,0,0,18,9.89648,0)">
                <path d="M0.078,-0.49L0.154,-0.49L0.157,-0.411C0.172,-0.428 0.185,-0.442 0.199,-0.453C0.212,-0.465 0.225,-0.474 0.238,-0.48C0.251,-0.487 0.264,-0.492 0.277,-0.495C0.291,-0.498 0.305,-0.499 0.319,-0.499C0.369,-0.499 0.407,-0.484 0.433,-0.454C0.459,-0.424 0.472,-0.38 0.472,-0.32L0.472,-0L0.387,-0L0.387,-0.313C0.387,-0.351 0.38,-0.38 0.366,-0.398C0.351,-0.417 0.33,-0.426 0.302,-0.426C0.291,-0.426 0.281,-0.424 0.271,-0.421C0.261,-0.418 0.251,-0.413 0.24,-0.405C0.229,-0.397 0.218,-0.387 0.205,-0.374C0.193,-0.361 0.179,-0.345 0.163,-0.325L0.163,-0L0.078,-0L0.078,-0.49Z" style="fill-rule:nonzero;"/>
            </g>
            <g transform="matrix(18,0,0,18,19.793,0)">
                <path d="M0.459,-0.018C0.437,-0.01 0.414,-0.003 0.391,0C0.368,0.005 0.344,0.007 0.319,0.007C0.241,0.007 0.182,-0.014 0.14,-0.056C0.098,-0.098 0.077,-0.16 0.077,-0.24C0.077,-0.279 0.083,-0.314 0.095,-0.346C0.107,-0.377 0.124,-0.404 0.146,-0.427C0.168,-0.449 0.194,-0.466 0.224,-0.479C0.254,-0.491 0.288,-0.497 0.324,-0.497C0.35,-0.497 0.373,-0.495 0.396,-0.492C0.418,-0.488 0.439,-0.482 0.459,-0.474L0.459,-0.393C0.438,-0.404 0.416,-0.412 0.394,-0.417C0.372,-0.422 0.35,-0.425 0.326,-0.425C0.304,-0.425 0.284,-0.421 0.264,-0.412C0.245,-0.404 0.228,-0.392 0.213,-0.376C0.199,-0.361 0.187,-0.342 0.179,-0.319C0.17,-0.297 0.166,-0.271 0.166,-0.243C0.166,-0.184 0.18,-0.139 0.209,-0.11C0.238,-0.081 0.278,-0.066 0.329,-0.066C0.352,-0.066 0.375,-0.069 0.396,-0.074C0.418,-0.079 0.439,-0.087 0.459,-0.097L0.459,-0.018Z" style="fill-rule:nonzero;"/>
            </g>
            <g transform="matrix(18,0,0,18,29.6895,0)">
                <path d="M0.098,-0.49L0.176,-0.49L0.178,-0.4C0.207,-0.435 0.236,-0.46 0.264,-0.476C0.292,-0.491 0.32,-0.499 0.349,-0.499C0.4,-0.499 0.438,-0.483 0.464,-0.45C0.491,-0.417 0.503,-0.368 0.501,-0.303L0.415,-0.303C0.416,-0.346 0.41,-0.377 0.396,-0.396C0.383,-0.416 0.363,-0.426 0.337,-0.426C0.326,-0.426 0.314,-0.424 0.302,-0.419C0.291,-0.416 0.279,-0.409 0.267,-0.4C0.255,-0.391 0.242,-0.38 0.228,-0.366C0.214,-0.352 0.2,-0.335 0.184,-0.315L0.184,-0L0.098,-0L0.098,-0.49Z" style="fill-rule:nonzero;"/>
            </g>
            <g transform="matrix(18,0,0,18,39.5859,0)">
                <path d="M0.514,-0.49L0.347,-0.052C0.33,-0.007 0.312,0.031 0.293,0.063C0.275,0.096 0.255,0.122 0.233,0.143C0.212,0.163 0.188,0.179 0.162,0.188C0.136,0.198 0.106,0.203 0.074,0.203C0.066,0.203 0.058,0.203 0.051,0.203C0.044,0.202 0.037,0.202 0.029,0.201L0.029,0.124C0.036,0.125 0.044,0.126 0.052,0.126C0.061,0.127 0.07,0.128 0.079,0.128C0.095,0.128 0.109,0.126 0.123,0.121C0.136,0.117 0.149,0.109 0.161,0.099C0.173,0.089 0.185,0.075 0.196,0.059C0.207,0.043 0.218,0.023 0.228,-0L0.032,-0.49L0.129,-0.49L0.253,-0.166L0.278,-0.09L0.306,-0.168L0.421,-0.49L0.514,-0.49Z" style="fill-rule:nonzero;"/>
            </g>
            <g transform="matrix(18,0,0,18,49.4824,0)">
                <path d="M0.497,-0.254C0.497,-0.21 0.491,-0.172 0.479,-0.14C0.466,-0.107 0.45,-0.08 0.428,-0.059C0.407,-0.037 0.381,-0.021 0.352,-0.01C0.323,0 0.291,0.006 0.257,0.006C0.241,0.006 0.226,0.005 0.21,0.003C0.195,0.002 0.179,-0.001 0.163,-0.005L0.163,0.2L0.078,0.2L0.078,-0.49L0.154,-0.49L0.159,-0.408C0.184,-0.442 0.21,-0.465 0.237,-0.479C0.265,-0.492 0.295,-0.499 0.327,-0.499C0.355,-0.499 0.38,-0.493 0.401,-0.481C0.422,-0.47 0.44,-0.453 0.454,-0.432C0.468,-0.41 0.479,-0.385 0.486,-0.354C0.493,-0.325 0.497,-0.291 0.497,-0.254ZM0.41,-0.25C0.41,-0.276 0.408,-0.299 0.404,-0.321C0.401,-0.342 0.395,-0.361 0.387,-0.376C0.379,-0.391 0.368,-0.403 0.355,-0.412C0.343,-0.42 0.328,-0.425 0.31,-0.425C0.299,-0.425 0.288,-0.423 0.277,-0.419C0.266,-0.416 0.255,-0.41 0.243,-0.402C0.231,-0.395 0.218,-0.384 0.205,-0.371C0.192,-0.358 0.178,-0.341 0.163,-0.322L0.163,-0.084C0.179,-0.077 0.195,-0.072 0.212,-0.068C0.23,-0.065 0.247,-0.063 0.263,-0.063C0.309,-0.063 0.345,-0.078 0.371,-0.109C0.397,-0.141 0.41,-0.188 0.41,-0.25Z" style="fill-rule:nonzero;"/>
            </g>
            <g transform="matrix(18,0,0,18,59.3789,0)">
                <path d="M0.473,-0.007C0.454,-0.002 0.434,0.001 0.414,0.003C0.393,0.006 0.372,0.007 0.351,0.007C0.29,0.007 0.244,-0.007 0.213,-0.035C0.183,-0.063 0.168,-0.105 0.168,-0.163L0.168,-0.419L0.031,-0.419L0.031,-0.49L0.168,-0.49L0.168,-0.625L0.253,-0.647L0.253,-0.49L0.473,-0.49L0.473,-0.419L0.253,-0.419L0.253,-0.17C0.253,-0.135 0.262,-0.108 0.281,-0.091C0.3,-0.074 0.327,-0.065 0.364,-0.065C0.379,-0.065 0.396,-0.066 0.415,-0.068C0.434,-0.071 0.453,-0.075 0.473,-0.08L0.473,-0.007Z" style="fill-rule:nonzero;"/>
            </g>
            <g transform="matrix(18,0,0,18,69.2754,0)">
                <path d="M0.245,-0.42L0.1,-0.42L0.1,-0.49L0.331,-0.49L0.331,-0.071L0.477,-0.071L0.477,-0L0.084,-0L0.084,-0.071L0.245,-0.071L0.245,-0.42ZM0.275,-0.696C0.284,-0.696 0.293,-0.694 0.301,-0.69C0.309,-0.687 0.316,-0.682 0.322,-0.676C0.328,-0.67 0.333,-0.663 0.336,-0.655C0.34,-0.647 0.342,-0.638 0.342,-0.629C0.342,-0.62 0.34,-0.611 0.336,-0.603C0.333,-0.595 0.328,-0.588 0.322,-0.582C0.316,-0.575 0.309,-0.57 0.301,-0.567C0.293,-0.564 0.284,-0.562 0.275,-0.562C0.265,-0.562 0.257,-0.564 0.249,-0.567C0.24,-0.57 0.233,-0.575 0.227,-0.582C0.221,-0.588 0.216,-0.595 0.213,-0.603C0.21,-0.611 0.208,-0.62 0.208,-0.629C0.208,-0.638 0.21,-0.647 0.213,-0.655C0.216,-0.663 0.221,-0.67 0.227,-0.676C0.233,-0.682 0.24,-0.687 0.249,-0.69C0.257,-0.694 0.265,-0.696 0.275,-0.696Z" style="fill-rule:nonzero;"/>
            </g>
            <g transform="matrix(18,0,0,18,79.1719,0)">
                <path d="M0.505,-0.249C0.505,-0.211 0.5,-0.176 0.489,-0.144C0.478,-0.112 0.463,-0.085 0.442,-0.063C0.422,-0.04 0.398,-0.022 0.369,-0.01C0.34,0.003 0.307,0.009 0.27,0.009C0.235,0.009 0.203,0.003 0.175,-0.007C0.148,-0.018 0.124,-0.035 0.104,-0.056C0.085,-0.077 0.07,-0.103 0.06,-0.134C0.05,-0.166 0.045,-0.201 0.045,-0.242C0.045,-0.28 0.05,-0.315 0.061,-0.346C0.072,-0.378 0.087,-0.405 0.107,-0.427C0.128,-0.45 0.152,-0.468 0.181,-0.48C0.21,-0.493 0.243,-0.499 0.28,-0.499C0.315,-0.499 0.346,-0.493 0.374,-0.482C0.402,-0.472 0.426,-0.456 0.445,-0.435C0.464,-0.414 0.479,-0.388 0.489,-0.356C0.5,-0.325 0.505,-0.289 0.505,-0.249ZM0.418,-0.245C0.418,-0.275 0.415,-0.302 0.408,-0.324C0.401,-0.347 0.392,-0.366 0.379,-0.381C0.367,-0.396 0.352,-0.408 0.334,-0.415C0.316,-0.423 0.297,-0.427 0.275,-0.427C0.25,-0.427 0.228,-0.422 0.209,-0.412C0.192,-0.402 0.177,-0.389 0.165,-0.372C0.154,-0.355 0.145,-0.336 0.14,-0.314C0.134,-0.292 0.132,-0.269 0.132,-0.245C0.132,-0.215 0.135,-0.188 0.142,-0.166C0.148,-0.143 0.158,-0.124 0.17,-0.108C0.183,-0.093 0.198,-0.082 0.215,-0.074C0.233,-0.067 0.253,-0.063 0.275,-0.063C0.3,-0.063 0.322,-0.068 0.34,-0.078C0.358,-0.088 0.373,-0.101 0.384,-0.118C0.396,-0.134 0.404,-0.153 0.41,-0.175C0.415,-0.197 0.418,-0.221 0.418,-0.245Z" style="fill-rule:nonzero;"/>
            </g>
            <g transform="matrix(18,0,0,18,89.0684,0)">
                <path d="M0.078,-0.49L0.154,-0.49L0.157,-0.411C0.172,-0.428 0.185,-0.442 0.199,-0.453C0.212,-0.465 0.225,-0.474 0.238,-0.48C0.251,-0.487 0.264,-0.492 0.277,-0.495C0.291,-0.498 0.305,-0.499 0.319,-0.499C0.369,-0.499 0.407,-0.484 0.433,-0.454C0.459,-0.424 0.472,-0.38 0.472,-0.32L0.472,-0L0.387,-0L0.387,-0.313C0.387,-0.351 0.38,-0.38 0.366,-0.398C0.351,-0.417 0.33,-0.426 0.302,-0.426C0.291,-0.426 0.281,-0.424 0.271,-0.421C0.261,-0.418 0.251,-0.413 0.24,-0.405C0.229,-0.397 0.218,-0.387 0.205,-0.374C0.193,-0.361 0.179,-0.345 0.163,-0.325L0.163,-0L0.078,-0L0.078,-0.49Z" style="fill-rule:nonzero;"/>
            </g>
        </g>
    </g>
</svg>
