<?xml version="1.0" encoding="UTF-8" standalone="no"?>
<!DOCTYPE svg PUBLIC "-//W3C//DTD SVG 1.1//EN" "http://www.w3.org/Graphics/SVG/1.1/DTD/svg11.dtd">
<svg width="100%" height="100%" viewBox="0 0 237 152" version="1.1" xmlns="http://www.w3.org/2000/svg" xmlns:xlink="http://www.w3.org/1999/xlink" xml:space="preserve" xmlns:serif="http://www.serif.com/" style="fill-rule:evenodd;clip-rule:evenodd;stroke-linejoin:round;stroke-miterlimit:2;">
    <g id="Artboard1" transform="matrix(0.968757,0,0,0.950863,-261.088,-173.899)">
        <rect x="269.508" y="182.886" width="244.19" height="159.238" style="fill:none;"/>
        <g transform="matrix(1.03225,0,0,1.05168,-42.9008,-50.4927)">
            <rect x="303.93" y="223.351" width="234.711" height="149.609" style="fill:white;"/>
        </g>
        <g transform="matrix(1.03225,0,0,1.05168,356.718,270.507)">
            <g transform="matrix(20,0,0,20,0,0)">
                <path d="M0.548,-0.638L0.331,-0L0.214,-0L0.002,-0.638L0.1,-0.638L0.238,-0.208L0.277,-0.082L0.317,-0.208L0.455,-0.638L0.548,-0.638Z" style="fill-rule:nonzero;"/>
            </g>
            <g transform="matrix(20,0,0,20,10.9961,0)">
                <path d="M0.492,-0.271C0.492,-0.259 0.492,-0.249 0.492,-0.241C0.491,-0.233 0.491,-0.225 0.49,-0.218L0.146,-0.218C0.146,-0.168 0.16,-0.129 0.188,-0.102C0.216,-0.075 0.256,-0.062 0.309,-0.062C0.323,-0.062 0.338,-0.063 0.352,-0.063C0.366,-0.065 0.38,-0.066 0.394,-0.068C0.407,-0.07 0.42,-0.072 0.432,-0.075C0.444,-0.077 0.455,-0.08 0.466,-0.083L0.466,-0.013C0.443,-0.007 0.417,-0.001 0.387,0.002C0.358,0.007 0.328,0.009 0.297,0.009C0.255,0.009 0.219,0.003 0.188,-0.008C0.158,-0.02 0.133,-0.036 0.114,-0.058C0.095,-0.079 0.08,-0.106 0.071,-0.137C0.062,-0.169 0.057,-0.204 0.057,-0.244C0.057,-0.279 0.062,-0.311 0.072,-0.342C0.082,-0.373 0.096,-0.4 0.115,-0.423C0.134,-0.446 0.158,-0.465 0.186,-0.479C0.213,-0.492 0.245,-0.499 0.28,-0.499C0.314,-0.499 0.344,-0.494 0.371,-0.483C0.397,-0.472 0.419,-0.457 0.437,-0.437C0.455,-0.417 0.469,-0.394 0.478,-0.365C0.487,-0.337 0.492,-0.306 0.492,-0.271ZM0.404,-0.283C0.405,-0.305 0.403,-0.325 0.397,-0.343C0.392,-0.361 0.384,-0.377 0.373,-0.39C0.362,-0.403 0.349,-0.413 0.333,-0.42C0.316,-0.427 0.297,-0.431 0.276,-0.431C0.257,-0.431 0.24,-0.428 0.225,-0.42C0.21,-0.413 0.197,-0.403 0.186,-0.39C0.174,-0.377 0.166,-0.361 0.159,-0.343C0.152,-0.325 0.148,-0.305 0.146,-0.283L0.404,-0.283Z" style="fill-rule:nonzero;"/>
            </g>
            <g transform="matrix(20,0,0,20,21.9922,0)">
                <path d="M0.459,-0.018C0.437,-0.01 0.414,-0.003 0.391,0C0.368,0.005 0.344,0.007 0.319,0.007C0.241,0.007 0.182,-0.014 0.14,-0.056C0.098,-0.098 0.077,-0.16 0.077,-0.24C0.077,-0.279 0.083,-0.314 0.095,-0.346C0.107,-0.377 0.124,-0.404 0.146,-0.427C0.168,-0.449 0.194,-0.466 0.224,-0.479C0.254,-0.491 0.288,-0.497 0.324,-0.497C0.35,-0.497 0.373,-0.495 0.396,-0.492C0.418,-0.488 0.439,-0.482 0.459,-0.474L0.459,-0.393C0.438,-0.404 0.416,-0.412 0.394,-0.417C0.372,-0.422 0.35,-0.425 0.326,-0.425C0.304,-0.425 0.284,-0.421 0.264,-0.412C0.245,-0.404 0.228,-0.392 0.213,-0.376C0.199,-0.361 0.187,-0.342 0.179,-0.319C0.17,-0.297 0.166,-0.271 0.166,-0.243C0.166,-0.184 0.18,-0.139 0.209,-0.11C0.238,-0.081 0.278,-0.066 0.329,-0.066C0.352,-0.066 0.375,-0.069 0.396,-0.074C0.418,-0.079 0.439,-0.087 0.459,-0.097L0.459,-0.018Z" style="fill-rule:nonzero;"/>
            </g>
            <g transform="matrix(20,0,0,20,32.9883,0)">
                <path d="M0.473,-0.007C0.454,-0.002 0.434,0.001 0.414,0.003C0.393,0.006 0.372,0.007 0.351,0.007C0.29,0.007 0.244,-0.007 0.213,-0.035C0.183,-0.063 0.168,-0.105 0.168,-0.163L0.168,-0.419L0.031,-0.419L0.031,-0.49L0.168,-0.49L0.168,-0.625L0.253,-0.647L0.253,-0.49L0.473,-0.49L0.473,-0.419L0.253,-0.419L0.253,-0.17C0.253,-0.135 0.262,-0.108 0.281,-0.091C0.3,-0.074 0.327,-0.065 0.364,-0.065C0.379,-0.065 0.396,-0.066 0.415,-0.068C0.434,-0.071 0.453,-0.075 0.473,-0.08L0.473,-0.007Z" style="fill-rule:nonzero;"/>
            </g>
            <g transform="matrix(20,0,0,20,43.9844,0)">
                <path d="M0.505,-0.249C0.505,-0.211 0.5,-0.176 0.489,-0.144C0.478,-0.112 0.463,-0.085 0.442,-0.063C0.422,-0.04 0.398,-0.022 0.369,-0.01C0.34,0.003 0.307,0.009 0.27,0.009C0.235,0.009 0.203,0.003 0.175,-0.007C0.148,-0.018 0.124,-0.035 0.104,-0.056C0.085,-0.077 0.07,-0.103 0.06,-0.134C0.05,-0.166 0.045,-0.201 0.045,-0.242C0.045,-0.28 0.05,-0.315 0.061,-0.346C0.072,-0.378 0.087,-0.405 0.107,-0.427C0.128,-0.45 0.152,-0.468 0.181,-0.48C0.21,-0.493 0.243,-0.499 0.28,-0.499C0.315,-0.499 0.346,-0.493 0.374,-0.482C0.402,-0.472 0.426,-0.456 0.445,-0.435C0.464,-0.414 0.479,-0.388 0.489,-0.356C0.5,-0.325 0.505,-0.289 0.505,-0.249ZM0.418,-0.245C0.418,-0.275 0.415,-0.302 0.408,-0.324C0.401,-0.347 0.392,-0.366 0.379,-0.381C0.367,-0.396 0.352,-0.408 0.334,-0.415C0.316,-0.423 0.297,-0.427 0.275,-0.427C0.25,-0.427 0.228,-0.422 0.209,-0.412C0.192,-0.402 0.177,-0.389 0.165,-0.372C0.154,-0.355 0.145,-0.336 0.14,-0.314C0.134,-0.292 0.132,-0.269 0.132,-0.245C0.132,-0.215 0.135,-0.188 0.142,-0.166C0.148,-0.143 0.158,-0.124 0.17,-0.108C0.183,-0.093 0.198,-0.082 0.215,-0.074C0.233,-0.067 0.253,-0.063 0.275,-0.063C0.3,-0.063 0.322,-0.068 0.34,-0.078C0.358,-0.088 0.373,-0.101 0.384,-0.118C0.396,-0.134 0.404,-0.153 0.41,-0.175C0.415,-0.197 0.418,-0.221 0.418,-0.245Z" style="fill-rule:nonzero;"/>
            </g>
            <g transform="matrix(20,0,0,20,54.9805,0)">
                <path d="M0.098,-0.49L0.176,-0.49L0.178,-0.4C0.207,-0.435 0.236,-0.46 0.264,-0.476C0.292,-0.491 0.32,-0.499 0.349,-0.499C0.4,-0.499 0.438,-0.483 0.464,-0.45C0.491,-0.417 0.503,-0.368 0.501,-0.303L0.415,-0.303C0.416,-0.346 0.41,-0.377 0.396,-0.396C0.383,-0.416 0.363,-0.426 0.337,-0.426C0.326,-0.426 0.314,-0.424 0.302,-0.419C0.291,-0.416 0.279,-0.409 0.267,-0.4C0.255,-0.391 0.242,-0.38 0.228,-0.366C0.214,-0.352 0.2,-0.335 0.184,-0.315L0.184,-0L0.098,-0L0.098,-0.49Z" style="fill-rule:nonzero;"/>
            </g>
        </g>
    </g>
</svg>
