<?xml version="1.0" encoding="UTF-8" standalone="no"?>
<!DOCTYPE svg PUBLIC "-//W3C//DTD SVG 1.1//EN" "http://www.w3.org/Graphics/SVG/1.1/DTD/svg11.dtd">
<svg width="100%" height="100%" viewBox="0 0 480 300" version="1.1" xmlns="http://www.w3.org/2000/svg" xmlns:xlink="http://www.w3.org/1999/xlink" xml:space="preserve" xmlns:serif="http://www.serif.com/" style="fill-rule:evenodd;clip-rule:evenodd;stroke-linejoin:round;stroke-miterlimit:2;">
    <g transform="matrix(0.461538,0,0,0.461538,69.0475,117.914)">
        <g transform="matrix(1.00063,0,0,0.994942,-150.263,-252.196)">
            <rect x="-1.289" y="-3.965" width="1041.59" height="653.322" style="fill:white;"/>
        </g>
        <g transform="matrix(1,0,0,1,-0.102546,50.7053)">
            <g>
                <g>
                    <g>
                        <g transform="matrix(1,0,0,1,285.898,0)">
                            <g transform="matrix(104,0,0,104,0,0)">
                                <path d="M0.487,-0.173C0.487,-0.143 0.481,-0.116 0.468,-0.093C0.456,-0.07 0.439,-0.051 0.417,-0.036C0.394,-0.021 0.368,-0.01 0.336,-0.002C0.306,0.005 0.271,0.009 0.234,0.009C0.217,0.009 0.2,0.008 0.183,0.007C0.167,0.006 0.15,0.004 0.135,0.002C0.119,0 0.105,-0.002 0.091,-0.005C0.078,-0.007 0.065,-0.01 0.054,-0.013L0.054,-0.097C0.079,-0.088 0.106,-0.081 0.136,-0.076C0.167,-0.07 0.201,-0.068 0.24,-0.068C0.268,-0.068 0.292,-0.07 0.312,-0.074C0.331,-0.079 0.347,-0.085 0.36,-0.094C0.373,-0.103 0.382,-0.113 0.387,-0.125C0.393,-0.138 0.396,-0.152 0.396,-0.168C0.396,-0.185 0.391,-0.2 0.381,-0.212C0.372,-0.224 0.359,-0.235 0.344,-0.245C0.328,-0.254 0.31,-0.263 0.29,-0.271C0.27,-0.279 0.25,-0.287 0.229,-0.296C0.208,-0.304 0.188,-0.313 0.167,-0.323C0.148,-0.333 0.13,-0.345 0.114,-0.358C0.099,-0.372 0.086,-0.388 0.076,-0.406C0.067,-0.424 0.062,-0.446 0.062,-0.471C0.062,-0.493 0.067,-0.514 0.076,-0.536C0.085,-0.557 0.099,-0.576 0.118,-0.592C0.137,-0.608 0.162,-0.622 0.192,-0.632C0.222,-0.642 0.258,-0.647 0.3,-0.647C0.311,-0.647 0.322,-0.646 0.334,-0.646C0.347,-0.645 0.36,-0.643 0.373,-0.641C0.386,-0.639 0.398,-0.638 0.411,-0.635C0.423,-0.633 0.435,-0.631 0.446,-0.628L0.446,-0.55C0.421,-0.557 0.396,-0.562 0.371,-0.566C0.346,-0.57 0.321,-0.572 0.298,-0.572C0.248,-0.572 0.211,-0.563 0.188,-0.547C0.165,-0.53 0.153,-0.508 0.153,-0.48C0.153,-0.463 0.158,-0.448 0.167,-0.436C0.177,-0.423 0.189,-0.412 0.205,-0.402C0.221,-0.393 0.238,-0.384 0.258,-0.375C0.278,-0.368 0.299,-0.36 0.32,-0.351C0.341,-0.343 0.361,-0.333 0.381,-0.323C0.401,-0.313 0.419,-0.301 0.435,-0.287C0.45,-0.273 0.463,-0.257 0.472,-0.239C0.482,-0.22 0.487,-0.198 0.487,-0.173Z" style="fill-rule:nonzero;"/>
                            </g>
                            <g transform="matrix(104,0,0,104,57.1797,0)">
                                <path d="M0.228,0.006C0.194,0.001 0.165,-0.01 0.14,-0.026C0.115,-0.043 0.094,-0.065 0.077,-0.092C0.061,-0.119 0.048,-0.151 0.04,-0.188C0.032,-0.225 0.028,-0.266 0.028,-0.311C0.028,-0.369 0.035,-0.419 0.048,-0.461C0.061,-0.504 0.079,-0.539 0.102,-0.566C0.125,-0.594 0.152,-0.614 0.183,-0.627C0.213,-0.64 0.246,-0.647 0.28,-0.647C0.321,-0.647 0.356,-0.639 0.387,-0.625C0.417,-0.61 0.443,-0.589 0.463,-0.561C0.483,-0.533 0.498,-0.499 0.508,-0.459C0.518,-0.42 0.523,-0.376 0.523,-0.326C0.523,-0.274 0.517,-0.228 0.506,-0.189C0.495,-0.15 0.48,-0.117 0.461,-0.089C0.442,-0.062 0.419,-0.041 0.393,-0.025C0.367,-0.009 0.339,0.001 0.309,0.006C0.314,0.035 0.325,0.057 0.343,0.075C0.361,0.092 0.386,0.101 0.419,0.101C0.435,0.101 0.45,0.098 0.465,0.093C0.48,0.088 0.496,0.079 0.511,0.067L0.55,0.127C0.528,0.145 0.506,0.157 0.483,0.165C0.461,0.172 0.437,0.176 0.413,0.176C0.387,0.176 0.363,0.172 0.341,0.165C0.319,0.158 0.3,0.147 0.284,0.133C0.268,0.119 0.255,0.101 0.246,0.08C0.236,0.058 0.23,0.034 0.228,0.006ZM0.433,-0.316C0.433,-0.354 0.43,-0.388 0.424,-0.419C0.418,-0.45 0.409,-0.477 0.396,-0.499C0.384,-0.521 0.367,-0.539 0.347,-0.551C0.327,-0.564 0.303,-0.57 0.275,-0.57C0.248,-0.57 0.224,-0.563 0.204,-0.55C0.185,-0.537 0.168,-0.52 0.156,-0.497C0.143,-0.475 0.134,-0.449 0.127,-0.419C0.121,-0.389 0.118,-0.358 0.118,-0.324C0.118,-0.285 0.121,-0.25 0.127,-0.219C0.133,-0.188 0.142,-0.161 0.154,-0.138C0.167,-0.116 0.183,-0.098 0.203,-0.086C0.223,-0.074 0.247,-0.068 0.275,-0.068C0.302,-0.068 0.326,-0.074 0.346,-0.087C0.366,-0.1 0.382,-0.118 0.395,-0.141C0.408,-0.163 0.417,-0.189 0.423,-0.219C0.43,-0.25 0.433,-0.282 0.433,-0.316Z" style="fill-rule:nonzero;"/>
                            </g>
                            <g transform="matrix(104,0,0,104,114.359,0)">
                                <path d="M0.481,-0L0.114,-0L0.114,-0.638L0.202,-0.638L0.202,-0.074L0.481,-0.074L0.481,-0Z" style="fill-rule:nonzero;"/>
                            </g>
                        </g>
                        <g transform="matrix(1,0,0,1,0,104)">
                            <g transform="matrix(104,0,0,104,0,0)">
                                <path d="M0.487,-0.173C0.487,-0.143 0.481,-0.116 0.468,-0.093C0.456,-0.07 0.439,-0.051 0.417,-0.036C0.394,-0.021 0.368,-0.01 0.336,-0.002C0.306,0.005 0.271,0.009 0.234,0.009C0.217,0.009 0.2,0.008 0.183,0.007C0.167,0.006 0.15,0.004 0.135,0.002C0.119,0 0.105,-0.002 0.091,-0.005C0.078,-0.007 0.065,-0.01 0.054,-0.013L0.054,-0.097C0.079,-0.088 0.106,-0.081 0.136,-0.076C0.167,-0.07 0.201,-0.068 0.24,-0.068C0.268,-0.068 0.292,-0.07 0.312,-0.074C0.331,-0.079 0.347,-0.085 0.36,-0.094C0.373,-0.103 0.382,-0.113 0.387,-0.125C0.393,-0.138 0.396,-0.152 0.396,-0.168C0.396,-0.185 0.391,-0.2 0.381,-0.212C0.372,-0.224 0.359,-0.235 0.344,-0.245C0.328,-0.254 0.31,-0.263 0.29,-0.271C0.27,-0.279 0.25,-0.287 0.229,-0.296C0.208,-0.304 0.188,-0.313 0.167,-0.323C0.148,-0.333 0.13,-0.345 0.114,-0.358C0.099,-0.372 0.086,-0.388 0.076,-0.406C0.067,-0.424 0.062,-0.446 0.062,-0.471C0.062,-0.493 0.067,-0.514 0.076,-0.536C0.085,-0.557 0.099,-0.576 0.118,-0.592C0.137,-0.608 0.162,-0.622 0.192,-0.632C0.222,-0.642 0.258,-0.647 0.3,-0.647C0.311,-0.647 0.322,-0.646 0.334,-0.646C0.347,-0.645 0.36,-0.643 0.373,-0.641C0.386,-0.639 0.398,-0.638 0.411,-0.635C0.423,-0.633 0.435,-0.631 0.446,-0.628L0.446,-0.55C0.421,-0.557 0.396,-0.562 0.371,-0.566C0.346,-0.57 0.321,-0.572 0.298,-0.572C0.248,-0.572 0.211,-0.563 0.188,-0.547C0.165,-0.53 0.153,-0.508 0.153,-0.48C0.153,-0.463 0.158,-0.448 0.167,-0.436C0.177,-0.423 0.189,-0.412 0.205,-0.402C0.221,-0.393 0.238,-0.384 0.258,-0.375C0.278,-0.368 0.299,-0.36 0.32,-0.351C0.341,-0.343 0.361,-0.333 0.381,-0.323C0.401,-0.313 0.419,-0.301 0.435,-0.287C0.45,-0.273 0.463,-0.257 0.472,-0.239C0.482,-0.22 0.487,-0.198 0.487,-0.173Z" style="fill-rule:nonzero;"/>
                            </g>
                            <g transform="matrix(104,0,0,104,57.1797,0)">
                                <path d="M0.492,-0.271C0.492,-0.259 0.492,-0.249 0.492,-0.241C0.491,-0.233 0.491,-0.225 0.49,-0.218L0.146,-0.218C0.146,-0.168 0.16,-0.129 0.188,-0.102C0.216,-0.075 0.256,-0.062 0.309,-0.062C0.323,-0.062 0.338,-0.063 0.352,-0.063C0.366,-0.065 0.38,-0.066 0.394,-0.068C0.407,-0.07 0.42,-0.072 0.432,-0.075C0.444,-0.077 0.455,-0.08 0.466,-0.083L0.466,-0.013C0.443,-0.007 0.417,-0.001 0.387,0.002C0.358,0.007 0.328,0.009 0.297,0.009C0.255,0.009 0.219,0.003 0.188,-0.008C0.158,-0.02 0.133,-0.036 0.114,-0.058C0.095,-0.079 0.08,-0.106 0.071,-0.137C0.062,-0.169 0.057,-0.204 0.057,-0.244C0.057,-0.279 0.062,-0.311 0.072,-0.342C0.082,-0.373 0.096,-0.4 0.115,-0.423C0.134,-0.446 0.158,-0.465 0.186,-0.479C0.213,-0.492 0.245,-0.499 0.28,-0.499C0.314,-0.499 0.344,-0.494 0.371,-0.483C0.397,-0.472 0.419,-0.457 0.437,-0.437C0.455,-0.417 0.469,-0.394 0.478,-0.365C0.487,-0.337 0.492,-0.306 0.492,-0.271ZM0.404,-0.283C0.405,-0.305 0.403,-0.325 0.397,-0.343C0.392,-0.361 0.384,-0.377 0.373,-0.39C0.362,-0.403 0.349,-0.413 0.333,-0.42C0.316,-0.427 0.297,-0.431 0.276,-0.431C0.257,-0.431 0.24,-0.428 0.225,-0.42C0.21,-0.413 0.197,-0.403 0.186,-0.39C0.174,-0.377 0.166,-0.361 0.159,-0.343C0.152,-0.325 0.148,-0.305 0.146,-0.283L0.404,-0.283Z" style="fill-rule:nonzero;"/>
                            </g>
                            <g transform="matrix(104,0,0,104,114.359,0)">
                                <path d="M0.393,-0L0.391,-0.066C0.364,-0.04 0.337,-0.021 0.31,-0.009C0.282,0.003 0.253,0.009 0.223,0.009C0.195,0.009 0.171,0.005 0.151,-0.002C0.132,-0.009 0.115,-0.019 0.102,-0.031C0.089,-0.044 0.08,-0.059 0.074,-0.076C0.068,-0.093 0.065,-0.111 0.065,-0.131C0.065,-0.18 0.083,-0.218 0.12,-0.246C0.156,-0.274 0.211,-0.288 0.282,-0.288L0.384,-0.288L0.384,-0.331C0.384,-0.36 0.375,-0.383 0.356,-0.4C0.337,-0.418 0.309,-0.427 0.271,-0.427C0.243,-0.427 0.216,-0.424 0.189,-0.417C0.162,-0.411 0.135,-0.403 0.106,-0.391L0.106,-0.468C0.117,-0.472 0.129,-0.475 0.142,-0.479C0.155,-0.483 0.169,-0.486 0.184,-0.489C0.198,-0.492 0.214,-0.494 0.229,-0.496C0.245,-0.498 0.262,-0.499 0.278,-0.499C0.307,-0.499 0.334,-0.496 0.358,-0.489C0.382,-0.483 0.402,-0.473 0.418,-0.459C0.435,-0.446 0.447,-0.429 0.456,-0.409C0.465,-0.389 0.469,-0.365 0.469,-0.338L0.469,-0L0.393,-0ZM0.384,-0.223L0.276,-0.223C0.255,-0.223 0.236,-0.221 0.221,-0.217C0.206,-0.213 0.193,-0.207 0.184,-0.199C0.174,-0.191 0.167,-0.181 0.162,-0.17C0.157,-0.16 0.155,-0.147 0.155,-0.134C0.155,-0.124 0.156,-0.115 0.159,-0.106C0.162,-0.098 0.167,-0.09 0.173,-0.083C0.18,-0.077 0.188,-0.072 0.199,-0.068C0.209,-0.064 0.222,-0.062 0.237,-0.062C0.256,-0.062 0.279,-0.068 0.304,-0.08C0.329,-0.092 0.356,-0.111 0.384,-0.136L0.384,-0.223Z" style="fill-rule:nonzero;"/>
                            </g>
                            <g transform="matrix(104,0,0,104,171.539,0)">
                                <path d="M0.098,-0.49L0.176,-0.49L0.178,-0.4C0.207,-0.435 0.236,-0.46 0.264,-0.476C0.292,-0.491 0.32,-0.499 0.349,-0.499C0.4,-0.499 0.438,-0.483 0.464,-0.45C0.491,-0.417 0.503,-0.368 0.501,-0.303L0.415,-0.303C0.416,-0.346 0.41,-0.377 0.396,-0.396C0.383,-0.416 0.363,-0.426 0.337,-0.426C0.326,-0.426 0.314,-0.424 0.302,-0.419C0.291,-0.416 0.279,-0.409 0.267,-0.4C0.255,-0.391 0.242,-0.38 0.228,-0.366C0.214,-0.352 0.2,-0.335 0.184,-0.315L0.184,-0L0.098,-0L0.098,-0.49Z" style="fill-rule:nonzero;"/>
                            </g>
                            <g transform="matrix(104,0,0,104,228.719,0)">
                                <path d="M0.459,-0.018C0.437,-0.01 0.414,-0.003 0.391,0C0.368,0.005 0.344,0.007 0.319,0.007C0.241,0.007 0.182,-0.014 0.14,-0.056C0.098,-0.098 0.077,-0.16 0.077,-0.24C0.077,-0.279 0.083,-0.314 0.095,-0.346C0.107,-0.377 0.124,-0.404 0.146,-0.427C0.168,-0.449 0.194,-0.466 0.224,-0.479C0.254,-0.491 0.288,-0.497 0.324,-0.497C0.35,-0.497 0.373,-0.495 0.396,-0.492C0.418,-0.488 0.439,-0.482 0.459,-0.474L0.459,-0.393C0.438,-0.404 0.416,-0.412 0.394,-0.417C0.372,-0.422 0.35,-0.425 0.326,-0.425C0.304,-0.425 0.284,-0.421 0.264,-0.412C0.245,-0.404 0.228,-0.392 0.213,-0.376C0.199,-0.361 0.187,-0.342 0.179,-0.319C0.17,-0.297 0.166,-0.271 0.166,-0.243C0.166,-0.184 0.18,-0.139 0.209,-0.11C0.238,-0.081 0.278,-0.066 0.329,-0.066C0.352,-0.066 0.375,-0.069 0.396,-0.074C0.418,-0.079 0.439,-0.087 0.459,-0.097L0.459,-0.018Z" style="fill-rule:nonzero;"/>
                            </g>
                            <g transform="matrix(104,0,0,104,285.898,0)">
                                <path d="M0.472,-0L0.387,-0L0.387,-0.313C0.387,-0.351 0.38,-0.379 0.366,-0.397C0.352,-0.416 0.332,-0.426 0.305,-0.426C0.294,-0.426 0.283,-0.424 0.273,-0.421C0.263,-0.418 0.253,-0.413 0.242,-0.405C0.231,-0.397 0.22,-0.387 0.207,-0.374C0.194,-0.361 0.18,-0.345 0.163,-0.325L0.163,-0L0.078,-0L0.078,-0.69L0.163,-0.69L0.163,-0.49L0.16,-0.413C0.174,-0.429 0.187,-0.442 0.199,-0.453C0.212,-0.464 0.225,-0.473 0.238,-0.48C0.251,-0.487 0.264,-0.492 0.277,-0.495C0.291,-0.498 0.305,-0.499 0.319,-0.499C0.368,-0.499 0.405,-0.484 0.432,-0.454C0.459,-0.424 0.472,-0.38 0.472,-0.32L0.472,-0Z" style="fill-rule:nonzero;"/>
                            </g>
                            <g transform="matrix(104,0,0,104,400.258,0)">
                                <path d="M0.5,-0.333C0.5,-0.29 0.496,-0.252 0.487,-0.217C0.479,-0.182 0.467,-0.151 0.451,-0.123L0.55,-0L0.437,-0L0.394,-0.053C0.371,-0.034 0.345,-0.019 0.316,-0.008C0.288,0.002 0.257,0.007 0.224,0.007C0.193,0.007 0.165,0.002 0.14,-0.006C0.116,-0.015 0.095,-0.027 0.079,-0.043C0.062,-0.059 0.049,-0.078 0.041,-0.1C0.032,-0.121 0.028,-0.146 0.028,-0.172C0.028,-0.197 0.031,-0.219 0.038,-0.238C0.044,-0.257 0.053,-0.275 0.064,-0.29C0.075,-0.305 0.088,-0.318 0.102,-0.33C0.117,-0.341 0.132,-0.352 0.148,-0.362L0.137,-0.377C0.119,-0.399 0.105,-0.422 0.096,-0.445C0.087,-0.468 0.083,-0.491 0.083,-0.513C0.083,-0.537 0.087,-0.558 0.094,-0.578C0.102,-0.598 0.113,-0.615 0.127,-0.629C0.142,-0.644 0.16,-0.655 0.181,-0.664C0.202,-0.672 0.227,-0.676 0.254,-0.676C0.28,-0.676 0.303,-0.672 0.323,-0.665C0.343,-0.657 0.36,-0.647 0.373,-0.634C0.386,-0.621 0.396,-0.606 0.403,-0.588C0.41,-0.571 0.413,-0.553 0.413,-0.534C0.413,-0.51 0.409,-0.488 0.4,-0.47C0.392,-0.451 0.381,-0.435 0.368,-0.421C0.354,-0.407 0.339,-0.394 0.321,-0.383C0.304,-0.372 0.286,-0.361 0.268,-0.351L0.394,-0.194C0.408,-0.232 0.415,-0.279 0.414,-0.333L0.5,-0.333ZM0.116,-0.182C0.116,-0.165 0.119,-0.149 0.125,-0.135C0.13,-0.12 0.138,-0.108 0.148,-0.098C0.158,-0.088 0.171,-0.08 0.186,-0.074C0.201,-0.069 0.217,-0.066 0.236,-0.066C0.278,-0.066 0.315,-0.082 0.347,-0.113L0.192,-0.307C0.181,-0.3 0.171,-0.292 0.161,-0.283C0.152,-0.275 0.144,-0.265 0.137,-0.255C0.131,-0.245 0.125,-0.234 0.122,-0.222C0.118,-0.21 0.116,-0.197 0.116,-0.182ZM0.327,-0.526C0.327,-0.55 0.32,-0.569 0.307,-0.583C0.293,-0.597 0.274,-0.604 0.251,-0.604C0.238,-0.604 0.226,-0.602 0.216,-0.598C0.207,-0.593 0.198,-0.588 0.191,-0.58C0.185,-0.573 0.179,-0.564 0.176,-0.554C0.173,-0.544 0.171,-0.533 0.171,-0.521C0.171,-0.503 0.174,-0.487 0.181,-0.472C0.187,-0.457 0.198,-0.44 0.212,-0.422L0.225,-0.405C0.239,-0.413 0.252,-0.42 0.265,-0.428C0.277,-0.436 0.288,-0.445 0.297,-0.455C0.306,-0.464 0.314,-0.475 0.319,-0.486C0.324,-0.498 0.327,-0.511 0.327,-0.526Z" style="fill-rule:nonzero;"/>
                            </g>
                            <g transform="matrix(104,0,0,104,514.617,0)">
                                <path d="M0.487,-0.173C0.487,-0.143 0.481,-0.116 0.468,-0.093C0.456,-0.07 0.439,-0.051 0.417,-0.036C0.394,-0.021 0.368,-0.01 0.336,-0.002C0.306,0.005 0.271,0.009 0.234,0.009C0.217,0.009 0.2,0.008 0.183,0.007C0.167,0.006 0.15,0.004 0.135,0.002C0.119,0 0.105,-0.002 0.091,-0.005C0.078,-0.007 0.065,-0.01 0.054,-0.013L0.054,-0.097C0.079,-0.088 0.106,-0.081 0.136,-0.076C0.167,-0.07 0.201,-0.068 0.24,-0.068C0.268,-0.068 0.292,-0.07 0.312,-0.074C0.331,-0.079 0.347,-0.085 0.36,-0.094C0.373,-0.103 0.382,-0.113 0.387,-0.125C0.393,-0.138 0.396,-0.152 0.396,-0.168C0.396,-0.185 0.391,-0.2 0.381,-0.212C0.372,-0.224 0.359,-0.235 0.344,-0.245C0.328,-0.254 0.31,-0.263 0.29,-0.271C0.27,-0.279 0.25,-0.287 0.229,-0.296C0.208,-0.304 0.188,-0.313 0.167,-0.323C0.148,-0.333 0.13,-0.345 0.114,-0.358C0.099,-0.372 0.086,-0.388 0.076,-0.406C0.067,-0.424 0.062,-0.446 0.062,-0.471C0.062,-0.493 0.067,-0.514 0.076,-0.536C0.085,-0.557 0.099,-0.576 0.118,-0.592C0.137,-0.608 0.162,-0.622 0.192,-0.632C0.222,-0.642 0.258,-0.647 0.3,-0.647C0.311,-0.647 0.322,-0.646 0.334,-0.646C0.347,-0.645 0.36,-0.643 0.373,-0.641C0.386,-0.639 0.398,-0.638 0.411,-0.635C0.423,-0.633 0.435,-0.631 0.446,-0.628L0.446,-0.55C0.421,-0.557 0.396,-0.562 0.371,-0.566C0.346,-0.57 0.321,-0.572 0.298,-0.572C0.248,-0.572 0.211,-0.563 0.188,-0.547C0.165,-0.53 0.153,-0.508 0.153,-0.48C0.153,-0.463 0.158,-0.448 0.167,-0.436C0.177,-0.423 0.189,-0.412 0.205,-0.402C0.221,-0.393 0.238,-0.384 0.258,-0.375C0.278,-0.368 0.299,-0.36 0.32,-0.351C0.341,-0.343 0.361,-0.333 0.381,-0.323C0.401,-0.313 0.419,-0.301 0.435,-0.287C0.45,-0.273 0.463,-0.257 0.472,-0.239C0.482,-0.22 0.487,-0.198 0.487,-0.173Z" style="fill-rule:nonzero;"/>
                            </g>
                            <g transform="matrix(104,0,0,104,571.797,0)">
                                <path d="M0.505,-0.249C0.505,-0.211 0.5,-0.176 0.489,-0.144C0.478,-0.112 0.463,-0.085 0.442,-0.063C0.422,-0.04 0.398,-0.022 0.369,-0.01C0.34,0.003 0.307,0.009 0.27,0.009C0.235,0.009 0.203,0.003 0.175,-0.007C0.148,-0.018 0.124,-0.035 0.104,-0.056C0.085,-0.077 0.07,-0.103 0.06,-0.134C0.05,-0.166 0.045,-0.201 0.045,-0.242C0.045,-0.28 0.05,-0.315 0.061,-0.346C0.072,-0.378 0.087,-0.405 0.107,-0.427C0.128,-0.45 0.152,-0.468 0.181,-0.48C0.21,-0.493 0.243,-0.499 0.28,-0.499C0.315,-0.499 0.346,-0.493 0.374,-0.482C0.402,-0.472 0.426,-0.456 0.445,-0.435C0.464,-0.414 0.479,-0.388 0.489,-0.356C0.5,-0.325 0.505,-0.289 0.505,-0.249ZM0.418,-0.245C0.418,-0.275 0.415,-0.302 0.408,-0.324C0.401,-0.347 0.392,-0.366 0.379,-0.381C0.367,-0.396 0.352,-0.408 0.334,-0.415C0.316,-0.423 0.297,-0.427 0.275,-0.427C0.25,-0.427 0.228,-0.422 0.209,-0.412C0.192,-0.402 0.177,-0.389 0.165,-0.372C0.154,-0.355 0.145,-0.336 0.14,-0.314C0.134,-0.292 0.132,-0.269 0.132,-0.245C0.132,-0.215 0.135,-0.188 0.142,-0.166C0.148,-0.143 0.158,-0.124 0.17,-0.108C0.183,-0.093 0.198,-0.082 0.215,-0.074C0.233,-0.067 0.253,-0.063 0.275,-0.063C0.3,-0.063 0.322,-0.068 0.34,-0.078C0.358,-0.088 0.373,-0.101 0.384,-0.118C0.396,-0.134 0.404,-0.153 0.41,-0.175C0.415,-0.197 0.418,-0.221 0.418,-0.245Z" style="fill-rule:nonzero;"/>
                            </g>
                            <g transform="matrix(104,0,0,104,628.977,0)">
                                <path d="M0.098,-0.49L0.176,-0.49L0.178,-0.4C0.207,-0.435 0.236,-0.46 0.264,-0.476C0.292,-0.491 0.32,-0.499 0.349,-0.499C0.4,-0.499 0.438,-0.483 0.464,-0.45C0.491,-0.417 0.503,-0.368 0.501,-0.303L0.415,-0.303C0.416,-0.346 0.41,-0.377 0.396,-0.396C0.383,-0.416 0.363,-0.426 0.337,-0.426C0.326,-0.426 0.314,-0.424 0.302,-0.419C0.291,-0.416 0.279,-0.409 0.267,-0.4C0.255,-0.391 0.242,-0.38 0.228,-0.366C0.214,-0.352 0.2,-0.335 0.184,-0.315L0.184,-0L0.098,-0L0.098,-0.49Z" style="fill-rule:nonzero;"/>
                            </g>
                            <g transform="matrix(104,0,0,104,686.156,0)">
                                <path d="M0.473,-0.007C0.454,-0.002 0.434,0.001 0.414,0.003C0.393,0.006 0.372,0.007 0.351,0.007C0.29,0.007 0.244,-0.007 0.213,-0.035C0.183,-0.063 0.168,-0.105 0.168,-0.163L0.168,-0.419L0.031,-0.419L0.031,-0.49L0.168,-0.49L0.168,-0.625L0.253,-0.647L0.253,-0.49L0.473,-0.49L0.473,-0.419L0.253,-0.419L0.253,-0.17C0.253,-0.135 0.262,-0.108 0.281,-0.091C0.3,-0.074 0.327,-0.065 0.364,-0.065C0.379,-0.065 0.396,-0.066 0.415,-0.068C0.434,-0.071 0.453,-0.075 0.473,-0.08L0.473,-0.007Z" style="fill-rule:nonzero;"/>
                            </g>
                        </g>
                    </g>
                </g>
            </g>
        </g>
    </g>
</svg>
