<?xml version="1.0" encoding="UTF-8" standalone="no"?>
<!DOCTYPE svg PUBLIC "-//W3C//DTD SVG 1.1//EN" "http://www.w3.org/Graphics/SVG/1.1/DTD/svg11.dtd">
<svg width="100%" height="100%" viewBox="0 0 480 300" version="1.1" xmlns="http://www.w3.org/2000/svg" xmlns:xlink="http://www.w3.org/1999/xlink" xml:space="preserve" xmlns:serif="http://www.serif.com/" style="fill-rule:evenodd;clip-rule:evenodd;stroke-linejoin:round;stroke-miterlimit:2;">
    <g transform="matrix(0.461538,0,0,0.461538,69.0475,117.914)">
        <g transform="matrix(1.00063,0,0,0.994942,-150.263,-252.196)">
            <rect x="-1.289" y="-3.965" width="1041.59" height="653.322" style="fill:white;"/>
        </g>
        <g transform="matrix(1,0,0,1,84.6772,94.9865)">
            <g>
                <g>
                    <g transform="matrix(104,0,0,104,0,0)">
                        <path d="M0.487,-0.173C0.487,-0.143 0.481,-0.116 0.468,-0.093C0.456,-0.07 0.439,-0.051 0.417,-0.036C0.394,-0.021 0.368,-0.01 0.336,-0.002C0.306,0.005 0.271,0.009 0.234,0.009C0.217,0.009 0.2,0.008 0.183,0.007C0.167,0.006 0.15,0.004 0.135,0.002C0.119,0 0.105,-0.002 0.091,-0.005C0.078,-0.007 0.065,-0.01 0.054,-0.013L0.054,-0.097C0.079,-0.088 0.106,-0.081 0.136,-0.076C0.167,-0.07 0.201,-0.068 0.24,-0.068C0.268,-0.068 0.292,-0.07 0.312,-0.074C0.331,-0.079 0.347,-0.085 0.36,-0.094C0.373,-0.103 0.382,-0.113 0.387,-0.125C0.393,-0.138 0.396,-0.152 0.396,-0.168C0.396,-0.185 0.391,-0.2 0.381,-0.212C0.372,-0.224 0.359,-0.235 0.344,-0.245C0.328,-0.254 0.31,-0.263 0.29,-0.271C0.27,-0.279 0.25,-0.287 0.229,-0.296C0.208,-0.304 0.188,-0.313 0.167,-0.323C0.148,-0.333 0.13,-0.345 0.114,-0.358C0.099,-0.372 0.086,-0.388 0.076,-0.406C0.067,-0.424 0.062,-0.446 0.062,-0.471C0.062,-0.493 0.067,-0.514 0.076,-0.536C0.085,-0.557 0.099,-0.576 0.118,-0.592C0.137,-0.608 0.162,-0.622 0.192,-0.632C0.222,-0.642 0.258,-0.647 0.3,-0.647C0.311,-0.647 0.322,-0.646 0.334,-0.646C0.347,-0.645 0.36,-0.643 0.373,-0.641C0.386,-0.639 0.398,-0.638 0.411,-0.635C0.423,-0.633 0.435,-0.631 0.446,-0.628L0.446,-0.55C0.421,-0.557 0.396,-0.562 0.371,-0.566C0.346,-0.57 0.321,-0.572 0.298,-0.572C0.248,-0.572 0.211,-0.563 0.188,-0.547C0.165,-0.53 0.153,-0.508 0.153,-0.48C0.153,-0.463 0.158,-0.448 0.167,-0.436C0.177,-0.423 0.189,-0.412 0.205,-0.402C0.221,-0.393 0.238,-0.384 0.258,-0.375C0.278,-0.368 0.299,-0.36 0.32,-0.351C0.341,-0.343 0.361,-0.333 0.381,-0.323C0.401,-0.313 0.419,-0.301 0.435,-0.287C0.45,-0.273 0.463,-0.257 0.472,-0.239C0.482,-0.22 0.487,-0.198 0.487,-0.173Z" style="fill-rule:nonzero;"/>
                    </g>
                    <g transform="matrix(104,0,0,104,57.1797,0)">
                        <path d="M0.228,0.006C0.194,0.001 0.165,-0.01 0.14,-0.026C0.115,-0.043 0.094,-0.065 0.077,-0.092C0.061,-0.119 0.048,-0.151 0.04,-0.188C0.032,-0.225 0.028,-0.266 0.028,-0.311C0.028,-0.369 0.035,-0.419 0.048,-0.461C0.061,-0.504 0.079,-0.539 0.102,-0.566C0.125,-0.594 0.152,-0.614 0.183,-0.627C0.213,-0.64 0.246,-0.647 0.28,-0.647C0.321,-0.647 0.356,-0.639 0.387,-0.625C0.417,-0.61 0.443,-0.589 0.463,-0.561C0.483,-0.533 0.498,-0.499 0.508,-0.459C0.518,-0.42 0.523,-0.376 0.523,-0.326C0.523,-0.274 0.517,-0.228 0.506,-0.189C0.495,-0.15 0.48,-0.117 0.461,-0.089C0.442,-0.062 0.419,-0.041 0.393,-0.025C0.367,-0.009 0.339,0.001 0.309,0.006C0.314,0.035 0.325,0.057 0.343,0.075C0.361,0.092 0.386,0.101 0.419,0.101C0.435,0.101 0.45,0.098 0.465,0.093C0.48,0.088 0.496,0.079 0.511,0.067L0.55,0.127C0.528,0.145 0.506,0.157 0.483,0.165C0.461,0.172 0.437,0.176 0.413,0.176C0.387,0.176 0.363,0.172 0.341,0.165C0.319,0.158 0.3,0.147 0.284,0.133C0.268,0.119 0.255,0.101 0.246,0.08C0.236,0.058 0.23,0.034 0.228,0.006ZM0.433,-0.316C0.433,-0.354 0.43,-0.388 0.424,-0.419C0.418,-0.45 0.409,-0.477 0.396,-0.499C0.384,-0.521 0.367,-0.539 0.347,-0.551C0.327,-0.564 0.303,-0.57 0.275,-0.57C0.248,-0.57 0.224,-0.563 0.204,-0.55C0.185,-0.537 0.168,-0.52 0.156,-0.497C0.143,-0.475 0.134,-0.449 0.127,-0.419C0.121,-0.389 0.118,-0.358 0.118,-0.324C0.118,-0.285 0.121,-0.25 0.127,-0.219C0.133,-0.188 0.142,-0.161 0.154,-0.138C0.167,-0.116 0.183,-0.098 0.203,-0.086C0.223,-0.074 0.247,-0.068 0.275,-0.068C0.302,-0.068 0.326,-0.074 0.346,-0.087C0.366,-0.1 0.382,-0.118 0.395,-0.141C0.408,-0.163 0.417,-0.189 0.423,-0.219C0.43,-0.25 0.433,-0.282 0.433,-0.316Z" style="fill-rule:nonzero;"/>
                    </g>
                    <g transform="matrix(104,0,0,104,114.359,0)">
                        <path d="M0.481,-0L0.114,-0L0.114,-0.638L0.202,-0.638L0.202,-0.074L0.481,-0.074L0.481,-0Z" style="fill-rule:nonzero;"/>
                    </g>
                    <g transform="matrix(104,0,0,104,228.719,0)">
                        <path d="M0.497,-0.222C0.497,-0.187 0.492,-0.155 0.482,-0.126C0.472,-0.098 0.458,-0.074 0.438,-0.054C0.419,-0.034 0.396,-0.018 0.368,-0.007C0.34,0.003 0.308,0.009 0.272,0.009C0.232,0.009 0.199,0.004 0.171,-0.007C0.143,-0.017 0.121,-0.032 0.103,-0.051C0.086,-0.07 0.073,-0.093 0.065,-0.12C0.057,-0.146 0.053,-0.176 0.053,-0.209L0.053,-0.638L0.14,-0.638L0.14,-0.216C0.14,-0.191 0.142,-0.169 0.147,-0.15C0.152,-0.131 0.16,-0.115 0.17,-0.103C0.181,-0.09 0.195,-0.08 0.212,-0.074C0.229,-0.067 0.25,-0.064 0.275,-0.064C0.321,-0.064 0.355,-0.077 0.377,-0.104C0.399,-0.131 0.41,-0.168 0.41,-0.217L0.41,-0.638L0.497,-0.638L0.497,-0.222Z" style="fill-rule:nonzero;"/>
                    </g>
                    <g transform="matrix(104,0,0,104,285.898,0)">
                        <path d="M0.497,-0.254C0.497,-0.21 0.491,-0.172 0.479,-0.14C0.466,-0.107 0.45,-0.08 0.428,-0.059C0.407,-0.037 0.381,-0.021 0.352,-0.01C0.323,0 0.291,0.006 0.257,0.006C0.241,0.006 0.226,0.005 0.21,0.003C0.195,0.002 0.179,-0.001 0.163,-0.005L0.163,0.2L0.078,0.2L0.078,-0.49L0.154,-0.49L0.159,-0.408C0.184,-0.442 0.21,-0.465 0.237,-0.479C0.265,-0.492 0.295,-0.499 0.327,-0.499C0.355,-0.499 0.38,-0.493 0.401,-0.481C0.422,-0.47 0.44,-0.453 0.454,-0.432C0.468,-0.41 0.479,-0.385 0.486,-0.354C0.493,-0.325 0.497,-0.291 0.497,-0.254ZM0.41,-0.25C0.41,-0.276 0.408,-0.299 0.404,-0.321C0.401,-0.342 0.395,-0.361 0.387,-0.376C0.379,-0.391 0.368,-0.403 0.355,-0.412C0.343,-0.42 0.328,-0.425 0.31,-0.425C0.299,-0.425 0.288,-0.423 0.277,-0.419C0.266,-0.416 0.255,-0.41 0.243,-0.402C0.231,-0.395 0.218,-0.384 0.205,-0.371C0.192,-0.358 0.178,-0.341 0.163,-0.322L0.163,-0.084C0.179,-0.077 0.195,-0.072 0.212,-0.068C0.23,-0.065 0.247,-0.063 0.263,-0.063C0.309,-0.063 0.345,-0.078 0.371,-0.109C0.397,-0.141 0.41,-0.188 0.41,-0.25Z" style="fill-rule:nonzero;"/>
                    </g>
                    <g transform="matrix(104,0,0,104,343.078,0)">
                        <path d="M0.053,-0.235C0.053,-0.277 0.059,-0.313 0.07,-0.346C0.082,-0.378 0.098,-0.406 0.119,-0.428C0.14,-0.45 0.165,-0.467 0.194,-0.479C0.224,-0.49 0.257,-0.496 0.293,-0.496C0.309,-0.496 0.324,-0.495 0.339,-0.493C0.354,-0.491 0.369,-0.488 0.384,-0.484L0.384,-0.69L0.469,-0.69L0.469,-0L0.393,-0L0.39,-0.093C0.366,-0.058 0.341,-0.033 0.313,-0.016C0.285,0 0.255,0.009 0.223,0.009C0.195,0.009 0.17,0.003 0.149,-0.009C0.128,-0.021 0.11,-0.037 0.096,-0.058C0.082,-0.08 0.071,-0.105 0.064,-0.135C0.057,-0.165 0.053,-0.198 0.053,-0.235ZM0.14,-0.24C0.14,-0.181 0.149,-0.137 0.166,-0.107C0.184,-0.078 0.208,-0.064 0.24,-0.064C0.262,-0.064 0.284,-0.074 0.308,-0.093C0.332,-0.112 0.357,-0.14 0.384,-0.178L0.384,-0.406C0.37,-0.412 0.354,-0.417 0.337,-0.42C0.32,-0.424 0.304,-0.426 0.287,-0.426C0.241,-0.426 0.205,-0.411 0.179,-0.381C0.153,-0.351 0.14,-0.304 0.14,-0.24Z" style="fill-rule:nonzero;"/>
                    </g>
                    <g transform="matrix(104,0,0,104,400.258,0)">
                        <path d="M0.393,-0L0.391,-0.066C0.364,-0.04 0.337,-0.021 0.31,-0.009C0.282,0.003 0.253,0.009 0.223,0.009C0.195,0.009 0.171,0.005 0.151,-0.002C0.132,-0.009 0.115,-0.019 0.102,-0.031C0.089,-0.044 0.08,-0.059 0.074,-0.076C0.068,-0.093 0.065,-0.111 0.065,-0.131C0.065,-0.18 0.083,-0.218 0.12,-0.246C0.156,-0.274 0.211,-0.288 0.282,-0.288L0.384,-0.288L0.384,-0.331C0.384,-0.36 0.375,-0.383 0.356,-0.4C0.337,-0.418 0.309,-0.427 0.271,-0.427C0.243,-0.427 0.216,-0.424 0.189,-0.417C0.162,-0.411 0.135,-0.403 0.106,-0.391L0.106,-0.468C0.117,-0.472 0.129,-0.475 0.142,-0.479C0.155,-0.483 0.169,-0.486 0.184,-0.489C0.198,-0.492 0.214,-0.494 0.229,-0.496C0.245,-0.498 0.262,-0.499 0.278,-0.499C0.307,-0.499 0.334,-0.496 0.358,-0.489C0.382,-0.483 0.402,-0.473 0.418,-0.459C0.435,-0.446 0.447,-0.429 0.456,-0.409C0.465,-0.389 0.469,-0.365 0.469,-0.338L0.469,-0L0.393,-0ZM0.384,-0.223L0.276,-0.223C0.255,-0.223 0.236,-0.221 0.221,-0.217C0.206,-0.213 0.193,-0.207 0.184,-0.199C0.174,-0.191 0.167,-0.181 0.162,-0.17C0.157,-0.16 0.155,-0.147 0.155,-0.134C0.155,-0.124 0.156,-0.115 0.159,-0.106C0.162,-0.098 0.167,-0.09 0.173,-0.083C0.18,-0.077 0.188,-0.072 0.199,-0.068C0.209,-0.064 0.222,-0.062 0.237,-0.062C0.256,-0.062 0.279,-0.068 0.304,-0.08C0.329,-0.092 0.356,-0.111 0.384,-0.136L0.384,-0.223Z" style="fill-rule:nonzero;"/>
                    </g>
                    <g transform="matrix(104,0,0,104,457.438,0)">
                        <path d="M0.473,-0.007C0.454,-0.002 0.434,0.001 0.414,0.003C0.393,0.006 0.372,0.007 0.351,0.007C0.29,0.007 0.244,-0.007 0.213,-0.035C0.183,-0.063 0.168,-0.105 0.168,-0.163L0.168,-0.419L0.031,-0.419L0.031,-0.49L0.168,-0.49L0.168,-0.625L0.253,-0.647L0.253,-0.49L0.473,-0.49L0.473,-0.419L0.253,-0.419L0.253,-0.17C0.253,-0.135 0.262,-0.108 0.281,-0.091C0.3,-0.074 0.327,-0.065 0.364,-0.065C0.379,-0.065 0.396,-0.066 0.415,-0.068C0.434,-0.071 0.453,-0.075 0.473,-0.08L0.473,-0.007Z" style="fill-rule:nonzero;"/>
                    </g>
                    <g transform="matrix(104,0,0,104,514.617,0)">
                        <path d="M0.492,-0.271C0.492,-0.259 0.492,-0.249 0.492,-0.241C0.491,-0.233 0.491,-0.225 0.49,-0.218L0.146,-0.218C0.146,-0.168 0.16,-0.129 0.188,-0.102C0.216,-0.075 0.256,-0.062 0.309,-0.062C0.323,-0.062 0.338,-0.063 0.352,-0.063C0.366,-0.065 0.38,-0.066 0.394,-0.068C0.407,-0.07 0.42,-0.072 0.432,-0.075C0.444,-0.077 0.455,-0.08 0.466,-0.083L0.466,-0.013C0.443,-0.007 0.417,-0.001 0.387,0.002C0.358,0.007 0.328,0.009 0.297,0.009C0.255,0.009 0.219,0.003 0.188,-0.008C0.158,-0.02 0.133,-0.036 0.114,-0.058C0.095,-0.079 0.08,-0.106 0.071,-0.137C0.062,-0.169 0.057,-0.204 0.057,-0.244C0.057,-0.279 0.062,-0.311 0.072,-0.342C0.082,-0.373 0.096,-0.4 0.115,-0.423C0.134,-0.446 0.158,-0.465 0.186,-0.479C0.213,-0.492 0.245,-0.499 0.28,-0.499C0.314,-0.499 0.344,-0.494 0.371,-0.483C0.397,-0.472 0.419,-0.457 0.437,-0.437C0.455,-0.417 0.469,-0.394 0.478,-0.365C0.487,-0.337 0.492,-0.306 0.492,-0.271ZM0.404,-0.283C0.405,-0.305 0.403,-0.325 0.397,-0.343C0.392,-0.361 0.384,-0.377 0.373,-0.39C0.362,-0.403 0.349,-0.413 0.333,-0.42C0.316,-0.427 0.297,-0.431 0.276,-0.431C0.257,-0.431 0.24,-0.428 0.225,-0.42C0.21,-0.413 0.197,-0.403 0.186,-0.39C0.174,-0.377 0.166,-0.361 0.159,-0.343C0.152,-0.325 0.148,-0.305 0.146,-0.283L0.404,-0.283Z" style="fill-rule:nonzero;"/>
                    </g>
                </g>
            </g>
        </g>
    </g>
</svg>
