<?xml version="1.0" encoding="UTF-8" standalone="no"?>
<!DOCTYPE svg PUBLIC "-//W3C//DTD SVG 1.1//EN" "http://www.w3.org/Graphics/SVG/1.1/DTD/svg11.dtd">
<svg width="100%" height="100%" viewBox="0 0 480 300" version="1.1" xmlns="http://www.w3.org/2000/svg" xmlns:xlink="http://www.w3.org/1999/xlink" xml:space="preserve" xmlns:serif="http://www.serif.com/" style="fill-rule:evenodd;clip-rule:evenodd;stroke-linejoin:round;stroke-miterlimit:2;">
    <g transform="matrix(0.461538,0,0,0.461538,69.0475,117.914)">
        <g transform="matrix(1.00063,0,0,0.994942,-150.263,-252.196)">
            <rect x="-1.289" y="-3.965" width="1041.59" height="653.322" style="fill:white;"/>
        </g>
        <g transform="matrix(1,0,0,1,-0.051765,95.0373)">
            <g>
                <g>
                    <g transform="matrix(104,0,0,104,0,0)">
                        <path d="M0.487,-0.173C0.487,-0.143 0.481,-0.116 0.468,-0.093C0.456,-0.07 0.439,-0.051 0.417,-0.036C0.394,-0.021 0.368,-0.01 0.336,-0.002C0.306,0.005 0.271,0.009 0.234,0.009C0.217,0.009 0.2,0.008 0.183,0.007C0.167,0.006 0.15,0.004 0.135,0.002C0.119,0 0.105,-0.002 0.091,-0.005C0.078,-0.007 0.065,-0.01 0.054,-0.013L0.054,-0.097C0.079,-0.088 0.106,-0.081 0.136,-0.076C0.167,-0.07 0.201,-0.068 0.24,-0.068C0.268,-0.068 0.292,-0.07 0.312,-0.074C0.331,-0.079 0.347,-0.085 0.36,-0.094C0.373,-0.103 0.382,-0.113 0.387,-0.125C0.393,-0.138 0.396,-0.152 0.396,-0.168C0.396,-0.185 0.391,-0.2 0.381,-0.212C0.372,-0.224 0.359,-0.235 0.344,-0.245C0.328,-0.254 0.31,-0.263 0.29,-0.271C0.27,-0.279 0.25,-0.287 0.229,-0.296C0.208,-0.304 0.188,-0.313 0.167,-0.323C0.148,-0.333 0.13,-0.345 0.114,-0.358C0.099,-0.372 0.086,-0.388 0.076,-0.406C0.067,-0.424 0.062,-0.446 0.062,-0.471C0.062,-0.493 0.067,-0.514 0.076,-0.536C0.085,-0.557 0.099,-0.576 0.118,-0.592C0.137,-0.608 0.162,-0.622 0.192,-0.632C0.222,-0.642 0.258,-0.647 0.3,-0.647C0.311,-0.647 0.322,-0.646 0.334,-0.646C0.347,-0.645 0.36,-0.643 0.373,-0.641C0.386,-0.639 0.398,-0.638 0.411,-0.635C0.423,-0.633 0.435,-0.631 0.446,-0.628L0.446,-0.55C0.421,-0.557 0.396,-0.562 0.371,-0.566C0.346,-0.57 0.321,-0.572 0.298,-0.572C0.248,-0.572 0.211,-0.563 0.188,-0.547C0.165,-0.53 0.153,-0.508 0.153,-0.48C0.153,-0.463 0.158,-0.448 0.167,-0.436C0.177,-0.423 0.189,-0.412 0.205,-0.402C0.221,-0.393 0.238,-0.384 0.258,-0.375C0.278,-0.368 0.299,-0.36 0.32,-0.351C0.341,-0.343 0.361,-0.333 0.381,-0.323C0.401,-0.313 0.419,-0.301 0.435,-0.287C0.45,-0.273 0.463,-0.257 0.472,-0.239C0.482,-0.22 0.487,-0.198 0.487,-0.173Z" style="fill-rule:nonzero;"/>
                    </g>
                    <g transform="matrix(104,0,0,104,57.1797,0)">
                        <path d="M0.228,0.006C0.194,0.001 0.165,-0.01 0.14,-0.026C0.115,-0.043 0.094,-0.065 0.077,-0.092C0.061,-0.119 0.048,-0.151 0.04,-0.188C0.032,-0.225 0.028,-0.266 0.028,-0.311C0.028,-0.369 0.035,-0.419 0.048,-0.461C0.061,-0.504 0.079,-0.539 0.102,-0.566C0.125,-0.594 0.152,-0.614 0.183,-0.627C0.213,-0.64 0.246,-0.647 0.28,-0.647C0.321,-0.647 0.356,-0.639 0.387,-0.625C0.417,-0.61 0.443,-0.589 0.463,-0.561C0.483,-0.533 0.498,-0.499 0.508,-0.459C0.518,-0.42 0.523,-0.376 0.523,-0.326C0.523,-0.274 0.517,-0.228 0.506,-0.189C0.495,-0.15 0.48,-0.117 0.461,-0.089C0.442,-0.062 0.419,-0.041 0.393,-0.025C0.367,-0.009 0.339,0.001 0.309,0.006C0.314,0.035 0.325,0.057 0.343,0.075C0.361,0.092 0.386,0.101 0.419,0.101C0.435,0.101 0.45,0.098 0.465,0.093C0.48,0.088 0.496,0.079 0.511,0.067L0.55,0.127C0.528,0.145 0.506,0.157 0.483,0.165C0.461,0.172 0.437,0.176 0.413,0.176C0.387,0.176 0.363,0.172 0.341,0.165C0.319,0.158 0.3,0.147 0.284,0.133C0.268,0.119 0.255,0.101 0.246,0.08C0.236,0.058 0.23,0.034 0.228,0.006ZM0.433,-0.316C0.433,-0.354 0.43,-0.388 0.424,-0.419C0.418,-0.45 0.409,-0.477 0.396,-0.499C0.384,-0.521 0.367,-0.539 0.347,-0.551C0.327,-0.564 0.303,-0.57 0.275,-0.57C0.248,-0.57 0.224,-0.563 0.204,-0.55C0.185,-0.537 0.168,-0.52 0.156,-0.497C0.143,-0.475 0.134,-0.449 0.127,-0.419C0.121,-0.389 0.118,-0.358 0.118,-0.324C0.118,-0.285 0.121,-0.25 0.127,-0.219C0.133,-0.188 0.142,-0.161 0.154,-0.138C0.167,-0.116 0.183,-0.098 0.203,-0.086C0.223,-0.074 0.247,-0.068 0.275,-0.068C0.302,-0.068 0.326,-0.074 0.346,-0.087C0.366,-0.1 0.382,-0.118 0.395,-0.141C0.408,-0.163 0.417,-0.189 0.423,-0.219C0.43,-0.25 0.433,-0.282 0.433,-0.316Z" style="fill-rule:nonzero;"/>
                    </g>
                    <g transform="matrix(104,0,0,104,114.359,0)">
                        <path d="M0.481,-0L0.114,-0L0.114,-0.638L0.202,-0.638L0.202,-0.074L0.481,-0.074L0.481,-0Z" style="fill-rule:nonzero;"/>
                    </g>
                    <g transform="matrix(104,0,0,104,228.719,0)">
                        <path d="M0.461,-0L0.098,-0L0.098,-0.638L0.461,-0.638L0.461,-0.565L0.185,-0.565L0.185,-0.367L0.45,-0.367L0.45,-0.294L0.185,-0.294L0.185,-0.074L0.461,-0.074L0.461,-0Z" style="fill-rule:nonzero;"/>
                    </g>
                    <g transform="matrix(104,0,0,104,285.898,0)">
                        <path d="M0.053,-0.235C0.053,-0.27 0.058,-0.303 0.067,-0.335C0.076,-0.367 0.091,-0.394 0.11,-0.418C0.129,-0.442 0.154,-0.461 0.185,-0.475C0.215,-0.489 0.251,-0.496 0.293,-0.496C0.31,-0.496 0.326,-0.495 0.342,-0.492C0.359,-0.49 0.376,-0.486 0.394,-0.48L0.469,-0.499L0.469,0.2L0.384,0.2L0.384,0.015L0.388,-0.09C0.342,-0.024 0.287,0.009 0.223,0.009C0.194,0.009 0.17,0.003 0.148,-0.009C0.127,-0.021 0.11,-0.037 0.095,-0.059C0.081,-0.08 0.071,-0.106 0.063,-0.136C0.057,-0.166 0.053,-0.199 0.053,-0.235ZM0.14,-0.24C0.14,-0.213 0.142,-0.188 0.146,-0.167C0.15,-0.145 0.156,-0.126 0.165,-0.111C0.173,-0.096 0.183,-0.084 0.196,-0.076C0.208,-0.068 0.223,-0.064 0.24,-0.064C0.262,-0.064 0.284,-0.074 0.308,-0.093C0.332,-0.112 0.357,-0.14 0.384,-0.178L0.384,-0.406C0.371,-0.412 0.356,-0.417 0.339,-0.421C0.323,-0.425 0.306,-0.427 0.287,-0.427C0.239,-0.427 0.203,-0.411 0.178,-0.379C0.153,-0.348 0.14,-0.301 0.14,-0.24Z" style="fill-rule:nonzero;"/>
                    </g>
                    <g transform="matrix(104,0,0,104,343.078,0)">
                        <path d="M0.472,-0L0.396,-0L0.393,-0.079C0.378,-0.062 0.364,-0.048 0.351,-0.037C0.338,-0.026 0.325,-0.017 0.312,-0.01C0.299,-0.003 0.286,0.002 0.272,0.004C0.259,0.007 0.246,0.009 0.231,0.009C0.181,0.009 0.142,-0.006 0.117,-0.036C0.091,-0.065 0.078,-0.11 0.078,-0.17L0.078,-0.49L0.163,-0.49L0.163,-0.177C0.163,-0.102 0.191,-0.064 0.248,-0.064C0.258,-0.064 0.269,-0.065 0.278,-0.068C0.288,-0.072 0.299,-0.077 0.31,-0.084C0.321,-0.092 0.332,-0.103 0.345,-0.116C0.357,-0.129 0.372,-0.145 0.387,-0.165L0.387,-0.49L0.472,-0.49L0.472,-0Z" style="fill-rule:nonzero;"/>
                    </g>
                    <g transform="matrix(104,0,0,104,400.258,0)">
                        <path d="M0.245,-0.42L0.1,-0.42L0.1,-0.49L0.331,-0.49L0.331,-0.071L0.477,-0.071L0.477,-0L0.084,-0L0.084,-0.071L0.245,-0.071L0.245,-0.42ZM0.275,-0.696C0.284,-0.696 0.293,-0.694 0.301,-0.69C0.309,-0.687 0.316,-0.682 0.322,-0.676C0.328,-0.67 0.333,-0.663 0.336,-0.655C0.34,-0.647 0.342,-0.638 0.342,-0.629C0.342,-0.62 0.34,-0.611 0.336,-0.603C0.333,-0.595 0.328,-0.588 0.322,-0.582C0.316,-0.575 0.309,-0.57 0.301,-0.567C0.293,-0.564 0.284,-0.562 0.275,-0.562C0.265,-0.562 0.257,-0.564 0.249,-0.567C0.24,-0.57 0.233,-0.575 0.227,-0.582C0.221,-0.588 0.216,-0.595 0.213,-0.603C0.21,-0.611 0.208,-0.62 0.208,-0.629C0.208,-0.638 0.21,-0.647 0.213,-0.655C0.216,-0.663 0.221,-0.67 0.227,-0.676C0.233,-0.682 0.24,-0.687 0.249,-0.69C0.257,-0.694 0.265,-0.696 0.275,-0.696Z" style="fill-rule:nonzero;"/>
                    </g>
                    <g transform="matrix(104,0,0,104,457.438,0)">
                        <rect x="0.129" y="-0.306" width="0.292" height="0.08" style="fill-rule:nonzero;"/>
                    </g>
                    <g transform="matrix(104,0,0,104,514.617,0)">
                        <path d="M0.41,-0.49L0.41,-0.009C0.41,0.025 0.405,0.056 0.396,0.082C0.386,0.109 0.372,0.131 0.354,0.149C0.335,0.168 0.313,0.181 0.286,0.191C0.26,0.2 0.23,0.205 0.197,0.205C0.173,0.205 0.149,0.203 0.126,0.198C0.103,0.194 0.083,0.188 0.064,0.18L0.064,0.099C0.074,0.104 0.085,0.109 0.096,0.113C0.108,0.118 0.12,0.121 0.132,0.124C0.144,0.127 0.157,0.129 0.169,0.13C0.181,0.132 0.193,0.133 0.205,0.133C0.242,0.133 0.271,0.121 0.292,0.098C0.314,0.074 0.324,0.04 0.324,-0.006L0.324,-0.42L0.084,-0.42L0.084,-0.49L0.41,-0.49ZM0.359,-0.696C0.368,-0.696 0.377,-0.694 0.385,-0.69C0.393,-0.687 0.4,-0.682 0.406,-0.676C0.412,-0.67 0.417,-0.663 0.42,-0.655C0.424,-0.647 0.426,-0.638 0.426,-0.629C0.426,-0.619 0.424,-0.611 0.42,-0.603C0.417,-0.595 0.412,-0.588 0.406,-0.582C0.4,-0.575 0.393,-0.57 0.385,-0.567C0.377,-0.564 0.368,-0.562 0.359,-0.562C0.349,-0.562 0.341,-0.564 0.333,-0.567C0.324,-0.57 0.317,-0.575 0.311,-0.582C0.305,-0.588 0.3,-0.595 0.297,-0.603C0.294,-0.611 0.292,-0.619 0.292,-0.629C0.292,-0.638 0.294,-0.647 0.297,-0.655C0.3,-0.663 0.305,-0.67 0.311,-0.676C0.317,-0.682 0.324,-0.687 0.333,-0.69C0.341,-0.694 0.349,-0.696 0.359,-0.696Z" style="fill-rule:nonzero;"/>
                    </g>
                    <g transform="matrix(104,0,0,104,571.797,0)">
                        <path d="M0.505,-0.249C0.505,-0.211 0.5,-0.176 0.489,-0.144C0.478,-0.112 0.463,-0.085 0.442,-0.063C0.422,-0.04 0.398,-0.022 0.369,-0.01C0.34,0.003 0.307,0.009 0.27,0.009C0.235,0.009 0.203,0.003 0.175,-0.007C0.148,-0.018 0.124,-0.035 0.104,-0.056C0.085,-0.077 0.07,-0.103 0.06,-0.134C0.05,-0.166 0.045,-0.201 0.045,-0.242C0.045,-0.28 0.05,-0.315 0.061,-0.346C0.072,-0.378 0.087,-0.405 0.107,-0.427C0.128,-0.45 0.152,-0.468 0.181,-0.48C0.21,-0.493 0.243,-0.499 0.28,-0.499C0.315,-0.499 0.346,-0.493 0.374,-0.482C0.402,-0.472 0.426,-0.456 0.445,-0.435C0.464,-0.414 0.479,-0.388 0.489,-0.356C0.5,-0.325 0.505,-0.289 0.505,-0.249ZM0.418,-0.245C0.418,-0.275 0.415,-0.302 0.408,-0.324C0.401,-0.347 0.392,-0.366 0.379,-0.381C0.367,-0.396 0.352,-0.408 0.334,-0.415C0.316,-0.423 0.297,-0.427 0.275,-0.427C0.25,-0.427 0.228,-0.422 0.209,-0.412C0.192,-0.402 0.177,-0.389 0.165,-0.372C0.154,-0.355 0.145,-0.336 0.14,-0.314C0.134,-0.292 0.132,-0.269 0.132,-0.245C0.132,-0.215 0.135,-0.188 0.142,-0.166C0.148,-0.143 0.158,-0.124 0.17,-0.108C0.183,-0.093 0.198,-0.082 0.215,-0.074C0.233,-0.067 0.253,-0.063 0.275,-0.063C0.3,-0.063 0.322,-0.068 0.34,-0.078C0.358,-0.088 0.373,-0.101 0.384,-0.118C0.396,-0.134 0.404,-0.153 0.41,-0.175C0.415,-0.197 0.418,-0.221 0.418,-0.245Z" style="fill-rule:nonzero;"/>
                    </g>
                    <g transform="matrix(104,0,0,104,628.977,0)">
                        <path d="M0.245,-0.42L0.1,-0.42L0.1,-0.49L0.331,-0.49L0.331,-0.071L0.477,-0.071L0.477,-0L0.084,-0L0.084,-0.071L0.245,-0.071L0.245,-0.42ZM0.275,-0.696C0.284,-0.696 0.293,-0.694 0.301,-0.69C0.309,-0.687 0.316,-0.682 0.322,-0.676C0.328,-0.67 0.333,-0.663 0.336,-0.655C0.34,-0.647 0.342,-0.638 0.342,-0.629C0.342,-0.62 0.34,-0.611 0.336,-0.603C0.333,-0.595 0.328,-0.588 0.322,-0.582C0.316,-0.575 0.309,-0.57 0.301,-0.567C0.293,-0.564 0.284,-0.562 0.275,-0.562C0.265,-0.562 0.257,-0.564 0.249,-0.567C0.24,-0.57 0.233,-0.575 0.227,-0.582C0.221,-0.588 0.216,-0.595 0.213,-0.603C0.21,-0.611 0.208,-0.62 0.208,-0.629C0.208,-0.638 0.21,-0.647 0.213,-0.655C0.216,-0.663 0.221,-0.67 0.227,-0.676C0.233,-0.682 0.24,-0.687 0.249,-0.69C0.257,-0.694 0.265,-0.696 0.275,-0.696Z" style="fill-rule:nonzero;"/>
                    </g>
                    <g transform="matrix(104,0,0,104,686.156,0)">
                        <path d="M0.078,-0.49L0.154,-0.49L0.157,-0.411C0.172,-0.428 0.185,-0.442 0.199,-0.453C0.212,-0.465 0.225,-0.474 0.238,-0.48C0.251,-0.487 0.264,-0.492 0.277,-0.495C0.291,-0.498 0.305,-0.499 0.319,-0.499C0.369,-0.499 0.407,-0.484 0.433,-0.454C0.459,-0.424 0.472,-0.38 0.472,-0.32L0.472,-0L0.387,-0L0.387,-0.313C0.387,-0.351 0.38,-0.38 0.366,-0.398C0.351,-0.417 0.33,-0.426 0.302,-0.426C0.291,-0.426 0.281,-0.424 0.271,-0.421C0.261,-0.418 0.251,-0.413 0.24,-0.405C0.229,-0.397 0.218,-0.387 0.205,-0.374C0.193,-0.361 0.179,-0.345 0.163,-0.325L0.163,-0L0.078,-0L0.078,-0.49Z" style="fill-rule:nonzero;"/>
                    </g>
                </g>
            </g>
        </g>
    </g>
</svg>
