<?xml version="1.0" encoding="UTF-8" standalone="no"?>
<!DOCTYPE svg PUBLIC "-//W3C//DTD SVG 1.1//EN" "http://www.w3.org/Graphics/SVG/1.1/DTD/svg11.dtd">
<svg width="100%" height="100%" viewBox="0 0 480 300" version="1.1" xmlns="http://www.w3.org/2000/svg" xmlns:xlink="http://www.w3.org/1999/xlink" xml:space="preserve" xmlns:serif="http://www.serif.com/" style="fill-rule:evenodd;clip-rule:evenodd;stroke-linejoin:round;stroke-miterlimit:2;">
    <g transform="matrix(0.461538,0,0,0.461538,69.0475,117.914)">
        <g transform="matrix(1.00063,0,0,0.994942,-150.263,-252.196)">
            <rect x="-1.289" y="-3.965" width="1041.59" height="653.322" style="fill:white;"/>
        </g>
        <g transform="matrix(1,0,0,1,57.306,95.0373)">
            <g>
                <g>
                    <g transform="matrix(104,0,0,104,0,0)">
                        <path d="M0.508,-0.564L0.319,-0.564L0.319,-0L0.231,-0L0.231,-0.564L0.042,-0.564L0.042,-0.638L0.508,-0.638L0.508,-0.564Z" style="fill-rule:nonzero;"/>
                    </g>
                    <g transform="matrix(104,0,0,104,57.1797,0)">
                        <path d="M0.492,-0.271C0.492,-0.259 0.492,-0.249 0.492,-0.241C0.491,-0.233 0.491,-0.225 0.49,-0.218L0.146,-0.218C0.146,-0.168 0.16,-0.129 0.188,-0.102C0.216,-0.075 0.256,-0.062 0.309,-0.062C0.323,-0.062 0.338,-0.063 0.352,-0.063C0.366,-0.065 0.38,-0.066 0.394,-0.068C0.407,-0.07 0.42,-0.072 0.432,-0.075C0.444,-0.077 0.455,-0.08 0.466,-0.083L0.466,-0.013C0.443,-0.007 0.417,-0.001 0.387,0.002C0.358,0.007 0.328,0.009 0.297,0.009C0.255,0.009 0.219,0.003 0.188,-0.008C0.158,-0.02 0.133,-0.036 0.114,-0.058C0.095,-0.079 0.08,-0.106 0.071,-0.137C0.062,-0.169 0.057,-0.204 0.057,-0.244C0.057,-0.279 0.062,-0.311 0.072,-0.342C0.082,-0.373 0.096,-0.4 0.115,-0.423C0.134,-0.446 0.158,-0.465 0.186,-0.479C0.213,-0.492 0.245,-0.499 0.28,-0.499C0.314,-0.499 0.344,-0.494 0.371,-0.483C0.397,-0.472 0.419,-0.457 0.437,-0.437C0.455,-0.417 0.469,-0.394 0.478,-0.365C0.487,-0.337 0.492,-0.306 0.492,-0.271ZM0.404,-0.283C0.405,-0.305 0.403,-0.325 0.397,-0.343C0.392,-0.361 0.384,-0.377 0.373,-0.39C0.362,-0.403 0.349,-0.413 0.333,-0.42C0.316,-0.427 0.297,-0.431 0.276,-0.431C0.257,-0.431 0.24,-0.428 0.225,-0.42C0.21,-0.413 0.197,-0.403 0.186,-0.39C0.174,-0.377 0.166,-0.361 0.159,-0.343C0.152,-0.325 0.148,-0.305 0.146,-0.283L0.404,-0.283Z" style="fill-rule:nonzero;"/>
                    </g>
                    <g transform="matrix(104,0,0,104,114.359,0)">
                        <path d="M0.466,-0.134C0.466,-0.117 0.463,-0.101 0.458,-0.087C0.452,-0.074 0.444,-0.062 0.434,-0.051C0.424,-0.04 0.412,-0.031 0.398,-0.024C0.385,-0.016 0.371,-0.01 0.355,-0.005C0.34,-0 0.325,0.003 0.309,0.005C0.293,0.008 0.278,0.009 0.262,0.009C0.229,0.009 0.198,0.007 0.17,0.004C0.143,0.001 0.116,-0.003 0.089,-0.01L0.089,-0.088C0.118,-0.08 0.146,-0.074 0.174,-0.069C0.203,-0.065 0.231,-0.063 0.259,-0.063C0.299,-0.063 0.33,-0.069 0.349,-0.08C0.369,-0.091 0.378,-0.106 0.378,-0.127C0.378,-0.136 0.377,-0.144 0.374,-0.15C0.371,-0.158 0.365,-0.164 0.357,-0.17C0.349,-0.177 0.336,-0.184 0.319,-0.19C0.302,-0.197 0.279,-0.205 0.249,-0.214C0.227,-0.22 0.206,-0.228 0.188,-0.236C0.169,-0.244 0.153,-0.254 0.139,-0.266C0.125,-0.277 0.115,-0.29 0.107,-0.306C0.099,-0.321 0.095,-0.339 0.095,-0.36C0.095,-0.374 0.098,-0.389 0.104,-0.405C0.111,-0.421 0.122,-0.436 0.137,-0.45C0.153,-0.464 0.173,-0.476 0.199,-0.485C0.225,-0.494 0.258,-0.499 0.297,-0.499C0.316,-0.499 0.337,-0.498 0.361,-0.496C0.384,-0.494 0.409,-0.49 0.434,-0.485L0.434,-0.409C0.407,-0.416 0.382,-0.42 0.358,-0.423C0.334,-0.427 0.313,-0.428 0.296,-0.428C0.275,-0.428 0.257,-0.427 0.242,-0.423C0.228,-0.42 0.216,-0.416 0.207,-0.41C0.198,-0.404 0.192,-0.397 0.188,-0.39C0.184,-0.382 0.182,-0.374 0.182,-0.365C0.182,-0.356 0.184,-0.348 0.187,-0.341C0.191,-0.334 0.197,-0.327 0.206,-0.32C0.215,-0.314 0.229,-0.307 0.245,-0.3C0.262,-0.294 0.283,-0.287 0.31,-0.279C0.339,-0.27 0.363,-0.261 0.383,-0.252C0.403,-0.243 0.419,-0.233 0.432,-0.221C0.444,-0.21 0.453,-0.197 0.458,-0.183C0.464,-0.168 0.466,-0.152 0.466,-0.134Z" style="fill-rule:nonzero;"/>
                    </g>
                    <g transform="matrix(104,0,0,104,171.539,0)">
                        <path d="M0.473,-0.007C0.454,-0.002 0.434,0.001 0.414,0.003C0.393,0.006 0.372,0.007 0.351,0.007C0.29,0.007 0.244,-0.007 0.213,-0.035C0.183,-0.063 0.168,-0.105 0.168,-0.163L0.168,-0.419L0.031,-0.419L0.031,-0.49L0.168,-0.49L0.168,-0.625L0.253,-0.647L0.253,-0.49L0.473,-0.49L0.473,-0.419L0.253,-0.419L0.253,-0.17C0.253,-0.135 0.262,-0.108 0.281,-0.091C0.3,-0.074 0.327,-0.065 0.364,-0.065C0.379,-0.065 0.396,-0.066 0.415,-0.068C0.434,-0.071 0.453,-0.075 0.473,-0.08L0.473,-0.007Z" style="fill-rule:nonzero;"/>
                    </g>
                    <g transform="matrix(104,0,0,104,228.719,0)">
                        <path d="M0.245,-0.42L0.1,-0.42L0.1,-0.49L0.331,-0.49L0.331,-0.071L0.477,-0.071L0.477,-0L0.084,-0L0.084,-0.071L0.245,-0.071L0.245,-0.42ZM0.275,-0.696C0.284,-0.696 0.293,-0.694 0.301,-0.69C0.309,-0.687 0.316,-0.682 0.322,-0.676C0.328,-0.67 0.333,-0.663 0.336,-0.655C0.34,-0.647 0.342,-0.638 0.342,-0.629C0.342,-0.62 0.34,-0.611 0.336,-0.603C0.333,-0.595 0.328,-0.588 0.322,-0.582C0.316,-0.575 0.309,-0.57 0.301,-0.567C0.293,-0.564 0.284,-0.562 0.275,-0.562C0.265,-0.562 0.257,-0.564 0.249,-0.567C0.24,-0.57 0.233,-0.575 0.227,-0.582C0.221,-0.588 0.216,-0.595 0.213,-0.603C0.21,-0.611 0.208,-0.62 0.208,-0.629C0.208,-0.638 0.21,-0.647 0.213,-0.655C0.216,-0.663 0.221,-0.67 0.227,-0.676C0.233,-0.682 0.24,-0.687 0.249,-0.69C0.257,-0.694 0.265,-0.696 0.275,-0.696Z" style="fill-rule:nonzero;"/>
                    </g>
                    <g transform="matrix(104,0,0,104,285.898,0)">
                        <path d="M0.078,-0.49L0.154,-0.49L0.157,-0.411C0.172,-0.428 0.185,-0.442 0.199,-0.453C0.212,-0.465 0.225,-0.474 0.238,-0.48C0.251,-0.487 0.264,-0.492 0.277,-0.495C0.291,-0.498 0.305,-0.499 0.319,-0.499C0.369,-0.499 0.407,-0.484 0.433,-0.454C0.459,-0.424 0.472,-0.38 0.472,-0.32L0.472,-0L0.387,-0L0.387,-0.313C0.387,-0.351 0.38,-0.38 0.366,-0.398C0.351,-0.417 0.33,-0.426 0.302,-0.426C0.291,-0.426 0.281,-0.424 0.271,-0.421C0.261,-0.418 0.251,-0.413 0.24,-0.405C0.229,-0.397 0.218,-0.387 0.205,-0.374C0.193,-0.361 0.179,-0.345 0.163,-0.325L0.163,-0L0.078,-0L0.078,-0.49Z" style="fill-rule:nonzero;"/>
                    </g>
                    <g transform="matrix(104,0,0,104,343.078,0)">
                        <path d="M0.431,-0.421C0.44,-0.41 0.447,-0.396 0.452,-0.381C0.457,-0.366 0.46,-0.35 0.46,-0.332C0.46,-0.307 0.455,-0.283 0.446,-0.262C0.437,-0.241 0.424,-0.223 0.407,-0.208C0.39,-0.194 0.369,-0.182 0.346,-0.173C0.322,-0.165 0.296,-0.161 0.268,-0.161C0.248,-0.161 0.228,-0.163 0.21,-0.167C0.193,-0.172 0.178,-0.178 0.168,-0.184C0.162,-0.175 0.157,-0.166 0.152,-0.158C0.148,-0.15 0.146,-0.141 0.146,-0.131C0.146,-0.118 0.152,-0.108 0.164,-0.1C0.176,-0.092 0.191,-0.088 0.211,-0.087L0.34,-0.082C0.364,-0.081 0.387,-0.078 0.407,-0.073C0.428,-0.067 0.446,-0.059 0.46,-0.049C0.475,-0.038 0.487,-0.026 0.495,-0.01C0.504,0.005 0.508,0.023 0.508,0.043C0.508,0.065 0.503,0.085 0.494,0.105C0.484,0.125 0.47,0.142 0.45,0.156C0.43,0.171 0.405,0.183 0.375,0.192C0.345,0.201 0.309,0.205 0.267,0.205C0.227,0.205 0.194,0.202 0.166,0.195C0.138,0.189 0.115,0.18 0.097,0.169C0.079,0.158 0.066,0.145 0.058,0.129C0.05,0.114 0.046,0.097 0.046,0.078C0.046,0.054 0.051,0.034 0.063,0.016C0.074,-0.002 0.091,-0.02 0.114,-0.036C0.105,-0.04 0.098,-0.045 0.092,-0.051C0.086,-0.057 0.081,-0.063 0.077,-0.07C0.073,-0.077 0.07,-0.084 0.068,-0.092C0.066,-0.1 0.065,-0.108 0.065,-0.115C0.065,-0.136 0.07,-0.156 0.08,-0.173C0.09,-0.191 0.102,-0.208 0.115,-0.223C0.109,-0.231 0.104,-0.238 0.099,-0.245C0.094,-0.252 0.09,-0.26 0.086,-0.268C0.083,-0.277 0.081,-0.285 0.079,-0.295C0.077,-0.305 0.076,-0.316 0.076,-0.328C0.076,-0.354 0.081,-0.377 0.09,-0.397C0.099,-0.419 0.112,-0.437 0.129,-0.452C0.146,-0.467 0.166,-0.478 0.189,-0.486C0.213,-0.495 0.239,-0.499 0.268,-0.499C0.28,-0.499 0.292,-0.498 0.303,-0.497C0.314,-0.495 0.324,-0.493 0.332,-0.49L0.51,-0.49L0.51,-0.421L0.431,-0.421ZM0.136,0.071C0.136,0.094 0.148,0.111 0.172,0.121C0.196,0.132 0.23,0.137 0.273,0.137C0.3,0.137 0.323,0.135 0.341,0.13C0.359,0.125 0.374,0.118 0.385,0.11C0.397,0.103 0.405,0.093 0.41,0.083C0.415,0.073 0.417,0.063 0.417,0.052C0.417,0.032 0.409,0.017 0.393,0.008C0.376,-0.002 0.351,-0.007 0.318,-0.009L0.19,-0.013C0.179,-0.006 0.17,0.001 0.163,0.008C0.156,0.015 0.151,0.021 0.147,0.028C0.143,0.035 0.14,0.042 0.139,0.049C0.137,0.056 0.136,0.064 0.136,0.071ZM0.162,-0.33C0.162,-0.314 0.165,-0.3 0.17,-0.287C0.175,-0.274 0.182,-0.263 0.192,-0.254C0.201,-0.245 0.212,-0.238 0.225,-0.232C0.238,-0.228 0.252,-0.225 0.268,-0.225C0.285,-0.225 0.3,-0.228 0.313,-0.233C0.326,-0.239 0.337,-0.247 0.346,-0.257C0.355,-0.267 0.362,-0.278 0.367,-0.291C0.372,-0.303 0.374,-0.316 0.374,-0.33C0.374,-0.346 0.371,-0.36 0.366,-0.373C0.361,-0.386 0.354,-0.397 0.344,-0.406C0.335,-0.415 0.324,-0.422 0.311,-0.427C0.298,-0.432 0.284,-0.435 0.268,-0.435C0.251,-0.435 0.236,-0.432 0.223,-0.426C0.21,-0.42 0.199,-0.413 0.189,-0.403C0.181,-0.393 0.174,-0.382 0.169,-0.37C0.164,-0.357 0.162,-0.344 0.162,-0.33Z" style="fill-rule:nonzero;"/>
                    </g>
                    <g transform="matrix(104,0,0,104,457.438,0)">
                        <path d="M0.487,-0.173C0.487,-0.143 0.481,-0.116 0.468,-0.093C0.456,-0.07 0.439,-0.051 0.417,-0.036C0.394,-0.021 0.368,-0.01 0.336,-0.002C0.306,0.005 0.271,0.009 0.234,0.009C0.217,0.009 0.2,0.008 0.183,0.007C0.167,0.006 0.15,0.004 0.135,0.002C0.119,0 0.105,-0.002 0.091,-0.005C0.078,-0.007 0.065,-0.01 0.054,-0.013L0.054,-0.097C0.079,-0.088 0.106,-0.081 0.136,-0.076C0.167,-0.07 0.201,-0.068 0.24,-0.068C0.268,-0.068 0.292,-0.07 0.312,-0.074C0.331,-0.079 0.347,-0.085 0.36,-0.094C0.373,-0.103 0.382,-0.113 0.387,-0.125C0.393,-0.138 0.396,-0.152 0.396,-0.168C0.396,-0.185 0.391,-0.2 0.381,-0.212C0.372,-0.224 0.359,-0.235 0.344,-0.245C0.328,-0.254 0.31,-0.263 0.29,-0.271C0.27,-0.279 0.25,-0.287 0.229,-0.296C0.208,-0.304 0.188,-0.313 0.167,-0.323C0.148,-0.333 0.13,-0.345 0.114,-0.358C0.099,-0.372 0.086,-0.388 0.076,-0.406C0.067,-0.424 0.062,-0.446 0.062,-0.471C0.062,-0.493 0.067,-0.514 0.076,-0.536C0.085,-0.557 0.099,-0.576 0.118,-0.592C0.137,-0.608 0.162,-0.622 0.192,-0.632C0.222,-0.642 0.258,-0.647 0.3,-0.647C0.311,-0.647 0.322,-0.646 0.334,-0.646C0.347,-0.645 0.36,-0.643 0.373,-0.641C0.386,-0.639 0.398,-0.638 0.411,-0.635C0.423,-0.633 0.435,-0.631 0.446,-0.628L0.446,-0.55C0.421,-0.557 0.396,-0.562 0.371,-0.566C0.346,-0.57 0.321,-0.572 0.298,-0.572C0.248,-0.572 0.211,-0.563 0.188,-0.547C0.165,-0.53 0.153,-0.508 0.153,-0.48C0.153,-0.463 0.158,-0.448 0.167,-0.436C0.177,-0.423 0.189,-0.412 0.205,-0.402C0.221,-0.393 0.238,-0.384 0.258,-0.375C0.278,-0.368 0.299,-0.36 0.32,-0.351C0.341,-0.343 0.361,-0.333 0.381,-0.323C0.401,-0.313 0.419,-0.301 0.435,-0.287C0.45,-0.273 0.463,-0.257 0.472,-0.239C0.482,-0.22 0.487,-0.198 0.487,-0.173Z" style="fill-rule:nonzero;"/>
                    </g>
                    <g transform="matrix(104,0,0,104,514.617,0)">
                        <path d="M0.228,0.006C0.194,0.001 0.165,-0.01 0.14,-0.026C0.115,-0.043 0.094,-0.065 0.077,-0.092C0.061,-0.119 0.048,-0.151 0.04,-0.188C0.032,-0.225 0.028,-0.266 0.028,-0.311C0.028,-0.369 0.035,-0.419 0.048,-0.461C0.061,-0.504 0.079,-0.539 0.102,-0.566C0.125,-0.594 0.152,-0.614 0.183,-0.627C0.213,-0.64 0.246,-0.647 0.28,-0.647C0.321,-0.647 0.356,-0.639 0.387,-0.625C0.417,-0.61 0.443,-0.589 0.463,-0.561C0.483,-0.533 0.498,-0.499 0.508,-0.459C0.518,-0.42 0.523,-0.376 0.523,-0.326C0.523,-0.274 0.517,-0.228 0.506,-0.189C0.495,-0.15 0.48,-0.117 0.461,-0.089C0.442,-0.062 0.419,-0.041 0.393,-0.025C0.367,-0.009 0.339,0.001 0.309,0.006C0.314,0.035 0.325,0.057 0.343,0.075C0.361,0.092 0.386,0.101 0.419,0.101C0.435,0.101 0.45,0.098 0.465,0.093C0.48,0.088 0.496,0.079 0.511,0.067L0.55,0.127C0.528,0.145 0.506,0.157 0.483,0.165C0.461,0.172 0.437,0.176 0.413,0.176C0.387,0.176 0.363,0.172 0.341,0.165C0.319,0.158 0.3,0.147 0.284,0.133C0.268,0.119 0.255,0.101 0.246,0.08C0.236,0.058 0.23,0.034 0.228,0.006ZM0.433,-0.316C0.433,-0.354 0.43,-0.388 0.424,-0.419C0.418,-0.45 0.409,-0.477 0.396,-0.499C0.384,-0.521 0.367,-0.539 0.347,-0.551C0.327,-0.564 0.303,-0.57 0.275,-0.57C0.248,-0.57 0.224,-0.563 0.204,-0.55C0.185,-0.537 0.168,-0.52 0.156,-0.497C0.143,-0.475 0.134,-0.449 0.127,-0.419C0.121,-0.389 0.118,-0.358 0.118,-0.324C0.118,-0.285 0.121,-0.25 0.127,-0.219C0.133,-0.188 0.142,-0.161 0.154,-0.138C0.167,-0.116 0.183,-0.098 0.203,-0.086C0.223,-0.074 0.247,-0.068 0.275,-0.068C0.302,-0.068 0.326,-0.074 0.346,-0.087C0.366,-0.1 0.382,-0.118 0.395,-0.141C0.408,-0.163 0.417,-0.189 0.423,-0.219C0.43,-0.25 0.433,-0.282 0.433,-0.316Z" style="fill-rule:nonzero;"/>
                    </g>
                    <g transform="matrix(104,0,0,104,571.797,0)">
                        <path d="M0.481,-0L0.114,-0L0.114,-0.638L0.202,-0.638L0.202,-0.074L0.481,-0.074L0.481,-0Z" style="fill-rule:nonzero;"/>
                    </g>
                </g>
            </g>
        </g>
    </g>
</svg>
