<?xml version="1.0" encoding="UTF-8" standalone="no"?>
<!DOCTYPE svg PUBLIC "-//W3C//DTD SVG 1.1//EN" "http://www.w3.org/Graphics/SVG/1.1/DTD/svg11.dtd">
<svg width="100%" height="100%" viewBox="0 0 235 150" version="1.1" xmlns="http://www.w3.org/2000/svg" xmlns:xlink="http://www.w3.org/1999/xlink" xml:space="preserve" xmlns:serif="http://www.serif.com/" style="fill-rule:evenodd;clip-rule:evenodd;stroke-linejoin:round;stroke-miterlimit:2;">
    <g transform="matrix(1,0,0,1,-272.515,-187.491)">
        <g transform="matrix(1,0,0,1,-31.169,-35.439)">
            <rect x="303.684" y="222.93" width="234.519" height="149.417" style="fill:white;"/>
        </g>
        <g>
            <g transform="matrix(1,0,0,1,279.501,205.024)">
                <g transform="matrix(10.5,0,0,10.5,0,0)">
                    <path d="M0.528,-0.638L0.485,-0L0.372,-0L0.293,-0.227L0.271,-0.3L0.248,-0.221L0.175,-0L0.066,-0L0.022,-0.638L0.104,-0.638L0.129,-0.204L0.136,-0.085L0.167,-0.186L0.244,-0.423L0.304,-0.423L0.393,-0.169L0.423,-0.085L0.425,-0.173L0.45,-0.638L0.528,-0.638Z" style="fill-rule:nonzero;"/>
                </g>
                <g transform="matrix(10.5,0,0,10.5,5.77295,0)">
                    <path d="M0.472,-0L0.387,-0L0.387,-0.313C0.387,-0.351 0.38,-0.379 0.366,-0.397C0.352,-0.416 0.332,-0.426 0.305,-0.426C0.294,-0.426 0.283,-0.424 0.273,-0.421C0.263,-0.418 0.253,-0.413 0.242,-0.405C0.231,-0.397 0.22,-0.387 0.207,-0.374C0.194,-0.361 0.18,-0.345 0.163,-0.325L0.163,-0L0.078,-0L0.078,-0.69L0.163,-0.69L0.163,-0.49L0.16,-0.413C0.174,-0.429 0.187,-0.442 0.199,-0.453C0.212,-0.464 0.225,-0.473 0.238,-0.48C0.251,-0.487 0.264,-0.492 0.277,-0.495C0.291,-0.498 0.305,-0.499 0.319,-0.499C0.368,-0.499 0.405,-0.484 0.432,-0.454C0.459,-0.424 0.472,-0.38 0.472,-0.32L0.472,-0Z" style="fill-rule:nonzero;"/>
                </g>
                <g transform="matrix(10.5,0,0,10.5,11.5459,0)">
                    <path d="M0.245,-0.42L0.1,-0.42L0.1,-0.49L0.331,-0.49L0.331,-0.071L0.477,-0.071L0.477,-0L0.084,-0L0.084,-0.071L0.245,-0.071L0.245,-0.42ZM0.275,-0.696C0.284,-0.696 0.293,-0.694 0.301,-0.69C0.309,-0.687 0.316,-0.682 0.322,-0.676C0.328,-0.67 0.333,-0.663 0.336,-0.655C0.34,-0.647 0.342,-0.638 0.342,-0.629C0.342,-0.62 0.34,-0.611 0.336,-0.603C0.333,-0.595 0.328,-0.588 0.322,-0.582C0.316,-0.575 0.309,-0.57 0.301,-0.567C0.293,-0.564 0.284,-0.562 0.275,-0.562C0.265,-0.562 0.257,-0.564 0.249,-0.567C0.24,-0.57 0.233,-0.575 0.227,-0.582C0.221,-0.588 0.216,-0.595 0.213,-0.603C0.21,-0.611 0.208,-0.62 0.208,-0.629C0.208,-0.638 0.21,-0.647 0.213,-0.655C0.216,-0.663 0.221,-0.67 0.227,-0.676C0.233,-0.682 0.24,-0.687 0.249,-0.69C0.257,-0.694 0.265,-0.696 0.275,-0.696Z" style="fill-rule:nonzero;"/>
                </g>
                <g transform="matrix(10.5,0,0,10.5,17.3188,0)">
                    <path d="M0.245,-0.62L0.1,-0.62L0.1,-0.69L0.331,-0.69L0.331,-0.071L0.477,-0.071L0.477,-0L0.084,-0L0.084,-0.071L0.245,-0.071L0.245,-0.62Z" style="fill-rule:nonzero;"/>
                </g>
                <g transform="matrix(10.5,0,0,10.5,23.0918,0)">
                    <path d="M0.492,-0.271C0.492,-0.259 0.492,-0.249 0.492,-0.241C0.491,-0.233 0.491,-0.225 0.49,-0.218L0.146,-0.218C0.146,-0.168 0.16,-0.129 0.188,-0.102C0.216,-0.075 0.256,-0.062 0.309,-0.062C0.323,-0.062 0.338,-0.063 0.352,-0.063C0.366,-0.065 0.38,-0.066 0.394,-0.068C0.407,-0.07 0.42,-0.072 0.432,-0.075C0.444,-0.077 0.455,-0.08 0.466,-0.083L0.466,-0.013C0.443,-0.007 0.417,-0.001 0.387,0.002C0.358,0.007 0.328,0.009 0.297,0.009C0.255,0.009 0.219,0.003 0.188,-0.008C0.158,-0.02 0.133,-0.036 0.114,-0.058C0.095,-0.079 0.08,-0.106 0.071,-0.137C0.062,-0.169 0.057,-0.204 0.057,-0.244C0.057,-0.279 0.062,-0.311 0.072,-0.342C0.082,-0.373 0.096,-0.4 0.115,-0.423C0.134,-0.446 0.158,-0.465 0.186,-0.479C0.213,-0.492 0.245,-0.499 0.28,-0.499C0.314,-0.499 0.344,-0.494 0.371,-0.483C0.397,-0.472 0.419,-0.457 0.437,-0.437C0.455,-0.417 0.469,-0.394 0.478,-0.365C0.487,-0.337 0.492,-0.306 0.492,-0.271ZM0.404,-0.283C0.405,-0.305 0.403,-0.325 0.397,-0.343C0.392,-0.361 0.384,-0.377 0.373,-0.39C0.362,-0.403 0.349,-0.413 0.333,-0.42C0.316,-0.427 0.297,-0.431 0.276,-0.431C0.257,-0.431 0.24,-0.428 0.225,-0.42C0.21,-0.413 0.197,-0.403 0.186,-0.39C0.174,-0.377 0.166,-0.361 0.159,-0.343C0.152,-0.325 0.148,-0.305 0.146,-0.283L0.404,-0.283Z" style="fill-rule:nonzero;"/>
                </g>
                <g transform="matrix(10.5,0,0,10.5,34.6377,0)">
                    <path d="M0.078,-0.49L0.154,-0.49L0.157,-0.411C0.172,-0.428 0.185,-0.442 0.199,-0.453C0.212,-0.465 0.225,-0.474 0.238,-0.48C0.251,-0.487 0.264,-0.492 0.277,-0.495C0.291,-0.498 0.305,-0.499 0.319,-0.499C0.369,-0.499 0.407,-0.484 0.433,-0.454C0.459,-0.424 0.472,-0.38 0.472,-0.32L0.472,-0L0.387,-0L0.387,-0.313C0.387,-0.351 0.38,-0.38 0.366,-0.398C0.351,-0.417 0.33,-0.426 0.302,-0.426C0.291,-0.426 0.281,-0.424 0.271,-0.421C0.261,-0.418 0.251,-0.413 0.24,-0.405C0.229,-0.397 0.218,-0.387 0.205,-0.374C0.193,-0.361 0.179,-0.345 0.163,-0.325L0.163,-0L0.078,-0L0.078,-0.49Z" style="fill-rule:nonzero;"/>
                </g>
                <g transform="matrix(10.5,0,0,10.5,40.4106,0)">
                    <path d="M0.472,-0L0.396,-0L0.393,-0.079C0.378,-0.062 0.364,-0.048 0.351,-0.037C0.338,-0.026 0.325,-0.017 0.312,-0.01C0.299,-0.003 0.286,0.002 0.272,0.004C0.259,0.007 0.246,0.009 0.231,0.009C0.181,0.009 0.142,-0.006 0.117,-0.036C0.091,-0.065 0.078,-0.11 0.078,-0.17L0.078,-0.49L0.163,-0.49L0.163,-0.177C0.163,-0.102 0.191,-0.064 0.248,-0.064C0.258,-0.064 0.269,-0.065 0.278,-0.068C0.288,-0.072 0.299,-0.077 0.31,-0.084C0.321,-0.092 0.332,-0.103 0.345,-0.116C0.357,-0.129 0.372,-0.145 0.387,-0.165L0.387,-0.49L0.472,-0.49L0.472,-0Z" style="fill-rule:nonzero;"/>
                </g>
                <g transform="matrix(10.5,0,0,10.5,46.1836,0)">
                    <path d="M0.428,-0L0.428,-0.352C0.428,-0.367 0.427,-0.38 0.426,-0.39C0.425,-0.399 0.423,-0.407 0.42,-0.413C0.418,-0.418 0.415,-0.423 0.411,-0.425C0.408,-0.427 0.403,-0.428 0.397,-0.428C0.391,-0.428 0.385,-0.426 0.379,-0.422C0.374,-0.418 0.368,-0.412 0.361,-0.403C0.355,-0.395 0.348,-0.383 0.34,-0.368C0.333,-0.354 0.324,-0.336 0.313,-0.315L0.313,-0L0.236,-0L0.236,-0.343C0.236,-0.361 0.235,-0.375 0.234,-0.386C0.233,-0.397 0.231,-0.406 0.229,-0.412C0.226,-0.418 0.223,-0.423 0.219,-0.425C0.215,-0.427 0.211,-0.428 0.205,-0.428C0.199,-0.428 0.194,-0.427 0.188,-0.423C0.183,-0.42 0.177,-0.414 0.171,-0.406C0.165,-0.397 0.158,-0.386 0.15,-0.371C0.142,-0.356 0.133,-0.338 0.122,-0.315L0.122,-0L0.044,-0L0.044,-0.49L0.109,-0.49L0.113,-0.397C0.121,-0.416 0.129,-0.431 0.137,-0.444C0.145,-0.457 0.154,-0.468 0.162,-0.476C0.171,-0.484 0.18,-0.49 0.189,-0.493C0.199,-0.497 0.209,-0.499 0.221,-0.499C0.248,-0.499 0.268,-0.49 0.281,-0.473C0.295,-0.456 0.302,-0.429 0.302,-0.393C0.31,-0.41 0.317,-0.425 0.325,-0.438C0.332,-0.451 0.34,-0.462 0.349,-0.471C0.357,-0.48 0.367,-0.487 0.377,-0.492C0.388,-0.497 0.4,-0.499 0.414,-0.499C0.475,-0.499 0.506,-0.452 0.506,-0.357L0.506,-0L0.428,-0Z" style="fill-rule:nonzero;"/>
                </g>
                <g transform="matrix(10.5,0,0,10.5,51.9565,0)">
                    <path d="M0.497,-0.254C0.497,-0.213 0.491,-0.177 0.48,-0.145C0.469,-0.113 0.453,-0.085 0.432,-0.063C0.412,-0.041 0.387,-0.024 0.357,-0.012C0.327,0 0.294,0.006 0.257,0.006C0.228,0.006 0.198,0.003 0.168,-0.002C0.138,-0.008 0.108,-0.017 0.078,-0.029L0.078,-0.69L0.163,-0.69L0.163,-0.5L0.159,-0.409C0.184,-0.442 0.21,-0.465 0.237,-0.479C0.265,-0.492 0.295,-0.499 0.327,-0.499C0.355,-0.499 0.38,-0.493 0.401,-0.481C0.422,-0.47 0.44,-0.453 0.454,-0.432C0.468,-0.41 0.479,-0.385 0.486,-0.354C0.493,-0.325 0.497,-0.291 0.497,-0.254ZM0.41,-0.25C0.41,-0.276 0.408,-0.299 0.404,-0.321C0.401,-0.342 0.395,-0.361 0.387,-0.376C0.379,-0.391 0.368,-0.403 0.355,-0.412C0.343,-0.42 0.328,-0.425 0.31,-0.425C0.299,-0.425 0.288,-0.423 0.277,-0.419C0.266,-0.416 0.255,-0.41 0.243,-0.402C0.231,-0.395 0.218,-0.384 0.205,-0.371C0.192,-0.358 0.178,-0.341 0.163,-0.322L0.163,-0.084C0.18,-0.077 0.197,-0.072 0.214,-0.068C0.231,-0.065 0.248,-0.063 0.263,-0.063C0.283,-0.063 0.301,-0.066 0.319,-0.072C0.337,-0.078 0.352,-0.089 0.366,-0.103C0.379,-0.118 0.39,-0.137 0.398,-0.161C0.406,-0.185 0.41,-0.215 0.41,-0.25Z" style="fill-rule:nonzero;"/>
                </g>
                <g transform="matrix(10.5,0,0,10.5,57.7295,0)">
                    <path d="M0.492,-0.271C0.492,-0.259 0.492,-0.249 0.492,-0.241C0.491,-0.233 0.491,-0.225 0.49,-0.218L0.146,-0.218C0.146,-0.168 0.16,-0.129 0.188,-0.102C0.216,-0.075 0.256,-0.062 0.309,-0.062C0.323,-0.062 0.338,-0.063 0.352,-0.063C0.366,-0.065 0.38,-0.066 0.394,-0.068C0.407,-0.07 0.42,-0.072 0.432,-0.075C0.444,-0.077 0.455,-0.08 0.466,-0.083L0.466,-0.013C0.443,-0.007 0.417,-0.001 0.387,0.002C0.358,0.007 0.328,0.009 0.297,0.009C0.255,0.009 0.219,0.003 0.188,-0.008C0.158,-0.02 0.133,-0.036 0.114,-0.058C0.095,-0.079 0.08,-0.106 0.071,-0.137C0.062,-0.169 0.057,-0.204 0.057,-0.244C0.057,-0.279 0.062,-0.311 0.072,-0.342C0.082,-0.373 0.096,-0.4 0.115,-0.423C0.134,-0.446 0.158,-0.465 0.186,-0.479C0.213,-0.492 0.245,-0.499 0.28,-0.499C0.314,-0.499 0.344,-0.494 0.371,-0.483C0.397,-0.472 0.419,-0.457 0.437,-0.437C0.455,-0.417 0.469,-0.394 0.478,-0.365C0.487,-0.337 0.492,-0.306 0.492,-0.271ZM0.404,-0.283C0.405,-0.305 0.403,-0.325 0.397,-0.343C0.392,-0.361 0.384,-0.377 0.373,-0.39C0.362,-0.403 0.349,-0.413 0.333,-0.42C0.316,-0.427 0.297,-0.431 0.276,-0.431C0.257,-0.431 0.24,-0.428 0.225,-0.42C0.21,-0.413 0.197,-0.403 0.186,-0.39C0.174,-0.377 0.166,-0.361 0.159,-0.343C0.152,-0.325 0.148,-0.305 0.146,-0.283L0.404,-0.283Z" style="fill-rule:nonzero;"/>
                </g>
                <g transform="matrix(10.5,0,0,10.5,63.5024,0)">
                    <path d="M0.098,-0.49L0.176,-0.49L0.178,-0.4C0.207,-0.435 0.236,-0.46 0.264,-0.476C0.292,-0.491 0.32,-0.499 0.349,-0.499C0.4,-0.499 0.438,-0.483 0.464,-0.45C0.491,-0.417 0.503,-0.368 0.501,-0.303L0.415,-0.303C0.416,-0.346 0.41,-0.377 0.396,-0.396C0.383,-0.416 0.363,-0.426 0.337,-0.426C0.326,-0.426 0.314,-0.424 0.302,-0.419C0.291,-0.416 0.279,-0.409 0.267,-0.4C0.255,-0.391 0.242,-0.38 0.228,-0.366C0.214,-0.352 0.2,-0.335 0.184,-0.315L0.184,-0L0.098,-0L0.098,-0.49Z" style="fill-rule:nonzero;"/>
                </g>
                <g transform="matrix(10.5,0,0,10.5,75.0483,0)">
                    <path d="M0.448,-0.046L0.395,0.008L0.067,-0.266L0.395,-0.54L0.448,-0.486L0.182,-0.267L0.448,-0.046Z" style="fill-rule:nonzero;"/>
                </g>
                <g transform="matrix(10.5,0,0,10.5,86.5942,0)">
                    <path d="M0.487,-0L0.086,-0L0.086,-0.079L0.25,-0.079L0.25,-0.545L0.097,-0.462L0.066,-0.534L0.269,-0.641L0.344,-0.641L0.344,-0.079L0.487,-0.079L0.487,-0Z" style="fill-rule:nonzero;"/>
                </g>
                <g transform="matrix(10.5,0,0,10.5,98.1401,0)">
                    <path d="M0.523,-0.323C0.523,-0.266 0.516,-0.216 0.502,-0.175C0.489,-0.133 0.471,-0.099 0.448,-0.071C0.425,-0.044 0.398,-0.024 0.367,-0.011C0.337,0.002 0.304,0.009 0.27,0.009C0.229,0.009 0.193,0.001 0.163,-0.013C0.132,-0.028 0.107,-0.05 0.087,-0.078C0.067,-0.106 0.052,-0.14 0.042,-0.18C0.033,-0.22 0.028,-0.265 0.028,-0.316C0.028,-0.373 0.035,-0.422 0.048,-0.463C0.061,-0.505 0.079,-0.539 0.102,-0.566C0.125,-0.594 0.152,-0.614 0.183,-0.627C0.213,-0.64 0.246,-0.647 0.28,-0.647C0.321,-0.647 0.356,-0.639 0.387,-0.625C0.417,-0.61 0.443,-0.588 0.463,-0.56C0.483,-0.532 0.498,-0.499 0.508,-0.458C0.518,-0.418 0.523,-0.373 0.523,-0.323ZM0.433,-0.317C0.433,-0.354 0.43,-0.389 0.424,-0.419C0.418,-0.451 0.409,-0.478 0.396,-0.5C0.384,-0.522 0.367,-0.54 0.347,-0.552C0.327,-0.565 0.303,-0.571 0.275,-0.571C0.248,-0.571 0.224,-0.564 0.204,-0.551C0.185,-0.538 0.168,-0.52 0.156,-0.497C0.143,-0.475 0.134,-0.448 0.127,-0.417C0.121,-0.387 0.118,-0.355 0.118,-0.321C0.118,-0.283 0.121,-0.249 0.127,-0.217C0.133,-0.186 0.142,-0.16 0.154,-0.137C0.167,-0.115 0.183,-0.098 0.203,-0.085C0.223,-0.073 0.247,-0.067 0.275,-0.067C0.302,-0.067 0.326,-0.073 0.346,-0.086C0.366,-0.1 0.382,-0.118 0.395,-0.14C0.408,-0.163 0.417,-0.189 0.423,-0.22C0.43,-0.25 0.433,-0.282 0.433,-0.317Z" style="fill-rule:nonzero;"/>
                </g>
                <g transform="matrix(10.5,0,0,10.5,103.913,0)">
                    <path d="M0.098,-0.49L0.176,-0.49L0.178,-0.4C0.207,-0.435 0.236,-0.46 0.264,-0.476C0.292,-0.491 0.32,-0.499 0.349,-0.499C0.4,-0.499 0.438,-0.483 0.464,-0.45C0.491,-0.417 0.503,-0.368 0.501,-0.303L0.415,-0.303C0.416,-0.346 0.41,-0.377 0.396,-0.396C0.383,-0.416 0.363,-0.426 0.337,-0.426C0.326,-0.426 0.314,-0.424 0.302,-0.419C0.291,-0.416 0.279,-0.409 0.267,-0.4C0.255,-0.391 0.242,-0.38 0.228,-0.366C0.214,-0.352 0.2,-0.335 0.184,-0.315L0.184,-0L0.098,-0L0.098,-0.49Z" style="fill-rule:nonzero;"/>
                </g>
            </g>
            <g transform="matrix(1,0,0,1,389.086,205.024)">
                <g transform="matrix(10.5,0,0,10.5,0,0)">
                    <path d="M0.078,-0.49L0.154,-0.49L0.157,-0.411C0.172,-0.428 0.185,-0.442 0.199,-0.453C0.212,-0.465 0.225,-0.474 0.238,-0.48C0.251,-0.487 0.264,-0.492 0.277,-0.495C0.291,-0.498 0.305,-0.499 0.319,-0.499C0.369,-0.499 0.407,-0.484 0.433,-0.454C0.459,-0.424 0.472,-0.38 0.472,-0.32L0.472,-0L0.387,-0L0.387,-0.313C0.387,-0.351 0.38,-0.38 0.366,-0.398C0.351,-0.417 0.33,-0.426 0.302,-0.426C0.291,-0.426 0.281,-0.424 0.271,-0.421C0.261,-0.418 0.251,-0.413 0.24,-0.405C0.229,-0.397 0.218,-0.387 0.205,-0.374C0.193,-0.361 0.179,-0.345 0.163,-0.325L0.163,-0L0.078,-0L0.078,-0.49Z" style="fill-rule:nonzero;"/>
                </g>
                <g transform="matrix(10.5,0,0,10.5,5.77295,0)">
                    <path d="M0.472,-0L0.396,-0L0.393,-0.079C0.378,-0.062 0.364,-0.048 0.351,-0.037C0.338,-0.026 0.325,-0.017 0.312,-0.01C0.299,-0.003 0.286,0.002 0.272,0.004C0.259,0.007 0.246,0.009 0.231,0.009C0.181,0.009 0.142,-0.006 0.117,-0.036C0.091,-0.065 0.078,-0.11 0.078,-0.17L0.078,-0.49L0.163,-0.49L0.163,-0.177C0.163,-0.102 0.191,-0.064 0.248,-0.064C0.258,-0.064 0.269,-0.065 0.278,-0.068C0.288,-0.072 0.299,-0.077 0.31,-0.084C0.321,-0.092 0.332,-0.103 0.345,-0.116C0.357,-0.129 0.372,-0.145 0.387,-0.165L0.387,-0.49L0.472,-0.49L0.472,-0Z" style="fill-rule:nonzero;"/>
                </g>
                <g transform="matrix(10.5,0,0,10.5,11.5459,0)">
                    <path d="M0.428,-0L0.428,-0.352C0.428,-0.367 0.427,-0.38 0.426,-0.39C0.425,-0.399 0.423,-0.407 0.42,-0.413C0.418,-0.418 0.415,-0.423 0.411,-0.425C0.408,-0.427 0.403,-0.428 0.397,-0.428C0.391,-0.428 0.385,-0.426 0.379,-0.422C0.374,-0.418 0.368,-0.412 0.361,-0.403C0.355,-0.395 0.348,-0.383 0.34,-0.368C0.333,-0.354 0.324,-0.336 0.313,-0.315L0.313,-0L0.236,-0L0.236,-0.343C0.236,-0.361 0.235,-0.375 0.234,-0.386C0.233,-0.397 0.231,-0.406 0.229,-0.412C0.226,-0.418 0.223,-0.423 0.219,-0.425C0.215,-0.427 0.211,-0.428 0.205,-0.428C0.199,-0.428 0.194,-0.427 0.188,-0.423C0.183,-0.42 0.177,-0.414 0.171,-0.406C0.165,-0.397 0.158,-0.386 0.15,-0.371C0.142,-0.356 0.133,-0.338 0.122,-0.315L0.122,-0L0.044,-0L0.044,-0.49L0.109,-0.49L0.113,-0.397C0.121,-0.416 0.129,-0.431 0.137,-0.444C0.145,-0.457 0.154,-0.468 0.162,-0.476C0.171,-0.484 0.18,-0.49 0.189,-0.493C0.199,-0.497 0.209,-0.499 0.221,-0.499C0.248,-0.499 0.268,-0.49 0.281,-0.473C0.295,-0.456 0.302,-0.429 0.302,-0.393C0.31,-0.41 0.317,-0.425 0.325,-0.438C0.332,-0.451 0.34,-0.462 0.349,-0.471C0.357,-0.48 0.367,-0.487 0.377,-0.492C0.388,-0.497 0.4,-0.499 0.414,-0.499C0.475,-0.499 0.506,-0.452 0.506,-0.357L0.506,-0L0.428,-0Z" style="fill-rule:nonzero;"/>
                </g>
                <g transform="matrix(10.5,0,0,10.5,17.3188,0)">
                    <path d="M0.497,-0.254C0.497,-0.213 0.491,-0.177 0.48,-0.145C0.469,-0.113 0.453,-0.085 0.432,-0.063C0.412,-0.041 0.387,-0.024 0.357,-0.012C0.327,0 0.294,0.006 0.257,0.006C0.228,0.006 0.198,0.003 0.168,-0.002C0.138,-0.008 0.108,-0.017 0.078,-0.029L0.078,-0.69L0.163,-0.69L0.163,-0.5L0.159,-0.409C0.184,-0.442 0.21,-0.465 0.237,-0.479C0.265,-0.492 0.295,-0.499 0.327,-0.499C0.355,-0.499 0.38,-0.493 0.401,-0.481C0.422,-0.47 0.44,-0.453 0.454,-0.432C0.468,-0.41 0.479,-0.385 0.486,-0.354C0.493,-0.325 0.497,-0.291 0.497,-0.254ZM0.41,-0.25C0.41,-0.276 0.408,-0.299 0.404,-0.321C0.401,-0.342 0.395,-0.361 0.387,-0.376C0.379,-0.391 0.368,-0.403 0.355,-0.412C0.343,-0.42 0.328,-0.425 0.31,-0.425C0.299,-0.425 0.288,-0.423 0.277,-0.419C0.266,-0.416 0.255,-0.41 0.243,-0.402C0.231,-0.395 0.218,-0.384 0.205,-0.371C0.192,-0.358 0.178,-0.341 0.163,-0.322L0.163,-0.084C0.18,-0.077 0.197,-0.072 0.214,-0.068C0.231,-0.065 0.248,-0.063 0.263,-0.063C0.283,-0.063 0.301,-0.066 0.319,-0.072C0.337,-0.078 0.352,-0.089 0.366,-0.103C0.379,-0.118 0.39,-0.137 0.398,-0.161C0.406,-0.185 0.41,-0.215 0.41,-0.25Z" style="fill-rule:nonzero;"/>
                </g>
                <g transform="matrix(10.5,0,0,10.5,23.0918,0)">
                    <path d="M0.492,-0.271C0.492,-0.259 0.492,-0.249 0.492,-0.241C0.491,-0.233 0.491,-0.225 0.49,-0.218L0.146,-0.218C0.146,-0.168 0.16,-0.129 0.188,-0.102C0.216,-0.075 0.256,-0.062 0.309,-0.062C0.323,-0.062 0.338,-0.063 0.352,-0.063C0.366,-0.065 0.38,-0.066 0.394,-0.068C0.407,-0.07 0.42,-0.072 0.432,-0.075C0.444,-0.077 0.455,-0.08 0.466,-0.083L0.466,-0.013C0.443,-0.007 0.417,-0.001 0.387,0.002C0.358,0.007 0.328,0.009 0.297,0.009C0.255,0.009 0.219,0.003 0.188,-0.008C0.158,-0.02 0.133,-0.036 0.114,-0.058C0.095,-0.079 0.08,-0.106 0.071,-0.137C0.062,-0.169 0.057,-0.204 0.057,-0.244C0.057,-0.279 0.062,-0.311 0.072,-0.342C0.082,-0.373 0.096,-0.4 0.115,-0.423C0.134,-0.446 0.158,-0.465 0.186,-0.479C0.213,-0.492 0.245,-0.499 0.28,-0.499C0.314,-0.499 0.344,-0.494 0.371,-0.483C0.397,-0.472 0.419,-0.457 0.437,-0.437C0.455,-0.417 0.469,-0.394 0.478,-0.365C0.487,-0.337 0.492,-0.306 0.492,-0.271ZM0.404,-0.283C0.405,-0.305 0.403,-0.325 0.397,-0.343C0.392,-0.361 0.384,-0.377 0.373,-0.39C0.362,-0.403 0.349,-0.413 0.333,-0.42C0.316,-0.427 0.297,-0.431 0.276,-0.431C0.257,-0.431 0.24,-0.428 0.225,-0.42C0.21,-0.413 0.197,-0.403 0.186,-0.39C0.174,-0.377 0.166,-0.361 0.159,-0.343C0.152,-0.325 0.148,-0.305 0.146,-0.283L0.404,-0.283Z" style="fill-rule:nonzero;"/>
                </g>
                <g transform="matrix(10.5,0,0,10.5,28.8647,0)">
                    <path d="M0.098,-0.49L0.176,-0.49L0.178,-0.4C0.207,-0.435 0.236,-0.46 0.264,-0.476C0.292,-0.491 0.32,-0.499 0.349,-0.499C0.4,-0.499 0.438,-0.483 0.464,-0.45C0.491,-0.417 0.503,-0.368 0.501,-0.303L0.415,-0.303C0.416,-0.346 0.41,-0.377 0.396,-0.396C0.383,-0.416 0.363,-0.426 0.337,-0.426C0.326,-0.426 0.314,-0.424 0.302,-0.419C0.291,-0.416 0.279,-0.409 0.267,-0.4C0.255,-0.391 0.242,-0.38 0.228,-0.366C0.214,-0.352 0.2,-0.335 0.184,-0.315L0.184,-0L0.098,-0L0.098,-0.49Z" style="fill-rule:nonzero;"/>
                </g>
                <g transform="matrix(10.5,0,0,10.5,40.4106,0)">
                    <path d="M0.102,-0.486L0.155,-0.54L0.483,-0.266L0.155,0.008L0.102,-0.046L0.368,-0.265L0.102,-0.486Z" style="fill-rule:nonzero;"/>
                </g>
                <g transform="matrix(10.5,0,0,10.5,51.9565,0)">
                    <path d="M0.487,-0L0.086,-0L0.086,-0.079L0.25,-0.079L0.25,-0.545L0.097,-0.462L0.066,-0.534L0.269,-0.641L0.344,-0.641L0.344,-0.079L0.487,-0.079L0.487,-0Z" style="fill-rule:nonzero;"/>
                </g>
                <g transform="matrix(10.5,0,0,10.5,57.7295,0)">
                    <path d="M0.507,-0.319C0.507,-0.27 0.502,-0.225 0.492,-0.185C0.482,-0.145 0.468,-0.111 0.448,-0.082C0.428,-0.053 0.403,-0.031 0.374,-0.015C0.344,0.001 0.31,0.009 0.27,0.009C0.236,0.009 0.205,0.002 0.177,-0.01C0.149,-0.023 0.125,-0.043 0.105,-0.07C0.085,-0.097 0.07,-0.131 0.059,-0.172C0.048,-0.213 0.043,-0.262 0.043,-0.319C0.043,-0.368 0.048,-0.412 0.058,-0.453C0.068,-0.493 0.083,-0.528 0.102,-0.556C0.122,-0.585 0.147,-0.607 0.176,-0.623C0.206,-0.639 0.24,-0.647 0.28,-0.647C0.314,-0.647 0.345,-0.64 0.373,-0.627C0.401,-0.615 0.425,-0.595 0.445,-0.568C0.465,-0.541 0.48,-0.507 0.491,-0.466C0.501,-0.424 0.507,-0.375 0.507,-0.319ZM0.421,-0.316C0.421,-0.327 0.42,-0.338 0.419,-0.349C0.419,-0.36 0.418,-0.37 0.417,-0.381L0.147,-0.18C0.152,-0.163 0.158,-0.148 0.166,-0.133C0.173,-0.119 0.182,-0.107 0.192,-0.096C0.203,-0.086 0.215,-0.078 0.229,-0.072C0.242,-0.067 0.258,-0.064 0.275,-0.064C0.297,-0.064 0.317,-0.069 0.335,-0.08C0.353,-0.091 0.369,-0.107 0.381,-0.128C0.394,-0.149 0.404,-0.175 0.411,-0.207C0.417,-0.238 0.421,-0.275 0.421,-0.316ZM0.129,-0.322L0.129,-0.292C0.129,-0.281 0.13,-0.272 0.131,-0.262L0.401,-0.462C0.396,-0.479 0.39,-0.494 0.382,-0.507C0.375,-0.521 0.366,-0.533 0.355,-0.542C0.345,-0.553 0.333,-0.56 0.32,-0.566C0.306,-0.571 0.292,-0.574 0.275,-0.574C0.253,-0.574 0.233,-0.569 0.214,-0.558C0.196,-0.547 0.181,-0.531 0.168,-0.51C0.156,-0.489 0.146,-0.462 0.139,-0.431C0.132,-0.399 0.129,-0.363 0.129,-0.322Z" style="fill-rule:nonzero;"/>
                </g>
            </g>
        </g>
        <g transform="matrix(1,0,0,1,297.501,223.424)">
            <g transform="matrix(10.5,0,0,10.5,0,0)">
                <path d="M0.503,-0.179L0.394,-0.179L0.376,-0L0.304,-0L0.322,-0.179L0.197,-0.179L0.179,-0L0.107,-0L0.125,-0.179L0.021,-0.179L0.021,-0.243L0.131,-0.243L0.149,-0.414L0.046,-0.414L0.046,-0.477L0.155,-0.477L0.172,-0.638L0.243,-0.638L0.227,-0.477L0.352,-0.477L0.369,-0.638L0.441,-0.638L0.424,-0.477L0.529,-0.477L0.529,-0.414L0.417,-0.414L0.4,-0.243L0.503,-0.243L0.503,-0.179ZM0.329,-0.243L0.346,-0.414L0.221,-0.414L0.204,-0.243L0.329,-0.243Z" style="fill-rule:nonzero;"/>
            </g>
            <g transform="matrix(10.5,0,0,10.5,5.77295,0)">
                <path d="M0.487,-0.173C0.487,-0.143 0.481,-0.116 0.468,-0.093C0.456,-0.07 0.439,-0.051 0.417,-0.036C0.394,-0.021 0.368,-0.01 0.336,-0.002C0.306,0.005 0.271,0.009 0.234,0.009C0.217,0.009 0.2,0.008 0.183,0.007C0.167,0.006 0.15,0.004 0.135,0.002C0.119,0 0.105,-0.002 0.091,-0.005C0.078,-0.007 0.065,-0.01 0.054,-0.013L0.054,-0.097C0.079,-0.088 0.106,-0.081 0.136,-0.076C0.167,-0.07 0.201,-0.068 0.24,-0.068C0.268,-0.068 0.292,-0.07 0.312,-0.074C0.331,-0.079 0.347,-0.085 0.36,-0.094C0.373,-0.103 0.382,-0.113 0.387,-0.125C0.393,-0.138 0.396,-0.152 0.396,-0.168C0.396,-0.185 0.391,-0.2 0.381,-0.212C0.372,-0.224 0.359,-0.235 0.344,-0.245C0.328,-0.254 0.31,-0.263 0.29,-0.271C0.27,-0.279 0.25,-0.287 0.229,-0.296C0.208,-0.304 0.188,-0.313 0.167,-0.323C0.148,-0.333 0.13,-0.345 0.114,-0.358C0.099,-0.372 0.086,-0.388 0.076,-0.406C0.067,-0.424 0.062,-0.446 0.062,-0.471C0.062,-0.493 0.067,-0.514 0.076,-0.536C0.085,-0.557 0.099,-0.576 0.118,-0.592C0.137,-0.608 0.162,-0.622 0.192,-0.632C0.222,-0.642 0.258,-0.647 0.3,-0.647C0.311,-0.647 0.322,-0.646 0.334,-0.646C0.347,-0.645 0.36,-0.643 0.373,-0.641C0.386,-0.639 0.398,-0.638 0.411,-0.635C0.423,-0.633 0.435,-0.631 0.446,-0.628L0.446,-0.55C0.421,-0.557 0.396,-0.562 0.371,-0.566C0.346,-0.57 0.321,-0.572 0.298,-0.572C0.248,-0.572 0.211,-0.563 0.188,-0.547C0.165,-0.53 0.153,-0.508 0.153,-0.48C0.153,-0.463 0.158,-0.448 0.167,-0.436C0.177,-0.423 0.189,-0.412 0.205,-0.402C0.221,-0.393 0.238,-0.384 0.258,-0.375C0.278,-0.368 0.299,-0.36 0.32,-0.351C0.341,-0.343 0.361,-0.333 0.381,-0.323C0.401,-0.313 0.419,-0.301 0.435,-0.287C0.45,-0.273 0.463,-0.257 0.472,-0.239C0.482,-0.22 0.487,-0.198 0.487,-0.173Z" style="fill-rule:nonzero;"/>
            </g>
            <g transform="matrix(10.5,0,0,10.5,11.5459,0)">
                <path d="M0.523,-0.323C0.523,-0.266 0.516,-0.216 0.502,-0.175C0.489,-0.133 0.471,-0.099 0.448,-0.071C0.425,-0.044 0.398,-0.024 0.367,-0.011C0.337,0.002 0.304,0.009 0.27,0.009C0.229,0.009 0.193,0.001 0.163,-0.013C0.132,-0.028 0.107,-0.05 0.087,-0.078C0.067,-0.106 0.052,-0.14 0.042,-0.18C0.033,-0.22 0.028,-0.265 0.028,-0.316C0.028,-0.373 0.035,-0.422 0.048,-0.463C0.061,-0.505 0.079,-0.539 0.102,-0.566C0.125,-0.594 0.152,-0.614 0.183,-0.627C0.213,-0.64 0.246,-0.647 0.28,-0.647C0.321,-0.647 0.356,-0.639 0.387,-0.625C0.417,-0.61 0.443,-0.588 0.463,-0.56C0.483,-0.532 0.498,-0.499 0.508,-0.458C0.518,-0.418 0.523,-0.373 0.523,-0.323ZM0.433,-0.317C0.433,-0.354 0.43,-0.389 0.424,-0.419C0.418,-0.451 0.409,-0.478 0.396,-0.5C0.384,-0.522 0.367,-0.54 0.347,-0.552C0.327,-0.565 0.303,-0.571 0.275,-0.571C0.248,-0.571 0.224,-0.564 0.204,-0.551C0.185,-0.538 0.168,-0.52 0.156,-0.497C0.143,-0.475 0.134,-0.448 0.127,-0.417C0.121,-0.387 0.118,-0.355 0.118,-0.321C0.118,-0.283 0.121,-0.249 0.127,-0.217C0.133,-0.186 0.142,-0.16 0.154,-0.137C0.167,-0.115 0.183,-0.098 0.203,-0.085C0.223,-0.073 0.247,-0.067 0.275,-0.067C0.302,-0.067 0.326,-0.073 0.346,-0.086C0.366,-0.1 0.382,-0.118 0.395,-0.14C0.408,-0.163 0.417,-0.189 0.423,-0.22C0.43,-0.25 0.433,-0.282 0.433,-0.317Z" style="fill-rule:nonzero;"/>
            </g>
            <g transform="matrix(10.5,0,0,10.5,17.3188,0)">
                <path d="M0.526,-0L0.441,-0L0.428,-0.398L0.423,-0.551L0.393,-0.462L0.299,-0.208L0.239,-0.208L0.149,-0.452L0.119,-0.551L0.117,-0.391L0.106,-0L0.024,-0L0.055,-0.638L0.158,-0.638L0.244,-0.398L0.272,-0.317L0.299,-0.398L0.389,-0.638L0.495,-0.638L0.526,-0Z" style="fill-rule:nonzero;"/>
            </g>
            <g transform="matrix(10.5,0,0,10.5,23.0918,0)">
                <path d="M0.461,-0L0.098,-0L0.098,-0.638L0.461,-0.638L0.461,-0.565L0.185,-0.565L0.185,-0.367L0.45,-0.367L0.45,-0.294L0.185,-0.294L0.185,-0.074L0.461,-0.074L0.461,-0Z" style="fill-rule:nonzero;"/>
            </g>
            <g transform="matrix(10.5,0,0,10.5,34.6377,0)">
                <path d="M0.486,-0.024C0.435,-0.003 0.381,0.008 0.325,0.008C0.235,0.008 0.166,-0.019 0.117,-0.073C0.069,-0.127 0.045,-0.207 0.045,-0.312C0.045,-0.363 0.052,-0.409 0.065,-0.451C0.078,-0.492 0.097,-0.527 0.122,-0.556C0.147,-0.585 0.177,-0.607 0.212,-0.623C0.247,-0.638 0.286,-0.646 0.33,-0.646C0.36,-0.646 0.387,-0.643 0.413,-0.638C0.438,-0.633 0.462,-0.626 0.486,-0.615L0.486,-0.53C0.463,-0.542 0.439,-0.552 0.414,-0.559C0.389,-0.565 0.362,-0.569 0.333,-0.569C0.303,-0.569 0.276,-0.563 0.251,-0.552C0.227,-0.541 0.207,-0.524 0.19,-0.503C0.173,-0.482 0.16,-0.456 0.151,-0.425C0.142,-0.394 0.137,-0.359 0.137,-0.32C0.137,-0.237 0.154,-0.175 0.188,-0.133C0.221,-0.091 0.27,-0.07 0.335,-0.07C0.362,-0.07 0.389,-0.073 0.414,-0.079C0.439,-0.086 0.463,-0.095 0.486,-0.106L0.486,-0.024Z" style="fill-rule:nonzero;"/>
            </g>
            <g transform="matrix(10.5,0,0,10.5,40.4106,0)">
                <path d="M0.523,-0.323C0.523,-0.266 0.516,-0.216 0.502,-0.175C0.489,-0.133 0.471,-0.099 0.448,-0.071C0.425,-0.044 0.398,-0.024 0.367,-0.011C0.337,0.002 0.304,0.009 0.27,0.009C0.229,0.009 0.193,0.001 0.163,-0.013C0.132,-0.028 0.107,-0.05 0.087,-0.078C0.067,-0.106 0.052,-0.14 0.042,-0.18C0.033,-0.22 0.028,-0.265 0.028,-0.316C0.028,-0.373 0.035,-0.422 0.048,-0.463C0.061,-0.505 0.079,-0.539 0.102,-0.566C0.125,-0.594 0.152,-0.614 0.183,-0.627C0.213,-0.64 0.246,-0.647 0.28,-0.647C0.321,-0.647 0.356,-0.639 0.387,-0.625C0.417,-0.61 0.443,-0.588 0.463,-0.56C0.483,-0.532 0.498,-0.499 0.508,-0.458C0.518,-0.418 0.523,-0.373 0.523,-0.323ZM0.433,-0.317C0.433,-0.354 0.43,-0.389 0.424,-0.419C0.418,-0.451 0.409,-0.478 0.396,-0.5C0.384,-0.522 0.367,-0.54 0.347,-0.552C0.327,-0.565 0.303,-0.571 0.275,-0.571C0.248,-0.571 0.224,-0.564 0.204,-0.551C0.185,-0.538 0.168,-0.52 0.156,-0.497C0.143,-0.475 0.134,-0.448 0.127,-0.417C0.121,-0.387 0.118,-0.355 0.118,-0.321C0.118,-0.283 0.121,-0.249 0.127,-0.217C0.133,-0.186 0.142,-0.16 0.154,-0.137C0.167,-0.115 0.183,-0.098 0.203,-0.085C0.223,-0.073 0.247,-0.067 0.275,-0.067C0.302,-0.067 0.326,-0.073 0.346,-0.086C0.366,-0.1 0.382,-0.118 0.395,-0.14C0.408,-0.163 0.417,-0.189 0.423,-0.22C0.43,-0.25 0.433,-0.282 0.433,-0.317Z" style="fill-rule:nonzero;"/>
            </g>
            <g transform="matrix(10.5,0,0,10.5,46.1836,0)">
                <path d="M0.514,-0.326C0.514,-0.296 0.512,-0.266 0.507,-0.238C0.502,-0.21 0.495,-0.184 0.484,-0.16C0.474,-0.136 0.46,-0.114 0.444,-0.094C0.427,-0.075 0.407,-0.058 0.383,-0.044C0.359,-0.03 0.331,-0.019 0.299,-0.011C0.267,-0.004 0.231,-0 0.19,-0L0.053,-0L0.053,-0.638L0.218,-0.638C0.317,-0.638 0.392,-0.612 0.44,-0.561C0.49,-0.51 0.514,-0.432 0.514,-0.326ZM0.423,-0.32C0.423,-0.365 0.419,-0.403 0.41,-0.435C0.402,-0.466 0.389,-0.491 0.372,-0.51C0.354,-0.529 0.333,-0.543 0.307,-0.552C0.281,-0.561 0.25,-0.565 0.215,-0.565L0.14,-0.565L0.14,-0.075L0.205,-0.075C0.35,-0.075 0.423,-0.157 0.423,-0.32Z" style="fill-rule:nonzero;"/>
            </g>
            <g transform="matrix(10.5,0,0,10.5,51.9565,0)">
                <path d="M0.461,-0L0.098,-0L0.098,-0.638L0.461,-0.638L0.461,-0.565L0.185,-0.565L0.185,-0.367L0.45,-0.367L0.45,-0.294L0.185,-0.294L0.185,-0.074L0.461,-0.074L0.461,-0Z" style="fill-rule:nonzero;"/>
            </g>
        </g>
        <g transform="matrix(1,0,0,1,279.501,241.824)">
            <g transform="matrix(10.5,0,0,10.5,0,0)">
                <path d="M0.461,-0L0.098,-0L0.098,-0.638L0.461,-0.638L0.461,-0.565L0.185,-0.565L0.185,-0.367L0.45,-0.367L0.45,-0.294L0.185,-0.294L0.185,-0.074L0.461,-0.074L0.461,-0Z" style="fill-rule:nonzero;"/>
            </g>
            <g transform="matrix(10.5,0,0,10.5,5.77295,0)">
                <path d="M0.078,-0.49L0.154,-0.49L0.157,-0.411C0.172,-0.428 0.185,-0.442 0.199,-0.453C0.212,-0.465 0.225,-0.474 0.238,-0.48C0.251,-0.487 0.264,-0.492 0.277,-0.495C0.291,-0.498 0.305,-0.499 0.319,-0.499C0.369,-0.499 0.407,-0.484 0.433,-0.454C0.459,-0.424 0.472,-0.38 0.472,-0.32L0.472,-0L0.387,-0L0.387,-0.313C0.387,-0.351 0.38,-0.38 0.366,-0.398C0.351,-0.417 0.33,-0.426 0.302,-0.426C0.291,-0.426 0.281,-0.424 0.271,-0.421C0.261,-0.418 0.251,-0.413 0.24,-0.405C0.229,-0.397 0.218,-0.387 0.205,-0.374C0.193,-0.361 0.179,-0.345 0.163,-0.325L0.163,-0L0.078,-0L0.078,-0.49Z" style="fill-rule:nonzero;"/>
            </g>
            <g transform="matrix(10.5,0,0,10.5,11.5459,0)">
                <path d="M0.053,-0.235C0.053,-0.277 0.059,-0.313 0.07,-0.346C0.082,-0.378 0.098,-0.406 0.119,-0.428C0.14,-0.45 0.165,-0.467 0.194,-0.479C0.224,-0.49 0.257,-0.496 0.293,-0.496C0.309,-0.496 0.324,-0.495 0.339,-0.493C0.354,-0.491 0.369,-0.488 0.384,-0.484L0.384,-0.69L0.469,-0.69L0.469,-0L0.393,-0L0.39,-0.093C0.366,-0.058 0.341,-0.033 0.313,-0.016C0.285,0 0.255,0.009 0.223,0.009C0.195,0.009 0.17,0.003 0.149,-0.009C0.128,-0.021 0.11,-0.037 0.096,-0.058C0.082,-0.08 0.071,-0.105 0.064,-0.135C0.057,-0.165 0.053,-0.198 0.053,-0.235ZM0.14,-0.24C0.14,-0.181 0.149,-0.137 0.166,-0.107C0.184,-0.078 0.208,-0.064 0.24,-0.064C0.262,-0.064 0.284,-0.074 0.308,-0.093C0.332,-0.112 0.357,-0.14 0.384,-0.178L0.384,-0.406C0.37,-0.412 0.354,-0.417 0.337,-0.42C0.32,-0.424 0.304,-0.426 0.287,-0.426C0.241,-0.426 0.205,-0.411 0.179,-0.381C0.153,-0.351 0.14,-0.304 0.14,-0.24Z" style="fill-rule:nonzero;"/>
            </g>
            <g transform="matrix(10.5,0,0,10.5,23.0918,0)">
                <path d="M0.528,-0.638L0.485,-0L0.372,-0L0.293,-0.227L0.271,-0.3L0.248,-0.221L0.175,-0L0.066,-0L0.022,-0.638L0.104,-0.638L0.129,-0.204L0.136,-0.085L0.167,-0.186L0.244,-0.423L0.304,-0.423L0.393,-0.169L0.423,-0.085L0.425,-0.173L0.45,-0.638L0.528,-0.638Z" style="fill-rule:nonzero;"/>
            </g>
            <g transform="matrix(10.5,0,0,10.5,28.8647,0)">
                <path d="M0.472,-0L0.387,-0L0.387,-0.313C0.387,-0.351 0.38,-0.379 0.366,-0.397C0.352,-0.416 0.332,-0.426 0.305,-0.426C0.294,-0.426 0.283,-0.424 0.273,-0.421C0.263,-0.418 0.253,-0.413 0.242,-0.405C0.231,-0.397 0.22,-0.387 0.207,-0.374C0.194,-0.361 0.18,-0.345 0.163,-0.325L0.163,-0L0.078,-0L0.078,-0.69L0.163,-0.69L0.163,-0.49L0.16,-0.413C0.174,-0.429 0.187,-0.442 0.199,-0.453C0.212,-0.464 0.225,-0.473 0.238,-0.48C0.251,-0.487 0.264,-0.492 0.277,-0.495C0.291,-0.498 0.305,-0.499 0.319,-0.499C0.368,-0.499 0.405,-0.484 0.432,-0.454C0.459,-0.424 0.472,-0.38 0.472,-0.32L0.472,-0Z" style="fill-rule:nonzero;"/>
            </g>
            <g transform="matrix(10.5,0,0,10.5,34.6377,0)">
                <path d="M0.245,-0.42L0.1,-0.42L0.1,-0.49L0.331,-0.49L0.331,-0.071L0.477,-0.071L0.477,-0L0.084,-0L0.084,-0.071L0.245,-0.071L0.245,-0.42ZM0.275,-0.696C0.284,-0.696 0.293,-0.694 0.301,-0.69C0.309,-0.687 0.316,-0.682 0.322,-0.676C0.328,-0.67 0.333,-0.663 0.336,-0.655C0.34,-0.647 0.342,-0.638 0.342,-0.629C0.342,-0.62 0.34,-0.611 0.336,-0.603C0.333,-0.595 0.328,-0.588 0.322,-0.582C0.316,-0.575 0.309,-0.57 0.301,-0.567C0.293,-0.564 0.284,-0.562 0.275,-0.562C0.265,-0.562 0.257,-0.564 0.249,-0.567C0.24,-0.57 0.233,-0.575 0.227,-0.582C0.221,-0.588 0.216,-0.595 0.213,-0.603C0.21,-0.611 0.208,-0.62 0.208,-0.629C0.208,-0.638 0.21,-0.647 0.213,-0.655C0.216,-0.663 0.221,-0.67 0.227,-0.676C0.233,-0.682 0.24,-0.687 0.249,-0.69C0.257,-0.694 0.265,-0.696 0.275,-0.696Z" style="fill-rule:nonzero;"/>
            </g>
            <g transform="matrix(10.5,0,0,10.5,40.4106,0)">
                <path d="M0.245,-0.62L0.1,-0.62L0.1,-0.69L0.331,-0.69L0.331,-0.071L0.477,-0.071L0.477,-0L0.084,-0L0.084,-0.071L0.245,-0.071L0.245,-0.62Z" style="fill-rule:nonzero;"/>
            </g>
            <g transform="matrix(10.5,0,0,10.5,46.1836,0)">
                <path d="M0.492,-0.271C0.492,-0.259 0.492,-0.249 0.492,-0.241C0.491,-0.233 0.491,-0.225 0.49,-0.218L0.146,-0.218C0.146,-0.168 0.16,-0.129 0.188,-0.102C0.216,-0.075 0.256,-0.062 0.309,-0.062C0.323,-0.062 0.338,-0.063 0.352,-0.063C0.366,-0.065 0.38,-0.066 0.394,-0.068C0.407,-0.07 0.42,-0.072 0.432,-0.075C0.444,-0.077 0.455,-0.08 0.466,-0.083L0.466,-0.013C0.443,-0.007 0.417,-0.001 0.387,0.002C0.358,0.007 0.328,0.009 0.297,0.009C0.255,0.009 0.219,0.003 0.188,-0.008C0.158,-0.02 0.133,-0.036 0.114,-0.058C0.095,-0.079 0.08,-0.106 0.071,-0.137C0.062,-0.169 0.057,-0.204 0.057,-0.244C0.057,-0.279 0.062,-0.311 0.072,-0.342C0.082,-0.373 0.096,-0.4 0.115,-0.423C0.134,-0.446 0.158,-0.465 0.186,-0.479C0.213,-0.492 0.245,-0.499 0.28,-0.499C0.314,-0.499 0.344,-0.494 0.371,-0.483C0.397,-0.472 0.419,-0.457 0.437,-0.437C0.455,-0.417 0.469,-0.394 0.478,-0.365C0.487,-0.337 0.492,-0.306 0.492,-0.271ZM0.404,-0.283C0.405,-0.305 0.403,-0.325 0.397,-0.343C0.392,-0.361 0.384,-0.377 0.373,-0.39C0.362,-0.403 0.349,-0.413 0.333,-0.42C0.316,-0.427 0.297,-0.431 0.276,-0.431C0.257,-0.431 0.24,-0.428 0.225,-0.42C0.21,-0.413 0.197,-0.403 0.186,-0.39C0.174,-0.377 0.166,-0.361 0.159,-0.343C0.152,-0.325 0.148,-0.305 0.146,-0.283L0.404,-0.283Z" style="fill-rule:nonzero;"/>
            </g>
        </g>
        <g transform="matrix(1,0,0,1,274.797,283.28)">
            <g transform="matrix(10.5,0,0,10.5,0,0)">
                <path d="M0.514,-0.326C0.514,-0.296 0.512,-0.266 0.507,-0.238C0.502,-0.21 0.495,-0.184 0.484,-0.16C0.474,-0.136 0.46,-0.114 0.444,-0.094C0.427,-0.075 0.407,-0.058 0.383,-0.044C0.359,-0.03 0.331,-0.019 0.299,-0.011C0.267,-0.004 0.231,-0 0.19,-0L0.053,-0L0.053,-0.638L0.218,-0.638C0.317,-0.638 0.392,-0.612 0.44,-0.561C0.49,-0.51 0.514,-0.432 0.514,-0.326ZM0.423,-0.32C0.423,-0.365 0.419,-0.403 0.41,-0.435C0.402,-0.466 0.389,-0.491 0.372,-0.51C0.354,-0.529 0.333,-0.543 0.307,-0.552C0.281,-0.561 0.25,-0.565 0.215,-0.565L0.14,-0.565L0.14,-0.075L0.205,-0.075C0.35,-0.075 0.423,-0.157 0.423,-0.32Z" style="fill-rule:nonzero;"/>
            </g>
            <g transform="matrix(10.5,0,0,10.5,5.77295,0)">
                <path d="M0.505,-0.249C0.505,-0.211 0.5,-0.176 0.489,-0.144C0.478,-0.112 0.463,-0.085 0.442,-0.063C0.422,-0.04 0.398,-0.022 0.369,-0.01C0.34,0.003 0.307,0.009 0.27,0.009C0.235,0.009 0.203,0.003 0.175,-0.007C0.148,-0.018 0.124,-0.035 0.104,-0.056C0.085,-0.077 0.07,-0.103 0.06,-0.134C0.05,-0.166 0.045,-0.201 0.045,-0.242C0.045,-0.28 0.05,-0.315 0.061,-0.346C0.072,-0.378 0.087,-0.405 0.107,-0.427C0.128,-0.45 0.152,-0.468 0.181,-0.48C0.21,-0.493 0.243,-0.499 0.28,-0.499C0.315,-0.499 0.346,-0.493 0.374,-0.482C0.402,-0.472 0.426,-0.456 0.445,-0.435C0.464,-0.414 0.479,-0.388 0.489,-0.356C0.5,-0.325 0.505,-0.289 0.505,-0.249ZM0.418,-0.245C0.418,-0.275 0.415,-0.302 0.408,-0.324C0.401,-0.347 0.392,-0.366 0.379,-0.381C0.367,-0.396 0.352,-0.408 0.334,-0.415C0.316,-0.423 0.297,-0.427 0.275,-0.427C0.25,-0.427 0.228,-0.422 0.209,-0.412C0.192,-0.402 0.177,-0.389 0.165,-0.372C0.154,-0.355 0.145,-0.336 0.14,-0.314C0.134,-0.292 0.132,-0.269 0.132,-0.245C0.132,-0.215 0.135,-0.188 0.142,-0.166C0.148,-0.143 0.158,-0.124 0.17,-0.108C0.183,-0.093 0.198,-0.082 0.215,-0.074C0.233,-0.067 0.253,-0.063 0.275,-0.063C0.3,-0.063 0.322,-0.068 0.34,-0.078C0.358,-0.088 0.373,-0.101 0.384,-0.118C0.396,-0.134 0.404,-0.153 0.41,-0.175C0.415,-0.197 0.418,-0.221 0.418,-0.245Z" style="fill-rule:nonzero;"/>
            </g>
        </g>
        <g transform="matrix(1,0,0,1,292.797,301.68)">
            <g transform="matrix(10.5,0,0,10.5,0,0)">
                <path d="M0.503,-0.179L0.394,-0.179L0.376,-0L0.304,-0L0.322,-0.179L0.197,-0.179L0.179,-0L0.107,-0L0.125,-0.179L0.021,-0.179L0.021,-0.243L0.131,-0.243L0.149,-0.414L0.046,-0.414L0.046,-0.477L0.155,-0.477L0.172,-0.638L0.243,-0.638L0.227,-0.477L0.352,-0.477L0.369,-0.638L0.441,-0.638L0.424,-0.477L0.529,-0.477L0.529,-0.414L0.417,-0.414L0.4,-0.243L0.503,-0.243L0.503,-0.179ZM0.329,-0.243L0.346,-0.414L0.221,-0.414L0.204,-0.243L0.329,-0.243Z" style="fill-rule:nonzero;"/>
            </g>
            <g transform="matrix(10.5,0,0,10.5,5.77295,0)">
                <path d="M0.487,-0.173C0.487,-0.143 0.481,-0.116 0.468,-0.093C0.456,-0.07 0.439,-0.051 0.417,-0.036C0.394,-0.021 0.368,-0.01 0.336,-0.002C0.306,0.005 0.271,0.009 0.234,0.009C0.217,0.009 0.2,0.008 0.183,0.007C0.167,0.006 0.15,0.004 0.135,0.002C0.119,0 0.105,-0.002 0.091,-0.005C0.078,-0.007 0.065,-0.01 0.054,-0.013L0.054,-0.097C0.079,-0.088 0.106,-0.081 0.136,-0.076C0.167,-0.07 0.201,-0.068 0.24,-0.068C0.268,-0.068 0.292,-0.07 0.312,-0.074C0.331,-0.079 0.347,-0.085 0.36,-0.094C0.373,-0.103 0.382,-0.113 0.387,-0.125C0.393,-0.138 0.396,-0.152 0.396,-0.168C0.396,-0.185 0.391,-0.2 0.381,-0.212C0.372,-0.224 0.359,-0.235 0.344,-0.245C0.328,-0.254 0.31,-0.263 0.29,-0.271C0.27,-0.279 0.25,-0.287 0.229,-0.296C0.208,-0.304 0.188,-0.313 0.167,-0.323C0.148,-0.333 0.13,-0.345 0.114,-0.358C0.099,-0.372 0.086,-0.388 0.076,-0.406C0.067,-0.424 0.062,-0.446 0.062,-0.471C0.062,-0.493 0.067,-0.514 0.076,-0.536C0.085,-0.557 0.099,-0.576 0.118,-0.592C0.137,-0.608 0.162,-0.622 0.192,-0.632C0.222,-0.642 0.258,-0.647 0.3,-0.647C0.311,-0.647 0.322,-0.646 0.334,-0.646C0.347,-0.645 0.36,-0.643 0.373,-0.641C0.386,-0.639 0.398,-0.638 0.411,-0.635C0.423,-0.633 0.435,-0.631 0.446,-0.628L0.446,-0.55C0.421,-0.557 0.396,-0.562 0.371,-0.566C0.346,-0.57 0.321,-0.572 0.298,-0.572C0.248,-0.572 0.211,-0.563 0.188,-0.547C0.165,-0.53 0.153,-0.508 0.153,-0.48C0.153,-0.463 0.158,-0.448 0.167,-0.436C0.177,-0.423 0.189,-0.412 0.205,-0.402C0.221,-0.393 0.238,-0.384 0.258,-0.375C0.278,-0.368 0.299,-0.36 0.32,-0.351C0.341,-0.343 0.361,-0.333 0.381,-0.323C0.401,-0.313 0.419,-0.301 0.435,-0.287C0.45,-0.273 0.463,-0.257 0.472,-0.239C0.482,-0.22 0.487,-0.198 0.487,-0.173Z" style="fill-rule:nonzero;"/>
            </g>
            <g transform="matrix(10.5,0,0,10.5,11.5459,0)">
                <path d="M0.523,-0.323C0.523,-0.266 0.516,-0.216 0.502,-0.175C0.489,-0.133 0.471,-0.099 0.448,-0.071C0.425,-0.044 0.398,-0.024 0.367,-0.011C0.337,0.002 0.304,0.009 0.27,0.009C0.229,0.009 0.193,0.001 0.163,-0.013C0.132,-0.028 0.107,-0.05 0.087,-0.078C0.067,-0.106 0.052,-0.14 0.042,-0.18C0.033,-0.22 0.028,-0.265 0.028,-0.316C0.028,-0.373 0.035,-0.422 0.048,-0.463C0.061,-0.505 0.079,-0.539 0.102,-0.566C0.125,-0.594 0.152,-0.614 0.183,-0.627C0.213,-0.64 0.246,-0.647 0.28,-0.647C0.321,-0.647 0.356,-0.639 0.387,-0.625C0.417,-0.61 0.443,-0.588 0.463,-0.56C0.483,-0.532 0.498,-0.499 0.508,-0.458C0.518,-0.418 0.523,-0.373 0.523,-0.323ZM0.433,-0.317C0.433,-0.354 0.43,-0.389 0.424,-0.419C0.418,-0.451 0.409,-0.478 0.396,-0.5C0.384,-0.522 0.367,-0.54 0.347,-0.552C0.327,-0.565 0.303,-0.571 0.275,-0.571C0.248,-0.571 0.224,-0.564 0.204,-0.551C0.185,-0.538 0.168,-0.52 0.156,-0.497C0.143,-0.475 0.134,-0.448 0.127,-0.417C0.121,-0.387 0.118,-0.355 0.118,-0.321C0.118,-0.283 0.121,-0.249 0.127,-0.217C0.133,-0.186 0.142,-0.16 0.154,-0.137C0.167,-0.115 0.183,-0.098 0.203,-0.085C0.223,-0.073 0.247,-0.067 0.275,-0.067C0.302,-0.067 0.326,-0.073 0.346,-0.086C0.366,-0.1 0.382,-0.118 0.395,-0.14C0.408,-0.163 0.417,-0.189 0.423,-0.22C0.43,-0.25 0.433,-0.282 0.433,-0.317Z" style="fill-rule:nonzero;"/>
            </g>
            <g transform="matrix(10.5,0,0,10.5,17.3188,0)">
                <path d="M0.526,-0L0.441,-0L0.428,-0.398L0.423,-0.551L0.393,-0.462L0.299,-0.208L0.239,-0.208L0.149,-0.452L0.119,-0.551L0.117,-0.391L0.106,-0L0.024,-0L0.055,-0.638L0.158,-0.638L0.244,-0.398L0.272,-0.317L0.299,-0.398L0.389,-0.638L0.495,-0.638L0.526,-0Z" style="fill-rule:nonzero;"/>
            </g>
            <g transform="matrix(10.5,0,0,10.5,23.0918,0)">
                <path d="M0.461,-0L0.098,-0L0.098,-0.638L0.461,-0.638L0.461,-0.565L0.185,-0.565L0.185,-0.367L0.45,-0.367L0.45,-0.294L0.185,-0.294L0.185,-0.074L0.461,-0.074L0.461,-0Z" style="fill-rule:nonzero;"/>
            </g>
            <g transform="matrix(10.5,0,0,10.5,34.6377,0)">
                <path d="M0.486,-0.024C0.435,-0.003 0.381,0.008 0.325,0.008C0.235,0.008 0.166,-0.019 0.117,-0.073C0.069,-0.127 0.045,-0.207 0.045,-0.312C0.045,-0.363 0.052,-0.409 0.065,-0.451C0.078,-0.492 0.097,-0.527 0.122,-0.556C0.147,-0.585 0.177,-0.607 0.212,-0.623C0.247,-0.638 0.286,-0.646 0.33,-0.646C0.36,-0.646 0.387,-0.643 0.413,-0.638C0.438,-0.633 0.462,-0.626 0.486,-0.615L0.486,-0.53C0.463,-0.542 0.439,-0.552 0.414,-0.559C0.389,-0.565 0.362,-0.569 0.333,-0.569C0.303,-0.569 0.276,-0.563 0.251,-0.552C0.227,-0.541 0.207,-0.524 0.19,-0.503C0.173,-0.482 0.16,-0.456 0.151,-0.425C0.142,-0.394 0.137,-0.359 0.137,-0.32C0.137,-0.237 0.154,-0.175 0.188,-0.133C0.221,-0.091 0.27,-0.07 0.335,-0.07C0.362,-0.07 0.389,-0.073 0.414,-0.079C0.439,-0.086 0.463,-0.095 0.486,-0.106L0.486,-0.024Z" style="fill-rule:nonzero;"/>
            </g>
            <g transform="matrix(10.5,0,0,10.5,40.4106,0)">
                <path d="M0.523,-0.323C0.523,-0.266 0.516,-0.216 0.502,-0.175C0.489,-0.133 0.471,-0.099 0.448,-0.071C0.425,-0.044 0.398,-0.024 0.367,-0.011C0.337,0.002 0.304,0.009 0.27,0.009C0.229,0.009 0.193,0.001 0.163,-0.013C0.132,-0.028 0.107,-0.05 0.087,-0.078C0.067,-0.106 0.052,-0.14 0.042,-0.18C0.033,-0.22 0.028,-0.265 0.028,-0.316C0.028,-0.373 0.035,-0.422 0.048,-0.463C0.061,-0.505 0.079,-0.539 0.102,-0.566C0.125,-0.594 0.152,-0.614 0.183,-0.627C0.213,-0.64 0.246,-0.647 0.28,-0.647C0.321,-0.647 0.356,-0.639 0.387,-0.625C0.417,-0.61 0.443,-0.588 0.463,-0.56C0.483,-0.532 0.498,-0.499 0.508,-0.458C0.518,-0.418 0.523,-0.373 0.523,-0.323ZM0.433,-0.317C0.433,-0.354 0.43,-0.389 0.424,-0.419C0.418,-0.451 0.409,-0.478 0.396,-0.5C0.384,-0.522 0.367,-0.54 0.347,-0.552C0.327,-0.565 0.303,-0.571 0.275,-0.571C0.248,-0.571 0.224,-0.564 0.204,-0.551C0.185,-0.538 0.168,-0.52 0.156,-0.497C0.143,-0.475 0.134,-0.448 0.127,-0.417C0.121,-0.387 0.118,-0.355 0.118,-0.321C0.118,-0.283 0.121,-0.249 0.127,-0.217C0.133,-0.186 0.142,-0.16 0.154,-0.137C0.167,-0.115 0.183,-0.098 0.203,-0.085C0.223,-0.073 0.247,-0.067 0.275,-0.067C0.302,-0.067 0.326,-0.073 0.346,-0.086C0.366,-0.1 0.382,-0.118 0.395,-0.14C0.408,-0.163 0.417,-0.189 0.423,-0.22C0.43,-0.25 0.433,-0.282 0.433,-0.317Z" style="fill-rule:nonzero;"/>
            </g>
            <g transform="matrix(10.5,0,0,10.5,46.1836,0)">
                <path d="M0.514,-0.326C0.514,-0.296 0.512,-0.266 0.507,-0.238C0.502,-0.21 0.495,-0.184 0.484,-0.16C0.474,-0.136 0.46,-0.114 0.444,-0.094C0.427,-0.075 0.407,-0.058 0.383,-0.044C0.359,-0.03 0.331,-0.019 0.299,-0.011C0.267,-0.004 0.231,-0 0.19,-0L0.053,-0L0.053,-0.638L0.218,-0.638C0.317,-0.638 0.392,-0.612 0.44,-0.561C0.49,-0.51 0.514,-0.432 0.514,-0.326ZM0.423,-0.32C0.423,-0.365 0.419,-0.403 0.41,-0.435C0.402,-0.466 0.389,-0.491 0.372,-0.51C0.354,-0.529 0.333,-0.543 0.307,-0.552C0.281,-0.561 0.25,-0.565 0.215,-0.565L0.14,-0.565L0.14,-0.075L0.205,-0.075C0.35,-0.075 0.423,-0.157 0.423,-0.32Z" style="fill-rule:nonzero;"/>
            </g>
            <g transform="matrix(10.5,0,0,10.5,51.9565,0)">
                <path d="M0.461,-0L0.098,-0L0.098,-0.638L0.461,-0.638L0.461,-0.565L0.185,-0.565L0.185,-0.367L0.45,-0.367L0.45,-0.294L0.185,-0.294L0.185,-0.074L0.461,-0.074L0.461,-0Z" style="fill-rule:nonzero;"/>
            </g>
        </g>
        <g>
            <g transform="matrix(1,0,0,1,274.797,320.08)">
                <g transform="matrix(10.5,0,0,10.5,0,0)">
                    <path d="M0.481,-0L0.114,-0L0.114,-0.638L0.202,-0.638L0.202,-0.074L0.481,-0.074L0.481,-0Z" style="fill-rule:nonzero;"/>
                </g>
                <g transform="matrix(10.5,0,0,10.5,5.77295,0)">
                    <path d="M0.505,-0.249C0.505,-0.211 0.5,-0.176 0.489,-0.144C0.478,-0.112 0.463,-0.085 0.442,-0.063C0.422,-0.04 0.398,-0.022 0.369,-0.01C0.34,0.003 0.307,0.009 0.27,0.009C0.235,0.009 0.203,0.003 0.175,-0.007C0.148,-0.018 0.124,-0.035 0.104,-0.056C0.085,-0.077 0.07,-0.103 0.06,-0.134C0.05,-0.166 0.045,-0.201 0.045,-0.242C0.045,-0.28 0.05,-0.315 0.061,-0.346C0.072,-0.378 0.087,-0.405 0.107,-0.427C0.128,-0.45 0.152,-0.468 0.181,-0.48C0.21,-0.493 0.243,-0.499 0.28,-0.499C0.315,-0.499 0.346,-0.493 0.374,-0.482C0.402,-0.472 0.426,-0.456 0.445,-0.435C0.464,-0.414 0.479,-0.388 0.489,-0.356C0.5,-0.325 0.505,-0.289 0.505,-0.249ZM0.418,-0.245C0.418,-0.275 0.415,-0.302 0.408,-0.324C0.401,-0.347 0.392,-0.366 0.379,-0.381C0.367,-0.396 0.352,-0.408 0.334,-0.415C0.316,-0.423 0.297,-0.427 0.275,-0.427C0.25,-0.427 0.228,-0.422 0.209,-0.412C0.192,-0.402 0.177,-0.389 0.165,-0.372C0.154,-0.355 0.145,-0.336 0.14,-0.314C0.134,-0.292 0.132,-0.269 0.132,-0.245C0.132,-0.215 0.135,-0.188 0.142,-0.166C0.148,-0.143 0.158,-0.124 0.17,-0.108C0.183,-0.093 0.198,-0.082 0.215,-0.074C0.233,-0.067 0.253,-0.063 0.275,-0.063C0.3,-0.063 0.322,-0.068 0.34,-0.078C0.358,-0.088 0.373,-0.101 0.384,-0.118C0.396,-0.134 0.404,-0.153 0.41,-0.175C0.415,-0.197 0.418,-0.221 0.418,-0.245Z" style="fill-rule:nonzero;"/>
                </g>
                <g transform="matrix(10.5,0,0,10.5,11.5459,0)">
                    <path d="M0.505,-0.249C0.505,-0.211 0.5,-0.176 0.489,-0.144C0.478,-0.112 0.463,-0.085 0.442,-0.063C0.422,-0.04 0.398,-0.022 0.369,-0.01C0.34,0.003 0.307,0.009 0.27,0.009C0.235,0.009 0.203,0.003 0.175,-0.007C0.148,-0.018 0.124,-0.035 0.104,-0.056C0.085,-0.077 0.07,-0.103 0.06,-0.134C0.05,-0.166 0.045,-0.201 0.045,-0.242C0.045,-0.28 0.05,-0.315 0.061,-0.346C0.072,-0.378 0.087,-0.405 0.107,-0.427C0.128,-0.45 0.152,-0.468 0.181,-0.48C0.21,-0.493 0.243,-0.499 0.28,-0.499C0.315,-0.499 0.346,-0.493 0.374,-0.482C0.402,-0.472 0.426,-0.456 0.445,-0.435C0.464,-0.414 0.479,-0.388 0.489,-0.356C0.5,-0.325 0.505,-0.289 0.505,-0.249ZM0.418,-0.245C0.418,-0.275 0.415,-0.302 0.408,-0.324C0.401,-0.347 0.392,-0.366 0.379,-0.381C0.367,-0.396 0.352,-0.408 0.334,-0.415C0.316,-0.423 0.297,-0.427 0.275,-0.427C0.25,-0.427 0.228,-0.422 0.209,-0.412C0.192,-0.402 0.177,-0.389 0.165,-0.372C0.154,-0.355 0.145,-0.336 0.14,-0.314C0.134,-0.292 0.132,-0.269 0.132,-0.245C0.132,-0.215 0.135,-0.188 0.142,-0.166C0.148,-0.143 0.158,-0.124 0.17,-0.108C0.183,-0.093 0.198,-0.082 0.215,-0.074C0.233,-0.067 0.253,-0.063 0.275,-0.063C0.3,-0.063 0.322,-0.068 0.34,-0.078C0.358,-0.088 0.373,-0.101 0.384,-0.118C0.396,-0.134 0.404,-0.153 0.41,-0.175C0.415,-0.197 0.418,-0.221 0.418,-0.245Z" style="fill-rule:nonzero;"/>
                </g>
                <g transform="matrix(10.5,0,0,10.5,17.3188,0)">
                    <path d="M0.497,-0.254C0.497,-0.21 0.491,-0.172 0.479,-0.14C0.466,-0.107 0.45,-0.08 0.428,-0.059C0.407,-0.037 0.381,-0.021 0.352,-0.01C0.323,0 0.291,0.006 0.257,0.006C0.241,0.006 0.226,0.005 0.21,0.003C0.195,0.002 0.179,-0.001 0.163,-0.005L0.163,0.2L0.078,0.2L0.078,-0.49L0.154,-0.49L0.159,-0.408C0.184,-0.442 0.21,-0.465 0.237,-0.479C0.265,-0.492 0.295,-0.499 0.327,-0.499C0.355,-0.499 0.38,-0.493 0.401,-0.481C0.422,-0.47 0.44,-0.453 0.454,-0.432C0.468,-0.41 0.479,-0.385 0.486,-0.354C0.493,-0.325 0.497,-0.291 0.497,-0.254ZM0.41,-0.25C0.41,-0.276 0.408,-0.299 0.404,-0.321C0.401,-0.342 0.395,-0.361 0.387,-0.376C0.379,-0.391 0.368,-0.403 0.355,-0.412C0.343,-0.42 0.328,-0.425 0.31,-0.425C0.299,-0.425 0.288,-0.423 0.277,-0.419C0.266,-0.416 0.255,-0.41 0.243,-0.402C0.231,-0.395 0.218,-0.384 0.205,-0.371C0.192,-0.358 0.178,-0.341 0.163,-0.322L0.163,-0.084C0.179,-0.077 0.195,-0.072 0.212,-0.068C0.23,-0.065 0.247,-0.063 0.263,-0.063C0.309,-0.063 0.345,-0.078 0.371,-0.109C0.397,-0.141 0.41,-0.188 0.41,-0.25Z" style="fill-rule:nonzero;"/>
                </g>
                <g transform="matrix(10.5,0,0,10.5,28.8647,0)">
                    <path d="M0.497,-0.222C0.497,-0.187 0.492,-0.155 0.482,-0.126C0.472,-0.098 0.458,-0.074 0.438,-0.054C0.419,-0.034 0.396,-0.018 0.368,-0.007C0.34,0.003 0.308,0.009 0.272,0.009C0.232,0.009 0.199,0.004 0.171,-0.007C0.143,-0.017 0.121,-0.032 0.103,-0.051C0.086,-0.07 0.073,-0.093 0.065,-0.12C0.057,-0.146 0.053,-0.176 0.053,-0.209L0.053,-0.638L0.14,-0.638L0.14,-0.216C0.14,-0.191 0.142,-0.169 0.147,-0.15C0.152,-0.131 0.16,-0.115 0.17,-0.103C0.181,-0.09 0.195,-0.08 0.212,-0.074C0.229,-0.067 0.25,-0.064 0.275,-0.064C0.321,-0.064 0.355,-0.077 0.377,-0.104C0.399,-0.131 0.41,-0.168 0.41,-0.217L0.41,-0.638L0.497,-0.638L0.497,-0.222Z" style="fill-rule:nonzero;"/>
                </g>
                <g transform="matrix(10.5,0,0,10.5,34.6377,0)">
                    <path d="M0.078,-0.49L0.154,-0.49L0.157,-0.411C0.172,-0.428 0.185,-0.442 0.199,-0.453C0.212,-0.465 0.225,-0.474 0.238,-0.48C0.251,-0.487 0.264,-0.492 0.277,-0.495C0.291,-0.498 0.305,-0.499 0.319,-0.499C0.369,-0.499 0.407,-0.484 0.433,-0.454C0.459,-0.424 0.472,-0.38 0.472,-0.32L0.472,-0L0.387,-0L0.387,-0.313C0.387,-0.351 0.38,-0.38 0.366,-0.398C0.351,-0.417 0.33,-0.426 0.302,-0.426C0.291,-0.426 0.281,-0.424 0.271,-0.421C0.261,-0.418 0.251,-0.413 0.24,-0.405C0.229,-0.397 0.218,-0.387 0.205,-0.374C0.193,-0.361 0.179,-0.345 0.163,-0.325L0.163,-0L0.078,-0L0.078,-0.49Z" style="fill-rule:nonzero;"/>
                </g>
                <g transform="matrix(10.5,0,0,10.5,40.4106,0)">
                    <path d="M0.473,-0.007C0.454,-0.002 0.434,0.001 0.414,0.003C0.393,0.006 0.372,0.007 0.351,0.007C0.29,0.007 0.244,-0.007 0.213,-0.035C0.183,-0.063 0.168,-0.105 0.168,-0.163L0.168,-0.419L0.031,-0.419L0.031,-0.49L0.168,-0.49L0.168,-0.625L0.253,-0.647L0.253,-0.49L0.473,-0.49L0.473,-0.419L0.253,-0.419L0.253,-0.17C0.253,-0.135 0.262,-0.108 0.281,-0.091C0.3,-0.074 0.327,-0.065 0.364,-0.065C0.379,-0.065 0.396,-0.066 0.415,-0.068C0.434,-0.071 0.453,-0.075 0.473,-0.08L0.473,-0.007Z" style="fill-rule:nonzero;"/>
                </g>
                <g transform="matrix(10.5,0,0,10.5,46.1836,0)">
                    <path d="M0.245,-0.42L0.1,-0.42L0.1,-0.49L0.331,-0.49L0.331,-0.071L0.477,-0.071L0.477,-0L0.084,-0L0.084,-0.071L0.245,-0.071L0.245,-0.42ZM0.275,-0.696C0.284,-0.696 0.293,-0.694 0.301,-0.69C0.309,-0.687 0.316,-0.682 0.322,-0.676C0.328,-0.67 0.333,-0.663 0.336,-0.655C0.34,-0.647 0.342,-0.638 0.342,-0.629C0.342,-0.62 0.34,-0.611 0.336,-0.603C0.333,-0.595 0.328,-0.588 0.322,-0.582C0.316,-0.575 0.309,-0.57 0.301,-0.567C0.293,-0.564 0.284,-0.562 0.275,-0.562C0.265,-0.562 0.257,-0.564 0.249,-0.567C0.24,-0.57 0.233,-0.575 0.227,-0.582C0.221,-0.588 0.216,-0.595 0.213,-0.603C0.21,-0.611 0.208,-0.62 0.208,-0.629C0.208,-0.638 0.21,-0.647 0.213,-0.655C0.216,-0.663 0.221,-0.67 0.227,-0.676C0.233,-0.682 0.24,-0.687 0.249,-0.69C0.257,-0.694 0.265,-0.696 0.275,-0.696Z" style="fill-rule:nonzero;"/>
                </g>
                <g transform="matrix(10.5,0,0,10.5,51.9565,0)">
                    <path d="M0.245,-0.62L0.1,-0.62L0.1,-0.69L0.331,-0.69L0.331,-0.071L0.477,-0.071L0.477,-0L0.084,-0L0.084,-0.071L0.245,-0.071L0.245,-0.62Z" style="fill-rule:nonzero;"/>
                </g>
                <g transform="matrix(10.5,0,0,10.5,63.5024,0)">
                    <path d="M0.078,-0.49L0.154,-0.49L0.157,-0.411C0.172,-0.428 0.185,-0.442 0.199,-0.453C0.212,-0.465 0.225,-0.474 0.238,-0.48C0.251,-0.487 0.264,-0.492 0.277,-0.495C0.291,-0.498 0.305,-0.499 0.319,-0.499C0.369,-0.499 0.407,-0.484 0.433,-0.454C0.459,-0.424 0.472,-0.38 0.472,-0.32L0.472,-0L0.387,-0L0.387,-0.313C0.387,-0.351 0.38,-0.38 0.366,-0.398C0.351,-0.417 0.33,-0.426 0.302,-0.426C0.291,-0.426 0.281,-0.424 0.271,-0.421C0.261,-0.418 0.251,-0.413 0.24,-0.405C0.229,-0.397 0.218,-0.387 0.205,-0.374C0.193,-0.361 0.179,-0.345 0.163,-0.325L0.163,-0L0.078,-0L0.078,-0.49Z" style="fill-rule:nonzero;"/>
                </g>
                <g transform="matrix(10.5,0,0,10.5,69.2754,0)">
                    <path d="M0.472,-0L0.396,-0L0.393,-0.079C0.378,-0.062 0.364,-0.048 0.351,-0.037C0.338,-0.026 0.325,-0.017 0.312,-0.01C0.299,-0.003 0.286,0.002 0.272,0.004C0.259,0.007 0.246,0.009 0.231,0.009C0.181,0.009 0.142,-0.006 0.117,-0.036C0.091,-0.065 0.078,-0.11 0.078,-0.17L0.078,-0.49L0.163,-0.49L0.163,-0.177C0.163,-0.102 0.191,-0.064 0.248,-0.064C0.258,-0.064 0.269,-0.065 0.278,-0.068C0.288,-0.072 0.299,-0.077 0.31,-0.084C0.321,-0.092 0.332,-0.103 0.345,-0.116C0.357,-0.129 0.372,-0.145 0.387,-0.165L0.387,-0.49L0.472,-0.49L0.472,-0Z" style="fill-rule:nonzero;"/>
                </g>
                <g transform="matrix(10.5,0,0,10.5,75.0483,0)">
                    <path d="M0.428,-0L0.428,-0.352C0.428,-0.367 0.427,-0.38 0.426,-0.39C0.425,-0.399 0.423,-0.407 0.42,-0.413C0.418,-0.418 0.415,-0.423 0.411,-0.425C0.408,-0.427 0.403,-0.428 0.397,-0.428C0.391,-0.428 0.385,-0.426 0.379,-0.422C0.374,-0.418 0.368,-0.412 0.361,-0.403C0.355,-0.395 0.348,-0.383 0.34,-0.368C0.333,-0.354 0.324,-0.336 0.313,-0.315L0.313,-0L0.236,-0L0.236,-0.343C0.236,-0.361 0.235,-0.375 0.234,-0.386C0.233,-0.397 0.231,-0.406 0.229,-0.412C0.226,-0.418 0.223,-0.423 0.219,-0.425C0.215,-0.427 0.211,-0.428 0.205,-0.428C0.199,-0.428 0.194,-0.427 0.188,-0.423C0.183,-0.42 0.177,-0.414 0.171,-0.406C0.165,-0.397 0.158,-0.386 0.15,-0.371C0.142,-0.356 0.133,-0.338 0.122,-0.315L0.122,-0L0.044,-0L0.044,-0.49L0.109,-0.49L0.113,-0.397C0.121,-0.416 0.129,-0.431 0.137,-0.444C0.145,-0.457 0.154,-0.468 0.162,-0.476C0.171,-0.484 0.18,-0.49 0.189,-0.493C0.199,-0.497 0.209,-0.499 0.221,-0.499C0.248,-0.499 0.268,-0.49 0.281,-0.473C0.295,-0.456 0.302,-0.429 0.302,-0.393C0.31,-0.41 0.317,-0.425 0.325,-0.438C0.332,-0.451 0.34,-0.462 0.349,-0.471C0.357,-0.48 0.367,-0.487 0.377,-0.492C0.388,-0.497 0.4,-0.499 0.414,-0.499C0.475,-0.499 0.506,-0.452 0.506,-0.357L0.506,-0L0.428,-0Z" style="fill-rule:nonzero;"/>
                </g>
                <g transform="matrix(10.5,0,0,10.5,80.8213,0)">
                    <path d="M0.497,-0.254C0.497,-0.213 0.491,-0.177 0.48,-0.145C0.469,-0.113 0.453,-0.085 0.432,-0.063C0.412,-0.041 0.387,-0.024 0.357,-0.012C0.327,0 0.294,0.006 0.257,0.006C0.228,0.006 0.198,0.003 0.168,-0.002C0.138,-0.008 0.108,-0.017 0.078,-0.029L0.078,-0.69L0.163,-0.69L0.163,-0.5L0.159,-0.409C0.184,-0.442 0.21,-0.465 0.237,-0.479C0.265,-0.492 0.295,-0.499 0.327,-0.499C0.355,-0.499 0.38,-0.493 0.401,-0.481C0.422,-0.47 0.44,-0.453 0.454,-0.432C0.468,-0.41 0.479,-0.385 0.486,-0.354C0.493,-0.325 0.497,-0.291 0.497,-0.254ZM0.41,-0.25C0.41,-0.276 0.408,-0.299 0.404,-0.321C0.401,-0.342 0.395,-0.361 0.387,-0.376C0.379,-0.391 0.368,-0.403 0.355,-0.412C0.343,-0.42 0.328,-0.425 0.31,-0.425C0.299,-0.425 0.288,-0.423 0.277,-0.419C0.266,-0.416 0.255,-0.41 0.243,-0.402C0.231,-0.395 0.218,-0.384 0.205,-0.371C0.192,-0.358 0.178,-0.341 0.163,-0.322L0.163,-0.084C0.18,-0.077 0.197,-0.072 0.214,-0.068C0.231,-0.065 0.248,-0.063 0.263,-0.063C0.283,-0.063 0.301,-0.066 0.319,-0.072C0.337,-0.078 0.352,-0.089 0.366,-0.103C0.379,-0.118 0.39,-0.137 0.398,-0.161C0.406,-0.185 0.41,-0.215 0.41,-0.25Z" style="fill-rule:nonzero;"/>
                </g>
                <g transform="matrix(10.5,0,0,10.5,86.5942,0)">
                    <path d="M0.492,-0.271C0.492,-0.259 0.492,-0.249 0.492,-0.241C0.491,-0.233 0.491,-0.225 0.49,-0.218L0.146,-0.218C0.146,-0.168 0.16,-0.129 0.188,-0.102C0.216,-0.075 0.256,-0.062 0.309,-0.062C0.323,-0.062 0.338,-0.063 0.352,-0.063C0.366,-0.065 0.38,-0.066 0.394,-0.068C0.407,-0.07 0.42,-0.072 0.432,-0.075C0.444,-0.077 0.455,-0.08 0.466,-0.083L0.466,-0.013C0.443,-0.007 0.417,-0.001 0.387,0.002C0.358,0.007 0.328,0.009 0.297,0.009C0.255,0.009 0.219,0.003 0.188,-0.008C0.158,-0.02 0.133,-0.036 0.114,-0.058C0.095,-0.079 0.08,-0.106 0.071,-0.137C0.062,-0.169 0.057,-0.204 0.057,-0.244C0.057,-0.279 0.062,-0.311 0.072,-0.342C0.082,-0.373 0.096,-0.4 0.115,-0.423C0.134,-0.446 0.158,-0.465 0.186,-0.479C0.213,-0.492 0.245,-0.499 0.28,-0.499C0.314,-0.499 0.344,-0.494 0.371,-0.483C0.397,-0.472 0.419,-0.457 0.437,-0.437C0.455,-0.417 0.469,-0.394 0.478,-0.365C0.487,-0.337 0.492,-0.306 0.492,-0.271ZM0.404,-0.283C0.405,-0.305 0.403,-0.325 0.397,-0.343C0.392,-0.361 0.384,-0.377 0.373,-0.39C0.362,-0.403 0.349,-0.413 0.333,-0.42C0.316,-0.427 0.297,-0.431 0.276,-0.431C0.257,-0.431 0.24,-0.428 0.225,-0.42C0.21,-0.413 0.197,-0.403 0.186,-0.39C0.174,-0.377 0.166,-0.361 0.159,-0.343C0.152,-0.325 0.148,-0.305 0.146,-0.283L0.404,-0.283Z" style="fill-rule:nonzero;"/>
                </g>
                <g transform="matrix(10.5,0,0,10.5,92.3672,0)">
                    <path d="M0.098,-0.49L0.176,-0.49L0.178,-0.4C0.207,-0.435 0.236,-0.46 0.264,-0.476C0.292,-0.491 0.32,-0.499 0.349,-0.499C0.4,-0.499 0.438,-0.483 0.464,-0.45C0.491,-0.417 0.503,-0.368 0.501,-0.303L0.415,-0.303C0.416,-0.346 0.41,-0.377 0.396,-0.396C0.383,-0.416 0.363,-0.426 0.337,-0.426C0.326,-0.426 0.314,-0.424 0.302,-0.419C0.291,-0.416 0.279,-0.409 0.267,-0.4C0.255,-0.391 0.242,-0.38 0.228,-0.366C0.214,-0.352 0.2,-0.335 0.184,-0.315L0.184,-0L0.098,-0L0.098,-0.49Z" style="fill-rule:nonzero;"/>
                </g>
                <g transform="matrix(10.5,0,0,10.5,103.913,0)">
                    <path d="M0.102,-0.486L0.155,-0.54L0.483,-0.266L0.155,0.008L0.102,-0.046L0.368,-0.265L0.102,-0.486Z" style="fill-rule:nonzero;"/>
                </g>
            </g>
            <g transform="matrix(1,0,0,1,384.382,320.08)">
                <g transform="matrix(10.5,0,0,10.5,0,0)">
                    <path d="M0.485,-0.315L0.065,-0.315L0.065,-0.387L0.485,-0.387L0.485,-0.315ZM0.485,-0.146L0.065,-0.146L0.065,-0.217L0.485,-0.217L0.485,-0.146Z" style="fill-rule:nonzero;"/>
                </g>
                <g transform="matrix(10.5,0,0,10.5,11.5459,0)">
                    <path d="M0.487,-0L0.086,-0L0.086,-0.079L0.25,-0.079L0.25,-0.545L0.097,-0.462L0.066,-0.534L0.269,-0.641L0.344,-0.641L0.344,-0.079L0.487,-0.079L0.487,-0Z" style="fill-rule:nonzero;"/>
                </g>
                <g transform="matrix(10.5,0,0,10.5,23.0918,0)">
                    <path d="M0.545,-0L0.45,-0L0.406,-0.139L0.14,-0.139L0.095,-0L0.005,-0L0.217,-0.638L0.336,-0.638L0.545,-0ZM0.381,-0.217L0.273,-0.558L0.165,-0.217L0.381,-0.217Z" style="fill-rule:nonzero;"/>
                </g>
                <g transform="matrix(10.5,0,0,10.5,28.8647,0)">
                    <path d="M0.078,-0.49L0.154,-0.49L0.157,-0.411C0.172,-0.428 0.185,-0.442 0.199,-0.453C0.212,-0.465 0.225,-0.474 0.238,-0.48C0.251,-0.487 0.264,-0.492 0.277,-0.495C0.291,-0.498 0.305,-0.499 0.319,-0.499C0.369,-0.499 0.407,-0.484 0.433,-0.454C0.459,-0.424 0.472,-0.38 0.472,-0.32L0.472,-0L0.387,-0L0.387,-0.313C0.387,-0.351 0.38,-0.38 0.366,-0.398C0.351,-0.417 0.33,-0.426 0.302,-0.426C0.291,-0.426 0.281,-0.424 0.271,-0.421C0.261,-0.418 0.251,-0.413 0.24,-0.405C0.229,-0.397 0.218,-0.387 0.205,-0.374C0.193,-0.361 0.179,-0.345 0.163,-0.325L0.163,-0L0.078,-0L0.078,-0.49Z" style="fill-rule:nonzero;"/>
                </g>
                <g transform="matrix(10.5,0,0,10.5,34.6377,0)">
                    <path d="M0.053,-0.235C0.053,-0.277 0.059,-0.313 0.07,-0.346C0.082,-0.378 0.098,-0.406 0.119,-0.428C0.14,-0.45 0.165,-0.467 0.194,-0.479C0.224,-0.49 0.257,-0.496 0.293,-0.496C0.309,-0.496 0.324,-0.495 0.339,-0.493C0.354,-0.491 0.369,-0.488 0.384,-0.484L0.384,-0.69L0.469,-0.69L0.469,-0L0.393,-0L0.39,-0.093C0.366,-0.058 0.341,-0.033 0.313,-0.016C0.285,0 0.255,0.009 0.223,0.009C0.195,0.009 0.17,0.003 0.149,-0.009C0.128,-0.021 0.11,-0.037 0.096,-0.058C0.082,-0.08 0.071,-0.105 0.064,-0.135C0.057,-0.165 0.053,-0.198 0.053,-0.235ZM0.14,-0.24C0.14,-0.181 0.149,-0.137 0.166,-0.107C0.184,-0.078 0.208,-0.064 0.24,-0.064C0.262,-0.064 0.284,-0.074 0.308,-0.093C0.332,-0.112 0.357,-0.14 0.384,-0.178L0.384,-0.406C0.37,-0.412 0.354,-0.417 0.337,-0.42C0.32,-0.424 0.304,-0.426 0.287,-0.426C0.241,-0.426 0.205,-0.411 0.179,-0.381C0.153,-0.351 0.14,-0.304 0.14,-0.24Z" style="fill-rule:nonzero;"/>
                </g>
                <g transform="matrix(10.5,0,0,10.5,46.1836,0)">
                    <path d="M0.078,-0.49L0.154,-0.49L0.157,-0.411C0.172,-0.428 0.185,-0.442 0.199,-0.453C0.212,-0.465 0.225,-0.474 0.238,-0.48C0.251,-0.487 0.264,-0.492 0.277,-0.495C0.291,-0.498 0.305,-0.499 0.319,-0.499C0.369,-0.499 0.407,-0.484 0.433,-0.454C0.459,-0.424 0.472,-0.38 0.472,-0.32L0.472,-0L0.387,-0L0.387,-0.313C0.387,-0.351 0.38,-0.38 0.366,-0.398C0.351,-0.417 0.33,-0.426 0.302,-0.426C0.291,-0.426 0.281,-0.424 0.271,-0.421C0.261,-0.418 0.251,-0.413 0.24,-0.405C0.229,-0.397 0.218,-0.387 0.205,-0.374C0.193,-0.361 0.179,-0.345 0.163,-0.325L0.163,-0L0.078,-0L0.078,-0.49Z" style="fill-rule:nonzero;"/>
                </g>
                <g transform="matrix(10.5,0,0,10.5,51.9565,0)">
                    <path d="M0.472,-0L0.396,-0L0.393,-0.079C0.378,-0.062 0.364,-0.048 0.351,-0.037C0.338,-0.026 0.325,-0.017 0.312,-0.01C0.299,-0.003 0.286,0.002 0.272,0.004C0.259,0.007 0.246,0.009 0.231,0.009C0.181,0.009 0.142,-0.006 0.117,-0.036C0.091,-0.065 0.078,-0.11 0.078,-0.17L0.078,-0.49L0.163,-0.49L0.163,-0.177C0.163,-0.102 0.191,-0.064 0.248,-0.064C0.258,-0.064 0.269,-0.065 0.278,-0.068C0.288,-0.072 0.299,-0.077 0.31,-0.084C0.321,-0.092 0.332,-0.103 0.345,-0.116C0.357,-0.129 0.372,-0.145 0.387,-0.165L0.387,-0.49L0.472,-0.49L0.472,-0Z" style="fill-rule:nonzero;"/>
                </g>
                <g transform="matrix(10.5,0,0,10.5,57.7295,0)">
                    <path d="M0.428,-0L0.428,-0.352C0.428,-0.367 0.427,-0.38 0.426,-0.39C0.425,-0.399 0.423,-0.407 0.42,-0.413C0.418,-0.418 0.415,-0.423 0.411,-0.425C0.408,-0.427 0.403,-0.428 0.397,-0.428C0.391,-0.428 0.385,-0.426 0.379,-0.422C0.374,-0.418 0.368,-0.412 0.361,-0.403C0.355,-0.395 0.348,-0.383 0.34,-0.368C0.333,-0.354 0.324,-0.336 0.313,-0.315L0.313,-0L0.236,-0L0.236,-0.343C0.236,-0.361 0.235,-0.375 0.234,-0.386C0.233,-0.397 0.231,-0.406 0.229,-0.412C0.226,-0.418 0.223,-0.423 0.219,-0.425C0.215,-0.427 0.211,-0.428 0.205,-0.428C0.199,-0.428 0.194,-0.427 0.188,-0.423C0.183,-0.42 0.177,-0.414 0.171,-0.406C0.165,-0.397 0.158,-0.386 0.15,-0.371C0.142,-0.356 0.133,-0.338 0.122,-0.315L0.122,-0L0.044,-0L0.044,-0.49L0.109,-0.49L0.113,-0.397C0.121,-0.416 0.129,-0.431 0.137,-0.444C0.145,-0.457 0.154,-0.468 0.162,-0.476C0.171,-0.484 0.18,-0.49 0.189,-0.493C0.199,-0.497 0.209,-0.499 0.221,-0.499C0.248,-0.499 0.268,-0.49 0.281,-0.473C0.295,-0.456 0.302,-0.429 0.302,-0.393C0.31,-0.41 0.317,-0.425 0.325,-0.438C0.332,-0.451 0.34,-0.462 0.349,-0.471C0.357,-0.48 0.367,-0.487 0.377,-0.492C0.388,-0.497 0.4,-0.499 0.414,-0.499C0.475,-0.499 0.506,-0.452 0.506,-0.357L0.506,-0L0.428,-0Z" style="fill-rule:nonzero;"/>
                </g>
                <g transform="matrix(10.5,0,0,10.5,63.5024,0)">
                    <path d="M0.497,-0.254C0.497,-0.213 0.491,-0.177 0.48,-0.145C0.469,-0.113 0.453,-0.085 0.432,-0.063C0.412,-0.041 0.387,-0.024 0.357,-0.012C0.327,0 0.294,0.006 0.257,0.006C0.228,0.006 0.198,0.003 0.168,-0.002C0.138,-0.008 0.108,-0.017 0.078,-0.029L0.078,-0.69L0.163,-0.69L0.163,-0.5L0.159,-0.409C0.184,-0.442 0.21,-0.465 0.237,-0.479C0.265,-0.492 0.295,-0.499 0.327,-0.499C0.355,-0.499 0.38,-0.493 0.401,-0.481C0.422,-0.47 0.44,-0.453 0.454,-0.432C0.468,-0.41 0.479,-0.385 0.486,-0.354C0.493,-0.325 0.497,-0.291 0.497,-0.254ZM0.41,-0.25C0.41,-0.276 0.408,-0.299 0.404,-0.321C0.401,-0.342 0.395,-0.361 0.387,-0.376C0.379,-0.391 0.368,-0.403 0.355,-0.412C0.343,-0.42 0.328,-0.425 0.31,-0.425C0.299,-0.425 0.288,-0.423 0.277,-0.419C0.266,-0.416 0.255,-0.41 0.243,-0.402C0.231,-0.395 0.218,-0.384 0.205,-0.371C0.192,-0.358 0.178,-0.341 0.163,-0.322L0.163,-0.084C0.18,-0.077 0.197,-0.072 0.214,-0.068C0.231,-0.065 0.248,-0.063 0.263,-0.063C0.283,-0.063 0.301,-0.066 0.319,-0.072C0.337,-0.078 0.352,-0.089 0.366,-0.103C0.379,-0.118 0.39,-0.137 0.398,-0.161C0.406,-0.185 0.41,-0.215 0.41,-0.25Z" style="fill-rule:nonzero;"/>
                </g>
                <g transform="matrix(10.5,0,0,10.5,69.2754,0)">
                    <path d="M0.492,-0.271C0.492,-0.259 0.492,-0.249 0.492,-0.241C0.491,-0.233 0.491,-0.225 0.49,-0.218L0.146,-0.218C0.146,-0.168 0.16,-0.129 0.188,-0.102C0.216,-0.075 0.256,-0.062 0.309,-0.062C0.323,-0.062 0.338,-0.063 0.352,-0.063C0.366,-0.065 0.38,-0.066 0.394,-0.068C0.407,-0.07 0.42,-0.072 0.432,-0.075C0.444,-0.077 0.455,-0.08 0.466,-0.083L0.466,-0.013C0.443,-0.007 0.417,-0.001 0.387,0.002C0.358,0.007 0.328,0.009 0.297,0.009C0.255,0.009 0.219,0.003 0.188,-0.008C0.158,-0.02 0.133,-0.036 0.114,-0.058C0.095,-0.079 0.08,-0.106 0.071,-0.137C0.062,-0.169 0.057,-0.204 0.057,-0.244C0.057,-0.279 0.062,-0.311 0.072,-0.342C0.082,-0.373 0.096,-0.4 0.115,-0.423C0.134,-0.446 0.158,-0.465 0.186,-0.479C0.213,-0.492 0.245,-0.499 0.28,-0.499C0.314,-0.499 0.344,-0.494 0.371,-0.483C0.397,-0.472 0.419,-0.457 0.437,-0.437C0.455,-0.417 0.469,-0.394 0.478,-0.365C0.487,-0.337 0.492,-0.306 0.492,-0.271ZM0.404,-0.283C0.405,-0.305 0.403,-0.325 0.397,-0.343C0.392,-0.361 0.384,-0.377 0.373,-0.39C0.362,-0.403 0.349,-0.413 0.333,-0.42C0.316,-0.427 0.297,-0.431 0.276,-0.431C0.257,-0.431 0.24,-0.428 0.225,-0.42C0.21,-0.413 0.197,-0.403 0.186,-0.39C0.174,-0.377 0.166,-0.361 0.159,-0.343C0.152,-0.325 0.148,-0.305 0.146,-0.283L0.404,-0.283Z" style="fill-rule:nonzero;"/>
                </g>
                <g transform="matrix(10.5,0,0,10.5,75.0483,0)">
                    <path d="M0.098,-0.49L0.176,-0.49L0.178,-0.4C0.207,-0.435 0.236,-0.46 0.264,-0.476C0.292,-0.491 0.32,-0.499 0.349,-0.499C0.4,-0.499 0.438,-0.483 0.464,-0.45C0.491,-0.417 0.503,-0.368 0.501,-0.303L0.415,-0.303C0.416,-0.346 0.41,-0.377 0.396,-0.396C0.383,-0.416 0.363,-0.426 0.337,-0.426C0.326,-0.426 0.314,-0.424 0.302,-0.419C0.291,-0.416 0.279,-0.409 0.267,-0.4C0.255,-0.391 0.242,-0.38 0.228,-0.366C0.214,-0.352 0.2,-0.335 0.184,-0.315L0.184,-0L0.098,-0L0.098,-0.49Z" style="fill-rule:nonzero;"/>
                </g>
                <g transform="matrix(10.5,0,0,10.5,86.5942,0)">
                    <path d="M0.448,-0.046L0.395,0.008L0.067,-0.266L0.395,-0.54L0.448,-0.486L0.182,-0.267L0.448,-0.046Z" style="fill-rule:nonzero;"/>
                </g>
                <g transform="matrix(10.5,0,0,10.5,92.3672,0)">
                    <path d="M0.485,-0.315L0.065,-0.315L0.065,-0.387L0.485,-0.387L0.485,-0.315ZM0.485,-0.146L0.065,-0.146L0.065,-0.217L0.485,-0.217L0.485,-0.146Z" style="fill-rule:nonzero;"/>
                </g>
                <g transform="matrix(10.5,0,0,10.5,103.913,0)">
                    <path d="M0.487,-0L0.086,-0L0.086,-0.079L0.25,-0.079L0.25,-0.545L0.097,-0.462L0.066,-0.534L0.269,-0.641L0.344,-0.641L0.344,-0.079L0.487,-0.079L0.487,-0Z" style="fill-rule:nonzero;"/>
                </g>
            </g>
            <g transform="matrix(1,0,0,1,493.968,320.08)">
                <g transform="matrix(10.5,0,0,10.5,0,0)">
                    <path d="M0.507,-0.319C0.507,-0.27 0.502,-0.225 0.492,-0.185C0.482,-0.145 0.468,-0.111 0.448,-0.082C0.428,-0.053 0.403,-0.031 0.374,-0.015C0.344,0.001 0.31,0.009 0.27,0.009C0.236,0.009 0.205,0.002 0.177,-0.01C0.149,-0.023 0.125,-0.043 0.105,-0.07C0.085,-0.097 0.07,-0.131 0.059,-0.172C0.048,-0.213 0.043,-0.262 0.043,-0.319C0.043,-0.368 0.048,-0.412 0.058,-0.453C0.068,-0.493 0.083,-0.528 0.102,-0.556C0.122,-0.585 0.147,-0.607 0.176,-0.623C0.206,-0.639 0.24,-0.647 0.28,-0.647C0.314,-0.647 0.345,-0.64 0.373,-0.627C0.401,-0.615 0.425,-0.595 0.445,-0.568C0.465,-0.541 0.48,-0.507 0.491,-0.466C0.501,-0.424 0.507,-0.375 0.507,-0.319ZM0.421,-0.316C0.421,-0.327 0.42,-0.338 0.419,-0.349C0.419,-0.36 0.418,-0.37 0.417,-0.381L0.147,-0.18C0.152,-0.163 0.158,-0.148 0.166,-0.133C0.173,-0.119 0.182,-0.107 0.192,-0.096C0.203,-0.086 0.215,-0.078 0.229,-0.072C0.242,-0.067 0.258,-0.064 0.275,-0.064C0.297,-0.064 0.317,-0.069 0.335,-0.08C0.353,-0.091 0.369,-0.107 0.381,-0.128C0.394,-0.149 0.404,-0.175 0.411,-0.207C0.417,-0.238 0.421,-0.275 0.421,-0.316ZM0.129,-0.322L0.129,-0.292C0.129,-0.281 0.13,-0.272 0.131,-0.262L0.401,-0.462C0.396,-0.479 0.39,-0.494 0.382,-0.507C0.375,-0.521 0.366,-0.533 0.355,-0.542C0.345,-0.553 0.333,-0.56 0.32,-0.566C0.306,-0.571 0.292,-0.574 0.275,-0.574C0.253,-0.574 0.233,-0.569 0.214,-0.558C0.196,-0.547 0.181,-0.531 0.168,-0.51C0.156,-0.489 0.146,-0.462 0.139,-0.431C0.132,-0.399 0.129,-0.363 0.129,-0.322Z" style="fill-rule:nonzero;"/>
                </g>
            </g>
        </g>
        <g transform="matrix(1,0,0,1,381.323,261.906)">
            <g transform="matrix(12,0,0,12,0,0)">
                <path d="M0.505,-0.249C0.505,-0.211 0.5,-0.176 0.489,-0.144C0.478,-0.112 0.463,-0.085 0.442,-0.063C0.422,-0.04 0.398,-0.022 0.369,-0.01C0.34,0.003 0.307,0.009 0.27,0.009C0.235,0.009 0.203,0.003 0.175,-0.007C0.148,-0.018 0.124,-0.035 0.104,-0.056C0.085,-0.077 0.07,-0.103 0.06,-0.134C0.05,-0.166 0.045,-0.201 0.045,-0.242C0.045,-0.28 0.05,-0.315 0.061,-0.346C0.072,-0.378 0.087,-0.405 0.107,-0.427C0.128,-0.45 0.152,-0.468 0.181,-0.48C0.21,-0.493 0.243,-0.499 0.28,-0.499C0.315,-0.499 0.346,-0.493 0.374,-0.482C0.402,-0.472 0.426,-0.456 0.445,-0.435C0.464,-0.414 0.479,-0.388 0.489,-0.356C0.5,-0.325 0.505,-0.289 0.505,-0.249ZM0.418,-0.245C0.418,-0.275 0.415,-0.302 0.408,-0.324C0.401,-0.347 0.392,-0.366 0.379,-0.381C0.367,-0.396 0.352,-0.408 0.334,-0.415C0.316,-0.423 0.297,-0.427 0.275,-0.427C0.25,-0.427 0.228,-0.422 0.209,-0.412C0.192,-0.402 0.177,-0.389 0.165,-0.372C0.154,-0.355 0.145,-0.336 0.14,-0.314C0.134,-0.292 0.132,-0.269 0.132,-0.245C0.132,-0.215 0.135,-0.188 0.142,-0.166C0.148,-0.143 0.158,-0.124 0.17,-0.108C0.183,-0.093 0.198,-0.082 0.215,-0.074C0.233,-0.067 0.253,-0.063 0.275,-0.063C0.3,-0.063 0.322,-0.068 0.34,-0.078C0.358,-0.088 0.373,-0.101 0.384,-0.118C0.396,-0.134 0.404,-0.153 0.41,-0.175C0.415,-0.197 0.418,-0.221 0.418,-0.245Z" style="fill-rule:nonzero;"/>
            </g>
            <g transform="matrix(12,0,0,12,6.59766,0)">
                <path d="M0.098,-0.49L0.176,-0.49L0.178,-0.4C0.207,-0.435 0.236,-0.46 0.264,-0.476C0.292,-0.491 0.32,-0.499 0.349,-0.499C0.4,-0.499 0.438,-0.483 0.464,-0.45C0.491,-0.417 0.503,-0.368 0.501,-0.303L0.415,-0.303C0.416,-0.346 0.41,-0.377 0.396,-0.396C0.383,-0.416 0.363,-0.426 0.337,-0.426C0.326,-0.426 0.314,-0.424 0.302,-0.419C0.291,-0.416 0.279,-0.409 0.267,-0.4C0.255,-0.391 0.242,-0.38 0.228,-0.366C0.214,-0.352 0.2,-0.335 0.184,-0.315L0.184,-0L0.098,-0L0.098,-0.49Z" style="fill-rule:nonzero;"/>
            </g>
        </g>
    </g>
</svg>
