<?xml version="1.0" encoding="UTF-8" standalone="no"?>
<!DOCTYPE svg PUBLIC "-//W3C//DTD SVG 1.1//EN" "http://www.w3.org/Graphics/SVG/1.1/DTD/svg11.dtd">
<svg width="100%" height="100%" viewBox="0 0 234 150" version="1.1" xmlns="http://www.w3.org/2000/svg" xmlns:xlink="http://www.w3.org/1999/xlink" xml:space="preserve" xmlns:serif="http://www.serif.com/" style="fill-rule:evenodd;clip-rule:evenodd;stroke-linejoin:round;stroke-miterlimit:2;">
    <g transform="matrix(1,0,0,1,-272.843,-187.417)">
        <g transform="matrix(1,0,0,1,-31.169,-35.834)">
            <rect x="304.012" y="223.251" width="233.656" height="149.17" style="fill:white;"/>
        </g>
        <g>
            <g transform="matrix(1,0,0,1,292.359,224.327)">
                <g transform="matrix(12,0,0,12,0,0)">
                    <path d="M0.487,-0L0.086,-0L0.086,-0.079L0.25,-0.079L0.25,-0.545L0.097,-0.462L0.066,-0.534L0.269,-0.641L0.344,-0.641L0.344,-0.079L0.487,-0.079L0.487,-0Z" style="fill-rule:nonzero;"/>
                </g>
                <g transform="matrix(12,0,0,12,6.59766,0)">
                    <path d="M0.271,-0.154C0.282,-0.154 0.292,-0.152 0.302,-0.147C0.312,-0.143 0.321,-0.137 0.328,-0.13C0.336,-0.122 0.341,-0.114 0.346,-0.104C0.35,-0.094 0.352,-0.083 0.352,-0.072C0.352,-0.061 0.35,-0.05 0.346,-0.041C0.341,-0.031 0.336,-0.022 0.328,-0.015C0.321,-0.007 0.312,-0.002 0.302,0.002C0.292,0.007 0.282,0.009 0.271,0.009C0.26,0.009 0.249,0.007 0.239,0.002C0.229,-0.002 0.221,-0.007 0.213,-0.015C0.206,-0.022 0.201,-0.031 0.196,-0.041C0.192,-0.05 0.19,-0.061 0.19,-0.072C0.19,-0.083 0.192,-0.094 0.196,-0.104C0.201,-0.114 0.206,-0.122 0.213,-0.13C0.221,-0.137 0.229,-0.143 0.239,-0.147C0.249,-0.152 0.26,-0.154 0.271,-0.154Z" style="fill-rule:nonzero;"/>
                </g>
            </g>
            <g transform="matrix(1,0,0,1,310.5,224.327)">
                <g transform="matrix(12,0,0,12,0,0)">
                    <path d="M0.491,-0.529C0.467,-0.542 0.443,-0.551 0.418,-0.558C0.393,-0.565 0.366,-0.569 0.336,-0.569C0.302,-0.569 0.272,-0.563 0.246,-0.551C0.219,-0.539 0.197,-0.522 0.179,-0.5C0.161,-0.478 0.147,-0.451 0.137,-0.42C0.128,-0.389 0.123,-0.355 0.123,-0.318C0.123,-0.279 0.127,-0.244 0.135,-0.213C0.143,-0.182 0.155,-0.156 0.171,-0.134C0.188,-0.113 0.209,-0.096 0.235,-0.085C0.261,-0.074 0.292,-0.068 0.328,-0.068C0.334,-0.068 0.341,-0.068 0.348,-0.069C0.355,-0.069 0.362,-0.07 0.37,-0.071C0.377,-0.073 0.384,-0.074 0.39,-0.076C0.397,-0.077 0.403,-0.079 0.408,-0.081L0.408,-0.284L0.278,-0.284L0.278,-0.356L0.494,-0.356L0.494,-0.03C0.481,-0.024 0.467,-0.018 0.452,-0.013C0.437,-0.008 0.422,-0.004 0.406,-0.001C0.391,0.002 0.376,0.005 0.36,0.006C0.345,0.008 0.33,0.009 0.316,0.009C0.272,0.009 0.233,0.002 0.198,-0.012C0.163,-0.025 0.133,-0.046 0.108,-0.072C0.084,-0.099 0.065,-0.133 0.052,-0.173C0.039,-0.213 0.032,-0.259 0.032,-0.312C0.032,-0.364 0.04,-0.411 0.054,-0.453C0.069,-0.494 0.089,-0.529 0.116,-0.558C0.142,-0.587 0.174,-0.609 0.211,-0.624C0.249,-0.639 0.29,-0.647 0.335,-0.647C0.364,-0.647 0.391,-0.644 0.417,-0.639C0.443,-0.634 0.467,-0.626 0.491,-0.615L0.491,-0.529Z" style="fill-rule:nonzero;"/>
                </g>
                <g transform="matrix(12,0,0,12,6.59766,0)">
                    <path d="M0.492,-0.271C0.492,-0.259 0.492,-0.249 0.492,-0.241C0.491,-0.233 0.491,-0.225 0.49,-0.218L0.146,-0.218C0.146,-0.168 0.16,-0.129 0.188,-0.102C0.216,-0.075 0.256,-0.062 0.309,-0.062C0.323,-0.062 0.338,-0.063 0.352,-0.063C0.366,-0.065 0.38,-0.066 0.394,-0.068C0.407,-0.07 0.42,-0.072 0.432,-0.075C0.444,-0.077 0.455,-0.08 0.466,-0.083L0.466,-0.013C0.443,-0.007 0.417,-0.001 0.387,0.002C0.358,0.007 0.328,0.009 0.297,0.009C0.255,0.009 0.219,0.003 0.188,-0.008C0.158,-0.02 0.133,-0.036 0.114,-0.058C0.095,-0.079 0.08,-0.106 0.071,-0.137C0.062,-0.169 0.057,-0.204 0.057,-0.244C0.057,-0.279 0.062,-0.311 0.072,-0.342C0.082,-0.373 0.096,-0.4 0.115,-0.423C0.134,-0.446 0.158,-0.465 0.186,-0.479C0.213,-0.492 0.245,-0.499 0.28,-0.499C0.314,-0.499 0.344,-0.494 0.371,-0.483C0.397,-0.472 0.419,-0.457 0.437,-0.437C0.455,-0.417 0.469,-0.394 0.478,-0.365C0.487,-0.337 0.492,-0.306 0.492,-0.271ZM0.404,-0.283C0.405,-0.305 0.403,-0.325 0.397,-0.343C0.392,-0.361 0.384,-0.377 0.373,-0.39C0.362,-0.403 0.349,-0.413 0.333,-0.42C0.316,-0.427 0.297,-0.431 0.276,-0.431C0.257,-0.431 0.24,-0.428 0.225,-0.42C0.21,-0.413 0.197,-0.403 0.186,-0.39C0.174,-0.377 0.166,-0.361 0.159,-0.343C0.152,-0.325 0.148,-0.305 0.146,-0.283L0.404,-0.283Z" style="fill-rule:nonzero;"/>
                </g>
                <g transform="matrix(12,0,0,12,13.1953,0)">
                    <path d="M0.473,-0.007C0.454,-0.002 0.434,0.001 0.414,0.003C0.393,0.006 0.372,0.007 0.351,0.007C0.29,0.007 0.244,-0.007 0.213,-0.035C0.183,-0.063 0.168,-0.105 0.168,-0.163L0.168,-0.419L0.031,-0.419L0.031,-0.49L0.168,-0.49L0.168,-0.625L0.253,-0.647L0.253,-0.49L0.473,-0.49L0.473,-0.419L0.253,-0.419L0.253,-0.17C0.253,-0.135 0.262,-0.108 0.281,-0.091C0.3,-0.074 0.327,-0.065 0.364,-0.065C0.379,-0.065 0.396,-0.066 0.415,-0.068C0.434,-0.071 0.453,-0.075 0.473,-0.08L0.473,-0.007Z" style="fill-rule:nonzero;"/>
                </g>
                <g transform="matrix(12,0,0,12,26.3906,0)">
                    <path d="M0.245,-0.42L0.1,-0.42L0.1,-0.49L0.331,-0.49L0.331,-0.071L0.477,-0.071L0.477,-0L0.084,-0L0.084,-0.071L0.245,-0.071L0.245,-0.42ZM0.275,-0.696C0.284,-0.696 0.293,-0.694 0.301,-0.69C0.309,-0.687 0.316,-0.682 0.322,-0.676C0.328,-0.67 0.333,-0.663 0.336,-0.655C0.34,-0.647 0.342,-0.638 0.342,-0.629C0.342,-0.62 0.34,-0.611 0.336,-0.603C0.333,-0.595 0.328,-0.588 0.322,-0.582C0.316,-0.575 0.309,-0.57 0.301,-0.567C0.293,-0.564 0.284,-0.562 0.275,-0.562C0.265,-0.562 0.257,-0.564 0.249,-0.567C0.24,-0.57 0.233,-0.575 0.227,-0.582C0.221,-0.588 0.216,-0.595 0.213,-0.603C0.21,-0.611 0.208,-0.62 0.208,-0.629C0.208,-0.638 0.21,-0.647 0.213,-0.655C0.216,-0.663 0.221,-0.67 0.227,-0.676C0.233,-0.682 0.24,-0.687 0.249,-0.69C0.257,-0.694 0.265,-0.696 0.275,-0.696Z" style="fill-rule:nonzero;"/>
                </g>
                <g transform="matrix(12,0,0,12,32.9883,0)">
                    <path d="M0.078,-0.49L0.154,-0.49L0.157,-0.411C0.172,-0.428 0.185,-0.442 0.199,-0.453C0.212,-0.465 0.225,-0.474 0.238,-0.48C0.251,-0.487 0.264,-0.492 0.277,-0.495C0.291,-0.498 0.305,-0.499 0.319,-0.499C0.369,-0.499 0.407,-0.484 0.433,-0.454C0.459,-0.424 0.472,-0.38 0.472,-0.32L0.472,-0L0.387,-0L0.387,-0.313C0.387,-0.351 0.38,-0.38 0.366,-0.398C0.351,-0.417 0.33,-0.426 0.302,-0.426C0.291,-0.426 0.281,-0.424 0.271,-0.421C0.261,-0.418 0.251,-0.413 0.24,-0.405C0.229,-0.397 0.218,-0.387 0.205,-0.374C0.193,-0.361 0.179,-0.345 0.163,-0.325L0.163,-0L0.078,-0L0.078,-0.49Z" style="fill-rule:nonzero;"/>
                </g>
                <g transform="matrix(12,0,0,12,39.5859,0)">
                    <path d="M0.497,-0.254C0.497,-0.21 0.491,-0.172 0.479,-0.14C0.466,-0.107 0.45,-0.08 0.428,-0.059C0.407,-0.037 0.381,-0.021 0.352,-0.01C0.323,0 0.291,0.006 0.257,0.006C0.241,0.006 0.226,0.005 0.21,0.003C0.195,0.002 0.179,-0.001 0.163,-0.005L0.163,0.2L0.078,0.2L0.078,-0.49L0.154,-0.49L0.159,-0.408C0.184,-0.442 0.21,-0.465 0.237,-0.479C0.265,-0.492 0.295,-0.499 0.327,-0.499C0.355,-0.499 0.38,-0.493 0.401,-0.481C0.422,-0.47 0.44,-0.453 0.454,-0.432C0.468,-0.41 0.479,-0.385 0.486,-0.354C0.493,-0.325 0.497,-0.291 0.497,-0.254ZM0.41,-0.25C0.41,-0.276 0.408,-0.299 0.404,-0.321C0.401,-0.342 0.395,-0.361 0.387,-0.376C0.379,-0.391 0.368,-0.403 0.355,-0.412C0.343,-0.42 0.328,-0.425 0.31,-0.425C0.299,-0.425 0.288,-0.423 0.277,-0.419C0.266,-0.416 0.255,-0.41 0.243,-0.402C0.231,-0.395 0.218,-0.384 0.205,-0.371C0.192,-0.358 0.178,-0.341 0.163,-0.322L0.163,-0.084C0.179,-0.077 0.195,-0.072 0.212,-0.068C0.23,-0.065 0.247,-0.063 0.263,-0.063C0.309,-0.063 0.345,-0.078 0.371,-0.109C0.397,-0.141 0.41,-0.188 0.41,-0.25Z" style="fill-rule:nonzero;"/>
                </g>
                <g transform="matrix(12,0,0,12,46.1836,0)">
                    <path d="M0.472,-0L0.396,-0L0.393,-0.079C0.378,-0.062 0.364,-0.048 0.351,-0.037C0.338,-0.026 0.325,-0.017 0.312,-0.01C0.299,-0.003 0.286,0.002 0.272,0.004C0.259,0.007 0.246,0.009 0.231,0.009C0.181,0.009 0.142,-0.006 0.117,-0.036C0.091,-0.065 0.078,-0.11 0.078,-0.17L0.078,-0.49L0.163,-0.49L0.163,-0.177C0.163,-0.102 0.191,-0.064 0.248,-0.064C0.258,-0.064 0.269,-0.065 0.278,-0.068C0.288,-0.072 0.299,-0.077 0.31,-0.084C0.321,-0.092 0.332,-0.103 0.345,-0.116C0.357,-0.129 0.372,-0.145 0.387,-0.165L0.387,-0.49L0.472,-0.49L0.472,-0Z" style="fill-rule:nonzero;"/>
                </g>
                <g transform="matrix(12,0,0,12,52.7812,0)">
                    <path d="M0.473,-0.007C0.454,-0.002 0.434,0.001 0.414,0.003C0.393,0.006 0.372,0.007 0.351,0.007C0.29,0.007 0.244,-0.007 0.213,-0.035C0.183,-0.063 0.168,-0.105 0.168,-0.163L0.168,-0.419L0.031,-0.419L0.031,-0.49L0.168,-0.49L0.168,-0.625L0.253,-0.647L0.253,-0.49L0.473,-0.49L0.473,-0.419L0.253,-0.419L0.253,-0.17C0.253,-0.135 0.262,-0.108 0.281,-0.091C0.3,-0.074 0.327,-0.065 0.364,-0.065C0.379,-0.065 0.396,-0.066 0.415,-0.068C0.434,-0.071 0.453,-0.075 0.473,-0.08L0.473,-0.007Z" style="fill-rule:nonzero;"/>
                </g>
                <g transform="matrix(12,0,0,12,65.9766,0)">
                    <path d="M0.513,-0.611C0.469,-0.62 0.43,-0.625 0.398,-0.625C0.321,-0.625 0.283,-0.585 0.283,-0.505L0.283,-0.419L0.498,-0.419L0.498,-0.348L0.283,-0.348L0.283,-0L0.197,-0L0.197,-0.348L0.039,-0.348L0.039,-0.419L0.197,-0.419L0.197,-0.5C0.197,-0.631 0.265,-0.696 0.401,-0.696C0.435,-0.696 0.472,-0.692 0.513,-0.684L0.513,-0.611ZM0,-0.49" style="fill-rule:nonzero;"/>
                </g>
                <g transform="matrix(12,0,0,12,72.5742,0)">
                    <path d="M0.098,-0.49L0.176,-0.49L0.178,-0.4C0.207,-0.435 0.236,-0.46 0.264,-0.476C0.292,-0.491 0.32,-0.499 0.349,-0.499C0.4,-0.499 0.438,-0.483 0.464,-0.45C0.491,-0.417 0.503,-0.368 0.501,-0.303L0.415,-0.303C0.416,-0.346 0.41,-0.377 0.396,-0.396C0.383,-0.416 0.363,-0.426 0.337,-0.426C0.326,-0.426 0.314,-0.424 0.302,-0.419C0.291,-0.416 0.279,-0.409 0.267,-0.4C0.255,-0.391 0.242,-0.38 0.228,-0.366C0.214,-0.352 0.2,-0.335 0.184,-0.315L0.184,-0L0.098,-0L0.098,-0.49Z" style="fill-rule:nonzero;"/>
                </g>
                <g transform="matrix(12,0,0,12,79.1719,0)">
                    <path d="M0.505,-0.249C0.505,-0.211 0.5,-0.176 0.489,-0.144C0.478,-0.112 0.463,-0.085 0.442,-0.063C0.422,-0.04 0.398,-0.022 0.369,-0.01C0.34,0.003 0.307,0.009 0.27,0.009C0.235,0.009 0.203,0.003 0.175,-0.007C0.148,-0.018 0.124,-0.035 0.104,-0.056C0.085,-0.077 0.07,-0.103 0.06,-0.134C0.05,-0.166 0.045,-0.201 0.045,-0.242C0.045,-0.28 0.05,-0.315 0.061,-0.346C0.072,-0.378 0.087,-0.405 0.107,-0.427C0.128,-0.45 0.152,-0.468 0.181,-0.48C0.21,-0.493 0.243,-0.499 0.28,-0.499C0.315,-0.499 0.346,-0.493 0.374,-0.482C0.402,-0.472 0.426,-0.456 0.445,-0.435C0.464,-0.414 0.479,-0.388 0.489,-0.356C0.5,-0.325 0.505,-0.289 0.505,-0.249ZM0.418,-0.245C0.418,-0.275 0.415,-0.302 0.408,-0.324C0.401,-0.347 0.392,-0.366 0.379,-0.381C0.367,-0.396 0.352,-0.408 0.334,-0.415C0.316,-0.423 0.297,-0.427 0.275,-0.427C0.25,-0.427 0.228,-0.422 0.209,-0.412C0.192,-0.402 0.177,-0.389 0.165,-0.372C0.154,-0.355 0.145,-0.336 0.14,-0.314C0.134,-0.292 0.132,-0.269 0.132,-0.245C0.132,-0.215 0.135,-0.188 0.142,-0.166C0.148,-0.143 0.158,-0.124 0.17,-0.108C0.183,-0.093 0.198,-0.082 0.215,-0.074C0.233,-0.067 0.253,-0.063 0.275,-0.063C0.3,-0.063 0.322,-0.068 0.34,-0.078C0.358,-0.088 0.373,-0.101 0.384,-0.118C0.396,-0.134 0.404,-0.153 0.41,-0.175C0.415,-0.197 0.418,-0.221 0.418,-0.245Z" style="fill-rule:nonzero;"/>
                </g>
                <g transform="matrix(12,0,0,12,85.7695,0)">
                    <path d="M0.428,-0L0.428,-0.352C0.428,-0.367 0.427,-0.38 0.426,-0.39C0.425,-0.399 0.423,-0.407 0.42,-0.413C0.418,-0.418 0.415,-0.423 0.411,-0.425C0.408,-0.427 0.403,-0.428 0.397,-0.428C0.391,-0.428 0.385,-0.426 0.379,-0.422C0.374,-0.418 0.368,-0.412 0.361,-0.403C0.355,-0.395 0.348,-0.383 0.34,-0.368C0.333,-0.354 0.324,-0.336 0.313,-0.315L0.313,-0L0.236,-0L0.236,-0.343C0.236,-0.361 0.235,-0.375 0.234,-0.386C0.233,-0.397 0.231,-0.406 0.229,-0.412C0.226,-0.418 0.223,-0.423 0.219,-0.425C0.215,-0.427 0.211,-0.428 0.205,-0.428C0.199,-0.428 0.194,-0.427 0.188,-0.423C0.183,-0.42 0.177,-0.414 0.171,-0.406C0.165,-0.397 0.158,-0.386 0.15,-0.371C0.142,-0.356 0.133,-0.338 0.122,-0.315L0.122,-0L0.044,-0L0.044,-0.49L0.109,-0.49L0.113,-0.397C0.121,-0.416 0.129,-0.431 0.137,-0.444C0.145,-0.457 0.154,-0.468 0.162,-0.476C0.171,-0.484 0.18,-0.49 0.189,-0.493C0.199,-0.497 0.209,-0.499 0.221,-0.499C0.248,-0.499 0.268,-0.49 0.281,-0.473C0.295,-0.456 0.302,-0.429 0.302,-0.393C0.31,-0.41 0.317,-0.425 0.325,-0.438C0.332,-0.451 0.34,-0.462 0.349,-0.471C0.357,-0.48 0.367,-0.487 0.377,-0.492C0.388,-0.497 0.4,-0.499 0.414,-0.499C0.475,-0.499 0.506,-0.452 0.506,-0.357L0.506,-0L0.428,-0Z" style="fill-rule:nonzero;"/>
                </g>
                <g transform="matrix(12,0,0,12,98.9648,0)">
                    <path d="M0.472,-0L0.396,-0L0.393,-0.079C0.378,-0.062 0.364,-0.048 0.351,-0.037C0.338,-0.026 0.325,-0.017 0.312,-0.01C0.299,-0.003 0.286,0.002 0.272,0.004C0.259,0.007 0.246,0.009 0.231,0.009C0.181,0.009 0.142,-0.006 0.117,-0.036C0.091,-0.065 0.078,-0.11 0.078,-0.17L0.078,-0.49L0.163,-0.49L0.163,-0.177C0.163,-0.102 0.191,-0.064 0.248,-0.064C0.258,-0.064 0.269,-0.065 0.278,-0.068C0.288,-0.072 0.299,-0.077 0.31,-0.084C0.321,-0.092 0.332,-0.103 0.345,-0.116C0.357,-0.129 0.372,-0.145 0.387,-0.165L0.387,-0.49L0.472,-0.49L0.472,-0Z" style="fill-rule:nonzero;"/>
                </g>
                <g transform="matrix(12,0,0,12,105.562,0)">
                    <path d="M0.466,-0.134C0.466,-0.117 0.463,-0.101 0.458,-0.087C0.452,-0.074 0.444,-0.062 0.434,-0.051C0.424,-0.04 0.412,-0.031 0.398,-0.024C0.385,-0.016 0.371,-0.01 0.355,-0.005C0.34,-0 0.325,0.003 0.309,0.005C0.293,0.008 0.278,0.009 0.262,0.009C0.229,0.009 0.198,0.007 0.17,0.004C0.143,0.001 0.116,-0.003 0.089,-0.01L0.089,-0.088C0.118,-0.08 0.146,-0.074 0.174,-0.069C0.203,-0.065 0.231,-0.063 0.259,-0.063C0.299,-0.063 0.33,-0.069 0.349,-0.08C0.369,-0.091 0.378,-0.106 0.378,-0.127C0.378,-0.136 0.377,-0.144 0.374,-0.15C0.371,-0.158 0.365,-0.164 0.357,-0.17C0.349,-0.177 0.336,-0.184 0.319,-0.19C0.302,-0.197 0.279,-0.205 0.249,-0.214C0.227,-0.22 0.206,-0.228 0.188,-0.236C0.169,-0.244 0.153,-0.254 0.139,-0.266C0.125,-0.277 0.115,-0.29 0.107,-0.306C0.099,-0.321 0.095,-0.339 0.095,-0.36C0.095,-0.374 0.098,-0.389 0.104,-0.405C0.111,-0.421 0.122,-0.436 0.137,-0.45C0.153,-0.464 0.173,-0.476 0.199,-0.485C0.225,-0.494 0.258,-0.499 0.297,-0.499C0.316,-0.499 0.337,-0.498 0.361,-0.496C0.384,-0.494 0.409,-0.49 0.434,-0.485L0.434,-0.409C0.407,-0.416 0.382,-0.42 0.358,-0.423C0.334,-0.427 0.313,-0.428 0.296,-0.428C0.275,-0.428 0.257,-0.427 0.242,-0.423C0.228,-0.42 0.216,-0.416 0.207,-0.41C0.198,-0.404 0.192,-0.397 0.188,-0.39C0.184,-0.382 0.182,-0.374 0.182,-0.365C0.182,-0.356 0.184,-0.348 0.187,-0.341C0.191,-0.334 0.197,-0.327 0.206,-0.32C0.215,-0.314 0.229,-0.307 0.245,-0.3C0.262,-0.294 0.283,-0.287 0.31,-0.279C0.339,-0.27 0.363,-0.261 0.383,-0.252C0.403,-0.243 0.419,-0.233 0.432,-0.221C0.444,-0.21 0.453,-0.197 0.458,-0.183C0.464,-0.168 0.466,-0.152 0.466,-0.134Z" style="fill-rule:nonzero;"/>
                </g>
            </g>
            <g transform="matrix(1,0,0,1,422.557,224.327)">
                <g transform="matrix(12,0,0,12,0,0)">
                    <path d="M0.492,-0.271C0.492,-0.259 0.492,-0.249 0.492,-0.241C0.491,-0.233 0.491,-0.225 0.49,-0.218L0.146,-0.218C0.146,-0.168 0.16,-0.129 0.188,-0.102C0.216,-0.075 0.256,-0.062 0.309,-0.062C0.323,-0.062 0.338,-0.063 0.352,-0.063C0.366,-0.065 0.38,-0.066 0.394,-0.068C0.407,-0.07 0.42,-0.072 0.432,-0.075C0.444,-0.077 0.455,-0.08 0.466,-0.083L0.466,-0.013C0.443,-0.007 0.417,-0.001 0.387,0.002C0.358,0.007 0.328,0.009 0.297,0.009C0.255,0.009 0.219,0.003 0.188,-0.008C0.158,-0.02 0.133,-0.036 0.114,-0.058C0.095,-0.079 0.08,-0.106 0.071,-0.137C0.062,-0.169 0.057,-0.204 0.057,-0.244C0.057,-0.279 0.062,-0.311 0.072,-0.342C0.082,-0.373 0.096,-0.4 0.115,-0.423C0.134,-0.446 0.158,-0.465 0.186,-0.479C0.213,-0.492 0.245,-0.499 0.28,-0.499C0.314,-0.499 0.344,-0.494 0.371,-0.483C0.397,-0.472 0.419,-0.457 0.437,-0.437C0.455,-0.417 0.469,-0.394 0.478,-0.365C0.487,-0.337 0.492,-0.306 0.492,-0.271ZM0.404,-0.283C0.405,-0.305 0.403,-0.325 0.397,-0.343C0.392,-0.361 0.384,-0.377 0.373,-0.39C0.362,-0.403 0.349,-0.413 0.333,-0.42C0.316,-0.427 0.297,-0.431 0.276,-0.431C0.257,-0.431 0.24,-0.428 0.225,-0.42C0.21,-0.413 0.197,-0.403 0.186,-0.39C0.174,-0.377 0.166,-0.361 0.159,-0.343C0.152,-0.325 0.148,-0.305 0.146,-0.283L0.404,-0.283Z" style="fill-rule:nonzero;"/>
                </g>
                <g transform="matrix(12,0,0,12,6.59766,0)">
                    <path d="M0.098,-0.49L0.176,-0.49L0.178,-0.4C0.207,-0.435 0.236,-0.46 0.264,-0.476C0.292,-0.491 0.32,-0.499 0.349,-0.499C0.4,-0.499 0.438,-0.483 0.464,-0.45C0.491,-0.417 0.503,-0.368 0.501,-0.303L0.415,-0.303C0.416,-0.346 0.41,-0.377 0.396,-0.396C0.383,-0.416 0.363,-0.426 0.337,-0.426C0.326,-0.426 0.314,-0.424 0.302,-0.419C0.291,-0.416 0.279,-0.409 0.267,-0.4C0.255,-0.391 0.242,-0.38 0.228,-0.366C0.214,-0.352 0.2,-0.335 0.184,-0.315L0.184,-0L0.098,-0L0.098,-0.49Z" style="fill-rule:nonzero;"/>
                </g>
            </g>
        </g>
        <g>
            <g transform="matrix(1,0,0,1,292.359,243.927)">
                <g transform="matrix(12,0,0,12,0,0)">
                    <path d="M0.492,-0L0.072,-0L0.072,-0.076L0.237,-0.24C0.264,-0.267 0.286,-0.29 0.303,-0.31C0.32,-0.329 0.333,-0.347 0.342,-0.363C0.352,-0.379 0.358,-0.394 0.361,-0.409C0.365,-0.423 0.366,-0.438 0.366,-0.455C0.366,-0.471 0.364,-0.486 0.36,-0.5C0.356,-0.514 0.349,-0.526 0.34,-0.537C0.332,-0.548 0.32,-0.556 0.306,-0.563C0.292,-0.569 0.275,-0.572 0.256,-0.572C0.229,-0.572 0.204,-0.566 0.182,-0.554C0.16,-0.542 0.14,-0.526 0.121,-0.507L0.074,-0.563C0.098,-0.588 0.126,-0.609 0.157,-0.624C0.189,-0.639 0.225,-0.647 0.267,-0.647C0.295,-0.647 0.321,-0.643 0.344,-0.634C0.368,-0.626 0.388,-0.614 0.405,-0.598C0.422,-0.582 0.435,-0.562 0.444,-0.539C0.453,-0.516 0.458,-0.49 0.458,-0.461C0.458,-0.437 0.455,-0.414 0.448,-0.393C0.442,-0.372 0.432,-0.351 0.418,-0.331C0.405,-0.31 0.389,-0.289 0.369,-0.267C0.349,-0.244 0.325,-0.22 0.298,-0.194L0.182,-0.081L0.492,-0.081L0.492,-0Z" style="fill-rule:nonzero;"/>
                </g>
                <g transform="matrix(12,0,0,12,6.59766,0)">
                    <path d="M0.271,-0.154C0.282,-0.154 0.292,-0.152 0.302,-0.147C0.312,-0.143 0.321,-0.137 0.328,-0.13C0.336,-0.122 0.341,-0.114 0.346,-0.104C0.35,-0.094 0.352,-0.083 0.352,-0.072C0.352,-0.061 0.35,-0.05 0.346,-0.041C0.341,-0.031 0.336,-0.022 0.328,-0.015C0.321,-0.007 0.312,-0.002 0.302,0.002C0.292,0.007 0.282,0.009 0.271,0.009C0.26,0.009 0.249,0.007 0.239,0.002C0.229,-0.002 0.221,-0.007 0.213,-0.015C0.206,-0.022 0.201,-0.031 0.196,-0.041C0.192,-0.05 0.19,-0.061 0.19,-0.072C0.19,-0.083 0.192,-0.094 0.196,-0.104C0.201,-0.114 0.206,-0.122 0.213,-0.13C0.221,-0.137 0.229,-0.143 0.239,-0.147C0.249,-0.152 0.26,-0.154 0.271,-0.154Z" style="fill-rule:nonzero;"/>
                </g>
            </g>
            <g transform="matrix(1,0,0,1,310.5,243.927)">
                <g transform="matrix(12,0,0,12,0,0)">
                    <path d="M0.481,-0L0.114,-0L0.114,-0.638L0.202,-0.638L0.202,-0.074L0.481,-0.074L0.481,-0Z" style="fill-rule:nonzero;"/>
                </g>
                <g transform="matrix(12,0,0,12,6.59766,0)">
                    <path d="M0.505,-0.249C0.505,-0.211 0.5,-0.176 0.489,-0.144C0.478,-0.112 0.463,-0.085 0.442,-0.063C0.422,-0.04 0.398,-0.022 0.369,-0.01C0.34,0.003 0.307,0.009 0.27,0.009C0.235,0.009 0.203,0.003 0.175,-0.007C0.148,-0.018 0.124,-0.035 0.104,-0.056C0.085,-0.077 0.07,-0.103 0.06,-0.134C0.05,-0.166 0.045,-0.201 0.045,-0.242C0.045,-0.28 0.05,-0.315 0.061,-0.346C0.072,-0.378 0.087,-0.405 0.107,-0.427C0.128,-0.45 0.152,-0.468 0.181,-0.48C0.21,-0.493 0.243,-0.499 0.28,-0.499C0.315,-0.499 0.346,-0.493 0.374,-0.482C0.402,-0.472 0.426,-0.456 0.445,-0.435C0.464,-0.414 0.479,-0.388 0.489,-0.356C0.5,-0.325 0.505,-0.289 0.505,-0.249ZM0.418,-0.245C0.418,-0.275 0.415,-0.302 0.408,-0.324C0.401,-0.347 0.392,-0.366 0.379,-0.381C0.367,-0.396 0.352,-0.408 0.334,-0.415C0.316,-0.423 0.297,-0.427 0.275,-0.427C0.25,-0.427 0.228,-0.422 0.209,-0.412C0.192,-0.402 0.177,-0.389 0.165,-0.372C0.154,-0.355 0.145,-0.336 0.14,-0.314C0.134,-0.292 0.132,-0.269 0.132,-0.245C0.132,-0.215 0.135,-0.188 0.142,-0.166C0.148,-0.143 0.158,-0.124 0.17,-0.108C0.183,-0.093 0.198,-0.082 0.215,-0.074C0.233,-0.067 0.253,-0.063 0.275,-0.063C0.3,-0.063 0.322,-0.068 0.34,-0.078C0.358,-0.088 0.373,-0.101 0.384,-0.118C0.396,-0.134 0.404,-0.153 0.41,-0.175C0.415,-0.197 0.418,-0.221 0.418,-0.245Z" style="fill-rule:nonzero;"/>
                </g>
                <g transform="matrix(12,0,0,12,13.1953,0)">
                    <path d="M0.505,-0.249C0.505,-0.211 0.5,-0.176 0.489,-0.144C0.478,-0.112 0.463,-0.085 0.442,-0.063C0.422,-0.04 0.398,-0.022 0.369,-0.01C0.34,0.003 0.307,0.009 0.27,0.009C0.235,0.009 0.203,0.003 0.175,-0.007C0.148,-0.018 0.124,-0.035 0.104,-0.056C0.085,-0.077 0.07,-0.103 0.06,-0.134C0.05,-0.166 0.045,-0.201 0.045,-0.242C0.045,-0.28 0.05,-0.315 0.061,-0.346C0.072,-0.378 0.087,-0.405 0.107,-0.427C0.128,-0.45 0.152,-0.468 0.181,-0.48C0.21,-0.493 0.243,-0.499 0.28,-0.499C0.315,-0.499 0.346,-0.493 0.374,-0.482C0.402,-0.472 0.426,-0.456 0.445,-0.435C0.464,-0.414 0.479,-0.388 0.489,-0.356C0.5,-0.325 0.505,-0.289 0.505,-0.249ZM0.418,-0.245C0.418,-0.275 0.415,-0.302 0.408,-0.324C0.401,-0.347 0.392,-0.366 0.379,-0.381C0.367,-0.396 0.352,-0.408 0.334,-0.415C0.316,-0.423 0.297,-0.427 0.275,-0.427C0.25,-0.427 0.228,-0.422 0.209,-0.412C0.192,-0.402 0.177,-0.389 0.165,-0.372C0.154,-0.355 0.145,-0.336 0.14,-0.314C0.134,-0.292 0.132,-0.269 0.132,-0.245C0.132,-0.215 0.135,-0.188 0.142,-0.166C0.148,-0.143 0.158,-0.124 0.17,-0.108C0.183,-0.093 0.198,-0.082 0.215,-0.074C0.233,-0.067 0.253,-0.063 0.275,-0.063C0.3,-0.063 0.322,-0.068 0.34,-0.078C0.358,-0.088 0.373,-0.101 0.384,-0.118C0.396,-0.134 0.404,-0.153 0.41,-0.175C0.415,-0.197 0.418,-0.221 0.418,-0.245Z" style="fill-rule:nonzero;"/>
                </g>
                <g transform="matrix(12,0,0,12,19.793,0)">
                    <path d="M0.497,-0.254C0.497,-0.21 0.491,-0.172 0.479,-0.14C0.466,-0.107 0.45,-0.08 0.428,-0.059C0.407,-0.037 0.381,-0.021 0.352,-0.01C0.323,0 0.291,0.006 0.257,0.006C0.241,0.006 0.226,0.005 0.21,0.003C0.195,0.002 0.179,-0.001 0.163,-0.005L0.163,0.2L0.078,0.2L0.078,-0.49L0.154,-0.49L0.159,-0.408C0.184,-0.442 0.21,-0.465 0.237,-0.479C0.265,-0.492 0.295,-0.499 0.327,-0.499C0.355,-0.499 0.38,-0.493 0.401,-0.481C0.422,-0.47 0.44,-0.453 0.454,-0.432C0.468,-0.41 0.479,-0.385 0.486,-0.354C0.493,-0.325 0.497,-0.291 0.497,-0.254ZM0.41,-0.25C0.41,-0.276 0.408,-0.299 0.404,-0.321C0.401,-0.342 0.395,-0.361 0.387,-0.376C0.379,-0.391 0.368,-0.403 0.355,-0.412C0.343,-0.42 0.328,-0.425 0.31,-0.425C0.299,-0.425 0.288,-0.423 0.277,-0.419C0.266,-0.416 0.255,-0.41 0.243,-0.402C0.231,-0.395 0.218,-0.384 0.205,-0.371C0.192,-0.358 0.178,-0.341 0.163,-0.322L0.163,-0.084C0.179,-0.077 0.195,-0.072 0.212,-0.068C0.23,-0.065 0.247,-0.063 0.263,-0.063C0.309,-0.063 0.345,-0.078 0.371,-0.109C0.397,-0.141 0.41,-0.188 0.41,-0.25Z" style="fill-rule:nonzero;"/>
                </g>
                <g transform="matrix(12,0,0,12,32.9883,0)">
                    <path d="M0.532,-0.49L0.461,-0L0.358,-0L0.287,-0.205L0.273,-0.255L0.257,-0.202L0.189,-0L0.089,-0L0.018,-0.49L0.101,-0.49L0.142,-0.157L0.151,-0.083L0.172,-0.148L0.243,-0.368L0.304,-0.368L0.381,-0.151L0.403,-0.086L0.41,-0.155L0.448,-0.49L0.532,-0.49Z" style="fill-rule:nonzero;"/>
                </g>
                <g transform="matrix(12,0,0,12,39.5859,0)">
                    <path d="M0.472,-0L0.387,-0L0.387,-0.313C0.387,-0.351 0.38,-0.379 0.366,-0.397C0.352,-0.416 0.332,-0.426 0.305,-0.426C0.294,-0.426 0.283,-0.424 0.273,-0.421C0.263,-0.418 0.253,-0.413 0.242,-0.405C0.231,-0.397 0.22,-0.387 0.207,-0.374C0.194,-0.361 0.18,-0.345 0.163,-0.325L0.163,-0L0.078,-0L0.078,-0.69L0.163,-0.69L0.163,-0.49L0.16,-0.413C0.174,-0.429 0.187,-0.442 0.199,-0.453C0.212,-0.464 0.225,-0.473 0.238,-0.48C0.251,-0.487 0.264,-0.492 0.277,-0.495C0.291,-0.498 0.305,-0.499 0.319,-0.499C0.368,-0.499 0.405,-0.484 0.432,-0.454C0.459,-0.424 0.472,-0.38 0.472,-0.32L0.472,-0Z" style="fill-rule:nonzero;"/>
                </g>
                <g transform="matrix(12,0,0,12,46.1836,0)">
                    <path d="M0.245,-0.42L0.1,-0.42L0.1,-0.49L0.331,-0.49L0.331,-0.071L0.477,-0.071L0.477,-0L0.084,-0L0.084,-0.071L0.245,-0.071L0.245,-0.42ZM0.275,-0.696C0.284,-0.696 0.293,-0.694 0.301,-0.69C0.309,-0.687 0.316,-0.682 0.322,-0.676C0.328,-0.67 0.333,-0.663 0.336,-0.655C0.34,-0.647 0.342,-0.638 0.342,-0.629C0.342,-0.62 0.34,-0.611 0.336,-0.603C0.333,-0.595 0.328,-0.588 0.322,-0.582C0.316,-0.575 0.309,-0.57 0.301,-0.567C0.293,-0.564 0.284,-0.562 0.275,-0.562C0.265,-0.562 0.257,-0.564 0.249,-0.567C0.24,-0.57 0.233,-0.575 0.227,-0.582C0.221,-0.588 0.216,-0.595 0.213,-0.603C0.21,-0.611 0.208,-0.62 0.208,-0.629C0.208,-0.638 0.21,-0.647 0.213,-0.655C0.216,-0.663 0.221,-0.67 0.227,-0.676C0.233,-0.682 0.24,-0.687 0.249,-0.69C0.257,-0.694 0.265,-0.696 0.275,-0.696Z" style="fill-rule:nonzero;"/>
                </g>
                <g transform="matrix(12,0,0,12,52.7812,0)">
                    <path d="M0.245,-0.62L0.1,-0.62L0.1,-0.69L0.331,-0.69L0.331,-0.071L0.477,-0.071L0.477,-0L0.084,-0L0.084,-0.071L0.245,-0.071L0.245,-0.62Z" style="fill-rule:nonzero;"/>
                </g>
                <g transform="matrix(12,0,0,12,59.3789,0)">
                    <path d="M0.492,-0.271C0.492,-0.259 0.492,-0.249 0.492,-0.241C0.491,-0.233 0.491,-0.225 0.49,-0.218L0.146,-0.218C0.146,-0.168 0.16,-0.129 0.188,-0.102C0.216,-0.075 0.256,-0.062 0.309,-0.062C0.323,-0.062 0.338,-0.063 0.352,-0.063C0.366,-0.065 0.38,-0.066 0.394,-0.068C0.407,-0.07 0.42,-0.072 0.432,-0.075C0.444,-0.077 0.455,-0.08 0.466,-0.083L0.466,-0.013C0.443,-0.007 0.417,-0.001 0.387,0.002C0.358,0.007 0.328,0.009 0.297,0.009C0.255,0.009 0.219,0.003 0.188,-0.008C0.158,-0.02 0.133,-0.036 0.114,-0.058C0.095,-0.079 0.08,-0.106 0.071,-0.137C0.062,-0.169 0.057,-0.204 0.057,-0.244C0.057,-0.279 0.062,-0.311 0.072,-0.342C0.082,-0.373 0.096,-0.4 0.115,-0.423C0.134,-0.446 0.158,-0.465 0.186,-0.479C0.213,-0.492 0.245,-0.499 0.28,-0.499C0.314,-0.499 0.344,-0.494 0.371,-0.483C0.397,-0.472 0.419,-0.457 0.437,-0.437C0.455,-0.417 0.469,-0.394 0.478,-0.365C0.487,-0.337 0.492,-0.306 0.492,-0.271ZM0.404,-0.283C0.405,-0.305 0.403,-0.325 0.397,-0.343C0.392,-0.361 0.384,-0.377 0.373,-0.39C0.362,-0.403 0.349,-0.413 0.333,-0.42C0.316,-0.427 0.297,-0.431 0.276,-0.431C0.257,-0.431 0.24,-0.428 0.225,-0.42C0.21,-0.413 0.197,-0.403 0.186,-0.39C0.174,-0.377 0.166,-0.361 0.159,-0.343C0.152,-0.325 0.148,-0.305 0.146,-0.283L0.404,-0.283Z" style="fill-rule:nonzero;"/>
                </g>
                <g transform="matrix(12,0,0,12,72.5742,0)">
                    <path d="M0.245,-0.42L0.1,-0.42L0.1,-0.49L0.331,-0.49L0.331,-0.071L0.477,-0.071L0.477,-0L0.084,-0L0.084,-0.071L0.245,-0.071L0.245,-0.42ZM0.275,-0.696C0.284,-0.696 0.293,-0.694 0.301,-0.69C0.309,-0.687 0.316,-0.682 0.322,-0.676C0.328,-0.67 0.333,-0.663 0.336,-0.655C0.34,-0.647 0.342,-0.638 0.342,-0.629C0.342,-0.62 0.34,-0.611 0.336,-0.603C0.333,-0.595 0.328,-0.588 0.322,-0.582C0.316,-0.575 0.309,-0.57 0.301,-0.567C0.293,-0.564 0.284,-0.562 0.275,-0.562C0.265,-0.562 0.257,-0.564 0.249,-0.567C0.24,-0.57 0.233,-0.575 0.227,-0.582C0.221,-0.588 0.216,-0.595 0.213,-0.603C0.21,-0.611 0.208,-0.62 0.208,-0.629C0.208,-0.638 0.21,-0.647 0.213,-0.655C0.216,-0.663 0.221,-0.67 0.227,-0.676C0.233,-0.682 0.24,-0.687 0.249,-0.69C0.257,-0.694 0.265,-0.696 0.275,-0.696Z" style="fill-rule:nonzero;"/>
                </g>
                <g transform="matrix(12,0,0,12,79.1719,0)">
                    <path d="M0.078,-0.49L0.154,-0.49L0.157,-0.411C0.172,-0.428 0.185,-0.442 0.199,-0.453C0.212,-0.465 0.225,-0.474 0.238,-0.48C0.251,-0.487 0.264,-0.492 0.277,-0.495C0.291,-0.498 0.305,-0.499 0.319,-0.499C0.369,-0.499 0.407,-0.484 0.433,-0.454C0.459,-0.424 0.472,-0.38 0.472,-0.32L0.472,-0L0.387,-0L0.387,-0.313C0.387,-0.351 0.38,-0.38 0.366,-0.398C0.351,-0.417 0.33,-0.426 0.302,-0.426C0.291,-0.426 0.281,-0.424 0.271,-0.421C0.261,-0.418 0.251,-0.413 0.24,-0.405C0.229,-0.397 0.218,-0.387 0.205,-0.374C0.193,-0.361 0.179,-0.345 0.163,-0.325L0.163,-0L0.078,-0L0.078,-0.49Z" style="fill-rule:nonzero;"/>
                </g>
                <g transform="matrix(12,0,0,12,85.7695,0)">
                    <path d="M0.497,-0.254C0.497,-0.21 0.491,-0.172 0.479,-0.14C0.466,-0.107 0.45,-0.08 0.428,-0.059C0.407,-0.037 0.381,-0.021 0.352,-0.01C0.323,0 0.291,0.006 0.257,0.006C0.241,0.006 0.226,0.005 0.21,0.003C0.195,0.002 0.179,-0.001 0.163,-0.005L0.163,0.2L0.078,0.2L0.078,-0.49L0.154,-0.49L0.159,-0.408C0.184,-0.442 0.21,-0.465 0.237,-0.479C0.265,-0.492 0.295,-0.499 0.327,-0.499C0.355,-0.499 0.38,-0.493 0.401,-0.481C0.422,-0.47 0.44,-0.453 0.454,-0.432C0.468,-0.41 0.479,-0.385 0.486,-0.354C0.493,-0.325 0.497,-0.291 0.497,-0.254ZM0.41,-0.25C0.41,-0.276 0.408,-0.299 0.404,-0.321C0.401,-0.342 0.395,-0.361 0.387,-0.376C0.379,-0.391 0.368,-0.403 0.355,-0.412C0.343,-0.42 0.328,-0.425 0.31,-0.425C0.299,-0.425 0.288,-0.423 0.277,-0.419C0.266,-0.416 0.255,-0.41 0.243,-0.402C0.231,-0.395 0.218,-0.384 0.205,-0.371C0.192,-0.358 0.178,-0.341 0.163,-0.322L0.163,-0.084C0.179,-0.077 0.195,-0.072 0.212,-0.068C0.23,-0.065 0.247,-0.063 0.263,-0.063C0.309,-0.063 0.345,-0.078 0.371,-0.109C0.397,-0.141 0.41,-0.188 0.41,-0.25Z" style="fill-rule:nonzero;"/>
                </g>
                <g transform="matrix(12,0,0,12,92.3672,0)">
                    <path d="M0.472,-0L0.396,-0L0.393,-0.079C0.378,-0.062 0.364,-0.048 0.351,-0.037C0.338,-0.026 0.325,-0.017 0.312,-0.01C0.299,-0.003 0.286,0.002 0.272,0.004C0.259,0.007 0.246,0.009 0.231,0.009C0.181,0.009 0.142,-0.006 0.117,-0.036C0.091,-0.065 0.078,-0.11 0.078,-0.17L0.078,-0.49L0.163,-0.49L0.163,-0.177C0.163,-0.102 0.191,-0.064 0.248,-0.064C0.258,-0.064 0.269,-0.065 0.278,-0.068C0.288,-0.072 0.299,-0.077 0.31,-0.084C0.321,-0.092 0.332,-0.103 0.345,-0.116C0.357,-0.129 0.372,-0.145 0.387,-0.165L0.387,-0.49L0.472,-0.49L0.472,-0Z" style="fill-rule:nonzero;"/>
                </g>
                <g transform="matrix(12,0,0,12,98.9648,0)">
                    <path d="M0.473,-0.007C0.454,-0.002 0.434,0.001 0.414,0.003C0.393,0.006 0.372,0.007 0.351,0.007C0.29,0.007 0.244,-0.007 0.213,-0.035C0.183,-0.063 0.168,-0.105 0.168,-0.163L0.168,-0.419L0.031,-0.419L0.031,-0.49L0.168,-0.49L0.168,-0.625L0.253,-0.647L0.253,-0.49L0.473,-0.49L0.473,-0.419L0.253,-0.419L0.253,-0.17C0.253,-0.135 0.262,-0.108 0.281,-0.091C0.3,-0.074 0.327,-0.065 0.364,-0.065C0.379,-0.065 0.396,-0.066 0.415,-0.068C0.434,-0.071 0.453,-0.075 0.473,-0.08L0.473,-0.007Z" style="fill-rule:nonzero;"/>
                </g>
            </g>
            <g transform="matrix(1,0,0,1,422.557,243.927)">
                <g transform="matrix(12,0,0,12,0,0)">
                    <path d="M0.078,-0.49L0.154,-0.49L0.157,-0.411C0.172,-0.428 0.185,-0.442 0.199,-0.453C0.212,-0.465 0.225,-0.474 0.238,-0.48C0.251,-0.487 0.264,-0.492 0.277,-0.495C0.291,-0.498 0.305,-0.499 0.319,-0.499C0.369,-0.499 0.407,-0.484 0.433,-0.454C0.459,-0.424 0.472,-0.38 0.472,-0.32L0.472,-0L0.387,-0L0.387,-0.313C0.387,-0.351 0.38,-0.38 0.366,-0.398C0.351,-0.417 0.33,-0.426 0.302,-0.426C0.291,-0.426 0.281,-0.424 0.271,-0.421C0.261,-0.418 0.251,-0.413 0.24,-0.405C0.229,-0.397 0.218,-0.387 0.205,-0.374C0.193,-0.361 0.179,-0.345 0.163,-0.325L0.163,-0L0.078,-0L0.078,-0.49Z" style="fill-rule:nonzero;"/>
                </g>
                <g transform="matrix(12,0,0,12,6.59766,0)">
                    <path d="M0.505,-0.249C0.505,-0.211 0.5,-0.176 0.489,-0.144C0.478,-0.112 0.463,-0.085 0.442,-0.063C0.422,-0.04 0.398,-0.022 0.369,-0.01C0.34,0.003 0.307,0.009 0.27,0.009C0.235,0.009 0.203,0.003 0.175,-0.007C0.148,-0.018 0.124,-0.035 0.104,-0.056C0.085,-0.077 0.07,-0.103 0.06,-0.134C0.05,-0.166 0.045,-0.201 0.045,-0.242C0.045,-0.28 0.05,-0.315 0.061,-0.346C0.072,-0.378 0.087,-0.405 0.107,-0.427C0.128,-0.45 0.152,-0.468 0.181,-0.48C0.21,-0.493 0.243,-0.499 0.28,-0.499C0.315,-0.499 0.346,-0.493 0.374,-0.482C0.402,-0.472 0.426,-0.456 0.445,-0.435C0.464,-0.414 0.479,-0.388 0.489,-0.356C0.5,-0.325 0.505,-0.289 0.505,-0.249ZM0.418,-0.245C0.418,-0.275 0.415,-0.302 0.408,-0.324C0.401,-0.347 0.392,-0.366 0.379,-0.381C0.367,-0.396 0.352,-0.408 0.334,-0.415C0.316,-0.423 0.297,-0.427 0.275,-0.427C0.25,-0.427 0.228,-0.422 0.209,-0.412C0.192,-0.402 0.177,-0.389 0.165,-0.372C0.154,-0.355 0.145,-0.336 0.14,-0.314C0.134,-0.292 0.132,-0.269 0.132,-0.245C0.132,-0.215 0.135,-0.188 0.142,-0.166C0.148,-0.143 0.158,-0.124 0.17,-0.108C0.183,-0.093 0.198,-0.082 0.215,-0.074C0.233,-0.067 0.253,-0.063 0.275,-0.063C0.3,-0.063 0.322,-0.068 0.34,-0.078C0.358,-0.088 0.373,-0.101 0.384,-0.118C0.396,-0.134 0.404,-0.153 0.41,-0.175C0.415,-0.197 0.418,-0.221 0.418,-0.245Z" style="fill-rule:nonzero;"/>
                </g>
                <g transform="matrix(12,0,0,12,13.1953,0)">
                    <path d="M0.473,-0.007C0.454,-0.002 0.434,0.001 0.414,0.003C0.393,0.006 0.372,0.007 0.351,0.007C0.29,0.007 0.244,-0.007 0.213,-0.035C0.183,-0.063 0.168,-0.105 0.168,-0.163L0.168,-0.419L0.031,-0.419L0.031,-0.49L0.168,-0.49L0.168,-0.625L0.253,-0.647L0.253,-0.49L0.473,-0.49L0.473,-0.419L0.253,-0.419L0.253,-0.17C0.253,-0.135 0.262,-0.108 0.281,-0.091C0.3,-0.074 0.327,-0.065 0.364,-0.065C0.379,-0.065 0.396,-0.066 0.415,-0.068C0.434,-0.071 0.453,-0.075 0.473,-0.08L0.473,-0.007Z" style="fill-rule:nonzero;"/>
                </g>
                <g transform="matrix(12,0,0,12,26.3906,0)">
                    <path d="M0.032,-0.49L0.129,-0.49L0.249,-0.166L0.275,-0.087L0.302,-0.168L0.421,-0.49L0.514,-0.49L0.322,-0L0.224,-0L0.032,-0.49Z" style="fill-rule:nonzero;"/>
                </g>
                <g transform="matrix(12,0,0,12,32.9883,0)">
                    <path d="M0.393,-0L0.391,-0.066C0.364,-0.04 0.337,-0.021 0.31,-0.009C0.282,0.003 0.253,0.009 0.223,0.009C0.195,0.009 0.171,0.005 0.151,-0.002C0.132,-0.009 0.115,-0.019 0.102,-0.031C0.089,-0.044 0.08,-0.059 0.074,-0.076C0.068,-0.093 0.065,-0.111 0.065,-0.131C0.065,-0.18 0.083,-0.218 0.12,-0.246C0.156,-0.274 0.211,-0.288 0.282,-0.288L0.384,-0.288L0.384,-0.331C0.384,-0.36 0.375,-0.383 0.356,-0.4C0.337,-0.418 0.309,-0.427 0.271,-0.427C0.243,-0.427 0.216,-0.424 0.189,-0.417C0.162,-0.411 0.135,-0.403 0.106,-0.391L0.106,-0.468C0.117,-0.472 0.129,-0.475 0.142,-0.479C0.155,-0.483 0.169,-0.486 0.184,-0.489C0.198,-0.492 0.214,-0.494 0.229,-0.496C0.245,-0.498 0.262,-0.499 0.278,-0.499C0.307,-0.499 0.334,-0.496 0.358,-0.489C0.382,-0.483 0.402,-0.473 0.418,-0.459C0.435,-0.446 0.447,-0.429 0.456,-0.409C0.465,-0.389 0.469,-0.365 0.469,-0.338L0.469,-0L0.393,-0ZM0.384,-0.223L0.276,-0.223C0.255,-0.223 0.236,-0.221 0.221,-0.217C0.206,-0.213 0.193,-0.207 0.184,-0.199C0.174,-0.191 0.167,-0.181 0.162,-0.17C0.157,-0.16 0.155,-0.147 0.155,-0.134C0.155,-0.124 0.156,-0.115 0.159,-0.106C0.162,-0.098 0.167,-0.09 0.173,-0.083C0.18,-0.077 0.188,-0.072 0.199,-0.068C0.209,-0.064 0.222,-0.062 0.237,-0.062C0.256,-0.062 0.279,-0.068 0.304,-0.08C0.329,-0.092 0.356,-0.111 0.384,-0.136L0.384,-0.223Z" style="fill-rule:nonzero;"/>
                </g>
                <g transform="matrix(12,0,0,12,39.5859,0)">
                    <path d="M0.245,-0.62L0.1,-0.62L0.1,-0.69L0.331,-0.69L0.331,-0.071L0.477,-0.071L0.477,-0L0.084,-0L0.084,-0.071L0.245,-0.071L0.245,-0.62Z" style="fill-rule:nonzero;"/>
                </g>
                <g transform="matrix(12,0,0,12,46.1836,0)">
                    <path d="M0.245,-0.42L0.1,-0.42L0.1,-0.49L0.331,-0.49L0.331,-0.071L0.477,-0.071L0.477,-0L0.084,-0L0.084,-0.071L0.245,-0.071L0.245,-0.42ZM0.275,-0.696C0.284,-0.696 0.293,-0.694 0.301,-0.69C0.309,-0.687 0.316,-0.682 0.322,-0.676C0.328,-0.67 0.333,-0.663 0.336,-0.655C0.34,-0.647 0.342,-0.638 0.342,-0.629C0.342,-0.62 0.34,-0.611 0.336,-0.603C0.333,-0.595 0.328,-0.588 0.322,-0.582C0.316,-0.575 0.309,-0.57 0.301,-0.567C0.293,-0.564 0.284,-0.562 0.275,-0.562C0.265,-0.562 0.257,-0.564 0.249,-0.567C0.24,-0.57 0.233,-0.575 0.227,-0.582C0.221,-0.588 0.216,-0.595 0.213,-0.603C0.21,-0.611 0.208,-0.62 0.208,-0.629C0.208,-0.638 0.21,-0.647 0.213,-0.655C0.216,-0.663 0.221,-0.67 0.227,-0.676C0.233,-0.682 0.24,-0.687 0.249,-0.69C0.257,-0.694 0.265,-0.696 0.275,-0.696Z" style="fill-rule:nonzero;"/>
                </g>
                <g transform="matrix(12,0,0,12,52.7812,0)">
                    <path d="M0.053,-0.235C0.053,-0.277 0.059,-0.313 0.07,-0.346C0.082,-0.378 0.098,-0.406 0.119,-0.428C0.14,-0.45 0.165,-0.467 0.194,-0.479C0.224,-0.49 0.257,-0.496 0.293,-0.496C0.309,-0.496 0.324,-0.495 0.339,-0.493C0.354,-0.491 0.369,-0.488 0.384,-0.484L0.384,-0.69L0.469,-0.69L0.469,-0L0.393,-0L0.39,-0.093C0.366,-0.058 0.341,-0.033 0.313,-0.016C0.285,0 0.255,0.009 0.223,0.009C0.195,0.009 0.17,0.003 0.149,-0.009C0.128,-0.021 0.11,-0.037 0.096,-0.058C0.082,-0.08 0.071,-0.105 0.064,-0.135C0.057,-0.165 0.053,-0.198 0.053,-0.235ZM0.14,-0.24C0.14,-0.181 0.149,-0.137 0.166,-0.107C0.184,-0.078 0.208,-0.064 0.24,-0.064C0.262,-0.064 0.284,-0.074 0.308,-0.093C0.332,-0.112 0.357,-0.14 0.384,-0.178L0.384,-0.406C0.37,-0.412 0.354,-0.417 0.337,-0.42C0.32,-0.424 0.304,-0.426 0.287,-0.426C0.241,-0.426 0.205,-0.411 0.179,-0.381C0.153,-0.351 0.14,-0.304 0.14,-0.24Z" style="fill-rule:nonzero;"/>
                </g>
            </g>
        </g>
        <g>
            <g transform="matrix(1,0,0,1,292.359,263.527)">
                <g transform="matrix(12,0,0,12,0,0)">
                    <path d="M0.48,-0.194C0.48,-0.166 0.474,-0.139 0.463,-0.115C0.451,-0.09 0.434,-0.069 0.412,-0.05C0.389,-0.032 0.36,-0.018 0.326,-0.007C0.291,0.004 0.251,0.009 0.205,0.009C0.18,0.009 0.157,0.008 0.137,0.006C0.117,0.005 0.098,0.003 0.08,-0L0.08,-0.076C0.1,-0.073 0.122,-0.07 0.144,-0.068C0.167,-0.066 0.189,-0.065 0.213,-0.065C0.245,-0.065 0.272,-0.068 0.294,-0.073C0.317,-0.079 0.336,-0.087 0.35,-0.098C0.364,-0.109 0.375,-0.122 0.381,-0.137C0.388,-0.153 0.391,-0.17 0.391,-0.189C0.391,-0.207 0.387,-0.222 0.379,-0.235C0.372,-0.248 0.361,-0.259 0.346,-0.268C0.332,-0.276 0.315,-0.283 0.295,-0.287C0.276,-0.292 0.254,-0.294 0.231,-0.294L0.158,-0.294L0.158,-0.364L0.232,-0.364C0.251,-0.364 0.269,-0.366 0.284,-0.371C0.3,-0.376 0.314,-0.384 0.325,-0.393C0.336,-0.403 0.345,-0.414 0.351,-0.428C0.357,-0.442 0.36,-0.458 0.36,-0.475C0.36,-0.509 0.349,-0.534 0.329,-0.55C0.308,-0.565 0.277,-0.573 0.237,-0.573C0.215,-0.573 0.193,-0.571 0.17,-0.567C0.148,-0.563 0.123,-0.556 0.097,-0.548L0.097,-0.622C0.108,-0.626 0.12,-0.629 0.132,-0.632C0.145,-0.636 0.158,-0.638 0.17,-0.64C0.183,-0.642 0.195,-0.644 0.208,-0.645C0.22,-0.646 0.232,-0.647 0.243,-0.647C0.277,-0.647 0.307,-0.643 0.333,-0.636C0.358,-0.629 0.38,-0.618 0.397,-0.604C0.414,-0.591 0.427,-0.574 0.436,-0.555C0.445,-0.535 0.449,-0.513 0.449,-0.489C0.449,-0.452 0.44,-0.422 0.421,-0.397C0.402,-0.372 0.377,-0.353 0.344,-0.338C0.361,-0.335 0.377,-0.33 0.393,-0.322C0.409,-0.314 0.424,-0.304 0.437,-0.292C0.45,-0.28 0.46,-0.266 0.468,-0.249C0.476,-0.232 0.48,-0.214 0.48,-0.194Z" style="fill-rule:nonzero;"/>
                </g>
                <g transform="matrix(12,0,0,12,6.59766,0)">
                    <path d="M0.271,-0.154C0.282,-0.154 0.292,-0.152 0.302,-0.147C0.312,-0.143 0.321,-0.137 0.328,-0.13C0.336,-0.122 0.341,-0.114 0.346,-0.104C0.35,-0.094 0.352,-0.083 0.352,-0.072C0.352,-0.061 0.35,-0.05 0.346,-0.041C0.341,-0.031 0.336,-0.022 0.328,-0.015C0.321,-0.007 0.312,-0.002 0.302,0.002C0.292,0.007 0.282,0.009 0.271,0.009C0.26,0.009 0.249,0.007 0.239,0.002C0.229,-0.002 0.221,-0.007 0.213,-0.015C0.206,-0.022 0.201,-0.031 0.196,-0.041C0.192,-0.05 0.19,-0.061 0.19,-0.072C0.19,-0.083 0.192,-0.094 0.196,-0.104C0.201,-0.114 0.206,-0.122 0.213,-0.13C0.221,-0.137 0.229,-0.143 0.239,-0.147C0.249,-0.152 0.26,-0.154 0.271,-0.154Z" style="fill-rule:nonzero;"/>
                </g>
            </g>
            <g transform="matrix(1,0,0,1,336.867,263.527)">
                <g transform="matrix(12,0,0,12,0,0)">
                    <path d="M0.514,-0.326C0.514,-0.296 0.512,-0.266 0.507,-0.238C0.502,-0.21 0.495,-0.184 0.484,-0.16C0.474,-0.136 0.46,-0.114 0.444,-0.094C0.427,-0.075 0.407,-0.058 0.383,-0.044C0.359,-0.03 0.331,-0.019 0.299,-0.011C0.267,-0.004 0.231,-0 0.19,-0L0.053,-0L0.053,-0.638L0.218,-0.638C0.317,-0.638 0.392,-0.612 0.44,-0.561C0.49,-0.51 0.514,-0.432 0.514,-0.326ZM0.423,-0.32C0.423,-0.365 0.419,-0.403 0.41,-0.435C0.402,-0.466 0.389,-0.491 0.372,-0.51C0.354,-0.529 0.333,-0.543 0.307,-0.552C0.281,-0.561 0.25,-0.565 0.215,-0.565L0.14,-0.565L0.14,-0.075L0.205,-0.075C0.35,-0.075 0.423,-0.157 0.423,-0.32Z" style="fill-rule:nonzero;"/>
                </g>
                <g transform="matrix(12,0,0,12,6.59766,0)">
                    <path d="M0.245,-0.42L0.1,-0.42L0.1,-0.49L0.331,-0.49L0.331,-0.071L0.477,-0.071L0.477,-0L0.084,-0L0.084,-0.071L0.245,-0.071L0.245,-0.42ZM0.275,-0.696C0.284,-0.696 0.293,-0.694 0.301,-0.69C0.309,-0.687 0.316,-0.682 0.322,-0.676C0.328,-0.67 0.333,-0.663 0.336,-0.655C0.34,-0.647 0.342,-0.638 0.342,-0.629C0.342,-0.62 0.34,-0.611 0.336,-0.603C0.333,-0.595 0.328,-0.588 0.322,-0.582C0.316,-0.575 0.309,-0.57 0.301,-0.567C0.293,-0.564 0.284,-0.562 0.275,-0.562C0.265,-0.562 0.257,-0.564 0.249,-0.567C0.24,-0.57 0.233,-0.575 0.227,-0.582C0.221,-0.588 0.216,-0.595 0.213,-0.603C0.21,-0.611 0.208,-0.62 0.208,-0.629C0.208,-0.638 0.21,-0.647 0.213,-0.655C0.216,-0.663 0.221,-0.67 0.227,-0.676C0.233,-0.682 0.24,-0.687 0.249,-0.69C0.257,-0.694 0.265,-0.696 0.275,-0.696Z" style="fill-rule:nonzero;"/>
                </g>
                <g transform="matrix(12,0,0,12,13.1953,0)">
                    <path d="M0.466,-0.134C0.466,-0.117 0.463,-0.101 0.458,-0.087C0.452,-0.074 0.444,-0.062 0.434,-0.051C0.424,-0.04 0.412,-0.031 0.398,-0.024C0.385,-0.016 0.371,-0.01 0.355,-0.005C0.34,-0 0.325,0.003 0.309,0.005C0.293,0.008 0.278,0.009 0.262,0.009C0.229,0.009 0.198,0.007 0.17,0.004C0.143,0.001 0.116,-0.003 0.089,-0.01L0.089,-0.088C0.118,-0.08 0.146,-0.074 0.174,-0.069C0.203,-0.065 0.231,-0.063 0.259,-0.063C0.299,-0.063 0.33,-0.069 0.349,-0.08C0.369,-0.091 0.378,-0.106 0.378,-0.127C0.378,-0.136 0.377,-0.144 0.374,-0.15C0.371,-0.158 0.365,-0.164 0.357,-0.17C0.349,-0.177 0.336,-0.184 0.319,-0.19C0.302,-0.197 0.279,-0.205 0.249,-0.214C0.227,-0.22 0.206,-0.228 0.188,-0.236C0.169,-0.244 0.153,-0.254 0.139,-0.266C0.125,-0.277 0.115,-0.29 0.107,-0.306C0.099,-0.321 0.095,-0.339 0.095,-0.36C0.095,-0.374 0.098,-0.389 0.104,-0.405C0.111,-0.421 0.122,-0.436 0.137,-0.45C0.153,-0.464 0.173,-0.476 0.199,-0.485C0.225,-0.494 0.258,-0.499 0.297,-0.499C0.316,-0.499 0.337,-0.498 0.361,-0.496C0.384,-0.494 0.409,-0.49 0.434,-0.485L0.434,-0.409C0.407,-0.416 0.382,-0.42 0.358,-0.423C0.334,-0.427 0.313,-0.428 0.296,-0.428C0.275,-0.428 0.257,-0.427 0.242,-0.423C0.228,-0.42 0.216,-0.416 0.207,-0.41C0.198,-0.404 0.192,-0.397 0.188,-0.39C0.184,-0.382 0.182,-0.374 0.182,-0.365C0.182,-0.356 0.184,-0.348 0.187,-0.341C0.191,-0.334 0.197,-0.327 0.206,-0.32C0.215,-0.314 0.229,-0.307 0.245,-0.3C0.262,-0.294 0.283,-0.287 0.31,-0.279C0.339,-0.27 0.363,-0.261 0.383,-0.252C0.403,-0.243 0.419,-0.233 0.432,-0.221C0.444,-0.21 0.453,-0.197 0.458,-0.183C0.464,-0.168 0.466,-0.152 0.466,-0.134Z" style="fill-rule:nonzero;"/>
                </g>
                <g transform="matrix(12,0,0,12,19.793,0)">
                    <path d="M0.497,-0.254C0.497,-0.21 0.491,-0.172 0.479,-0.14C0.466,-0.107 0.45,-0.08 0.428,-0.059C0.407,-0.037 0.381,-0.021 0.352,-0.01C0.323,0 0.291,0.006 0.257,0.006C0.241,0.006 0.226,0.005 0.21,0.003C0.195,0.002 0.179,-0.001 0.163,-0.005L0.163,0.2L0.078,0.2L0.078,-0.49L0.154,-0.49L0.159,-0.408C0.184,-0.442 0.21,-0.465 0.237,-0.479C0.265,-0.492 0.295,-0.499 0.327,-0.499C0.355,-0.499 0.38,-0.493 0.401,-0.481C0.422,-0.47 0.44,-0.453 0.454,-0.432C0.468,-0.41 0.479,-0.385 0.486,-0.354C0.493,-0.325 0.497,-0.291 0.497,-0.254ZM0.41,-0.25C0.41,-0.276 0.408,-0.299 0.404,-0.321C0.401,-0.342 0.395,-0.361 0.387,-0.376C0.379,-0.391 0.368,-0.403 0.355,-0.412C0.343,-0.42 0.328,-0.425 0.31,-0.425C0.299,-0.425 0.288,-0.423 0.277,-0.419C0.266,-0.416 0.255,-0.41 0.243,-0.402C0.231,-0.395 0.218,-0.384 0.205,-0.371C0.192,-0.358 0.178,-0.341 0.163,-0.322L0.163,-0.084C0.179,-0.077 0.195,-0.072 0.212,-0.068C0.23,-0.065 0.247,-0.063 0.263,-0.063C0.309,-0.063 0.345,-0.078 0.371,-0.109C0.397,-0.141 0.41,-0.188 0.41,-0.25Z" style="fill-rule:nonzero;"/>
                </g>
                <g transform="matrix(12,0,0,12,26.3906,0)">
                    <path d="M0.245,-0.62L0.1,-0.62L0.1,-0.69L0.331,-0.69L0.331,-0.071L0.477,-0.071L0.477,-0L0.084,-0L0.084,-0.071L0.245,-0.071L0.245,-0.62Z" style="fill-rule:nonzero;"/>
                </g>
                <g transform="matrix(12,0,0,12,32.9883,0)">
                    <path d="M0.393,-0L0.391,-0.066C0.364,-0.04 0.337,-0.021 0.31,-0.009C0.282,0.003 0.253,0.009 0.223,0.009C0.195,0.009 0.171,0.005 0.151,-0.002C0.132,-0.009 0.115,-0.019 0.102,-0.031C0.089,-0.044 0.08,-0.059 0.074,-0.076C0.068,-0.093 0.065,-0.111 0.065,-0.131C0.065,-0.18 0.083,-0.218 0.12,-0.246C0.156,-0.274 0.211,-0.288 0.282,-0.288L0.384,-0.288L0.384,-0.331C0.384,-0.36 0.375,-0.383 0.356,-0.4C0.337,-0.418 0.309,-0.427 0.271,-0.427C0.243,-0.427 0.216,-0.424 0.189,-0.417C0.162,-0.411 0.135,-0.403 0.106,-0.391L0.106,-0.468C0.117,-0.472 0.129,-0.475 0.142,-0.479C0.155,-0.483 0.169,-0.486 0.184,-0.489C0.198,-0.492 0.214,-0.494 0.229,-0.496C0.245,-0.498 0.262,-0.499 0.278,-0.499C0.307,-0.499 0.334,-0.496 0.358,-0.489C0.382,-0.483 0.402,-0.473 0.418,-0.459C0.435,-0.446 0.447,-0.429 0.456,-0.409C0.465,-0.389 0.469,-0.365 0.469,-0.338L0.469,-0L0.393,-0ZM0.384,-0.223L0.276,-0.223C0.255,-0.223 0.236,-0.221 0.221,-0.217C0.206,-0.213 0.193,-0.207 0.184,-0.199C0.174,-0.191 0.167,-0.181 0.162,-0.17C0.157,-0.16 0.155,-0.147 0.155,-0.134C0.155,-0.124 0.156,-0.115 0.159,-0.106C0.162,-0.098 0.167,-0.09 0.173,-0.083C0.18,-0.077 0.188,-0.072 0.199,-0.068C0.209,-0.064 0.222,-0.062 0.237,-0.062C0.256,-0.062 0.279,-0.068 0.304,-0.08C0.329,-0.092 0.356,-0.111 0.384,-0.136L0.384,-0.223Z" style="fill-rule:nonzero;"/>
                </g>
                <g transform="matrix(12,0,0,12,39.5859,0)">
                    <path d="M0.514,-0.49L0.347,-0.052C0.33,-0.007 0.312,0.031 0.293,0.063C0.275,0.096 0.255,0.122 0.233,0.143C0.212,0.163 0.188,0.179 0.162,0.188C0.136,0.198 0.106,0.203 0.074,0.203C0.066,0.203 0.058,0.203 0.051,0.203C0.044,0.202 0.037,0.202 0.029,0.201L0.029,0.124C0.036,0.125 0.044,0.126 0.052,0.126C0.061,0.127 0.07,0.128 0.079,0.128C0.095,0.128 0.109,0.126 0.123,0.121C0.136,0.117 0.149,0.109 0.161,0.099C0.173,0.089 0.185,0.075 0.196,0.059C0.207,0.043 0.218,0.023 0.228,-0L0.032,-0.49L0.129,-0.49L0.253,-0.166L0.278,-0.09L0.306,-0.168L0.421,-0.49L0.514,-0.49Z" style="fill-rule:nonzero;"/>
                </g>
                <g transform="matrix(12,0,0,12,52.7812,0)">
                    <path d="M0.492,-0.271C0.492,-0.259 0.492,-0.249 0.492,-0.241C0.491,-0.233 0.491,-0.225 0.49,-0.218L0.146,-0.218C0.146,-0.168 0.16,-0.129 0.188,-0.102C0.216,-0.075 0.256,-0.062 0.309,-0.062C0.323,-0.062 0.338,-0.063 0.352,-0.063C0.366,-0.065 0.38,-0.066 0.394,-0.068C0.407,-0.07 0.42,-0.072 0.432,-0.075C0.444,-0.077 0.455,-0.08 0.466,-0.083L0.466,-0.013C0.443,-0.007 0.417,-0.001 0.387,0.002C0.358,0.007 0.328,0.009 0.297,0.009C0.255,0.009 0.219,0.003 0.188,-0.008C0.158,-0.02 0.133,-0.036 0.114,-0.058C0.095,-0.079 0.08,-0.106 0.071,-0.137C0.062,-0.169 0.057,-0.204 0.057,-0.244C0.057,-0.279 0.062,-0.311 0.072,-0.342C0.082,-0.373 0.096,-0.4 0.115,-0.423C0.134,-0.446 0.158,-0.465 0.186,-0.479C0.213,-0.492 0.245,-0.499 0.28,-0.499C0.314,-0.499 0.344,-0.494 0.371,-0.483C0.397,-0.472 0.419,-0.457 0.437,-0.437C0.455,-0.417 0.469,-0.394 0.478,-0.365C0.487,-0.337 0.492,-0.306 0.492,-0.271ZM0.404,-0.283C0.405,-0.305 0.403,-0.325 0.397,-0.343C0.392,-0.361 0.384,-0.377 0.373,-0.39C0.362,-0.403 0.349,-0.413 0.333,-0.42C0.316,-0.427 0.297,-0.431 0.276,-0.431C0.257,-0.431 0.24,-0.428 0.225,-0.42C0.21,-0.413 0.197,-0.403 0.186,-0.39C0.174,-0.377 0.166,-0.361 0.159,-0.343C0.152,-0.325 0.148,-0.305 0.146,-0.283L0.404,-0.283Z" style="fill-rule:nonzero;"/>
                </g>
                <g transform="matrix(12,0,0,12,59.3789,0)">
                    <path d="M0.098,-0.49L0.176,-0.49L0.178,-0.4C0.207,-0.435 0.236,-0.46 0.264,-0.476C0.292,-0.491 0.32,-0.499 0.349,-0.499C0.4,-0.499 0.438,-0.483 0.464,-0.45C0.491,-0.417 0.503,-0.368 0.501,-0.303L0.415,-0.303C0.416,-0.346 0.41,-0.377 0.396,-0.396C0.383,-0.416 0.363,-0.426 0.337,-0.426C0.326,-0.426 0.314,-0.424 0.302,-0.419C0.291,-0.416 0.279,-0.409 0.267,-0.4C0.255,-0.391 0.242,-0.38 0.228,-0.366C0.214,-0.352 0.2,-0.335 0.184,-0.315L0.184,-0L0.098,-0L0.098,-0.49Z" style="fill-rule:nonzero;"/>
                </g>
                <g transform="matrix(12,0,0,12,65.9766,0)">
                    <path d="M0.098,-0.49L0.176,-0.49L0.178,-0.4C0.207,-0.435 0.236,-0.46 0.264,-0.476C0.292,-0.491 0.32,-0.499 0.349,-0.499C0.4,-0.499 0.438,-0.483 0.464,-0.45C0.491,-0.417 0.503,-0.368 0.501,-0.303L0.415,-0.303C0.416,-0.346 0.41,-0.377 0.396,-0.396C0.383,-0.416 0.363,-0.426 0.337,-0.426C0.326,-0.426 0.314,-0.424 0.302,-0.419C0.291,-0.416 0.279,-0.409 0.267,-0.4C0.255,-0.391 0.242,-0.38 0.228,-0.366C0.214,-0.352 0.2,-0.335 0.184,-0.315L0.184,-0L0.098,-0L0.098,-0.49Z" style="fill-rule:nonzero;"/>
                </g>
                <g transform="matrix(12,0,0,12,72.5742,0)">
                    <path d="M0.505,-0.249C0.505,-0.211 0.5,-0.176 0.489,-0.144C0.478,-0.112 0.463,-0.085 0.442,-0.063C0.422,-0.04 0.398,-0.022 0.369,-0.01C0.34,0.003 0.307,0.009 0.27,0.009C0.235,0.009 0.203,0.003 0.175,-0.007C0.148,-0.018 0.124,-0.035 0.104,-0.056C0.085,-0.077 0.07,-0.103 0.06,-0.134C0.05,-0.166 0.045,-0.201 0.045,-0.242C0.045,-0.28 0.05,-0.315 0.061,-0.346C0.072,-0.378 0.087,-0.405 0.107,-0.427C0.128,-0.45 0.152,-0.468 0.181,-0.48C0.21,-0.493 0.243,-0.499 0.28,-0.499C0.315,-0.499 0.346,-0.493 0.374,-0.482C0.402,-0.472 0.426,-0.456 0.445,-0.435C0.464,-0.414 0.479,-0.388 0.489,-0.356C0.5,-0.325 0.505,-0.289 0.505,-0.249ZM0.418,-0.245C0.418,-0.275 0.415,-0.302 0.408,-0.324C0.401,-0.347 0.392,-0.366 0.379,-0.381C0.367,-0.396 0.352,-0.408 0.334,-0.415C0.316,-0.423 0.297,-0.427 0.275,-0.427C0.25,-0.427 0.228,-0.422 0.209,-0.412C0.192,-0.402 0.177,-0.389 0.165,-0.372C0.154,-0.355 0.145,-0.336 0.14,-0.314C0.134,-0.292 0.132,-0.269 0.132,-0.245C0.132,-0.215 0.135,-0.188 0.142,-0.166C0.148,-0.143 0.158,-0.124 0.17,-0.108C0.183,-0.093 0.198,-0.082 0.215,-0.074C0.233,-0.067 0.253,-0.063 0.275,-0.063C0.3,-0.063 0.322,-0.068 0.34,-0.078C0.358,-0.088 0.373,-0.101 0.384,-0.118C0.396,-0.134 0.404,-0.153 0.41,-0.175C0.415,-0.197 0.418,-0.221 0.418,-0.245Z" style="fill-rule:nonzero;"/>
                </g>
                <g transform="matrix(12,0,0,12,79.1719,0)">
                    <path d="M0.098,-0.49L0.176,-0.49L0.178,-0.4C0.207,-0.435 0.236,-0.46 0.264,-0.476C0.292,-0.491 0.32,-0.499 0.349,-0.499C0.4,-0.499 0.438,-0.483 0.464,-0.45C0.491,-0.417 0.503,-0.368 0.501,-0.303L0.415,-0.303C0.416,-0.346 0.41,-0.377 0.396,-0.396C0.383,-0.416 0.363,-0.426 0.337,-0.426C0.326,-0.426 0.314,-0.424 0.302,-0.419C0.291,-0.416 0.279,-0.409 0.267,-0.4C0.255,-0.391 0.242,-0.38 0.228,-0.366C0.214,-0.352 0.2,-0.335 0.184,-0.315L0.184,-0L0.098,-0L0.098,-0.49Z" style="fill-rule:nonzero;"/>
                </g>
                <g transform="matrix(12,0,0,12,92.3672,0)">
                    <path d="M0.428,-0L0.428,-0.352C0.428,-0.367 0.427,-0.38 0.426,-0.39C0.425,-0.399 0.423,-0.407 0.42,-0.413C0.418,-0.418 0.415,-0.423 0.411,-0.425C0.408,-0.427 0.403,-0.428 0.397,-0.428C0.391,-0.428 0.385,-0.426 0.379,-0.422C0.374,-0.418 0.368,-0.412 0.361,-0.403C0.355,-0.395 0.348,-0.383 0.34,-0.368C0.333,-0.354 0.324,-0.336 0.313,-0.315L0.313,-0L0.236,-0L0.236,-0.343C0.236,-0.361 0.235,-0.375 0.234,-0.386C0.233,-0.397 0.231,-0.406 0.229,-0.412C0.226,-0.418 0.223,-0.423 0.219,-0.425C0.215,-0.427 0.211,-0.428 0.205,-0.428C0.199,-0.428 0.194,-0.427 0.188,-0.423C0.183,-0.42 0.177,-0.414 0.171,-0.406C0.165,-0.397 0.158,-0.386 0.15,-0.371C0.142,-0.356 0.133,-0.338 0.122,-0.315L0.122,-0L0.044,-0L0.044,-0.49L0.109,-0.49L0.113,-0.397C0.121,-0.416 0.129,-0.431 0.137,-0.444C0.145,-0.457 0.154,-0.468 0.162,-0.476C0.171,-0.484 0.18,-0.49 0.189,-0.493C0.199,-0.497 0.209,-0.499 0.221,-0.499C0.248,-0.499 0.268,-0.49 0.281,-0.473C0.295,-0.456 0.302,-0.429 0.302,-0.393C0.31,-0.41 0.317,-0.425 0.325,-0.438C0.332,-0.451 0.34,-0.462 0.349,-0.471C0.357,-0.48 0.367,-0.487 0.377,-0.492C0.388,-0.497 0.4,-0.499 0.414,-0.499C0.475,-0.499 0.506,-0.452 0.506,-0.357L0.506,-0L0.428,-0Z" style="fill-rule:nonzero;"/>
                </g>
                <g transform="matrix(12,0,0,12,98.9648,0)">
                    <path d="M0.492,-0.271C0.492,-0.259 0.492,-0.249 0.492,-0.241C0.491,-0.233 0.491,-0.225 0.49,-0.218L0.146,-0.218C0.146,-0.168 0.16,-0.129 0.188,-0.102C0.216,-0.075 0.256,-0.062 0.309,-0.062C0.323,-0.062 0.338,-0.063 0.352,-0.063C0.366,-0.065 0.38,-0.066 0.394,-0.068C0.407,-0.07 0.42,-0.072 0.432,-0.075C0.444,-0.077 0.455,-0.08 0.466,-0.083L0.466,-0.013C0.443,-0.007 0.417,-0.001 0.387,0.002C0.358,0.007 0.328,0.009 0.297,0.009C0.255,0.009 0.219,0.003 0.188,-0.008C0.158,-0.02 0.133,-0.036 0.114,-0.058C0.095,-0.079 0.08,-0.106 0.071,-0.137C0.062,-0.169 0.057,-0.204 0.057,-0.244C0.057,-0.279 0.062,-0.311 0.072,-0.342C0.082,-0.373 0.096,-0.4 0.115,-0.423C0.134,-0.446 0.158,-0.465 0.186,-0.479C0.213,-0.492 0.245,-0.499 0.28,-0.499C0.314,-0.499 0.344,-0.494 0.371,-0.483C0.397,-0.472 0.419,-0.457 0.437,-0.437C0.455,-0.417 0.469,-0.394 0.478,-0.365C0.487,-0.337 0.492,-0.306 0.492,-0.271ZM0.404,-0.283C0.405,-0.305 0.403,-0.325 0.397,-0.343C0.392,-0.361 0.384,-0.377 0.373,-0.39C0.362,-0.403 0.349,-0.413 0.333,-0.42C0.316,-0.427 0.297,-0.431 0.276,-0.431C0.257,-0.431 0.24,-0.428 0.225,-0.42C0.21,-0.413 0.197,-0.403 0.186,-0.39C0.174,-0.377 0.166,-0.361 0.159,-0.343C0.152,-0.325 0.148,-0.305 0.146,-0.283L0.404,-0.283Z" style="fill-rule:nonzero;"/>
                </g>
                <g transform="matrix(12,0,0,12,105.562,0)">
                    <path d="M0.466,-0.134C0.466,-0.117 0.463,-0.101 0.458,-0.087C0.452,-0.074 0.444,-0.062 0.434,-0.051C0.424,-0.04 0.412,-0.031 0.398,-0.024C0.385,-0.016 0.371,-0.01 0.355,-0.005C0.34,-0 0.325,0.003 0.309,0.005C0.293,0.008 0.278,0.009 0.262,0.009C0.229,0.009 0.198,0.007 0.17,0.004C0.143,0.001 0.116,-0.003 0.089,-0.01L0.089,-0.088C0.118,-0.08 0.146,-0.074 0.174,-0.069C0.203,-0.065 0.231,-0.063 0.259,-0.063C0.299,-0.063 0.33,-0.069 0.349,-0.08C0.369,-0.091 0.378,-0.106 0.378,-0.127C0.378,-0.136 0.377,-0.144 0.374,-0.15C0.371,-0.158 0.365,-0.164 0.357,-0.17C0.349,-0.177 0.336,-0.184 0.319,-0.19C0.302,-0.197 0.279,-0.205 0.249,-0.214C0.227,-0.22 0.206,-0.228 0.188,-0.236C0.169,-0.244 0.153,-0.254 0.139,-0.266C0.125,-0.277 0.115,-0.29 0.107,-0.306C0.099,-0.321 0.095,-0.339 0.095,-0.36C0.095,-0.374 0.098,-0.389 0.104,-0.405C0.111,-0.421 0.122,-0.436 0.137,-0.45C0.153,-0.464 0.173,-0.476 0.199,-0.485C0.225,-0.494 0.258,-0.499 0.297,-0.499C0.316,-0.499 0.337,-0.498 0.361,-0.496C0.384,-0.494 0.409,-0.49 0.434,-0.485L0.434,-0.409C0.407,-0.416 0.382,-0.42 0.358,-0.423C0.334,-0.427 0.313,-0.428 0.296,-0.428C0.275,-0.428 0.257,-0.427 0.242,-0.423C0.228,-0.42 0.216,-0.416 0.207,-0.41C0.198,-0.404 0.192,-0.397 0.188,-0.39C0.184,-0.382 0.182,-0.374 0.182,-0.365C0.182,-0.356 0.184,-0.348 0.187,-0.341C0.191,-0.334 0.197,-0.327 0.206,-0.32C0.215,-0.314 0.229,-0.307 0.245,-0.3C0.262,-0.294 0.283,-0.287 0.31,-0.279C0.339,-0.27 0.363,-0.261 0.383,-0.252C0.403,-0.243 0.419,-0.233 0.432,-0.221C0.444,-0.21 0.453,-0.197 0.458,-0.183C0.464,-0.168 0.466,-0.152 0.466,-0.134Z" style="fill-rule:nonzero;"/>
                </g>
            </g>
            <g transform="matrix(1,0,0,1,448.924,263.527)">
                <g transform="matrix(12,0,0,12,0,0)">
                    <path d="M0.466,-0.134C0.466,-0.117 0.463,-0.101 0.458,-0.087C0.452,-0.074 0.444,-0.062 0.434,-0.051C0.424,-0.04 0.412,-0.031 0.398,-0.024C0.385,-0.016 0.371,-0.01 0.355,-0.005C0.34,-0 0.325,0.003 0.309,0.005C0.293,0.008 0.278,0.009 0.262,0.009C0.229,0.009 0.198,0.007 0.17,0.004C0.143,0.001 0.116,-0.003 0.089,-0.01L0.089,-0.088C0.118,-0.08 0.146,-0.074 0.174,-0.069C0.203,-0.065 0.231,-0.063 0.259,-0.063C0.299,-0.063 0.33,-0.069 0.349,-0.08C0.369,-0.091 0.378,-0.106 0.378,-0.127C0.378,-0.136 0.377,-0.144 0.374,-0.15C0.371,-0.158 0.365,-0.164 0.357,-0.17C0.349,-0.177 0.336,-0.184 0.319,-0.19C0.302,-0.197 0.279,-0.205 0.249,-0.214C0.227,-0.22 0.206,-0.228 0.188,-0.236C0.169,-0.244 0.153,-0.254 0.139,-0.266C0.125,-0.277 0.115,-0.29 0.107,-0.306C0.099,-0.321 0.095,-0.339 0.095,-0.36C0.095,-0.374 0.098,-0.389 0.104,-0.405C0.111,-0.421 0.122,-0.436 0.137,-0.45C0.153,-0.464 0.173,-0.476 0.199,-0.485C0.225,-0.494 0.258,-0.499 0.297,-0.499C0.316,-0.499 0.337,-0.498 0.361,-0.496C0.384,-0.494 0.409,-0.49 0.434,-0.485L0.434,-0.409C0.407,-0.416 0.382,-0.42 0.358,-0.423C0.334,-0.427 0.313,-0.428 0.296,-0.428C0.275,-0.428 0.257,-0.427 0.242,-0.423C0.228,-0.42 0.216,-0.416 0.207,-0.41C0.198,-0.404 0.192,-0.397 0.188,-0.39C0.184,-0.382 0.182,-0.374 0.182,-0.365C0.182,-0.356 0.184,-0.348 0.187,-0.341C0.191,-0.334 0.197,-0.327 0.206,-0.32C0.215,-0.314 0.229,-0.307 0.245,-0.3C0.262,-0.294 0.283,-0.287 0.31,-0.279C0.339,-0.27 0.363,-0.261 0.383,-0.252C0.403,-0.243 0.419,-0.233 0.432,-0.221C0.444,-0.21 0.453,-0.197 0.458,-0.183C0.464,-0.168 0.466,-0.152 0.466,-0.134Z" style="fill-rule:nonzero;"/>
                </g>
                <g transform="matrix(12,0,0,12,6.59766,0)">
                    <path d="M0.393,-0L0.391,-0.066C0.364,-0.04 0.337,-0.021 0.31,-0.009C0.282,0.003 0.253,0.009 0.223,0.009C0.195,0.009 0.171,0.005 0.151,-0.002C0.132,-0.009 0.115,-0.019 0.102,-0.031C0.089,-0.044 0.08,-0.059 0.074,-0.076C0.068,-0.093 0.065,-0.111 0.065,-0.131C0.065,-0.18 0.083,-0.218 0.12,-0.246C0.156,-0.274 0.211,-0.288 0.282,-0.288L0.384,-0.288L0.384,-0.331C0.384,-0.36 0.375,-0.383 0.356,-0.4C0.337,-0.418 0.309,-0.427 0.271,-0.427C0.243,-0.427 0.216,-0.424 0.189,-0.417C0.162,-0.411 0.135,-0.403 0.106,-0.391L0.106,-0.468C0.117,-0.472 0.129,-0.475 0.142,-0.479C0.155,-0.483 0.169,-0.486 0.184,-0.489C0.198,-0.492 0.214,-0.494 0.229,-0.496C0.245,-0.498 0.262,-0.499 0.278,-0.499C0.307,-0.499 0.334,-0.496 0.358,-0.489C0.382,-0.483 0.402,-0.473 0.418,-0.459C0.435,-0.446 0.447,-0.429 0.456,-0.409C0.465,-0.389 0.469,-0.365 0.469,-0.338L0.469,-0L0.393,-0ZM0.384,-0.223L0.276,-0.223C0.255,-0.223 0.236,-0.221 0.221,-0.217C0.206,-0.213 0.193,-0.207 0.184,-0.199C0.174,-0.191 0.167,-0.181 0.162,-0.17C0.157,-0.16 0.155,-0.147 0.155,-0.134C0.155,-0.124 0.156,-0.115 0.159,-0.106C0.162,-0.098 0.167,-0.09 0.173,-0.083C0.18,-0.077 0.188,-0.072 0.199,-0.068C0.209,-0.064 0.222,-0.062 0.237,-0.062C0.256,-0.062 0.279,-0.068 0.304,-0.08C0.329,-0.092 0.356,-0.111 0.384,-0.136L0.384,-0.223Z" style="fill-rule:nonzero;"/>
                </g>
                <g transform="matrix(12,0,0,12,13.1953,0)">
                    <path d="M0.431,-0.421C0.44,-0.41 0.447,-0.396 0.452,-0.381C0.457,-0.366 0.46,-0.35 0.46,-0.332C0.46,-0.307 0.455,-0.283 0.446,-0.262C0.437,-0.241 0.424,-0.223 0.407,-0.208C0.39,-0.194 0.369,-0.182 0.346,-0.173C0.322,-0.165 0.296,-0.161 0.268,-0.161C0.248,-0.161 0.228,-0.163 0.21,-0.167C0.193,-0.172 0.178,-0.178 0.168,-0.184C0.162,-0.175 0.157,-0.166 0.152,-0.158C0.148,-0.15 0.146,-0.141 0.146,-0.131C0.146,-0.118 0.152,-0.108 0.164,-0.1C0.176,-0.092 0.191,-0.088 0.211,-0.087L0.34,-0.082C0.364,-0.081 0.387,-0.078 0.407,-0.073C0.428,-0.067 0.446,-0.059 0.46,-0.049C0.475,-0.038 0.487,-0.026 0.495,-0.01C0.504,0.005 0.508,0.023 0.508,0.043C0.508,0.065 0.503,0.085 0.494,0.105C0.484,0.125 0.47,0.142 0.45,0.156C0.43,0.171 0.405,0.183 0.375,0.192C0.345,0.201 0.309,0.205 0.267,0.205C0.227,0.205 0.194,0.202 0.166,0.195C0.138,0.189 0.115,0.18 0.097,0.169C0.079,0.158 0.066,0.145 0.058,0.129C0.05,0.114 0.046,0.097 0.046,0.078C0.046,0.054 0.051,0.034 0.063,0.016C0.074,-0.002 0.091,-0.02 0.114,-0.036C0.105,-0.04 0.098,-0.045 0.092,-0.051C0.086,-0.057 0.081,-0.063 0.077,-0.07C0.073,-0.077 0.07,-0.084 0.068,-0.092C0.066,-0.1 0.065,-0.108 0.065,-0.115C0.065,-0.136 0.07,-0.156 0.08,-0.173C0.09,-0.191 0.102,-0.208 0.115,-0.223C0.109,-0.231 0.104,-0.238 0.099,-0.245C0.094,-0.252 0.09,-0.26 0.086,-0.268C0.083,-0.277 0.081,-0.285 0.079,-0.295C0.077,-0.305 0.076,-0.316 0.076,-0.328C0.076,-0.354 0.081,-0.377 0.09,-0.397C0.099,-0.419 0.112,-0.437 0.129,-0.452C0.146,-0.467 0.166,-0.478 0.189,-0.486C0.213,-0.495 0.239,-0.499 0.268,-0.499C0.28,-0.499 0.292,-0.498 0.303,-0.497C0.314,-0.495 0.324,-0.493 0.332,-0.49L0.51,-0.49L0.51,-0.421L0.431,-0.421ZM0.136,0.071C0.136,0.094 0.148,0.111 0.172,0.121C0.196,0.132 0.23,0.137 0.273,0.137C0.3,0.137 0.323,0.135 0.341,0.13C0.359,0.125 0.374,0.118 0.385,0.11C0.397,0.103 0.405,0.093 0.41,0.083C0.415,0.073 0.417,0.063 0.417,0.052C0.417,0.032 0.409,0.017 0.393,0.008C0.376,-0.002 0.351,-0.007 0.318,-0.009L0.19,-0.013C0.179,-0.006 0.17,0.001 0.163,0.008C0.156,0.015 0.151,0.021 0.147,0.028C0.143,0.035 0.14,0.042 0.139,0.049C0.137,0.056 0.136,0.064 0.136,0.071ZM0.162,-0.33C0.162,-0.314 0.165,-0.3 0.17,-0.287C0.175,-0.274 0.182,-0.263 0.192,-0.254C0.201,-0.245 0.212,-0.238 0.225,-0.232C0.238,-0.228 0.252,-0.225 0.268,-0.225C0.285,-0.225 0.3,-0.228 0.313,-0.233C0.326,-0.239 0.337,-0.247 0.346,-0.257C0.355,-0.267 0.362,-0.278 0.367,-0.291C0.372,-0.303 0.374,-0.316 0.374,-0.33C0.374,-0.346 0.371,-0.36 0.366,-0.373C0.361,-0.386 0.354,-0.397 0.344,-0.406C0.335,-0.415 0.324,-0.422 0.311,-0.427C0.298,-0.432 0.284,-0.435 0.268,-0.435C0.251,-0.435 0.236,-0.432 0.223,-0.426C0.21,-0.42 0.199,-0.413 0.189,-0.403C0.181,-0.393 0.174,-0.382 0.169,-0.37C0.164,-0.357 0.162,-0.344 0.162,-0.33Z" style="fill-rule:nonzero;"/>
                </g>
                <g transform="matrix(12,0,0,12,19.793,0)">
                    <path d="M0.492,-0.271C0.492,-0.259 0.492,-0.249 0.492,-0.241C0.491,-0.233 0.491,-0.225 0.49,-0.218L0.146,-0.218C0.146,-0.168 0.16,-0.129 0.188,-0.102C0.216,-0.075 0.256,-0.062 0.309,-0.062C0.323,-0.062 0.338,-0.063 0.352,-0.063C0.366,-0.065 0.38,-0.066 0.394,-0.068C0.407,-0.07 0.42,-0.072 0.432,-0.075C0.444,-0.077 0.455,-0.08 0.466,-0.083L0.466,-0.013C0.443,-0.007 0.417,-0.001 0.387,0.002C0.358,0.007 0.328,0.009 0.297,0.009C0.255,0.009 0.219,0.003 0.188,-0.008C0.158,-0.02 0.133,-0.036 0.114,-0.058C0.095,-0.079 0.08,-0.106 0.071,-0.137C0.062,-0.169 0.057,-0.204 0.057,-0.244C0.057,-0.279 0.062,-0.311 0.072,-0.342C0.082,-0.373 0.096,-0.4 0.115,-0.423C0.134,-0.446 0.158,-0.465 0.186,-0.479C0.213,-0.492 0.245,-0.499 0.28,-0.499C0.314,-0.499 0.344,-0.494 0.371,-0.483C0.397,-0.472 0.419,-0.457 0.437,-0.437C0.455,-0.417 0.469,-0.394 0.478,-0.365C0.487,-0.337 0.492,-0.306 0.492,-0.271ZM0.404,-0.283C0.405,-0.305 0.403,-0.325 0.397,-0.343C0.392,-0.361 0.384,-0.377 0.373,-0.39C0.362,-0.403 0.349,-0.413 0.333,-0.42C0.316,-0.427 0.297,-0.431 0.276,-0.431C0.257,-0.431 0.24,-0.428 0.225,-0.42C0.21,-0.413 0.197,-0.403 0.186,-0.39C0.174,-0.377 0.166,-0.361 0.159,-0.343C0.152,-0.325 0.148,-0.305 0.146,-0.283L0.404,-0.283Z" style="fill-rule:nonzero;"/>
                </g>
            </g>
        </g>
        <g>
            <g transform="matrix(1,0,0,1,292.359,283.127)">
                <g transform="matrix(12,0,0,12,0,0)">
                    <path d="M0.524,-0.141L0.415,-0.141L0.415,-0L0.328,-0L0.328,-0.141L0.021,-0.141L0.021,-0.216L0.293,-0.638L0.415,-0.638L0.415,-0.216L0.524,-0.216L0.524,-0.141ZM0.328,-0.556L0.106,-0.216L0.328,-0.216L0.328,-0.556Z" style="fill-rule:nonzero;"/>
                </g>
                <g transform="matrix(12,0,0,12,6.59766,0)">
                    <path d="M0.271,-0.154C0.282,-0.154 0.292,-0.152 0.302,-0.147C0.312,-0.143 0.321,-0.137 0.328,-0.13C0.336,-0.122 0.341,-0.114 0.346,-0.104C0.35,-0.094 0.352,-0.083 0.352,-0.072C0.352,-0.061 0.35,-0.05 0.346,-0.041C0.341,-0.031 0.336,-0.022 0.328,-0.015C0.321,-0.007 0.312,-0.002 0.302,0.002C0.292,0.007 0.282,0.009 0.271,0.009C0.26,0.009 0.249,0.007 0.239,0.002C0.229,-0.002 0.221,-0.007 0.213,-0.015C0.206,-0.022 0.201,-0.031 0.196,-0.041C0.192,-0.05 0.19,-0.061 0.19,-0.072C0.19,-0.083 0.192,-0.094 0.196,-0.104C0.201,-0.114 0.206,-0.122 0.213,-0.13C0.221,-0.137 0.229,-0.143 0.239,-0.147C0.249,-0.152 0.26,-0.154 0.271,-0.154Z" style="fill-rule:nonzero;"/>
                </g>
            </g>
            <g transform="matrix(1,0,0,1,336.867,283.127)">
                <g transform="matrix(12,0,0,12,0,0)">
                    <path d="M0.491,-0.529C0.467,-0.542 0.443,-0.551 0.418,-0.558C0.393,-0.565 0.366,-0.569 0.336,-0.569C0.302,-0.569 0.272,-0.563 0.246,-0.551C0.219,-0.539 0.197,-0.522 0.179,-0.5C0.161,-0.478 0.147,-0.451 0.137,-0.42C0.128,-0.389 0.123,-0.355 0.123,-0.318C0.123,-0.279 0.127,-0.244 0.135,-0.213C0.143,-0.182 0.155,-0.156 0.171,-0.134C0.188,-0.113 0.209,-0.096 0.235,-0.085C0.261,-0.074 0.292,-0.068 0.328,-0.068C0.334,-0.068 0.341,-0.068 0.348,-0.069C0.355,-0.069 0.362,-0.07 0.37,-0.071C0.377,-0.073 0.384,-0.074 0.39,-0.076C0.397,-0.077 0.403,-0.079 0.408,-0.081L0.408,-0.284L0.278,-0.284L0.278,-0.356L0.494,-0.356L0.494,-0.03C0.481,-0.024 0.467,-0.018 0.452,-0.013C0.437,-0.008 0.422,-0.004 0.406,-0.001C0.391,0.002 0.376,0.005 0.36,0.006C0.345,0.008 0.33,0.009 0.316,0.009C0.272,0.009 0.233,0.002 0.198,-0.012C0.163,-0.025 0.133,-0.046 0.108,-0.072C0.084,-0.099 0.065,-0.133 0.052,-0.173C0.039,-0.213 0.032,-0.259 0.032,-0.312C0.032,-0.364 0.04,-0.411 0.054,-0.453C0.069,-0.494 0.089,-0.529 0.116,-0.558C0.142,-0.587 0.174,-0.609 0.211,-0.624C0.249,-0.639 0.29,-0.647 0.335,-0.647C0.364,-0.647 0.391,-0.644 0.417,-0.639C0.443,-0.634 0.467,-0.626 0.491,-0.615L0.491,-0.529Z" style="fill-rule:nonzero;"/>
                </g>
                <g transform="matrix(12,0,0,12,6.59766,0)">
                    <path d="M0.492,-0.271C0.492,-0.259 0.492,-0.249 0.492,-0.241C0.491,-0.233 0.491,-0.225 0.49,-0.218L0.146,-0.218C0.146,-0.168 0.16,-0.129 0.188,-0.102C0.216,-0.075 0.256,-0.062 0.309,-0.062C0.323,-0.062 0.338,-0.063 0.352,-0.063C0.366,-0.065 0.38,-0.066 0.394,-0.068C0.407,-0.07 0.42,-0.072 0.432,-0.075C0.444,-0.077 0.455,-0.08 0.466,-0.083L0.466,-0.013C0.443,-0.007 0.417,-0.001 0.387,0.002C0.358,0.007 0.328,0.009 0.297,0.009C0.255,0.009 0.219,0.003 0.188,-0.008C0.158,-0.02 0.133,-0.036 0.114,-0.058C0.095,-0.079 0.08,-0.106 0.071,-0.137C0.062,-0.169 0.057,-0.204 0.057,-0.244C0.057,-0.279 0.062,-0.311 0.072,-0.342C0.082,-0.373 0.096,-0.4 0.115,-0.423C0.134,-0.446 0.158,-0.465 0.186,-0.479C0.213,-0.492 0.245,-0.499 0.28,-0.499C0.314,-0.499 0.344,-0.494 0.371,-0.483C0.397,-0.472 0.419,-0.457 0.437,-0.437C0.455,-0.417 0.469,-0.394 0.478,-0.365C0.487,-0.337 0.492,-0.306 0.492,-0.271ZM0.404,-0.283C0.405,-0.305 0.403,-0.325 0.397,-0.343C0.392,-0.361 0.384,-0.377 0.373,-0.39C0.362,-0.403 0.349,-0.413 0.333,-0.42C0.316,-0.427 0.297,-0.431 0.276,-0.431C0.257,-0.431 0.24,-0.428 0.225,-0.42C0.21,-0.413 0.197,-0.403 0.186,-0.39C0.174,-0.377 0.166,-0.361 0.159,-0.343C0.152,-0.325 0.148,-0.305 0.146,-0.283L0.404,-0.283Z" style="fill-rule:nonzero;"/>
                </g>
                <g transform="matrix(12,0,0,12,13.1953,0)">
                    <path d="M0.473,-0.007C0.454,-0.002 0.434,0.001 0.414,0.003C0.393,0.006 0.372,0.007 0.351,0.007C0.29,0.007 0.244,-0.007 0.213,-0.035C0.183,-0.063 0.168,-0.105 0.168,-0.163L0.168,-0.419L0.031,-0.419L0.031,-0.49L0.168,-0.49L0.168,-0.625L0.253,-0.647L0.253,-0.49L0.473,-0.49L0.473,-0.419L0.253,-0.419L0.253,-0.17C0.253,-0.135 0.262,-0.108 0.281,-0.091C0.3,-0.074 0.327,-0.065 0.364,-0.065C0.379,-0.065 0.396,-0.066 0.415,-0.068C0.434,-0.071 0.453,-0.075 0.473,-0.08L0.473,-0.007Z" style="fill-rule:nonzero;"/>
                </g>
                <g transform="matrix(12,0,0,12,26.3906,0)">
                    <path d="M0.245,-0.42L0.1,-0.42L0.1,-0.49L0.331,-0.49L0.331,-0.071L0.477,-0.071L0.477,-0L0.084,-0L0.084,-0.071L0.245,-0.071L0.245,-0.42ZM0.275,-0.696C0.284,-0.696 0.293,-0.694 0.301,-0.69C0.309,-0.687 0.316,-0.682 0.322,-0.676C0.328,-0.67 0.333,-0.663 0.336,-0.655C0.34,-0.647 0.342,-0.638 0.342,-0.629C0.342,-0.62 0.34,-0.611 0.336,-0.603C0.333,-0.595 0.328,-0.588 0.322,-0.582C0.316,-0.575 0.309,-0.57 0.301,-0.567C0.293,-0.564 0.284,-0.562 0.275,-0.562C0.265,-0.562 0.257,-0.564 0.249,-0.567C0.24,-0.57 0.233,-0.575 0.227,-0.582C0.221,-0.588 0.216,-0.595 0.213,-0.603C0.21,-0.611 0.208,-0.62 0.208,-0.629C0.208,-0.638 0.21,-0.647 0.213,-0.655C0.216,-0.663 0.221,-0.67 0.227,-0.676C0.233,-0.682 0.24,-0.687 0.249,-0.69C0.257,-0.694 0.265,-0.696 0.275,-0.696Z" style="fill-rule:nonzero;"/>
                </g>
                <g transform="matrix(12,0,0,12,32.9883,0)">
                    <path d="M0.078,-0.49L0.154,-0.49L0.157,-0.411C0.172,-0.428 0.185,-0.442 0.199,-0.453C0.212,-0.465 0.225,-0.474 0.238,-0.48C0.251,-0.487 0.264,-0.492 0.277,-0.495C0.291,-0.498 0.305,-0.499 0.319,-0.499C0.369,-0.499 0.407,-0.484 0.433,-0.454C0.459,-0.424 0.472,-0.38 0.472,-0.32L0.472,-0L0.387,-0L0.387,-0.313C0.387,-0.351 0.38,-0.38 0.366,-0.398C0.351,-0.417 0.33,-0.426 0.302,-0.426C0.291,-0.426 0.281,-0.424 0.271,-0.421C0.261,-0.418 0.251,-0.413 0.24,-0.405C0.229,-0.397 0.218,-0.387 0.205,-0.374C0.193,-0.361 0.179,-0.345 0.163,-0.325L0.163,-0L0.078,-0L0.078,-0.49Z" style="fill-rule:nonzero;"/>
                </g>
                <g transform="matrix(12,0,0,12,39.5859,0)">
                    <path d="M0.497,-0.254C0.497,-0.21 0.491,-0.172 0.479,-0.14C0.466,-0.107 0.45,-0.08 0.428,-0.059C0.407,-0.037 0.381,-0.021 0.352,-0.01C0.323,0 0.291,0.006 0.257,0.006C0.241,0.006 0.226,0.005 0.21,0.003C0.195,0.002 0.179,-0.001 0.163,-0.005L0.163,0.2L0.078,0.2L0.078,-0.49L0.154,-0.49L0.159,-0.408C0.184,-0.442 0.21,-0.465 0.237,-0.479C0.265,-0.492 0.295,-0.499 0.327,-0.499C0.355,-0.499 0.38,-0.493 0.401,-0.481C0.422,-0.47 0.44,-0.453 0.454,-0.432C0.468,-0.41 0.479,-0.385 0.486,-0.354C0.493,-0.325 0.497,-0.291 0.497,-0.254ZM0.41,-0.25C0.41,-0.276 0.408,-0.299 0.404,-0.321C0.401,-0.342 0.395,-0.361 0.387,-0.376C0.379,-0.391 0.368,-0.403 0.355,-0.412C0.343,-0.42 0.328,-0.425 0.31,-0.425C0.299,-0.425 0.288,-0.423 0.277,-0.419C0.266,-0.416 0.255,-0.41 0.243,-0.402C0.231,-0.395 0.218,-0.384 0.205,-0.371C0.192,-0.358 0.178,-0.341 0.163,-0.322L0.163,-0.084C0.179,-0.077 0.195,-0.072 0.212,-0.068C0.23,-0.065 0.247,-0.063 0.263,-0.063C0.309,-0.063 0.345,-0.078 0.371,-0.109C0.397,-0.141 0.41,-0.188 0.41,-0.25Z" style="fill-rule:nonzero;"/>
                </g>
                <g transform="matrix(12,0,0,12,46.1836,0)">
                    <path d="M0.472,-0L0.396,-0L0.393,-0.079C0.378,-0.062 0.364,-0.048 0.351,-0.037C0.338,-0.026 0.325,-0.017 0.312,-0.01C0.299,-0.003 0.286,0.002 0.272,0.004C0.259,0.007 0.246,0.009 0.231,0.009C0.181,0.009 0.142,-0.006 0.117,-0.036C0.091,-0.065 0.078,-0.11 0.078,-0.17L0.078,-0.49L0.163,-0.49L0.163,-0.177C0.163,-0.102 0.191,-0.064 0.248,-0.064C0.258,-0.064 0.269,-0.065 0.278,-0.068C0.288,-0.072 0.299,-0.077 0.31,-0.084C0.321,-0.092 0.332,-0.103 0.345,-0.116C0.357,-0.129 0.372,-0.145 0.387,-0.165L0.387,-0.49L0.472,-0.49L0.472,-0Z" style="fill-rule:nonzero;"/>
                </g>
                <g transform="matrix(12,0,0,12,52.7812,0)">
                    <path d="M0.473,-0.007C0.454,-0.002 0.434,0.001 0.414,0.003C0.393,0.006 0.372,0.007 0.351,0.007C0.29,0.007 0.244,-0.007 0.213,-0.035C0.183,-0.063 0.168,-0.105 0.168,-0.163L0.168,-0.419L0.031,-0.419L0.031,-0.49L0.168,-0.49L0.168,-0.625L0.253,-0.647L0.253,-0.49L0.473,-0.49L0.473,-0.419L0.253,-0.419L0.253,-0.17C0.253,-0.135 0.262,-0.108 0.281,-0.091C0.3,-0.074 0.327,-0.065 0.364,-0.065C0.379,-0.065 0.396,-0.066 0.415,-0.068C0.434,-0.071 0.453,-0.075 0.473,-0.08L0.473,-0.007Z" style="fill-rule:nonzero;"/>
                </g>
                <g transform="matrix(12,0,0,12,65.9766,0)">
                    <path d="M0.513,-0.611C0.469,-0.62 0.43,-0.625 0.398,-0.625C0.321,-0.625 0.283,-0.585 0.283,-0.505L0.283,-0.419L0.498,-0.419L0.498,-0.348L0.283,-0.348L0.283,-0L0.197,-0L0.197,-0.348L0.039,-0.348L0.039,-0.419L0.197,-0.419L0.197,-0.5C0.197,-0.631 0.265,-0.696 0.401,-0.696C0.435,-0.696 0.472,-0.692 0.513,-0.684L0.513,-0.611ZM0,-0.49" style="fill-rule:nonzero;"/>
                </g>
                <g transform="matrix(12,0,0,12,72.5742,0)">
                    <path d="M0.098,-0.49L0.176,-0.49L0.178,-0.4C0.207,-0.435 0.236,-0.46 0.264,-0.476C0.292,-0.491 0.32,-0.499 0.349,-0.499C0.4,-0.499 0.438,-0.483 0.464,-0.45C0.491,-0.417 0.503,-0.368 0.501,-0.303L0.415,-0.303C0.416,-0.346 0.41,-0.377 0.396,-0.396C0.383,-0.416 0.363,-0.426 0.337,-0.426C0.326,-0.426 0.314,-0.424 0.302,-0.419C0.291,-0.416 0.279,-0.409 0.267,-0.4C0.255,-0.391 0.242,-0.38 0.228,-0.366C0.214,-0.352 0.2,-0.335 0.184,-0.315L0.184,-0L0.098,-0L0.098,-0.49Z" style="fill-rule:nonzero;"/>
                </g>
                <g transform="matrix(12,0,0,12,79.1719,0)">
                    <path d="M0.505,-0.249C0.505,-0.211 0.5,-0.176 0.489,-0.144C0.478,-0.112 0.463,-0.085 0.442,-0.063C0.422,-0.04 0.398,-0.022 0.369,-0.01C0.34,0.003 0.307,0.009 0.27,0.009C0.235,0.009 0.203,0.003 0.175,-0.007C0.148,-0.018 0.124,-0.035 0.104,-0.056C0.085,-0.077 0.07,-0.103 0.06,-0.134C0.05,-0.166 0.045,-0.201 0.045,-0.242C0.045,-0.28 0.05,-0.315 0.061,-0.346C0.072,-0.378 0.087,-0.405 0.107,-0.427C0.128,-0.45 0.152,-0.468 0.181,-0.48C0.21,-0.493 0.243,-0.499 0.28,-0.499C0.315,-0.499 0.346,-0.493 0.374,-0.482C0.402,-0.472 0.426,-0.456 0.445,-0.435C0.464,-0.414 0.479,-0.388 0.489,-0.356C0.5,-0.325 0.505,-0.289 0.505,-0.249ZM0.418,-0.245C0.418,-0.275 0.415,-0.302 0.408,-0.324C0.401,-0.347 0.392,-0.366 0.379,-0.381C0.367,-0.396 0.352,-0.408 0.334,-0.415C0.316,-0.423 0.297,-0.427 0.275,-0.427C0.25,-0.427 0.228,-0.422 0.209,-0.412C0.192,-0.402 0.177,-0.389 0.165,-0.372C0.154,-0.355 0.145,-0.336 0.14,-0.314C0.134,-0.292 0.132,-0.269 0.132,-0.245C0.132,-0.215 0.135,-0.188 0.142,-0.166C0.148,-0.143 0.158,-0.124 0.17,-0.108C0.183,-0.093 0.198,-0.082 0.215,-0.074C0.233,-0.067 0.253,-0.063 0.275,-0.063C0.3,-0.063 0.322,-0.068 0.34,-0.078C0.358,-0.088 0.373,-0.101 0.384,-0.118C0.396,-0.134 0.404,-0.153 0.41,-0.175C0.415,-0.197 0.418,-0.221 0.418,-0.245Z" style="fill-rule:nonzero;"/>
                </g>
                <g transform="matrix(12,0,0,12,85.7695,0)">
                    <path d="M0.428,-0L0.428,-0.352C0.428,-0.367 0.427,-0.38 0.426,-0.39C0.425,-0.399 0.423,-0.407 0.42,-0.413C0.418,-0.418 0.415,-0.423 0.411,-0.425C0.408,-0.427 0.403,-0.428 0.397,-0.428C0.391,-0.428 0.385,-0.426 0.379,-0.422C0.374,-0.418 0.368,-0.412 0.361,-0.403C0.355,-0.395 0.348,-0.383 0.34,-0.368C0.333,-0.354 0.324,-0.336 0.313,-0.315L0.313,-0L0.236,-0L0.236,-0.343C0.236,-0.361 0.235,-0.375 0.234,-0.386C0.233,-0.397 0.231,-0.406 0.229,-0.412C0.226,-0.418 0.223,-0.423 0.219,-0.425C0.215,-0.427 0.211,-0.428 0.205,-0.428C0.199,-0.428 0.194,-0.427 0.188,-0.423C0.183,-0.42 0.177,-0.414 0.171,-0.406C0.165,-0.397 0.158,-0.386 0.15,-0.371C0.142,-0.356 0.133,-0.338 0.122,-0.315L0.122,-0L0.044,-0L0.044,-0.49L0.109,-0.49L0.113,-0.397C0.121,-0.416 0.129,-0.431 0.137,-0.444C0.145,-0.457 0.154,-0.468 0.162,-0.476C0.171,-0.484 0.18,-0.49 0.189,-0.493C0.199,-0.497 0.209,-0.499 0.221,-0.499C0.248,-0.499 0.268,-0.49 0.281,-0.473C0.295,-0.456 0.302,-0.429 0.302,-0.393C0.31,-0.41 0.317,-0.425 0.325,-0.438C0.332,-0.451 0.34,-0.462 0.349,-0.471C0.357,-0.48 0.367,-0.487 0.377,-0.492C0.388,-0.497 0.4,-0.499 0.414,-0.499C0.475,-0.499 0.506,-0.452 0.506,-0.357L0.506,-0L0.428,-0Z" style="fill-rule:nonzero;"/>
                </g>
                <g transform="matrix(12,0,0,12,98.9648,0)">
                    <path d="M0.472,-0L0.396,-0L0.393,-0.079C0.378,-0.062 0.364,-0.048 0.351,-0.037C0.338,-0.026 0.325,-0.017 0.312,-0.01C0.299,-0.003 0.286,0.002 0.272,0.004C0.259,0.007 0.246,0.009 0.231,0.009C0.181,0.009 0.142,-0.006 0.117,-0.036C0.091,-0.065 0.078,-0.11 0.078,-0.17L0.078,-0.49L0.163,-0.49L0.163,-0.177C0.163,-0.102 0.191,-0.064 0.248,-0.064C0.258,-0.064 0.269,-0.065 0.278,-0.068C0.288,-0.072 0.299,-0.077 0.31,-0.084C0.321,-0.092 0.332,-0.103 0.345,-0.116C0.357,-0.129 0.372,-0.145 0.387,-0.165L0.387,-0.49L0.472,-0.49L0.472,-0Z" style="fill-rule:nonzero;"/>
                </g>
                <g transform="matrix(12,0,0,12,105.562,0)">
                    <path d="M0.466,-0.134C0.466,-0.117 0.463,-0.101 0.458,-0.087C0.452,-0.074 0.444,-0.062 0.434,-0.051C0.424,-0.04 0.412,-0.031 0.398,-0.024C0.385,-0.016 0.371,-0.01 0.355,-0.005C0.34,-0 0.325,0.003 0.309,0.005C0.293,0.008 0.278,0.009 0.262,0.009C0.229,0.009 0.198,0.007 0.17,0.004C0.143,0.001 0.116,-0.003 0.089,-0.01L0.089,-0.088C0.118,-0.08 0.146,-0.074 0.174,-0.069C0.203,-0.065 0.231,-0.063 0.259,-0.063C0.299,-0.063 0.33,-0.069 0.349,-0.08C0.369,-0.091 0.378,-0.106 0.378,-0.127C0.378,-0.136 0.377,-0.144 0.374,-0.15C0.371,-0.158 0.365,-0.164 0.357,-0.17C0.349,-0.177 0.336,-0.184 0.319,-0.19C0.302,-0.197 0.279,-0.205 0.249,-0.214C0.227,-0.22 0.206,-0.228 0.188,-0.236C0.169,-0.244 0.153,-0.254 0.139,-0.266C0.125,-0.277 0.115,-0.29 0.107,-0.306C0.099,-0.321 0.095,-0.339 0.095,-0.36C0.095,-0.374 0.098,-0.389 0.104,-0.405C0.111,-0.421 0.122,-0.436 0.137,-0.45C0.153,-0.464 0.173,-0.476 0.199,-0.485C0.225,-0.494 0.258,-0.499 0.297,-0.499C0.316,-0.499 0.337,-0.498 0.361,-0.496C0.384,-0.494 0.409,-0.49 0.434,-0.485L0.434,-0.409C0.407,-0.416 0.382,-0.42 0.358,-0.423C0.334,-0.427 0.313,-0.428 0.296,-0.428C0.275,-0.428 0.257,-0.427 0.242,-0.423C0.228,-0.42 0.216,-0.416 0.207,-0.41C0.198,-0.404 0.192,-0.397 0.188,-0.39C0.184,-0.382 0.182,-0.374 0.182,-0.365C0.182,-0.356 0.184,-0.348 0.187,-0.341C0.191,-0.334 0.197,-0.327 0.206,-0.32C0.215,-0.314 0.229,-0.307 0.245,-0.3C0.262,-0.294 0.283,-0.287 0.31,-0.279C0.339,-0.27 0.363,-0.261 0.383,-0.252C0.403,-0.243 0.419,-0.233 0.432,-0.221C0.444,-0.21 0.453,-0.197 0.458,-0.183C0.464,-0.168 0.466,-0.152 0.466,-0.134Z" style="fill-rule:nonzero;"/>
                </g>
            </g>
            <g transform="matrix(1,0,0,1,448.924,283.127)">
                <g transform="matrix(12,0,0,12,0,0)">
                    <path d="M0.492,-0.271C0.492,-0.259 0.492,-0.249 0.492,-0.241C0.491,-0.233 0.491,-0.225 0.49,-0.218L0.146,-0.218C0.146,-0.168 0.16,-0.129 0.188,-0.102C0.216,-0.075 0.256,-0.062 0.309,-0.062C0.323,-0.062 0.338,-0.063 0.352,-0.063C0.366,-0.065 0.38,-0.066 0.394,-0.068C0.407,-0.07 0.42,-0.072 0.432,-0.075C0.444,-0.077 0.455,-0.08 0.466,-0.083L0.466,-0.013C0.443,-0.007 0.417,-0.001 0.387,0.002C0.358,0.007 0.328,0.009 0.297,0.009C0.255,0.009 0.219,0.003 0.188,-0.008C0.158,-0.02 0.133,-0.036 0.114,-0.058C0.095,-0.079 0.08,-0.106 0.071,-0.137C0.062,-0.169 0.057,-0.204 0.057,-0.244C0.057,-0.279 0.062,-0.311 0.072,-0.342C0.082,-0.373 0.096,-0.4 0.115,-0.423C0.134,-0.446 0.158,-0.465 0.186,-0.479C0.213,-0.492 0.245,-0.499 0.28,-0.499C0.314,-0.499 0.344,-0.494 0.371,-0.483C0.397,-0.472 0.419,-0.457 0.437,-0.437C0.455,-0.417 0.469,-0.394 0.478,-0.365C0.487,-0.337 0.492,-0.306 0.492,-0.271ZM0.404,-0.283C0.405,-0.305 0.403,-0.325 0.397,-0.343C0.392,-0.361 0.384,-0.377 0.373,-0.39C0.362,-0.403 0.349,-0.413 0.333,-0.42C0.316,-0.427 0.297,-0.431 0.276,-0.431C0.257,-0.431 0.24,-0.428 0.225,-0.42C0.21,-0.413 0.197,-0.403 0.186,-0.39C0.174,-0.377 0.166,-0.361 0.159,-0.343C0.152,-0.325 0.148,-0.305 0.146,-0.283L0.404,-0.283Z" style="fill-rule:nonzero;"/>
                </g>
                <g transform="matrix(12,0,0,12,6.59766,0)">
                    <path d="M0.098,-0.49L0.176,-0.49L0.178,-0.4C0.207,-0.435 0.236,-0.46 0.264,-0.476C0.292,-0.491 0.32,-0.499 0.349,-0.499C0.4,-0.499 0.438,-0.483 0.464,-0.45C0.491,-0.417 0.503,-0.368 0.501,-0.303L0.415,-0.303C0.416,-0.346 0.41,-0.377 0.396,-0.396C0.383,-0.416 0.363,-0.426 0.337,-0.426C0.326,-0.426 0.314,-0.424 0.302,-0.419C0.291,-0.416 0.279,-0.409 0.267,-0.4C0.255,-0.391 0.242,-0.38 0.228,-0.366C0.214,-0.352 0.2,-0.335 0.184,-0.315L0.184,-0L0.098,-0L0.098,-0.49Z" style="fill-rule:nonzero;"/>
                </g>
            </g>
        </g>
        <g>
            <g transform="matrix(1,0,0,1,292.359,302.727)">
                <g transform="matrix(12,0,0,12,0,0)">
                    <path d="M0.476,-0.204C0.476,-0.173 0.469,-0.144 0.456,-0.118C0.442,-0.092 0.423,-0.069 0.399,-0.05C0.375,-0.032 0.347,-0.017 0.314,-0.007C0.282,0.004 0.247,0.009 0.209,0.009C0.2,0.009 0.189,0.008 0.178,0.008C0.167,0.007 0.157,0.007 0.146,0.006C0.135,0.005 0.125,0.004 0.114,0.003C0.104,0.002 0.095,0.001 0.087,-0L0.087,-0.077C0.104,-0.073 0.125,-0.07 0.147,-0.068C0.17,-0.066 0.193,-0.065 0.216,-0.065C0.242,-0.065 0.265,-0.068 0.286,-0.074C0.307,-0.08 0.325,-0.089 0.339,-0.101C0.354,-0.112 0.365,-0.126 0.373,-0.143C0.381,-0.159 0.385,-0.178 0.385,-0.198C0.385,-0.238 0.37,-0.267 0.342,-0.285C0.313,-0.303 0.273,-0.312 0.219,-0.312L0.098,-0.312L0.098,-0.638L0.442,-0.638L0.442,-0.564L0.178,-0.564L0.178,-0.385L0.234,-0.385C0.264,-0.385 0.294,-0.382 0.323,-0.376C0.352,-0.371 0.378,-0.361 0.4,-0.347C0.423,-0.333 0.441,-0.315 0.455,-0.292C0.469,-0.268 0.476,-0.239 0.476,-0.204Z" style="fill-rule:nonzero;"/>
                </g>
                <g transform="matrix(12,0,0,12,6.59766,0)">
                    <path d="M0.271,-0.154C0.282,-0.154 0.292,-0.152 0.302,-0.147C0.312,-0.143 0.321,-0.137 0.328,-0.13C0.336,-0.122 0.341,-0.114 0.346,-0.104C0.35,-0.094 0.352,-0.083 0.352,-0.072C0.352,-0.061 0.35,-0.05 0.346,-0.041C0.341,-0.031 0.336,-0.022 0.328,-0.015C0.321,-0.007 0.312,-0.002 0.302,0.002C0.292,0.007 0.282,0.009 0.271,0.009C0.26,0.009 0.249,0.007 0.239,0.002C0.229,-0.002 0.221,-0.007 0.213,-0.015C0.206,-0.022 0.201,-0.031 0.196,-0.041C0.192,-0.05 0.19,-0.061 0.19,-0.072C0.19,-0.083 0.192,-0.094 0.196,-0.104C0.201,-0.114 0.206,-0.122 0.213,-0.13C0.221,-0.137 0.229,-0.143 0.239,-0.147C0.249,-0.152 0.26,-0.154 0.271,-0.154Z" style="fill-rule:nonzero;"/>
                </g>
            </g>
            <g transform="matrix(1,0,0,1,310.5,302.727)">
                <g transform="matrix(12,0,0,12,0,0)">
                    <path d="M0.461,-0L0.098,-0L0.098,-0.638L0.461,-0.638L0.461,-0.565L0.185,-0.565L0.185,-0.367L0.45,-0.367L0.45,-0.294L0.185,-0.294L0.185,-0.074L0.461,-0.074L0.461,-0Z" style="fill-rule:nonzero;"/>
                </g>
                <g transform="matrix(12,0,0,12,6.59766,0)">
                    <path d="M0.078,-0.49L0.154,-0.49L0.157,-0.411C0.172,-0.428 0.185,-0.442 0.199,-0.453C0.212,-0.465 0.225,-0.474 0.238,-0.48C0.251,-0.487 0.264,-0.492 0.277,-0.495C0.291,-0.498 0.305,-0.499 0.319,-0.499C0.369,-0.499 0.407,-0.484 0.433,-0.454C0.459,-0.424 0.472,-0.38 0.472,-0.32L0.472,-0L0.387,-0L0.387,-0.313C0.387,-0.351 0.38,-0.38 0.366,-0.398C0.351,-0.417 0.33,-0.426 0.302,-0.426C0.291,-0.426 0.281,-0.424 0.271,-0.421C0.261,-0.418 0.251,-0.413 0.24,-0.405C0.229,-0.397 0.218,-0.387 0.205,-0.374C0.193,-0.361 0.179,-0.345 0.163,-0.325L0.163,-0L0.078,-0L0.078,-0.49Z" style="fill-rule:nonzero;"/>
                </g>
                <g transform="matrix(12,0,0,12,13.1953,0)">
                    <path d="M0.053,-0.235C0.053,-0.277 0.059,-0.313 0.07,-0.346C0.082,-0.378 0.098,-0.406 0.119,-0.428C0.14,-0.45 0.165,-0.467 0.194,-0.479C0.224,-0.49 0.257,-0.496 0.293,-0.496C0.309,-0.496 0.324,-0.495 0.339,-0.493C0.354,-0.491 0.369,-0.488 0.384,-0.484L0.384,-0.69L0.469,-0.69L0.469,-0L0.393,-0L0.39,-0.093C0.366,-0.058 0.341,-0.033 0.313,-0.016C0.285,0 0.255,0.009 0.223,0.009C0.195,0.009 0.17,0.003 0.149,-0.009C0.128,-0.021 0.11,-0.037 0.096,-0.058C0.082,-0.08 0.071,-0.105 0.064,-0.135C0.057,-0.165 0.053,-0.198 0.053,-0.235ZM0.14,-0.24C0.14,-0.181 0.149,-0.137 0.166,-0.107C0.184,-0.078 0.208,-0.064 0.24,-0.064C0.262,-0.064 0.284,-0.074 0.308,-0.093C0.332,-0.112 0.357,-0.14 0.384,-0.178L0.384,-0.406C0.37,-0.412 0.354,-0.417 0.337,-0.42C0.32,-0.424 0.304,-0.426 0.287,-0.426C0.241,-0.426 0.205,-0.411 0.179,-0.381C0.153,-0.351 0.14,-0.304 0.14,-0.24Z" style="fill-rule:nonzero;"/>
                </g>
                <g transform="matrix(12,0,0,12,26.3906,0)">
                    <path d="M0.245,-0.62L0.1,-0.62L0.1,-0.69L0.331,-0.69L0.331,-0.071L0.477,-0.071L0.477,-0L0.084,-0L0.084,-0.071L0.245,-0.071L0.245,-0.62Z" style="fill-rule:nonzero;"/>
                </g>
                <g transform="matrix(12,0,0,12,32.9883,0)">
                    <path d="M0.505,-0.249C0.505,-0.211 0.5,-0.176 0.489,-0.144C0.478,-0.112 0.463,-0.085 0.442,-0.063C0.422,-0.04 0.398,-0.022 0.369,-0.01C0.34,0.003 0.307,0.009 0.27,0.009C0.235,0.009 0.203,0.003 0.175,-0.007C0.148,-0.018 0.124,-0.035 0.104,-0.056C0.085,-0.077 0.07,-0.103 0.06,-0.134C0.05,-0.166 0.045,-0.201 0.045,-0.242C0.045,-0.28 0.05,-0.315 0.061,-0.346C0.072,-0.378 0.087,-0.405 0.107,-0.427C0.128,-0.45 0.152,-0.468 0.181,-0.48C0.21,-0.493 0.243,-0.499 0.28,-0.499C0.315,-0.499 0.346,-0.493 0.374,-0.482C0.402,-0.472 0.426,-0.456 0.445,-0.435C0.464,-0.414 0.479,-0.388 0.489,-0.356C0.5,-0.325 0.505,-0.289 0.505,-0.249ZM0.418,-0.245C0.418,-0.275 0.415,-0.302 0.408,-0.324C0.401,-0.347 0.392,-0.366 0.379,-0.381C0.367,-0.396 0.352,-0.408 0.334,-0.415C0.316,-0.423 0.297,-0.427 0.275,-0.427C0.25,-0.427 0.228,-0.422 0.209,-0.412C0.192,-0.402 0.177,-0.389 0.165,-0.372C0.154,-0.355 0.145,-0.336 0.14,-0.314C0.134,-0.292 0.132,-0.269 0.132,-0.245C0.132,-0.215 0.135,-0.188 0.142,-0.166C0.148,-0.143 0.158,-0.124 0.17,-0.108C0.183,-0.093 0.198,-0.082 0.215,-0.074C0.233,-0.067 0.253,-0.063 0.275,-0.063C0.3,-0.063 0.322,-0.068 0.34,-0.078C0.358,-0.088 0.373,-0.101 0.384,-0.118C0.396,-0.134 0.404,-0.153 0.41,-0.175C0.415,-0.197 0.418,-0.221 0.418,-0.245Z" style="fill-rule:nonzero;"/>
                </g>
                <g transform="matrix(12,0,0,12,39.5859,0)">
                    <path d="M0.505,-0.249C0.505,-0.211 0.5,-0.176 0.489,-0.144C0.478,-0.112 0.463,-0.085 0.442,-0.063C0.422,-0.04 0.398,-0.022 0.369,-0.01C0.34,0.003 0.307,0.009 0.27,0.009C0.235,0.009 0.203,0.003 0.175,-0.007C0.148,-0.018 0.124,-0.035 0.104,-0.056C0.085,-0.077 0.07,-0.103 0.06,-0.134C0.05,-0.166 0.045,-0.201 0.045,-0.242C0.045,-0.28 0.05,-0.315 0.061,-0.346C0.072,-0.378 0.087,-0.405 0.107,-0.427C0.128,-0.45 0.152,-0.468 0.181,-0.48C0.21,-0.493 0.243,-0.499 0.28,-0.499C0.315,-0.499 0.346,-0.493 0.374,-0.482C0.402,-0.472 0.426,-0.456 0.445,-0.435C0.464,-0.414 0.479,-0.388 0.489,-0.356C0.5,-0.325 0.505,-0.289 0.505,-0.249ZM0.418,-0.245C0.418,-0.275 0.415,-0.302 0.408,-0.324C0.401,-0.347 0.392,-0.366 0.379,-0.381C0.367,-0.396 0.352,-0.408 0.334,-0.415C0.316,-0.423 0.297,-0.427 0.275,-0.427C0.25,-0.427 0.228,-0.422 0.209,-0.412C0.192,-0.402 0.177,-0.389 0.165,-0.372C0.154,-0.355 0.145,-0.336 0.14,-0.314C0.134,-0.292 0.132,-0.269 0.132,-0.245C0.132,-0.215 0.135,-0.188 0.142,-0.166C0.148,-0.143 0.158,-0.124 0.17,-0.108C0.183,-0.093 0.198,-0.082 0.215,-0.074C0.233,-0.067 0.253,-0.063 0.275,-0.063C0.3,-0.063 0.322,-0.068 0.34,-0.078C0.358,-0.088 0.373,-0.101 0.384,-0.118C0.396,-0.134 0.404,-0.153 0.41,-0.175C0.415,-0.197 0.418,-0.221 0.418,-0.245Z" style="fill-rule:nonzero;"/>
                </g>
                <g transform="matrix(12,0,0,12,46.1836,0)">
                    <path d="M0.497,-0.254C0.497,-0.21 0.491,-0.172 0.479,-0.14C0.466,-0.107 0.45,-0.08 0.428,-0.059C0.407,-0.037 0.381,-0.021 0.352,-0.01C0.323,0 0.291,0.006 0.257,0.006C0.241,0.006 0.226,0.005 0.21,0.003C0.195,0.002 0.179,-0.001 0.163,-0.005L0.163,0.2L0.078,0.2L0.078,-0.49L0.154,-0.49L0.159,-0.408C0.184,-0.442 0.21,-0.465 0.237,-0.479C0.265,-0.492 0.295,-0.499 0.327,-0.499C0.355,-0.499 0.38,-0.493 0.401,-0.481C0.422,-0.47 0.44,-0.453 0.454,-0.432C0.468,-0.41 0.479,-0.385 0.486,-0.354C0.493,-0.325 0.497,-0.291 0.497,-0.254ZM0.41,-0.25C0.41,-0.276 0.408,-0.299 0.404,-0.321C0.401,-0.342 0.395,-0.361 0.387,-0.376C0.379,-0.391 0.368,-0.403 0.355,-0.412C0.343,-0.42 0.328,-0.425 0.31,-0.425C0.299,-0.425 0.288,-0.423 0.277,-0.419C0.266,-0.416 0.255,-0.41 0.243,-0.402C0.231,-0.395 0.218,-0.384 0.205,-0.371C0.192,-0.358 0.178,-0.341 0.163,-0.322L0.163,-0.084C0.179,-0.077 0.195,-0.072 0.212,-0.068C0.23,-0.065 0.247,-0.063 0.263,-0.063C0.309,-0.063 0.345,-0.078 0.371,-0.109C0.397,-0.141 0.41,-0.188 0.41,-0.25Z" style="fill-rule:nonzero;"/>
                </g>
            </g>
        </g>
    </g>
</svg>
