<?xml version="1.0" encoding="UTF-8" standalone="no"?>
<!DOCTYPE svg PUBLIC "-//W3C//DTD SVG 1.1//EN" "http://www.w3.org/Graphics/SVG/1.1/DTD/svg11.dtd">
<svg width="100%" height="100%" viewBox="0 0 235 150" version="1.1" xmlns="http://www.w3.org/2000/svg" xmlns:xlink="http://www.w3.org/1999/xlink" xml:space="preserve" xmlns:serif="http://www.serif.com/" style="fill-rule:evenodd;clip-rule:evenodd;stroke-linejoin:round;stroke-miterlimit:2;">
    <g transform="matrix(1,0,0,1,-272.515,-187.491)">
        <g transform="matrix(1,0,0,1,-31.169,-35.439)">
            <rect x="303.684" y="222.93" width="234.519" height="149.417" style="fill:white;"/>
        </g>
        <g>
            <g transform="matrix(1,0,0,1,290.894,246.694)">
                <g transform="matrix(12,0,0,12,0,0)">
                    <path d="M0.078,-0.49L0.154,-0.49L0.157,-0.411C0.172,-0.428 0.185,-0.442 0.199,-0.453C0.212,-0.465 0.225,-0.474 0.238,-0.48C0.251,-0.487 0.264,-0.492 0.277,-0.495C0.291,-0.498 0.305,-0.499 0.319,-0.499C0.369,-0.499 0.407,-0.484 0.433,-0.454C0.459,-0.424 0.472,-0.38 0.472,-0.32L0.472,-0L0.387,-0L0.387,-0.313C0.387,-0.351 0.38,-0.38 0.366,-0.398C0.351,-0.417 0.33,-0.426 0.302,-0.426C0.291,-0.426 0.281,-0.424 0.271,-0.421C0.261,-0.418 0.251,-0.413 0.24,-0.405C0.229,-0.397 0.218,-0.387 0.205,-0.374C0.193,-0.361 0.179,-0.345 0.163,-0.325L0.163,-0L0.078,-0L0.078,-0.49Z" style="fill-rule:nonzero;"/>
                </g>
                <g transform="matrix(12,0,0,12,6.59766,0)">
                    <path d="M0.472,-0L0.396,-0L0.393,-0.079C0.378,-0.062 0.364,-0.048 0.351,-0.037C0.338,-0.026 0.325,-0.017 0.312,-0.01C0.299,-0.003 0.286,0.002 0.272,0.004C0.259,0.007 0.246,0.009 0.231,0.009C0.181,0.009 0.142,-0.006 0.117,-0.036C0.091,-0.065 0.078,-0.11 0.078,-0.17L0.078,-0.49L0.163,-0.49L0.163,-0.177C0.163,-0.102 0.191,-0.064 0.248,-0.064C0.258,-0.064 0.269,-0.065 0.278,-0.068C0.288,-0.072 0.299,-0.077 0.31,-0.084C0.321,-0.092 0.332,-0.103 0.345,-0.116C0.357,-0.129 0.372,-0.145 0.387,-0.165L0.387,-0.49L0.472,-0.49L0.472,-0Z" style="fill-rule:nonzero;"/>
                </g>
                <g transform="matrix(12,0,0,12,13.1953,0)">
                    <path d="M0.428,-0L0.428,-0.352C0.428,-0.367 0.427,-0.38 0.426,-0.39C0.425,-0.399 0.423,-0.407 0.42,-0.413C0.418,-0.418 0.415,-0.423 0.411,-0.425C0.408,-0.427 0.403,-0.428 0.397,-0.428C0.391,-0.428 0.385,-0.426 0.379,-0.422C0.374,-0.418 0.368,-0.412 0.361,-0.403C0.355,-0.395 0.348,-0.383 0.34,-0.368C0.333,-0.354 0.324,-0.336 0.313,-0.315L0.313,-0L0.236,-0L0.236,-0.343C0.236,-0.361 0.235,-0.375 0.234,-0.386C0.233,-0.397 0.231,-0.406 0.229,-0.412C0.226,-0.418 0.223,-0.423 0.219,-0.425C0.215,-0.427 0.211,-0.428 0.205,-0.428C0.199,-0.428 0.194,-0.427 0.188,-0.423C0.183,-0.42 0.177,-0.414 0.171,-0.406C0.165,-0.397 0.158,-0.386 0.15,-0.371C0.142,-0.356 0.133,-0.338 0.122,-0.315L0.122,-0L0.044,-0L0.044,-0.49L0.109,-0.49L0.113,-0.397C0.121,-0.416 0.129,-0.431 0.137,-0.444C0.145,-0.457 0.154,-0.468 0.162,-0.476C0.171,-0.484 0.18,-0.49 0.189,-0.493C0.199,-0.497 0.209,-0.499 0.221,-0.499C0.248,-0.499 0.268,-0.49 0.281,-0.473C0.295,-0.456 0.302,-0.429 0.302,-0.393C0.31,-0.41 0.317,-0.425 0.325,-0.438C0.332,-0.451 0.34,-0.462 0.349,-0.471C0.357,-0.48 0.367,-0.487 0.377,-0.492C0.388,-0.497 0.4,-0.499 0.414,-0.499C0.475,-0.499 0.506,-0.452 0.506,-0.357L0.506,-0L0.428,-0Z" style="fill-rule:nonzero;"/>
                </g>
                <g transform="matrix(12,0,0,12,19.793,0)">
                    <path d="M0.497,-0.254C0.497,-0.213 0.491,-0.177 0.48,-0.145C0.469,-0.113 0.453,-0.085 0.432,-0.063C0.412,-0.041 0.387,-0.024 0.357,-0.012C0.327,0 0.294,0.006 0.257,0.006C0.228,0.006 0.198,0.003 0.168,-0.002C0.138,-0.008 0.108,-0.017 0.078,-0.029L0.078,-0.69L0.163,-0.69L0.163,-0.5L0.159,-0.409C0.184,-0.442 0.21,-0.465 0.237,-0.479C0.265,-0.492 0.295,-0.499 0.327,-0.499C0.355,-0.499 0.38,-0.493 0.401,-0.481C0.422,-0.47 0.44,-0.453 0.454,-0.432C0.468,-0.41 0.479,-0.385 0.486,-0.354C0.493,-0.325 0.497,-0.291 0.497,-0.254ZM0.41,-0.25C0.41,-0.276 0.408,-0.299 0.404,-0.321C0.401,-0.342 0.395,-0.361 0.387,-0.376C0.379,-0.391 0.368,-0.403 0.355,-0.412C0.343,-0.42 0.328,-0.425 0.31,-0.425C0.299,-0.425 0.288,-0.423 0.277,-0.419C0.266,-0.416 0.255,-0.41 0.243,-0.402C0.231,-0.395 0.218,-0.384 0.205,-0.371C0.192,-0.358 0.178,-0.341 0.163,-0.322L0.163,-0.084C0.18,-0.077 0.197,-0.072 0.214,-0.068C0.231,-0.065 0.248,-0.063 0.263,-0.063C0.283,-0.063 0.301,-0.066 0.319,-0.072C0.337,-0.078 0.352,-0.089 0.366,-0.103C0.379,-0.118 0.39,-0.137 0.398,-0.161C0.406,-0.185 0.41,-0.215 0.41,-0.25Z" style="fill-rule:nonzero;"/>
                </g>
                <g transform="matrix(12,0,0,12,26.3906,0)">
                    <path d="M0.492,-0.271C0.492,-0.259 0.492,-0.249 0.492,-0.241C0.491,-0.233 0.491,-0.225 0.49,-0.218L0.146,-0.218C0.146,-0.168 0.16,-0.129 0.188,-0.102C0.216,-0.075 0.256,-0.062 0.309,-0.062C0.323,-0.062 0.338,-0.063 0.352,-0.063C0.366,-0.065 0.38,-0.066 0.394,-0.068C0.407,-0.07 0.42,-0.072 0.432,-0.075C0.444,-0.077 0.455,-0.08 0.466,-0.083L0.466,-0.013C0.443,-0.007 0.417,-0.001 0.387,0.002C0.358,0.007 0.328,0.009 0.297,0.009C0.255,0.009 0.219,0.003 0.188,-0.008C0.158,-0.02 0.133,-0.036 0.114,-0.058C0.095,-0.079 0.08,-0.106 0.071,-0.137C0.062,-0.169 0.057,-0.204 0.057,-0.244C0.057,-0.279 0.062,-0.311 0.072,-0.342C0.082,-0.373 0.096,-0.4 0.115,-0.423C0.134,-0.446 0.158,-0.465 0.186,-0.479C0.213,-0.492 0.245,-0.499 0.28,-0.499C0.314,-0.499 0.344,-0.494 0.371,-0.483C0.397,-0.472 0.419,-0.457 0.437,-0.437C0.455,-0.417 0.469,-0.394 0.478,-0.365C0.487,-0.337 0.492,-0.306 0.492,-0.271ZM0.404,-0.283C0.405,-0.305 0.403,-0.325 0.397,-0.343C0.392,-0.361 0.384,-0.377 0.373,-0.39C0.362,-0.403 0.349,-0.413 0.333,-0.42C0.316,-0.427 0.297,-0.431 0.276,-0.431C0.257,-0.431 0.24,-0.428 0.225,-0.42C0.21,-0.413 0.197,-0.403 0.186,-0.39C0.174,-0.377 0.166,-0.361 0.159,-0.343C0.152,-0.325 0.148,-0.305 0.146,-0.283L0.404,-0.283Z" style="fill-rule:nonzero;"/>
                </g>
                <g transform="matrix(12,0,0,12,32.9883,0)">
                    <path d="M0.098,-0.49L0.176,-0.49L0.178,-0.4C0.207,-0.435 0.236,-0.46 0.264,-0.476C0.292,-0.491 0.32,-0.499 0.349,-0.499C0.4,-0.499 0.438,-0.483 0.464,-0.45C0.491,-0.417 0.503,-0.368 0.501,-0.303L0.415,-0.303C0.416,-0.346 0.41,-0.377 0.396,-0.396C0.383,-0.416 0.363,-0.426 0.337,-0.426C0.326,-0.426 0.314,-0.424 0.302,-0.419C0.291,-0.416 0.279,-0.409 0.267,-0.4C0.255,-0.391 0.242,-0.38 0.228,-0.366C0.214,-0.352 0.2,-0.335 0.184,-0.315L0.184,-0L0.098,-0L0.098,-0.49Z" style="fill-rule:nonzero;"/>
                </g>
                <g transform="matrix(12,0,0,12,46.1836,0)">
                    <path d="M0.485,-0.315L0.065,-0.315L0.065,-0.387L0.485,-0.387L0.485,-0.315ZM0.485,-0.146L0.065,-0.146L0.065,-0.217L0.485,-0.217L0.485,-0.146Z" style="fill-rule:nonzero;"/>
                </g>
                <g transform="matrix(12,0,0,12,59.3789,0)">
                    <path d="M0.526,-0L0.441,-0L0.428,-0.398L0.423,-0.551L0.393,-0.462L0.299,-0.208L0.239,-0.208L0.149,-0.452L0.119,-0.551L0.117,-0.391L0.106,-0L0.024,-0L0.055,-0.638L0.158,-0.638L0.244,-0.398L0.272,-0.317L0.299,-0.398L0.389,-0.638L0.495,-0.638L0.526,-0Z" style="fill-rule:nonzero;"/>
                </g>
                <g transform="matrix(12,0,0,12,65.9766,0)">
                    <path d="M0.393,-0L0.391,-0.066C0.364,-0.04 0.337,-0.021 0.31,-0.009C0.282,0.003 0.253,0.009 0.223,0.009C0.195,0.009 0.171,0.005 0.151,-0.002C0.132,-0.009 0.115,-0.019 0.102,-0.031C0.089,-0.044 0.08,-0.059 0.074,-0.076C0.068,-0.093 0.065,-0.111 0.065,-0.131C0.065,-0.18 0.083,-0.218 0.12,-0.246C0.156,-0.274 0.211,-0.288 0.282,-0.288L0.384,-0.288L0.384,-0.331C0.384,-0.36 0.375,-0.383 0.356,-0.4C0.337,-0.418 0.309,-0.427 0.271,-0.427C0.243,-0.427 0.216,-0.424 0.189,-0.417C0.162,-0.411 0.135,-0.403 0.106,-0.391L0.106,-0.468C0.117,-0.472 0.129,-0.475 0.142,-0.479C0.155,-0.483 0.169,-0.486 0.184,-0.489C0.198,-0.492 0.214,-0.494 0.229,-0.496C0.245,-0.498 0.262,-0.499 0.278,-0.499C0.307,-0.499 0.334,-0.496 0.358,-0.489C0.382,-0.483 0.402,-0.473 0.418,-0.459C0.435,-0.446 0.447,-0.429 0.456,-0.409C0.465,-0.389 0.469,-0.365 0.469,-0.338L0.469,-0L0.393,-0ZM0.384,-0.223L0.276,-0.223C0.255,-0.223 0.236,-0.221 0.221,-0.217C0.206,-0.213 0.193,-0.207 0.184,-0.199C0.174,-0.191 0.167,-0.181 0.162,-0.17C0.157,-0.16 0.155,-0.147 0.155,-0.134C0.155,-0.124 0.156,-0.115 0.159,-0.106C0.162,-0.098 0.167,-0.09 0.173,-0.083C0.18,-0.077 0.188,-0.072 0.199,-0.068C0.209,-0.064 0.222,-0.062 0.237,-0.062C0.256,-0.062 0.279,-0.068 0.304,-0.08C0.329,-0.092 0.356,-0.111 0.384,-0.136L0.384,-0.223Z" style="fill-rule:nonzero;"/>
                </g>
                <g transform="matrix(12,0,0,12,72.5742,0)">
                    <path d="M0.473,-0.007C0.454,-0.002 0.434,0.001 0.414,0.003C0.393,0.006 0.372,0.007 0.351,0.007C0.29,0.007 0.244,-0.007 0.213,-0.035C0.183,-0.063 0.168,-0.105 0.168,-0.163L0.168,-0.419L0.031,-0.419L0.031,-0.49L0.168,-0.49L0.168,-0.625L0.253,-0.647L0.253,-0.49L0.473,-0.49L0.473,-0.419L0.253,-0.419L0.253,-0.17C0.253,-0.135 0.262,-0.108 0.281,-0.091C0.3,-0.074 0.327,-0.065 0.364,-0.065C0.379,-0.065 0.396,-0.066 0.415,-0.068C0.434,-0.071 0.453,-0.075 0.473,-0.08L0.473,-0.007Z" style="fill-rule:nonzero;"/>
                </g>
                <g transform="matrix(12,0,0,12,79.1719,0)">
                    <path d="M0.472,-0L0.387,-0L0.387,-0.313C0.387,-0.351 0.38,-0.379 0.366,-0.397C0.352,-0.416 0.332,-0.426 0.305,-0.426C0.294,-0.426 0.283,-0.424 0.273,-0.421C0.263,-0.418 0.253,-0.413 0.242,-0.405C0.231,-0.397 0.22,-0.387 0.207,-0.374C0.194,-0.361 0.18,-0.345 0.163,-0.325L0.163,-0L0.078,-0L0.078,-0.69L0.163,-0.69L0.163,-0.49L0.16,-0.413C0.174,-0.429 0.187,-0.442 0.199,-0.453C0.212,-0.464 0.225,-0.473 0.238,-0.48C0.251,-0.487 0.264,-0.492 0.277,-0.495C0.291,-0.498 0.305,-0.499 0.319,-0.499C0.368,-0.499 0.405,-0.484 0.432,-0.454C0.459,-0.424 0.472,-0.38 0.472,-0.32L0.472,-0Z" style="fill-rule:nonzero;"/>
                </g>
                <g transform="matrix(12,0,0,12,85.7695,0)">
                    <path d="M0.271,-0.154C0.282,-0.154 0.292,-0.152 0.302,-0.147C0.312,-0.143 0.321,-0.137 0.328,-0.13C0.336,-0.122 0.341,-0.114 0.346,-0.104C0.35,-0.094 0.352,-0.083 0.352,-0.072C0.352,-0.061 0.35,-0.05 0.346,-0.041C0.341,-0.031 0.336,-0.022 0.328,-0.015C0.321,-0.007 0.312,-0.002 0.302,0.002C0.292,0.007 0.282,0.009 0.271,0.009C0.26,0.009 0.249,0.007 0.239,0.002C0.229,-0.002 0.221,-0.007 0.213,-0.015C0.206,-0.022 0.201,-0.031 0.196,-0.041C0.192,-0.05 0.19,-0.061 0.19,-0.072C0.19,-0.083 0.192,-0.094 0.196,-0.104C0.201,-0.114 0.206,-0.122 0.213,-0.13C0.221,-0.137 0.229,-0.143 0.239,-0.147C0.249,-0.152 0.26,-0.154 0.271,-0.154Z" style="fill-rule:nonzero;"/>
                </g>
                <g transform="matrix(12,0,0,12,92.3672,0)">
                    <path d="M0.513,-0L0.415,-0L0.32,-0.204C0.313,-0.22 0.305,-0.233 0.298,-0.243C0.29,-0.253 0.282,-0.261 0.273,-0.267C0.265,-0.273 0.256,-0.278 0.245,-0.28C0.235,-0.283 0.224,-0.284 0.211,-0.284L0.17,-0.284L0.17,-0L0.083,-0L0.083,-0.638L0.254,-0.638C0.291,-0.638 0.323,-0.634 0.35,-0.626C0.376,-0.618 0.398,-0.606 0.415,-0.592C0.432,-0.577 0.445,-0.559 0.453,-0.539C0.461,-0.518 0.465,-0.495 0.465,-0.47C0.465,-0.45 0.462,-0.431 0.456,-0.414C0.45,-0.396 0.441,-0.38 0.43,-0.365C0.418,-0.351 0.404,-0.338 0.387,-0.328C0.37,-0.317 0.35,-0.309 0.328,-0.304C0.346,-0.298 0.361,-0.287 0.374,-0.271C0.386,-0.256 0.399,-0.236 0.412,-0.21L0.513,-0ZM0.374,-0.463C0.374,-0.497 0.363,-0.523 0.342,-0.54C0.321,-0.556 0.291,-0.565 0.252,-0.565L0.17,-0.565L0.17,-0.354L0.24,-0.354C0.261,-0.354 0.279,-0.356 0.295,-0.361C0.312,-0.366 0.326,-0.373 0.337,-0.382C0.349,-0.391 0.358,-0.403 0.364,-0.416C0.371,-0.43 0.374,-0.445 0.374,-0.463Z" style="fill-rule:nonzero;"/>
                </g>
                <g transform="matrix(12,0,0,12,98.9648,0)">
                    <path d="M0.505,-0.249C0.505,-0.211 0.5,-0.176 0.489,-0.144C0.478,-0.112 0.463,-0.085 0.442,-0.063C0.422,-0.04 0.398,-0.022 0.369,-0.01C0.34,0.003 0.307,0.009 0.27,0.009C0.235,0.009 0.203,0.003 0.175,-0.007C0.148,-0.018 0.124,-0.035 0.104,-0.056C0.085,-0.077 0.07,-0.103 0.06,-0.134C0.05,-0.166 0.045,-0.201 0.045,-0.242C0.045,-0.28 0.05,-0.315 0.061,-0.346C0.072,-0.378 0.087,-0.405 0.107,-0.427C0.128,-0.45 0.152,-0.468 0.181,-0.48C0.21,-0.493 0.243,-0.499 0.28,-0.499C0.315,-0.499 0.346,-0.493 0.374,-0.482C0.402,-0.472 0.426,-0.456 0.445,-0.435C0.464,-0.414 0.479,-0.388 0.489,-0.356C0.5,-0.325 0.505,-0.289 0.505,-0.249ZM0.418,-0.245C0.418,-0.275 0.415,-0.302 0.408,-0.324C0.401,-0.347 0.392,-0.366 0.379,-0.381C0.367,-0.396 0.352,-0.408 0.334,-0.415C0.316,-0.423 0.297,-0.427 0.275,-0.427C0.25,-0.427 0.228,-0.422 0.209,-0.412C0.192,-0.402 0.177,-0.389 0.165,-0.372C0.154,-0.355 0.145,-0.336 0.14,-0.314C0.134,-0.292 0.132,-0.269 0.132,-0.245C0.132,-0.215 0.135,-0.188 0.142,-0.166C0.148,-0.143 0.158,-0.124 0.17,-0.108C0.183,-0.093 0.198,-0.082 0.215,-0.074C0.233,-0.067 0.253,-0.063 0.275,-0.063C0.3,-0.063 0.322,-0.068 0.34,-0.078C0.358,-0.088 0.373,-0.101 0.384,-0.118C0.396,-0.134 0.404,-0.153 0.41,-0.175C0.415,-0.197 0.418,-0.221 0.418,-0.245Z" style="fill-rule:nonzero;"/>
                </g>
                <g transform="matrix(12,0,0,12,105.562,0)">
                    <path d="M0.472,-0L0.396,-0L0.393,-0.079C0.378,-0.062 0.364,-0.048 0.351,-0.037C0.338,-0.026 0.325,-0.017 0.312,-0.01C0.299,-0.003 0.286,0.002 0.272,0.004C0.259,0.007 0.246,0.009 0.231,0.009C0.181,0.009 0.142,-0.006 0.117,-0.036C0.091,-0.065 0.078,-0.11 0.078,-0.17L0.078,-0.49L0.163,-0.49L0.163,-0.177C0.163,-0.102 0.191,-0.064 0.248,-0.064C0.258,-0.064 0.269,-0.065 0.278,-0.068C0.288,-0.072 0.299,-0.077 0.31,-0.084C0.321,-0.092 0.332,-0.103 0.345,-0.116C0.357,-0.129 0.372,-0.145 0.387,-0.165L0.387,-0.49L0.472,-0.49L0.472,-0Z" style="fill-rule:nonzero;"/>
                </g>
            </g>
            <g transform="matrix(1,0,0,1,402.951,246.694)">
                <g transform="matrix(12,0,0,12,0,0)">
                    <path d="M0.078,-0.49L0.154,-0.49L0.157,-0.411C0.172,-0.428 0.185,-0.442 0.199,-0.453C0.212,-0.465 0.225,-0.474 0.238,-0.48C0.251,-0.487 0.264,-0.492 0.277,-0.495C0.291,-0.498 0.305,-0.499 0.319,-0.499C0.369,-0.499 0.407,-0.484 0.433,-0.454C0.459,-0.424 0.472,-0.38 0.472,-0.32L0.472,-0L0.387,-0L0.387,-0.313C0.387,-0.351 0.38,-0.38 0.366,-0.398C0.351,-0.417 0.33,-0.426 0.302,-0.426C0.291,-0.426 0.281,-0.424 0.271,-0.421C0.261,-0.418 0.251,-0.413 0.24,-0.405C0.229,-0.397 0.218,-0.387 0.205,-0.374C0.193,-0.361 0.179,-0.345 0.163,-0.325L0.163,-0L0.078,-0L0.078,-0.49Z" style="fill-rule:nonzero;"/>
                </g>
                <g transform="matrix(12,0,0,12,6.59766,0)">
                    <path d="M0.053,-0.235C0.053,-0.277 0.059,-0.313 0.07,-0.346C0.082,-0.378 0.098,-0.406 0.119,-0.428C0.14,-0.45 0.165,-0.467 0.194,-0.479C0.224,-0.49 0.257,-0.496 0.293,-0.496C0.309,-0.496 0.324,-0.495 0.339,-0.493C0.354,-0.491 0.369,-0.488 0.384,-0.484L0.384,-0.69L0.469,-0.69L0.469,-0L0.393,-0L0.39,-0.093C0.366,-0.058 0.341,-0.033 0.313,-0.016C0.285,0 0.255,0.009 0.223,0.009C0.195,0.009 0.17,0.003 0.149,-0.009C0.128,-0.021 0.11,-0.037 0.096,-0.058C0.082,-0.08 0.071,-0.105 0.064,-0.135C0.057,-0.165 0.053,-0.198 0.053,-0.235ZM0.14,-0.24C0.14,-0.181 0.149,-0.137 0.166,-0.107C0.184,-0.078 0.208,-0.064 0.24,-0.064C0.262,-0.064 0.284,-0.074 0.308,-0.093C0.332,-0.112 0.357,-0.14 0.384,-0.178L0.384,-0.406C0.37,-0.412 0.354,-0.417 0.337,-0.42C0.32,-0.424 0.304,-0.426 0.287,-0.426C0.241,-0.426 0.205,-0.411 0.179,-0.381C0.153,-0.351 0.14,-0.304 0.14,-0.24Z" style="fill-rule:nonzero;"/>
                </g>
                <g transform="matrix(12,0,0,12,13.1953,0)">
                    <path d="M0.372,0.205C0.222,0.066 0.146,-0.088 0.146,-0.256C0.146,-0.295 0.15,-0.334 0.158,-0.374C0.166,-0.413 0.179,-0.452 0.197,-0.492C0.215,-0.531 0.238,-0.57 0.267,-0.61C0.296,-0.649 0.332,-0.688 0.374,-0.727L0.423,-0.677C0.297,-0.552 0.233,-0.414 0.233,-0.262C0.233,-0.187 0.249,-0.114 0.281,-0.044C0.313,0.025 0.36,0.091 0.423,0.153L0.372,0.205Z" style="fill-rule:nonzero;"/>
                </g>
                <g transform="matrix(12,0,0,12,19.793,0)">
                    <path d="M0.078,-0.49L0.154,-0.49L0.157,-0.411C0.172,-0.428 0.185,-0.442 0.199,-0.453C0.212,-0.465 0.225,-0.474 0.238,-0.48C0.251,-0.487 0.264,-0.492 0.277,-0.495C0.291,-0.498 0.305,-0.499 0.319,-0.499C0.369,-0.499 0.407,-0.484 0.433,-0.454C0.459,-0.424 0.472,-0.38 0.472,-0.32L0.472,-0L0.387,-0L0.387,-0.313C0.387,-0.351 0.38,-0.38 0.366,-0.398C0.351,-0.417 0.33,-0.426 0.302,-0.426C0.291,-0.426 0.281,-0.424 0.271,-0.421C0.261,-0.418 0.251,-0.413 0.24,-0.405C0.229,-0.397 0.218,-0.387 0.205,-0.374C0.193,-0.361 0.179,-0.345 0.163,-0.325L0.163,-0L0.078,-0L0.078,-0.49Z" style="fill-rule:nonzero;"/>
                </g>
                <g transform="matrix(12,0,0,12,26.3906,0)">
                    <path d="M0.472,-0L0.396,-0L0.393,-0.079C0.378,-0.062 0.364,-0.048 0.351,-0.037C0.338,-0.026 0.325,-0.017 0.312,-0.01C0.299,-0.003 0.286,0.002 0.272,0.004C0.259,0.007 0.246,0.009 0.231,0.009C0.181,0.009 0.142,-0.006 0.117,-0.036C0.091,-0.065 0.078,-0.11 0.078,-0.17L0.078,-0.49L0.163,-0.49L0.163,-0.177C0.163,-0.102 0.191,-0.064 0.248,-0.064C0.258,-0.064 0.269,-0.065 0.278,-0.068C0.288,-0.072 0.299,-0.077 0.31,-0.084C0.321,-0.092 0.332,-0.103 0.345,-0.116C0.357,-0.129 0.372,-0.145 0.387,-0.165L0.387,-0.49L0.472,-0.49L0.472,-0Z" style="fill-rule:nonzero;"/>
                </g>
                <g transform="matrix(12,0,0,12,32.9883,0)">
                    <path d="M0.428,-0L0.428,-0.352C0.428,-0.367 0.427,-0.38 0.426,-0.39C0.425,-0.399 0.423,-0.407 0.42,-0.413C0.418,-0.418 0.415,-0.423 0.411,-0.425C0.408,-0.427 0.403,-0.428 0.397,-0.428C0.391,-0.428 0.385,-0.426 0.379,-0.422C0.374,-0.418 0.368,-0.412 0.361,-0.403C0.355,-0.395 0.348,-0.383 0.34,-0.368C0.333,-0.354 0.324,-0.336 0.313,-0.315L0.313,-0L0.236,-0L0.236,-0.343C0.236,-0.361 0.235,-0.375 0.234,-0.386C0.233,-0.397 0.231,-0.406 0.229,-0.412C0.226,-0.418 0.223,-0.423 0.219,-0.425C0.215,-0.427 0.211,-0.428 0.205,-0.428C0.199,-0.428 0.194,-0.427 0.188,-0.423C0.183,-0.42 0.177,-0.414 0.171,-0.406C0.165,-0.397 0.158,-0.386 0.15,-0.371C0.142,-0.356 0.133,-0.338 0.122,-0.315L0.122,-0L0.044,-0L0.044,-0.49L0.109,-0.49L0.113,-0.397C0.121,-0.416 0.129,-0.431 0.137,-0.444C0.145,-0.457 0.154,-0.468 0.162,-0.476C0.171,-0.484 0.18,-0.49 0.189,-0.493C0.199,-0.497 0.209,-0.499 0.221,-0.499C0.248,-0.499 0.268,-0.49 0.281,-0.473C0.295,-0.456 0.302,-0.429 0.302,-0.393C0.31,-0.41 0.317,-0.425 0.325,-0.438C0.332,-0.451 0.34,-0.462 0.349,-0.471C0.357,-0.48 0.367,-0.487 0.377,-0.492C0.388,-0.497 0.4,-0.499 0.414,-0.499C0.475,-0.499 0.506,-0.452 0.506,-0.357L0.506,-0L0.428,-0Z" style="fill-rule:nonzero;"/>
                </g>
                <g transform="matrix(12,0,0,12,39.5859,0)">
                    <path d="M0.497,-0.254C0.497,-0.213 0.491,-0.177 0.48,-0.145C0.469,-0.113 0.453,-0.085 0.432,-0.063C0.412,-0.041 0.387,-0.024 0.357,-0.012C0.327,0 0.294,0.006 0.257,0.006C0.228,0.006 0.198,0.003 0.168,-0.002C0.138,-0.008 0.108,-0.017 0.078,-0.029L0.078,-0.69L0.163,-0.69L0.163,-0.5L0.159,-0.409C0.184,-0.442 0.21,-0.465 0.237,-0.479C0.265,-0.492 0.295,-0.499 0.327,-0.499C0.355,-0.499 0.38,-0.493 0.401,-0.481C0.422,-0.47 0.44,-0.453 0.454,-0.432C0.468,-0.41 0.479,-0.385 0.486,-0.354C0.493,-0.325 0.497,-0.291 0.497,-0.254ZM0.41,-0.25C0.41,-0.276 0.408,-0.299 0.404,-0.321C0.401,-0.342 0.395,-0.361 0.387,-0.376C0.379,-0.391 0.368,-0.403 0.355,-0.412C0.343,-0.42 0.328,-0.425 0.31,-0.425C0.299,-0.425 0.288,-0.423 0.277,-0.419C0.266,-0.416 0.255,-0.41 0.243,-0.402C0.231,-0.395 0.218,-0.384 0.205,-0.371C0.192,-0.358 0.178,-0.341 0.163,-0.322L0.163,-0.084C0.18,-0.077 0.197,-0.072 0.214,-0.068C0.231,-0.065 0.248,-0.063 0.263,-0.063C0.283,-0.063 0.301,-0.066 0.319,-0.072C0.337,-0.078 0.352,-0.089 0.366,-0.103C0.379,-0.118 0.39,-0.137 0.398,-0.161C0.406,-0.185 0.41,-0.215 0.41,-0.25Z" style="fill-rule:nonzero;"/>
                </g>
                <g transform="matrix(12,0,0,12,46.1836,0)">
                    <path d="M0.492,-0.271C0.492,-0.259 0.492,-0.249 0.492,-0.241C0.491,-0.233 0.491,-0.225 0.49,-0.218L0.146,-0.218C0.146,-0.168 0.16,-0.129 0.188,-0.102C0.216,-0.075 0.256,-0.062 0.309,-0.062C0.323,-0.062 0.338,-0.063 0.352,-0.063C0.366,-0.065 0.38,-0.066 0.394,-0.068C0.407,-0.07 0.42,-0.072 0.432,-0.075C0.444,-0.077 0.455,-0.08 0.466,-0.083L0.466,-0.013C0.443,-0.007 0.417,-0.001 0.387,0.002C0.358,0.007 0.328,0.009 0.297,0.009C0.255,0.009 0.219,0.003 0.188,-0.008C0.158,-0.02 0.133,-0.036 0.114,-0.058C0.095,-0.079 0.08,-0.106 0.071,-0.137C0.062,-0.169 0.057,-0.204 0.057,-0.244C0.057,-0.279 0.062,-0.311 0.072,-0.342C0.082,-0.373 0.096,-0.4 0.115,-0.423C0.134,-0.446 0.158,-0.465 0.186,-0.479C0.213,-0.492 0.245,-0.499 0.28,-0.499C0.314,-0.499 0.344,-0.494 0.371,-0.483C0.397,-0.472 0.419,-0.457 0.437,-0.437C0.455,-0.417 0.469,-0.394 0.478,-0.365C0.487,-0.337 0.492,-0.306 0.492,-0.271ZM0.404,-0.283C0.405,-0.305 0.403,-0.325 0.397,-0.343C0.392,-0.361 0.384,-0.377 0.373,-0.39C0.362,-0.403 0.349,-0.413 0.333,-0.42C0.316,-0.427 0.297,-0.431 0.276,-0.431C0.257,-0.431 0.24,-0.428 0.225,-0.42C0.21,-0.413 0.197,-0.403 0.186,-0.39C0.174,-0.377 0.166,-0.361 0.159,-0.343C0.152,-0.325 0.148,-0.305 0.146,-0.283L0.404,-0.283Z" style="fill-rule:nonzero;"/>
                </g>
                <g transform="matrix(12,0,0,12,52.7812,0)">
                    <path d="M0.098,-0.49L0.176,-0.49L0.178,-0.4C0.207,-0.435 0.236,-0.46 0.264,-0.476C0.292,-0.491 0.32,-0.499 0.349,-0.499C0.4,-0.499 0.438,-0.483 0.464,-0.45C0.491,-0.417 0.503,-0.368 0.501,-0.303L0.415,-0.303C0.416,-0.346 0.41,-0.377 0.396,-0.396C0.383,-0.416 0.363,-0.426 0.337,-0.426C0.326,-0.426 0.314,-0.424 0.302,-0.419C0.291,-0.416 0.279,-0.409 0.267,-0.4C0.255,-0.391 0.242,-0.38 0.228,-0.366C0.214,-0.352 0.2,-0.335 0.184,-0.315L0.184,-0L0.098,-0L0.098,-0.49Z" style="fill-rule:nonzero;"/>
                </g>
                <g transform="matrix(12,0,0,12,59.3789,0)">
                    <path d="M0.116,0.1C0.133,0.101 0.149,0.099 0.165,0.096C0.18,0.092 0.194,0.087 0.206,0.08C0.218,0.073 0.227,0.064 0.234,0.054C0.242,0.043 0.245,0.031 0.245,0.018C0.245,0.004 0.243,-0.007 0.238,-0.015C0.233,-0.024 0.228,-0.031 0.222,-0.039C0.216,-0.046 0.211,-0.053 0.206,-0.062C0.201,-0.07 0.199,-0.081 0.199,-0.094C0.199,-0.101 0.201,-0.108 0.203,-0.116C0.206,-0.123 0.21,-0.13 0.215,-0.136C0.22,-0.142 0.227,-0.147 0.235,-0.151C0.244,-0.155 0.254,-0.157 0.265,-0.157C0.277,-0.157 0.287,-0.155 0.298,-0.15C0.309,-0.145 0.318,-0.138 0.326,-0.128C0.334,-0.119 0.34,-0.106 0.345,-0.092C0.35,-0.077 0.352,-0.06 0.352,-0.04C0.352,-0.013 0.347,0.013 0.337,0.038C0.327,0.063 0.312,0.085 0.292,0.104C0.273,0.123 0.248,0.139 0.219,0.15C0.189,0.161 0.155,0.167 0.116,0.167L0.116,0.1Z" style="fill-rule:nonzero;"/>
                </g>
                <g transform="matrix(12,0,0,12,72.5742,0)">
                    <path d="M0.492,-0L0.072,-0L0.072,-0.076L0.237,-0.24C0.264,-0.267 0.286,-0.29 0.303,-0.31C0.32,-0.329 0.333,-0.347 0.342,-0.363C0.352,-0.379 0.358,-0.394 0.361,-0.409C0.365,-0.423 0.366,-0.438 0.366,-0.455C0.366,-0.471 0.364,-0.486 0.36,-0.5C0.356,-0.514 0.349,-0.526 0.34,-0.537C0.332,-0.548 0.32,-0.556 0.306,-0.563C0.292,-0.569 0.275,-0.572 0.256,-0.572C0.229,-0.572 0.204,-0.566 0.182,-0.554C0.16,-0.542 0.14,-0.526 0.121,-0.507L0.074,-0.563C0.098,-0.588 0.126,-0.609 0.157,-0.624C0.189,-0.639 0.225,-0.647 0.267,-0.647C0.295,-0.647 0.321,-0.643 0.344,-0.634C0.368,-0.626 0.388,-0.614 0.405,-0.598C0.422,-0.582 0.435,-0.562 0.444,-0.539C0.453,-0.516 0.458,-0.49 0.458,-0.461C0.458,-0.437 0.455,-0.414 0.448,-0.393C0.442,-0.372 0.432,-0.351 0.418,-0.331C0.405,-0.31 0.389,-0.289 0.369,-0.267C0.349,-0.244 0.325,-0.22 0.298,-0.194L0.182,-0.081L0.492,-0.081L0.492,-0Z" style="fill-rule:nonzero;"/>
                </g>
                <g transform="matrix(12,0,0,12,79.1719,0)">
                    <path d="M0.178,-0.727C0.328,-0.588 0.403,-0.433 0.403,-0.263C0.403,-0.228 0.4,-0.192 0.393,-0.154C0.385,-0.116 0.373,-0.077 0.356,-0.038C0.339,0.002 0.315,0.042 0.286,0.083C0.257,0.123 0.221,0.164 0.176,0.205L0.127,0.155C0.19,0.092 0.238,0.026 0.269,-0.042C0.3,-0.11 0.316,-0.182 0.316,-0.257C0.316,-0.412 0.253,-0.551 0.127,-0.675L0.178,-0.727Z" style="fill-rule:nonzero;"/>
                </g>
            </g>
        </g>
        <g>
            <g transform="matrix(1,0,0,1,314.79,264.914)">
                <g transform="matrix(10.5,0,0,10.5,0,0)">
                    <path d="M0.513,-0L0.415,-0L0.32,-0.204C0.313,-0.22 0.305,-0.233 0.298,-0.243C0.29,-0.253 0.282,-0.261 0.273,-0.267C0.265,-0.273 0.256,-0.278 0.245,-0.28C0.235,-0.283 0.224,-0.284 0.211,-0.284L0.17,-0.284L0.17,-0L0.083,-0L0.083,-0.638L0.254,-0.638C0.291,-0.638 0.323,-0.634 0.35,-0.626C0.376,-0.618 0.398,-0.606 0.415,-0.592C0.432,-0.577 0.445,-0.559 0.453,-0.539C0.461,-0.518 0.465,-0.495 0.465,-0.47C0.465,-0.45 0.462,-0.431 0.456,-0.414C0.45,-0.396 0.441,-0.38 0.43,-0.365C0.418,-0.351 0.404,-0.338 0.387,-0.328C0.37,-0.317 0.35,-0.309 0.328,-0.304C0.346,-0.298 0.361,-0.287 0.374,-0.271C0.386,-0.256 0.399,-0.236 0.412,-0.21L0.513,-0ZM0.374,-0.463C0.374,-0.497 0.363,-0.523 0.342,-0.54C0.321,-0.556 0.291,-0.565 0.252,-0.565L0.17,-0.565L0.17,-0.354L0.24,-0.354C0.261,-0.354 0.279,-0.356 0.295,-0.361C0.312,-0.366 0.326,-0.373 0.337,-0.382C0.349,-0.391 0.358,-0.403 0.364,-0.416C0.371,-0.43 0.374,-0.445 0.374,-0.463Z" style="fill-rule:nonzero;"/>
                </g>
                <g transform="matrix(10.5,0,0,10.5,5.77295,0)">
                    <path d="M0.505,-0.249C0.505,-0.211 0.5,-0.176 0.489,-0.144C0.478,-0.112 0.463,-0.085 0.442,-0.063C0.422,-0.04 0.398,-0.022 0.369,-0.01C0.34,0.003 0.307,0.009 0.27,0.009C0.235,0.009 0.203,0.003 0.175,-0.007C0.148,-0.018 0.124,-0.035 0.104,-0.056C0.085,-0.077 0.07,-0.103 0.06,-0.134C0.05,-0.166 0.045,-0.201 0.045,-0.242C0.045,-0.28 0.05,-0.315 0.061,-0.346C0.072,-0.378 0.087,-0.405 0.107,-0.427C0.128,-0.45 0.152,-0.468 0.181,-0.48C0.21,-0.493 0.243,-0.499 0.28,-0.499C0.315,-0.499 0.346,-0.493 0.374,-0.482C0.402,-0.472 0.426,-0.456 0.445,-0.435C0.464,-0.414 0.479,-0.388 0.489,-0.356C0.5,-0.325 0.505,-0.289 0.505,-0.249ZM0.418,-0.245C0.418,-0.275 0.415,-0.302 0.408,-0.324C0.401,-0.347 0.392,-0.366 0.379,-0.381C0.367,-0.396 0.352,-0.408 0.334,-0.415C0.316,-0.423 0.297,-0.427 0.275,-0.427C0.25,-0.427 0.228,-0.422 0.209,-0.412C0.192,-0.402 0.177,-0.389 0.165,-0.372C0.154,-0.355 0.145,-0.336 0.14,-0.314C0.134,-0.292 0.132,-0.269 0.132,-0.245C0.132,-0.215 0.135,-0.188 0.142,-0.166C0.148,-0.143 0.158,-0.124 0.17,-0.108C0.183,-0.093 0.198,-0.082 0.215,-0.074C0.233,-0.067 0.253,-0.063 0.275,-0.063C0.3,-0.063 0.322,-0.068 0.34,-0.078C0.358,-0.088 0.373,-0.101 0.384,-0.118C0.396,-0.134 0.404,-0.153 0.41,-0.175C0.415,-0.197 0.418,-0.221 0.418,-0.245Z" style="fill-rule:nonzero;"/>
                </g>
                <g transform="matrix(10.5,0,0,10.5,11.5459,0)">
                    <path d="M0.472,-0L0.396,-0L0.393,-0.079C0.378,-0.062 0.364,-0.048 0.351,-0.037C0.338,-0.026 0.325,-0.017 0.312,-0.01C0.299,-0.003 0.286,0.002 0.272,0.004C0.259,0.007 0.246,0.009 0.231,0.009C0.181,0.009 0.142,-0.006 0.117,-0.036C0.091,-0.065 0.078,-0.11 0.078,-0.17L0.078,-0.49L0.163,-0.49L0.163,-0.177C0.163,-0.102 0.191,-0.064 0.248,-0.064C0.258,-0.064 0.269,-0.065 0.278,-0.068C0.288,-0.072 0.299,-0.077 0.31,-0.084C0.321,-0.092 0.332,-0.103 0.345,-0.116C0.357,-0.129 0.372,-0.145 0.387,-0.165L0.387,-0.49L0.472,-0.49L0.472,-0Z" style="fill-rule:nonzero;"/>
                </g>
                <g transform="matrix(10.5,0,0,10.5,17.3188,0)">
                    <path d="M0.078,-0.49L0.154,-0.49L0.157,-0.411C0.172,-0.428 0.185,-0.442 0.199,-0.453C0.212,-0.465 0.225,-0.474 0.238,-0.48C0.251,-0.487 0.264,-0.492 0.277,-0.495C0.291,-0.498 0.305,-0.499 0.319,-0.499C0.369,-0.499 0.407,-0.484 0.433,-0.454C0.459,-0.424 0.472,-0.38 0.472,-0.32L0.472,-0L0.387,-0L0.387,-0.313C0.387,-0.351 0.38,-0.38 0.366,-0.398C0.351,-0.417 0.33,-0.426 0.302,-0.426C0.291,-0.426 0.281,-0.424 0.271,-0.421C0.261,-0.418 0.251,-0.413 0.24,-0.405C0.229,-0.397 0.218,-0.387 0.205,-0.374C0.193,-0.361 0.179,-0.345 0.163,-0.325L0.163,-0L0.078,-0L0.078,-0.49Z" style="fill-rule:nonzero;"/>
                </g>
                <g transform="matrix(10.5,0,0,10.5,23.0918,0)">
                    <path d="M0.053,-0.235C0.053,-0.277 0.059,-0.313 0.07,-0.346C0.082,-0.378 0.098,-0.406 0.119,-0.428C0.14,-0.45 0.165,-0.467 0.194,-0.479C0.224,-0.49 0.257,-0.496 0.293,-0.496C0.309,-0.496 0.324,-0.495 0.339,-0.493C0.354,-0.491 0.369,-0.488 0.384,-0.484L0.384,-0.69L0.469,-0.69L0.469,-0L0.393,-0L0.39,-0.093C0.366,-0.058 0.341,-0.033 0.313,-0.016C0.285,0 0.255,0.009 0.223,0.009C0.195,0.009 0.17,0.003 0.149,-0.009C0.128,-0.021 0.11,-0.037 0.096,-0.058C0.082,-0.08 0.071,-0.105 0.064,-0.135C0.057,-0.165 0.053,-0.198 0.053,-0.235ZM0.14,-0.24C0.14,-0.181 0.149,-0.137 0.166,-0.107C0.184,-0.078 0.208,-0.064 0.24,-0.064C0.262,-0.064 0.284,-0.074 0.308,-0.093C0.332,-0.112 0.357,-0.14 0.384,-0.178L0.384,-0.406C0.37,-0.412 0.354,-0.417 0.337,-0.42C0.32,-0.424 0.304,-0.426 0.287,-0.426C0.241,-0.426 0.205,-0.411 0.179,-0.381C0.153,-0.351 0.14,-0.304 0.14,-0.24Z" style="fill-rule:nonzero;"/>
                </g>
                <g transform="matrix(10.5,0,0,10.5,34.6377,0)">
                    <path d="M0.473,-0.007C0.454,-0.002 0.434,0.001 0.414,0.003C0.393,0.006 0.372,0.007 0.351,0.007C0.29,0.007 0.244,-0.007 0.213,-0.035C0.183,-0.063 0.168,-0.105 0.168,-0.163L0.168,-0.419L0.031,-0.419L0.031,-0.49L0.168,-0.49L0.168,-0.625L0.253,-0.647L0.253,-0.49L0.473,-0.49L0.473,-0.419L0.253,-0.419L0.253,-0.17C0.253,-0.135 0.262,-0.108 0.281,-0.091C0.3,-0.074 0.327,-0.065 0.364,-0.065C0.379,-0.065 0.396,-0.066 0.415,-0.068C0.434,-0.071 0.453,-0.075 0.473,-0.08L0.473,-0.007Z" style="fill-rule:nonzero;"/>
                </g>
                <g transform="matrix(10.5,0,0,10.5,40.4106,0)">
                    <path d="M0.472,-0L0.387,-0L0.387,-0.313C0.387,-0.351 0.38,-0.379 0.366,-0.397C0.352,-0.416 0.332,-0.426 0.305,-0.426C0.294,-0.426 0.283,-0.424 0.273,-0.421C0.263,-0.418 0.253,-0.413 0.242,-0.405C0.231,-0.397 0.22,-0.387 0.207,-0.374C0.194,-0.361 0.18,-0.345 0.163,-0.325L0.163,-0L0.078,-0L0.078,-0.69L0.163,-0.69L0.163,-0.49L0.16,-0.413C0.174,-0.429 0.187,-0.442 0.199,-0.453C0.212,-0.464 0.225,-0.473 0.238,-0.48C0.251,-0.487 0.264,-0.492 0.277,-0.495C0.291,-0.498 0.305,-0.499 0.319,-0.499C0.368,-0.499 0.405,-0.484 0.432,-0.454C0.459,-0.424 0.472,-0.38 0.472,-0.32L0.472,-0Z" style="fill-rule:nonzero;"/>
                </g>
                <g transform="matrix(10.5,0,0,10.5,46.1836,0)">
                    <path d="M0.492,-0.271C0.492,-0.259 0.492,-0.249 0.492,-0.241C0.491,-0.233 0.491,-0.225 0.49,-0.218L0.146,-0.218C0.146,-0.168 0.16,-0.129 0.188,-0.102C0.216,-0.075 0.256,-0.062 0.309,-0.062C0.323,-0.062 0.338,-0.063 0.352,-0.063C0.366,-0.065 0.38,-0.066 0.394,-0.068C0.407,-0.07 0.42,-0.072 0.432,-0.075C0.444,-0.077 0.455,-0.08 0.466,-0.083L0.466,-0.013C0.443,-0.007 0.417,-0.001 0.387,0.002C0.358,0.007 0.328,0.009 0.297,0.009C0.255,0.009 0.219,0.003 0.188,-0.008C0.158,-0.02 0.133,-0.036 0.114,-0.058C0.095,-0.079 0.08,-0.106 0.071,-0.137C0.062,-0.169 0.057,-0.204 0.057,-0.244C0.057,-0.279 0.062,-0.311 0.072,-0.342C0.082,-0.373 0.096,-0.4 0.115,-0.423C0.134,-0.446 0.158,-0.465 0.186,-0.479C0.213,-0.492 0.245,-0.499 0.28,-0.499C0.314,-0.499 0.344,-0.494 0.371,-0.483C0.397,-0.472 0.419,-0.457 0.437,-0.437C0.455,-0.417 0.469,-0.394 0.478,-0.365C0.487,-0.337 0.492,-0.306 0.492,-0.271ZM0.404,-0.283C0.405,-0.305 0.403,-0.325 0.397,-0.343C0.392,-0.361 0.384,-0.377 0.373,-0.39C0.362,-0.403 0.349,-0.413 0.333,-0.42C0.316,-0.427 0.297,-0.431 0.276,-0.431C0.257,-0.431 0.24,-0.428 0.225,-0.42C0.21,-0.413 0.197,-0.403 0.186,-0.39C0.174,-0.377 0.166,-0.361 0.159,-0.343C0.152,-0.325 0.148,-0.305 0.146,-0.283L0.404,-0.283Z" style="fill-rule:nonzero;"/>
                </g>
                <g transform="matrix(10.5,0,0,10.5,57.7295,0)">
                    <path d="M0.497,-0.254C0.497,-0.21 0.491,-0.172 0.479,-0.14C0.466,-0.107 0.45,-0.08 0.428,-0.059C0.407,-0.037 0.381,-0.021 0.352,-0.01C0.323,0 0.291,0.006 0.257,0.006C0.241,0.006 0.226,0.005 0.21,0.003C0.195,0.002 0.179,-0.001 0.163,-0.005L0.163,0.2L0.078,0.2L0.078,-0.49L0.154,-0.49L0.159,-0.408C0.184,-0.442 0.21,-0.465 0.237,-0.479C0.265,-0.492 0.295,-0.499 0.327,-0.499C0.355,-0.499 0.38,-0.493 0.401,-0.481C0.422,-0.47 0.44,-0.453 0.454,-0.432C0.468,-0.41 0.479,-0.385 0.486,-0.354C0.493,-0.325 0.497,-0.291 0.497,-0.254ZM0.41,-0.25C0.41,-0.276 0.408,-0.299 0.404,-0.321C0.401,-0.342 0.395,-0.361 0.387,-0.376C0.379,-0.391 0.368,-0.403 0.355,-0.412C0.343,-0.42 0.328,-0.425 0.31,-0.425C0.299,-0.425 0.288,-0.423 0.277,-0.419C0.266,-0.416 0.255,-0.41 0.243,-0.402C0.231,-0.395 0.218,-0.384 0.205,-0.371C0.192,-0.358 0.178,-0.341 0.163,-0.322L0.163,-0.084C0.179,-0.077 0.195,-0.072 0.212,-0.068C0.23,-0.065 0.247,-0.063 0.263,-0.063C0.309,-0.063 0.345,-0.078 0.371,-0.109C0.397,-0.141 0.41,-0.188 0.41,-0.25Z" style="fill-rule:nonzero;"/>
                </g>
                <g transform="matrix(10.5,0,0,10.5,63.5024,0)">
                    <path d="M0.393,-0L0.391,-0.066C0.364,-0.04 0.337,-0.021 0.31,-0.009C0.282,0.003 0.253,0.009 0.223,0.009C0.195,0.009 0.171,0.005 0.151,-0.002C0.132,-0.009 0.115,-0.019 0.102,-0.031C0.089,-0.044 0.08,-0.059 0.074,-0.076C0.068,-0.093 0.065,-0.111 0.065,-0.131C0.065,-0.18 0.083,-0.218 0.12,-0.246C0.156,-0.274 0.211,-0.288 0.282,-0.288L0.384,-0.288L0.384,-0.331C0.384,-0.36 0.375,-0.383 0.356,-0.4C0.337,-0.418 0.309,-0.427 0.271,-0.427C0.243,-0.427 0.216,-0.424 0.189,-0.417C0.162,-0.411 0.135,-0.403 0.106,-0.391L0.106,-0.468C0.117,-0.472 0.129,-0.475 0.142,-0.479C0.155,-0.483 0.169,-0.486 0.184,-0.489C0.198,-0.492 0.214,-0.494 0.229,-0.496C0.245,-0.498 0.262,-0.499 0.278,-0.499C0.307,-0.499 0.334,-0.496 0.358,-0.489C0.382,-0.483 0.402,-0.473 0.418,-0.459C0.435,-0.446 0.447,-0.429 0.456,-0.409C0.465,-0.389 0.469,-0.365 0.469,-0.338L0.469,-0L0.393,-0ZM0.384,-0.223L0.276,-0.223C0.255,-0.223 0.236,-0.221 0.221,-0.217C0.206,-0.213 0.193,-0.207 0.184,-0.199C0.174,-0.191 0.167,-0.181 0.162,-0.17C0.157,-0.16 0.155,-0.147 0.155,-0.134C0.155,-0.124 0.156,-0.115 0.159,-0.106C0.162,-0.098 0.167,-0.09 0.173,-0.083C0.18,-0.077 0.188,-0.072 0.199,-0.068C0.209,-0.064 0.222,-0.062 0.237,-0.062C0.256,-0.062 0.279,-0.068 0.304,-0.08C0.329,-0.092 0.356,-0.111 0.384,-0.136L0.384,-0.223Z" style="fill-rule:nonzero;"/>
                </g>
                <g transform="matrix(10.5,0,0,10.5,69.2754,0)">
                    <path d="M0.098,-0.49L0.176,-0.49L0.178,-0.4C0.207,-0.435 0.236,-0.46 0.264,-0.476C0.292,-0.491 0.32,-0.499 0.349,-0.499C0.4,-0.499 0.438,-0.483 0.464,-0.45C0.491,-0.417 0.503,-0.368 0.501,-0.303L0.415,-0.303C0.416,-0.346 0.41,-0.377 0.396,-0.396C0.383,-0.416 0.363,-0.426 0.337,-0.426C0.326,-0.426 0.314,-0.424 0.302,-0.419C0.291,-0.416 0.279,-0.409 0.267,-0.4C0.255,-0.391 0.242,-0.38 0.228,-0.366C0.214,-0.352 0.2,-0.335 0.184,-0.315L0.184,-0L0.098,-0L0.098,-0.49Z" style="fill-rule:nonzero;"/>
                </g>
                <g transform="matrix(10.5,0,0,10.5,75.0483,0)">
                    <path d="M0.393,-0L0.391,-0.066C0.364,-0.04 0.337,-0.021 0.31,-0.009C0.282,0.003 0.253,0.009 0.223,0.009C0.195,0.009 0.171,0.005 0.151,-0.002C0.132,-0.009 0.115,-0.019 0.102,-0.031C0.089,-0.044 0.08,-0.059 0.074,-0.076C0.068,-0.093 0.065,-0.111 0.065,-0.131C0.065,-0.18 0.083,-0.218 0.12,-0.246C0.156,-0.274 0.211,-0.288 0.282,-0.288L0.384,-0.288L0.384,-0.331C0.384,-0.36 0.375,-0.383 0.356,-0.4C0.337,-0.418 0.309,-0.427 0.271,-0.427C0.243,-0.427 0.216,-0.424 0.189,-0.417C0.162,-0.411 0.135,-0.403 0.106,-0.391L0.106,-0.468C0.117,-0.472 0.129,-0.475 0.142,-0.479C0.155,-0.483 0.169,-0.486 0.184,-0.489C0.198,-0.492 0.214,-0.494 0.229,-0.496C0.245,-0.498 0.262,-0.499 0.278,-0.499C0.307,-0.499 0.334,-0.496 0.358,-0.489C0.382,-0.483 0.402,-0.473 0.418,-0.459C0.435,-0.446 0.447,-0.429 0.456,-0.409C0.465,-0.389 0.469,-0.365 0.469,-0.338L0.469,-0L0.393,-0ZM0.384,-0.223L0.276,-0.223C0.255,-0.223 0.236,-0.221 0.221,-0.217C0.206,-0.213 0.193,-0.207 0.184,-0.199C0.174,-0.191 0.167,-0.181 0.162,-0.17C0.157,-0.16 0.155,-0.147 0.155,-0.134C0.155,-0.124 0.156,-0.115 0.159,-0.106C0.162,-0.098 0.167,-0.09 0.173,-0.083C0.18,-0.077 0.188,-0.072 0.199,-0.068C0.209,-0.064 0.222,-0.062 0.237,-0.062C0.256,-0.062 0.279,-0.068 0.304,-0.08C0.329,-0.092 0.356,-0.111 0.384,-0.136L0.384,-0.223Z" style="fill-rule:nonzero;"/>
                </g>
                <g transform="matrix(10.5,0,0,10.5,80.8213,0)">
                    <path d="M0.428,-0L0.428,-0.352C0.428,-0.367 0.427,-0.38 0.426,-0.39C0.425,-0.399 0.423,-0.407 0.42,-0.413C0.418,-0.418 0.415,-0.423 0.411,-0.425C0.408,-0.427 0.403,-0.428 0.397,-0.428C0.391,-0.428 0.385,-0.426 0.379,-0.422C0.374,-0.418 0.368,-0.412 0.361,-0.403C0.355,-0.395 0.348,-0.383 0.34,-0.368C0.333,-0.354 0.324,-0.336 0.313,-0.315L0.313,-0L0.236,-0L0.236,-0.343C0.236,-0.361 0.235,-0.375 0.234,-0.386C0.233,-0.397 0.231,-0.406 0.229,-0.412C0.226,-0.418 0.223,-0.423 0.219,-0.425C0.215,-0.427 0.211,-0.428 0.205,-0.428C0.199,-0.428 0.194,-0.427 0.188,-0.423C0.183,-0.42 0.177,-0.414 0.171,-0.406C0.165,-0.397 0.158,-0.386 0.15,-0.371C0.142,-0.356 0.133,-0.338 0.122,-0.315L0.122,-0L0.044,-0L0.044,-0.49L0.109,-0.49L0.113,-0.397C0.121,-0.416 0.129,-0.431 0.137,-0.444C0.145,-0.457 0.154,-0.468 0.162,-0.476C0.171,-0.484 0.18,-0.49 0.189,-0.493C0.199,-0.497 0.209,-0.499 0.221,-0.499C0.248,-0.499 0.268,-0.49 0.281,-0.473C0.295,-0.456 0.302,-0.429 0.302,-0.393C0.31,-0.41 0.317,-0.425 0.325,-0.438C0.332,-0.451 0.34,-0.462 0.349,-0.471C0.357,-0.48 0.367,-0.487 0.377,-0.492C0.388,-0.497 0.4,-0.499 0.414,-0.499C0.475,-0.499 0.506,-0.452 0.506,-0.357L0.506,-0L0.428,-0Z" style="fill-rule:nonzero;"/>
                </g>
                <g transform="matrix(10.5,0,0,10.5,86.5942,0)">
                    <path d="M0.492,-0.271C0.492,-0.259 0.492,-0.249 0.492,-0.241C0.491,-0.233 0.491,-0.225 0.49,-0.218L0.146,-0.218C0.146,-0.168 0.16,-0.129 0.188,-0.102C0.216,-0.075 0.256,-0.062 0.309,-0.062C0.323,-0.062 0.338,-0.063 0.352,-0.063C0.366,-0.065 0.38,-0.066 0.394,-0.068C0.407,-0.07 0.42,-0.072 0.432,-0.075C0.444,-0.077 0.455,-0.08 0.466,-0.083L0.466,-0.013C0.443,-0.007 0.417,-0.001 0.387,0.002C0.358,0.007 0.328,0.009 0.297,0.009C0.255,0.009 0.219,0.003 0.188,-0.008C0.158,-0.02 0.133,-0.036 0.114,-0.058C0.095,-0.079 0.08,-0.106 0.071,-0.137C0.062,-0.169 0.057,-0.204 0.057,-0.244C0.057,-0.279 0.062,-0.311 0.072,-0.342C0.082,-0.373 0.096,-0.4 0.115,-0.423C0.134,-0.446 0.158,-0.465 0.186,-0.479C0.213,-0.492 0.245,-0.499 0.28,-0.499C0.314,-0.499 0.344,-0.494 0.371,-0.483C0.397,-0.472 0.419,-0.457 0.437,-0.437C0.455,-0.417 0.469,-0.394 0.478,-0.365C0.487,-0.337 0.492,-0.306 0.492,-0.271ZM0.404,-0.283C0.405,-0.305 0.403,-0.325 0.397,-0.343C0.392,-0.361 0.384,-0.377 0.373,-0.39C0.362,-0.403 0.349,-0.413 0.333,-0.42C0.316,-0.427 0.297,-0.431 0.276,-0.431C0.257,-0.431 0.24,-0.428 0.225,-0.42C0.21,-0.413 0.197,-0.403 0.186,-0.39C0.174,-0.377 0.166,-0.361 0.159,-0.343C0.152,-0.325 0.148,-0.305 0.146,-0.283L0.404,-0.283Z" style="fill-rule:nonzero;"/>
                </g>
                <g transform="matrix(10.5,0,0,10.5,92.3672,0)">
                    <path d="M0.473,-0.007C0.454,-0.002 0.434,0.001 0.414,0.003C0.393,0.006 0.372,0.007 0.351,0.007C0.29,0.007 0.244,-0.007 0.213,-0.035C0.183,-0.063 0.168,-0.105 0.168,-0.163L0.168,-0.419L0.031,-0.419L0.031,-0.49L0.168,-0.49L0.168,-0.625L0.253,-0.647L0.253,-0.49L0.473,-0.49L0.473,-0.419L0.253,-0.419L0.253,-0.17C0.253,-0.135 0.262,-0.108 0.281,-0.091C0.3,-0.074 0.327,-0.065 0.364,-0.065C0.379,-0.065 0.396,-0.066 0.415,-0.068C0.434,-0.071 0.453,-0.075 0.473,-0.08L0.473,-0.007Z" style="fill-rule:nonzero;"/>
                </g>
                <g transform="matrix(10.5,0,0,10.5,98.1401,0)">
                    <path d="M0.492,-0.271C0.492,-0.259 0.492,-0.249 0.492,-0.241C0.491,-0.233 0.491,-0.225 0.49,-0.218L0.146,-0.218C0.146,-0.168 0.16,-0.129 0.188,-0.102C0.216,-0.075 0.256,-0.062 0.309,-0.062C0.323,-0.062 0.338,-0.063 0.352,-0.063C0.366,-0.065 0.38,-0.066 0.394,-0.068C0.407,-0.07 0.42,-0.072 0.432,-0.075C0.444,-0.077 0.455,-0.08 0.466,-0.083L0.466,-0.013C0.443,-0.007 0.417,-0.001 0.387,0.002C0.358,0.007 0.328,0.009 0.297,0.009C0.255,0.009 0.219,0.003 0.188,-0.008C0.158,-0.02 0.133,-0.036 0.114,-0.058C0.095,-0.079 0.08,-0.106 0.071,-0.137C0.062,-0.169 0.057,-0.204 0.057,-0.244C0.057,-0.279 0.062,-0.311 0.072,-0.342C0.082,-0.373 0.096,-0.4 0.115,-0.423C0.134,-0.446 0.158,-0.465 0.186,-0.479C0.213,-0.492 0.245,-0.499 0.28,-0.499C0.314,-0.499 0.344,-0.494 0.371,-0.483C0.397,-0.472 0.419,-0.457 0.437,-0.437C0.455,-0.417 0.469,-0.394 0.478,-0.365C0.487,-0.337 0.492,-0.306 0.492,-0.271ZM0.404,-0.283C0.405,-0.305 0.403,-0.325 0.397,-0.343C0.392,-0.361 0.384,-0.377 0.373,-0.39C0.362,-0.403 0.349,-0.413 0.333,-0.42C0.316,-0.427 0.297,-0.431 0.276,-0.431C0.257,-0.431 0.24,-0.428 0.225,-0.42C0.21,-0.413 0.197,-0.403 0.186,-0.39C0.174,-0.377 0.166,-0.361 0.159,-0.343C0.152,-0.325 0.148,-0.305 0.146,-0.283L0.404,-0.283Z" style="fill-rule:nonzero;"/>
                </g>
                <g transform="matrix(10.5,0,0,10.5,103.913,0)">
                    <path d="M0.098,-0.49L0.176,-0.49L0.178,-0.4C0.207,-0.435 0.236,-0.46 0.264,-0.476C0.292,-0.491 0.32,-0.499 0.349,-0.499C0.4,-0.499 0.438,-0.483 0.464,-0.45C0.491,-0.417 0.503,-0.368 0.501,-0.303L0.415,-0.303C0.416,-0.346 0.41,-0.377 0.396,-0.396C0.383,-0.416 0.363,-0.426 0.337,-0.426C0.326,-0.426 0.314,-0.424 0.302,-0.419C0.291,-0.416 0.279,-0.409 0.267,-0.4C0.255,-0.391 0.242,-0.38 0.228,-0.366C0.214,-0.352 0.2,-0.335 0.184,-0.315L0.184,-0L0.098,-0L0.098,-0.49Z" style="fill-rule:nonzero;"/>
                </g>
            </g>
            <g transform="matrix(1,0,0,1,424.375,264.914)">
                <g transform="matrix(10.5,0,0,10.5,0,0)">
                    <path d="M0.078,-0.49L0.154,-0.49L0.157,-0.411C0.172,-0.428 0.185,-0.442 0.199,-0.453C0.212,-0.465 0.225,-0.474 0.238,-0.48C0.251,-0.487 0.264,-0.492 0.277,-0.495C0.291,-0.498 0.305,-0.499 0.319,-0.499C0.369,-0.499 0.407,-0.484 0.433,-0.454C0.459,-0.424 0.472,-0.38 0.472,-0.32L0.472,-0L0.387,-0L0.387,-0.313C0.387,-0.351 0.38,-0.38 0.366,-0.398C0.351,-0.417 0.33,-0.426 0.302,-0.426C0.291,-0.426 0.281,-0.424 0.271,-0.421C0.261,-0.418 0.251,-0.413 0.24,-0.405C0.229,-0.397 0.218,-0.387 0.205,-0.374C0.193,-0.361 0.179,-0.345 0.163,-0.325L0.163,-0L0.078,-0L0.078,-0.49Z" style="fill-rule:nonzero;"/>
                </g>
                <g transform="matrix(10.5,0,0,10.5,5.77295,0)">
                    <path d="M0.472,-0L0.396,-0L0.393,-0.079C0.378,-0.062 0.364,-0.048 0.351,-0.037C0.338,-0.026 0.325,-0.017 0.312,-0.01C0.299,-0.003 0.286,0.002 0.272,0.004C0.259,0.007 0.246,0.009 0.231,0.009C0.181,0.009 0.142,-0.006 0.117,-0.036C0.091,-0.065 0.078,-0.11 0.078,-0.17L0.078,-0.49L0.163,-0.49L0.163,-0.177C0.163,-0.102 0.191,-0.064 0.248,-0.064C0.258,-0.064 0.269,-0.065 0.278,-0.068C0.288,-0.072 0.299,-0.077 0.31,-0.084C0.321,-0.092 0.332,-0.103 0.345,-0.116C0.357,-0.129 0.372,-0.145 0.387,-0.165L0.387,-0.49L0.472,-0.49L0.472,-0Z" style="fill-rule:nonzero;"/>
                </g>
                <g transform="matrix(10.5,0,0,10.5,11.5459,0)">
                    <path d="M0.428,-0L0.428,-0.352C0.428,-0.367 0.427,-0.38 0.426,-0.39C0.425,-0.399 0.423,-0.407 0.42,-0.413C0.418,-0.418 0.415,-0.423 0.411,-0.425C0.408,-0.427 0.403,-0.428 0.397,-0.428C0.391,-0.428 0.385,-0.426 0.379,-0.422C0.374,-0.418 0.368,-0.412 0.361,-0.403C0.355,-0.395 0.348,-0.383 0.34,-0.368C0.333,-0.354 0.324,-0.336 0.313,-0.315L0.313,-0L0.236,-0L0.236,-0.343C0.236,-0.361 0.235,-0.375 0.234,-0.386C0.233,-0.397 0.231,-0.406 0.229,-0.412C0.226,-0.418 0.223,-0.423 0.219,-0.425C0.215,-0.427 0.211,-0.428 0.205,-0.428C0.199,-0.428 0.194,-0.427 0.188,-0.423C0.183,-0.42 0.177,-0.414 0.171,-0.406C0.165,-0.397 0.158,-0.386 0.15,-0.371C0.142,-0.356 0.133,-0.338 0.122,-0.315L0.122,-0L0.044,-0L0.044,-0.49L0.109,-0.49L0.113,-0.397C0.121,-0.416 0.129,-0.431 0.137,-0.444C0.145,-0.457 0.154,-0.468 0.162,-0.476C0.171,-0.484 0.18,-0.49 0.189,-0.493C0.199,-0.497 0.209,-0.499 0.221,-0.499C0.248,-0.499 0.268,-0.49 0.281,-0.473C0.295,-0.456 0.302,-0.429 0.302,-0.393C0.31,-0.41 0.317,-0.425 0.325,-0.438C0.332,-0.451 0.34,-0.462 0.349,-0.471C0.357,-0.48 0.367,-0.487 0.377,-0.492C0.388,-0.497 0.4,-0.499 0.414,-0.499C0.475,-0.499 0.506,-0.452 0.506,-0.357L0.506,-0L0.428,-0Z" style="fill-rule:nonzero;"/>
                </g>
                <g transform="matrix(10.5,0,0,10.5,17.3188,0)">
                    <path d="M0.497,-0.254C0.497,-0.213 0.491,-0.177 0.48,-0.145C0.469,-0.113 0.453,-0.085 0.432,-0.063C0.412,-0.041 0.387,-0.024 0.357,-0.012C0.327,0 0.294,0.006 0.257,0.006C0.228,0.006 0.198,0.003 0.168,-0.002C0.138,-0.008 0.108,-0.017 0.078,-0.029L0.078,-0.69L0.163,-0.69L0.163,-0.5L0.159,-0.409C0.184,-0.442 0.21,-0.465 0.237,-0.479C0.265,-0.492 0.295,-0.499 0.327,-0.499C0.355,-0.499 0.38,-0.493 0.401,-0.481C0.422,-0.47 0.44,-0.453 0.454,-0.432C0.468,-0.41 0.479,-0.385 0.486,-0.354C0.493,-0.325 0.497,-0.291 0.497,-0.254ZM0.41,-0.25C0.41,-0.276 0.408,-0.299 0.404,-0.321C0.401,-0.342 0.395,-0.361 0.387,-0.376C0.379,-0.391 0.368,-0.403 0.355,-0.412C0.343,-0.42 0.328,-0.425 0.31,-0.425C0.299,-0.425 0.288,-0.423 0.277,-0.419C0.266,-0.416 0.255,-0.41 0.243,-0.402C0.231,-0.395 0.218,-0.384 0.205,-0.371C0.192,-0.358 0.178,-0.341 0.163,-0.322L0.163,-0.084C0.18,-0.077 0.197,-0.072 0.214,-0.068C0.231,-0.065 0.248,-0.063 0.263,-0.063C0.283,-0.063 0.301,-0.066 0.319,-0.072C0.337,-0.078 0.352,-0.089 0.366,-0.103C0.379,-0.118 0.39,-0.137 0.398,-0.161C0.406,-0.185 0.41,-0.215 0.41,-0.25Z" style="fill-rule:nonzero;"/>
                </g>
                <g transform="matrix(10.5,0,0,10.5,23.0918,0)">
                    <path d="M0.492,-0.271C0.492,-0.259 0.492,-0.249 0.492,-0.241C0.491,-0.233 0.491,-0.225 0.49,-0.218L0.146,-0.218C0.146,-0.168 0.16,-0.129 0.188,-0.102C0.216,-0.075 0.256,-0.062 0.309,-0.062C0.323,-0.062 0.338,-0.063 0.352,-0.063C0.366,-0.065 0.38,-0.066 0.394,-0.068C0.407,-0.07 0.42,-0.072 0.432,-0.075C0.444,-0.077 0.455,-0.08 0.466,-0.083L0.466,-0.013C0.443,-0.007 0.417,-0.001 0.387,0.002C0.358,0.007 0.328,0.009 0.297,0.009C0.255,0.009 0.219,0.003 0.188,-0.008C0.158,-0.02 0.133,-0.036 0.114,-0.058C0.095,-0.079 0.08,-0.106 0.071,-0.137C0.062,-0.169 0.057,-0.204 0.057,-0.244C0.057,-0.279 0.062,-0.311 0.072,-0.342C0.082,-0.373 0.096,-0.4 0.115,-0.423C0.134,-0.446 0.158,-0.465 0.186,-0.479C0.213,-0.492 0.245,-0.499 0.28,-0.499C0.314,-0.499 0.344,-0.494 0.371,-0.483C0.397,-0.472 0.419,-0.457 0.437,-0.437C0.455,-0.417 0.469,-0.394 0.478,-0.365C0.487,-0.337 0.492,-0.306 0.492,-0.271ZM0.404,-0.283C0.405,-0.305 0.403,-0.325 0.397,-0.343C0.392,-0.361 0.384,-0.377 0.373,-0.39C0.362,-0.403 0.349,-0.413 0.333,-0.42C0.316,-0.427 0.297,-0.431 0.276,-0.431C0.257,-0.431 0.24,-0.428 0.225,-0.42C0.21,-0.413 0.197,-0.403 0.186,-0.39C0.174,-0.377 0.166,-0.361 0.159,-0.343C0.152,-0.325 0.148,-0.305 0.146,-0.283L0.404,-0.283Z" style="fill-rule:nonzero;"/>
                </g>
                <g transform="matrix(10.5,0,0,10.5,28.8647,0)">
                    <path d="M0.098,-0.49L0.176,-0.49L0.178,-0.4C0.207,-0.435 0.236,-0.46 0.264,-0.476C0.292,-0.491 0.32,-0.499 0.349,-0.499C0.4,-0.499 0.438,-0.483 0.464,-0.45C0.491,-0.417 0.503,-0.368 0.501,-0.303L0.415,-0.303C0.416,-0.346 0.41,-0.377 0.396,-0.396C0.383,-0.416 0.363,-0.426 0.337,-0.426C0.326,-0.426 0.314,-0.424 0.302,-0.419C0.291,-0.416 0.279,-0.409 0.267,-0.4C0.255,-0.391 0.242,-0.38 0.228,-0.366C0.214,-0.352 0.2,-0.335 0.184,-0.315L0.184,-0L0.098,-0L0.098,-0.49Z" style="fill-rule:nonzero;"/>
                </g>
            </g>
        </g>
        <g transform="matrix(1,0,0,1,334.978,283.314)">
            <g transform="matrix(10.5,0,0,10.5,0,0)">
                <path d="M0.473,-0.007C0.454,-0.002 0.434,0.001 0.414,0.003C0.393,0.006 0.372,0.007 0.351,0.007C0.29,0.007 0.244,-0.007 0.213,-0.035C0.183,-0.063 0.168,-0.105 0.168,-0.163L0.168,-0.419L0.031,-0.419L0.031,-0.49L0.168,-0.49L0.168,-0.625L0.253,-0.647L0.253,-0.49L0.473,-0.49L0.473,-0.419L0.253,-0.419L0.253,-0.17C0.253,-0.135 0.262,-0.108 0.281,-0.091C0.3,-0.074 0.327,-0.065 0.364,-0.065C0.379,-0.065 0.396,-0.066 0.415,-0.068C0.434,-0.071 0.453,-0.075 0.473,-0.08L0.473,-0.007Z" style="fill-rule:nonzero;"/>
            </g>
            <g transform="matrix(10.5,0,0,10.5,5.77295,0)">
                <path d="M0.505,-0.249C0.505,-0.211 0.5,-0.176 0.489,-0.144C0.478,-0.112 0.463,-0.085 0.442,-0.063C0.422,-0.04 0.398,-0.022 0.369,-0.01C0.34,0.003 0.307,0.009 0.27,0.009C0.235,0.009 0.203,0.003 0.175,-0.007C0.148,-0.018 0.124,-0.035 0.104,-0.056C0.085,-0.077 0.07,-0.103 0.06,-0.134C0.05,-0.166 0.045,-0.201 0.045,-0.242C0.045,-0.28 0.05,-0.315 0.061,-0.346C0.072,-0.378 0.087,-0.405 0.107,-0.427C0.128,-0.45 0.152,-0.468 0.181,-0.48C0.21,-0.493 0.243,-0.499 0.28,-0.499C0.315,-0.499 0.346,-0.493 0.374,-0.482C0.402,-0.472 0.426,-0.456 0.445,-0.435C0.464,-0.414 0.479,-0.388 0.489,-0.356C0.5,-0.325 0.505,-0.289 0.505,-0.249ZM0.418,-0.245C0.418,-0.275 0.415,-0.302 0.408,-0.324C0.401,-0.347 0.392,-0.366 0.379,-0.381C0.367,-0.396 0.352,-0.408 0.334,-0.415C0.316,-0.423 0.297,-0.427 0.275,-0.427C0.25,-0.427 0.228,-0.422 0.209,-0.412C0.192,-0.402 0.177,-0.389 0.165,-0.372C0.154,-0.355 0.145,-0.336 0.14,-0.314C0.134,-0.292 0.132,-0.269 0.132,-0.245C0.132,-0.215 0.135,-0.188 0.142,-0.166C0.148,-0.143 0.158,-0.124 0.17,-0.108C0.183,-0.093 0.198,-0.082 0.215,-0.074C0.233,-0.067 0.253,-0.063 0.275,-0.063C0.3,-0.063 0.322,-0.068 0.34,-0.078C0.358,-0.088 0.373,-0.101 0.384,-0.118C0.396,-0.134 0.404,-0.153 0.41,-0.175C0.415,-0.197 0.418,-0.221 0.418,-0.245Z" style="fill-rule:nonzero;"/>
            </g>
            <g transform="matrix(10.5,0,0,10.5,17.3188,0)">
                <path d="M0.492,-0L0.072,-0L0.072,-0.076L0.237,-0.24C0.264,-0.267 0.286,-0.29 0.303,-0.31C0.32,-0.329 0.333,-0.347 0.342,-0.363C0.352,-0.379 0.358,-0.394 0.361,-0.409C0.365,-0.423 0.366,-0.438 0.366,-0.455C0.366,-0.471 0.364,-0.486 0.36,-0.5C0.356,-0.514 0.349,-0.526 0.34,-0.537C0.332,-0.548 0.32,-0.556 0.306,-0.563C0.292,-0.569 0.275,-0.572 0.256,-0.572C0.229,-0.572 0.204,-0.566 0.182,-0.554C0.16,-0.542 0.14,-0.526 0.121,-0.507L0.074,-0.563C0.098,-0.588 0.126,-0.609 0.157,-0.624C0.189,-0.639 0.225,-0.647 0.267,-0.647C0.295,-0.647 0.321,-0.643 0.344,-0.634C0.368,-0.626 0.388,-0.614 0.405,-0.598C0.422,-0.582 0.435,-0.562 0.444,-0.539C0.453,-0.516 0.458,-0.49 0.458,-0.461C0.458,-0.437 0.455,-0.414 0.448,-0.393C0.442,-0.372 0.432,-0.351 0.418,-0.331C0.405,-0.31 0.389,-0.289 0.369,-0.267C0.349,-0.244 0.325,-0.22 0.298,-0.194L0.182,-0.081L0.492,-0.081L0.492,-0Z" style="fill-rule:nonzero;"/>
            </g>
            <g transform="matrix(10.5,0,0,10.5,28.8647,0)">
                <path d="M0.053,-0.235C0.053,-0.277 0.059,-0.313 0.07,-0.346C0.082,-0.378 0.098,-0.406 0.119,-0.428C0.14,-0.45 0.165,-0.467 0.194,-0.479C0.224,-0.49 0.257,-0.496 0.293,-0.496C0.309,-0.496 0.324,-0.495 0.339,-0.493C0.354,-0.491 0.369,-0.488 0.384,-0.484L0.384,-0.69L0.469,-0.69L0.469,-0L0.393,-0L0.39,-0.093C0.366,-0.058 0.341,-0.033 0.313,-0.016C0.285,0 0.255,0.009 0.223,0.009C0.195,0.009 0.17,0.003 0.149,-0.009C0.128,-0.021 0.11,-0.037 0.096,-0.058C0.082,-0.08 0.071,-0.105 0.064,-0.135C0.057,-0.165 0.053,-0.198 0.053,-0.235ZM0.14,-0.24C0.14,-0.181 0.149,-0.137 0.166,-0.107C0.184,-0.078 0.208,-0.064 0.24,-0.064C0.262,-0.064 0.284,-0.074 0.308,-0.093C0.332,-0.112 0.357,-0.14 0.384,-0.178L0.384,-0.406C0.37,-0.412 0.354,-0.417 0.337,-0.42C0.32,-0.424 0.304,-0.426 0.287,-0.426C0.241,-0.426 0.205,-0.411 0.179,-0.381C0.153,-0.351 0.14,-0.304 0.14,-0.24Z" style="fill-rule:nonzero;"/>
            </g>
            <g transform="matrix(10.5,0,0,10.5,34.6377,0)">
                <path d="M0.492,-0.271C0.492,-0.259 0.492,-0.249 0.492,-0.241C0.491,-0.233 0.491,-0.225 0.49,-0.218L0.146,-0.218C0.146,-0.168 0.16,-0.129 0.188,-0.102C0.216,-0.075 0.256,-0.062 0.309,-0.062C0.323,-0.062 0.338,-0.063 0.352,-0.063C0.366,-0.065 0.38,-0.066 0.394,-0.068C0.407,-0.07 0.42,-0.072 0.432,-0.075C0.444,-0.077 0.455,-0.08 0.466,-0.083L0.466,-0.013C0.443,-0.007 0.417,-0.001 0.387,0.002C0.358,0.007 0.328,0.009 0.297,0.009C0.255,0.009 0.219,0.003 0.188,-0.008C0.158,-0.02 0.133,-0.036 0.114,-0.058C0.095,-0.079 0.08,-0.106 0.071,-0.137C0.062,-0.169 0.057,-0.204 0.057,-0.244C0.057,-0.279 0.062,-0.311 0.072,-0.342C0.082,-0.373 0.096,-0.4 0.115,-0.423C0.134,-0.446 0.158,-0.465 0.186,-0.479C0.213,-0.492 0.245,-0.499 0.28,-0.499C0.314,-0.499 0.344,-0.494 0.371,-0.483C0.397,-0.472 0.419,-0.457 0.437,-0.437C0.455,-0.417 0.469,-0.394 0.478,-0.365C0.487,-0.337 0.492,-0.306 0.492,-0.271ZM0.404,-0.283C0.405,-0.305 0.403,-0.325 0.397,-0.343C0.392,-0.361 0.384,-0.377 0.373,-0.39C0.362,-0.403 0.349,-0.413 0.333,-0.42C0.316,-0.427 0.297,-0.431 0.276,-0.431C0.257,-0.431 0.24,-0.428 0.225,-0.42C0.21,-0.413 0.197,-0.403 0.186,-0.39C0.174,-0.377 0.166,-0.361 0.159,-0.343C0.152,-0.325 0.148,-0.305 0.146,-0.283L0.404,-0.283Z" style="fill-rule:nonzero;"/>
            </g>
            <g transform="matrix(10.5,0,0,10.5,40.4106,0)">
                <path d="M0.459,-0.018C0.437,-0.01 0.414,-0.003 0.391,0C0.368,0.005 0.344,0.007 0.319,0.007C0.241,0.007 0.182,-0.014 0.14,-0.056C0.098,-0.098 0.077,-0.16 0.077,-0.24C0.077,-0.279 0.083,-0.314 0.095,-0.346C0.107,-0.377 0.124,-0.404 0.146,-0.427C0.168,-0.449 0.194,-0.466 0.224,-0.479C0.254,-0.491 0.288,-0.497 0.324,-0.497C0.35,-0.497 0.373,-0.495 0.396,-0.492C0.418,-0.488 0.439,-0.482 0.459,-0.474L0.459,-0.393C0.438,-0.404 0.416,-0.412 0.394,-0.417C0.372,-0.422 0.35,-0.425 0.326,-0.425C0.304,-0.425 0.284,-0.421 0.264,-0.412C0.245,-0.404 0.228,-0.392 0.213,-0.376C0.199,-0.361 0.187,-0.342 0.179,-0.319C0.17,-0.297 0.166,-0.271 0.166,-0.243C0.166,-0.184 0.18,-0.139 0.209,-0.11C0.238,-0.081 0.278,-0.066 0.329,-0.066C0.352,-0.066 0.375,-0.069 0.396,-0.074C0.418,-0.079 0.439,-0.087 0.459,-0.097L0.459,-0.018Z" style="fill-rule:nonzero;"/>
            </g>
            <g transform="matrix(10.5,0,0,10.5,46.1836,0)">
                <path d="M0.245,-0.42L0.1,-0.42L0.1,-0.49L0.331,-0.49L0.331,-0.071L0.477,-0.071L0.477,-0L0.084,-0L0.084,-0.071L0.245,-0.071L0.245,-0.42ZM0.275,-0.696C0.284,-0.696 0.293,-0.694 0.301,-0.69C0.309,-0.687 0.316,-0.682 0.322,-0.676C0.328,-0.67 0.333,-0.663 0.336,-0.655C0.34,-0.647 0.342,-0.638 0.342,-0.629C0.342,-0.62 0.34,-0.611 0.336,-0.603C0.333,-0.595 0.328,-0.588 0.322,-0.582C0.316,-0.575 0.309,-0.57 0.301,-0.567C0.293,-0.564 0.284,-0.562 0.275,-0.562C0.265,-0.562 0.257,-0.564 0.249,-0.567C0.24,-0.57 0.233,-0.575 0.227,-0.582C0.221,-0.588 0.216,-0.595 0.213,-0.603C0.21,-0.611 0.208,-0.62 0.208,-0.629C0.208,-0.638 0.21,-0.647 0.213,-0.655C0.216,-0.663 0.221,-0.67 0.227,-0.676C0.233,-0.682 0.24,-0.687 0.249,-0.69C0.257,-0.694 0.265,-0.696 0.275,-0.696Z" style="fill-rule:nonzero;"/>
            </g>
            <g transform="matrix(10.5,0,0,10.5,51.9565,0)">
                <path d="M0.428,-0L0.428,-0.352C0.428,-0.367 0.427,-0.38 0.426,-0.39C0.425,-0.399 0.423,-0.407 0.42,-0.413C0.418,-0.418 0.415,-0.423 0.411,-0.425C0.408,-0.427 0.403,-0.428 0.397,-0.428C0.391,-0.428 0.385,-0.426 0.379,-0.422C0.374,-0.418 0.368,-0.412 0.361,-0.403C0.355,-0.395 0.348,-0.383 0.34,-0.368C0.333,-0.354 0.324,-0.336 0.313,-0.315L0.313,-0L0.236,-0L0.236,-0.343C0.236,-0.361 0.235,-0.375 0.234,-0.386C0.233,-0.397 0.231,-0.406 0.229,-0.412C0.226,-0.418 0.223,-0.423 0.219,-0.425C0.215,-0.427 0.211,-0.428 0.205,-0.428C0.199,-0.428 0.194,-0.427 0.188,-0.423C0.183,-0.42 0.177,-0.414 0.171,-0.406C0.165,-0.397 0.158,-0.386 0.15,-0.371C0.142,-0.356 0.133,-0.338 0.122,-0.315L0.122,-0L0.044,-0L0.044,-0.49L0.109,-0.49L0.113,-0.397C0.121,-0.416 0.129,-0.431 0.137,-0.444C0.145,-0.457 0.154,-0.468 0.162,-0.476C0.171,-0.484 0.18,-0.49 0.189,-0.493C0.199,-0.497 0.209,-0.499 0.221,-0.499C0.248,-0.499 0.268,-0.49 0.281,-0.473C0.295,-0.456 0.302,-0.429 0.302,-0.393C0.31,-0.41 0.317,-0.425 0.325,-0.438C0.332,-0.451 0.34,-0.462 0.349,-0.471C0.357,-0.48 0.367,-0.487 0.377,-0.492C0.388,-0.497 0.4,-0.499 0.414,-0.499C0.475,-0.499 0.506,-0.452 0.506,-0.357L0.506,-0L0.428,-0Z" style="fill-rule:nonzero;"/>
            </g>
            <g transform="matrix(10.5,0,0,10.5,57.7295,0)">
                <path d="M0.393,-0L0.391,-0.066C0.364,-0.04 0.337,-0.021 0.31,-0.009C0.282,0.003 0.253,0.009 0.223,0.009C0.195,0.009 0.171,0.005 0.151,-0.002C0.132,-0.009 0.115,-0.019 0.102,-0.031C0.089,-0.044 0.08,-0.059 0.074,-0.076C0.068,-0.093 0.065,-0.111 0.065,-0.131C0.065,-0.18 0.083,-0.218 0.12,-0.246C0.156,-0.274 0.211,-0.288 0.282,-0.288L0.384,-0.288L0.384,-0.331C0.384,-0.36 0.375,-0.383 0.356,-0.4C0.337,-0.418 0.309,-0.427 0.271,-0.427C0.243,-0.427 0.216,-0.424 0.189,-0.417C0.162,-0.411 0.135,-0.403 0.106,-0.391L0.106,-0.468C0.117,-0.472 0.129,-0.475 0.142,-0.479C0.155,-0.483 0.169,-0.486 0.184,-0.489C0.198,-0.492 0.214,-0.494 0.229,-0.496C0.245,-0.498 0.262,-0.499 0.278,-0.499C0.307,-0.499 0.334,-0.496 0.358,-0.489C0.382,-0.483 0.402,-0.473 0.418,-0.459C0.435,-0.446 0.447,-0.429 0.456,-0.409C0.465,-0.389 0.469,-0.365 0.469,-0.338L0.469,-0L0.393,-0ZM0.384,-0.223L0.276,-0.223C0.255,-0.223 0.236,-0.221 0.221,-0.217C0.206,-0.213 0.193,-0.207 0.184,-0.199C0.174,-0.191 0.167,-0.181 0.162,-0.17C0.157,-0.16 0.155,-0.147 0.155,-0.134C0.155,-0.124 0.156,-0.115 0.159,-0.106C0.162,-0.098 0.167,-0.09 0.173,-0.083C0.18,-0.077 0.188,-0.072 0.199,-0.068C0.209,-0.064 0.222,-0.062 0.237,-0.062C0.256,-0.062 0.279,-0.068 0.304,-0.08C0.329,-0.092 0.356,-0.111 0.384,-0.136L0.384,-0.223Z" style="fill-rule:nonzero;"/>
            </g>
            <g transform="matrix(10.5,0,0,10.5,63.5024,0)">
                <path d="M0.245,-0.62L0.1,-0.62L0.1,-0.69L0.331,-0.69L0.331,-0.071L0.477,-0.071L0.477,-0L0.084,-0L0.084,-0.071L0.245,-0.071L0.245,-0.62Z" style="fill-rule:nonzero;"/>
            </g>
            <g transform="matrix(10.5,0,0,10.5,75.0483,0)">
                <path d="M0.497,-0.254C0.497,-0.21 0.491,-0.172 0.479,-0.14C0.466,-0.107 0.45,-0.08 0.428,-0.059C0.407,-0.037 0.381,-0.021 0.352,-0.01C0.323,0 0.291,0.006 0.257,0.006C0.241,0.006 0.226,0.005 0.21,0.003C0.195,0.002 0.179,-0.001 0.163,-0.005L0.163,0.2L0.078,0.2L0.078,-0.49L0.154,-0.49L0.159,-0.408C0.184,-0.442 0.21,-0.465 0.237,-0.479C0.265,-0.492 0.295,-0.499 0.327,-0.499C0.355,-0.499 0.38,-0.493 0.401,-0.481C0.422,-0.47 0.44,-0.453 0.454,-0.432C0.468,-0.41 0.479,-0.385 0.486,-0.354C0.493,-0.325 0.497,-0.291 0.497,-0.254ZM0.41,-0.25C0.41,-0.276 0.408,-0.299 0.404,-0.321C0.401,-0.342 0.395,-0.361 0.387,-0.376C0.379,-0.391 0.368,-0.403 0.355,-0.412C0.343,-0.42 0.328,-0.425 0.31,-0.425C0.299,-0.425 0.288,-0.423 0.277,-0.419C0.266,-0.416 0.255,-0.41 0.243,-0.402C0.231,-0.395 0.218,-0.384 0.205,-0.371C0.192,-0.358 0.178,-0.341 0.163,-0.322L0.163,-0.084C0.179,-0.077 0.195,-0.072 0.212,-0.068C0.23,-0.065 0.247,-0.063 0.263,-0.063C0.309,-0.063 0.345,-0.078 0.371,-0.109C0.397,-0.141 0.41,-0.188 0.41,-0.25Z" style="fill-rule:nonzero;"/>
            </g>
            <g transform="matrix(10.5,0,0,10.5,80.8213,0)">
                <path d="M0.245,-0.62L0.1,-0.62L0.1,-0.69L0.331,-0.69L0.331,-0.071L0.477,-0.071L0.477,-0L0.084,-0L0.084,-0.071L0.245,-0.071L0.245,-0.62Z" style="fill-rule:nonzero;"/>
            </g>
            <g transform="matrix(10.5,0,0,10.5,86.5942,0)">
                <path d="M0.393,-0L0.391,-0.066C0.364,-0.04 0.337,-0.021 0.31,-0.009C0.282,0.003 0.253,0.009 0.223,0.009C0.195,0.009 0.171,0.005 0.151,-0.002C0.132,-0.009 0.115,-0.019 0.102,-0.031C0.089,-0.044 0.08,-0.059 0.074,-0.076C0.068,-0.093 0.065,-0.111 0.065,-0.131C0.065,-0.18 0.083,-0.218 0.12,-0.246C0.156,-0.274 0.211,-0.288 0.282,-0.288L0.384,-0.288L0.384,-0.331C0.384,-0.36 0.375,-0.383 0.356,-0.4C0.337,-0.418 0.309,-0.427 0.271,-0.427C0.243,-0.427 0.216,-0.424 0.189,-0.417C0.162,-0.411 0.135,-0.403 0.106,-0.391L0.106,-0.468C0.117,-0.472 0.129,-0.475 0.142,-0.479C0.155,-0.483 0.169,-0.486 0.184,-0.489C0.198,-0.492 0.214,-0.494 0.229,-0.496C0.245,-0.498 0.262,-0.499 0.278,-0.499C0.307,-0.499 0.334,-0.496 0.358,-0.489C0.382,-0.483 0.402,-0.473 0.418,-0.459C0.435,-0.446 0.447,-0.429 0.456,-0.409C0.465,-0.389 0.469,-0.365 0.469,-0.338L0.469,-0L0.393,-0ZM0.384,-0.223L0.276,-0.223C0.255,-0.223 0.236,-0.221 0.221,-0.217C0.206,-0.213 0.193,-0.207 0.184,-0.199C0.174,-0.191 0.167,-0.181 0.162,-0.17C0.157,-0.16 0.155,-0.147 0.155,-0.134C0.155,-0.124 0.156,-0.115 0.159,-0.106C0.162,-0.098 0.167,-0.09 0.173,-0.083C0.18,-0.077 0.188,-0.072 0.199,-0.068C0.209,-0.064 0.222,-0.062 0.237,-0.062C0.256,-0.062 0.279,-0.068 0.304,-0.08C0.329,-0.092 0.356,-0.111 0.384,-0.136L0.384,-0.223Z" style="fill-rule:nonzero;"/>
            </g>
            <g transform="matrix(10.5,0,0,10.5,92.3672,0)">
                <path d="M0.459,-0.018C0.437,-0.01 0.414,-0.003 0.391,0C0.368,0.005 0.344,0.007 0.319,0.007C0.241,0.007 0.182,-0.014 0.14,-0.056C0.098,-0.098 0.077,-0.16 0.077,-0.24C0.077,-0.279 0.083,-0.314 0.095,-0.346C0.107,-0.377 0.124,-0.404 0.146,-0.427C0.168,-0.449 0.194,-0.466 0.224,-0.479C0.254,-0.491 0.288,-0.497 0.324,-0.497C0.35,-0.497 0.373,-0.495 0.396,-0.492C0.418,-0.488 0.439,-0.482 0.459,-0.474L0.459,-0.393C0.438,-0.404 0.416,-0.412 0.394,-0.417C0.372,-0.422 0.35,-0.425 0.326,-0.425C0.304,-0.425 0.284,-0.421 0.264,-0.412C0.245,-0.404 0.228,-0.392 0.213,-0.376C0.199,-0.361 0.187,-0.342 0.179,-0.319C0.17,-0.297 0.166,-0.271 0.166,-0.243C0.166,-0.184 0.18,-0.139 0.209,-0.11C0.238,-0.081 0.278,-0.066 0.329,-0.066C0.352,-0.066 0.375,-0.069 0.396,-0.074C0.418,-0.079 0.439,-0.087 0.459,-0.097L0.459,-0.018Z" style="fill-rule:nonzero;"/>
            </g>
            <g transform="matrix(10.5,0,0,10.5,98.1401,0)">
                <path d="M0.492,-0.271C0.492,-0.259 0.492,-0.249 0.492,-0.241C0.491,-0.233 0.491,-0.225 0.49,-0.218L0.146,-0.218C0.146,-0.168 0.16,-0.129 0.188,-0.102C0.216,-0.075 0.256,-0.062 0.309,-0.062C0.323,-0.062 0.338,-0.063 0.352,-0.063C0.366,-0.065 0.38,-0.066 0.394,-0.068C0.407,-0.07 0.42,-0.072 0.432,-0.075C0.444,-0.077 0.455,-0.08 0.466,-0.083L0.466,-0.013C0.443,-0.007 0.417,-0.001 0.387,0.002C0.358,0.007 0.328,0.009 0.297,0.009C0.255,0.009 0.219,0.003 0.188,-0.008C0.158,-0.02 0.133,-0.036 0.114,-0.058C0.095,-0.079 0.08,-0.106 0.071,-0.137C0.062,-0.169 0.057,-0.204 0.057,-0.244C0.057,-0.279 0.062,-0.311 0.072,-0.342C0.082,-0.373 0.096,-0.4 0.115,-0.423C0.134,-0.446 0.158,-0.465 0.186,-0.479C0.213,-0.492 0.245,-0.499 0.28,-0.499C0.314,-0.499 0.344,-0.494 0.371,-0.483C0.397,-0.472 0.419,-0.457 0.437,-0.437C0.455,-0.417 0.469,-0.394 0.478,-0.365C0.487,-0.337 0.492,-0.306 0.492,-0.271ZM0.404,-0.283C0.405,-0.305 0.403,-0.325 0.397,-0.343C0.392,-0.361 0.384,-0.377 0.373,-0.39C0.362,-0.403 0.349,-0.413 0.333,-0.42C0.316,-0.427 0.297,-0.431 0.276,-0.431C0.257,-0.431 0.24,-0.428 0.225,-0.42C0.21,-0.413 0.197,-0.403 0.186,-0.39C0.174,-0.377 0.166,-0.361 0.159,-0.343C0.152,-0.325 0.148,-0.305 0.146,-0.283L0.404,-0.283Z" style="fill-rule:nonzero;"/>
            </g>
            <g transform="matrix(10.5,0,0,10.5,103.913,0)">
                <path d="M0.466,-0.134C0.466,-0.117 0.463,-0.101 0.458,-0.087C0.452,-0.074 0.444,-0.062 0.434,-0.051C0.424,-0.04 0.412,-0.031 0.398,-0.024C0.385,-0.016 0.371,-0.01 0.355,-0.005C0.34,-0 0.325,0.003 0.309,0.005C0.293,0.008 0.278,0.009 0.262,0.009C0.229,0.009 0.198,0.007 0.17,0.004C0.143,0.001 0.116,-0.003 0.089,-0.01L0.089,-0.088C0.118,-0.08 0.146,-0.074 0.174,-0.069C0.203,-0.065 0.231,-0.063 0.259,-0.063C0.299,-0.063 0.33,-0.069 0.349,-0.08C0.369,-0.091 0.378,-0.106 0.378,-0.127C0.378,-0.136 0.377,-0.144 0.374,-0.15C0.371,-0.158 0.365,-0.164 0.357,-0.17C0.349,-0.177 0.336,-0.184 0.319,-0.19C0.302,-0.197 0.279,-0.205 0.249,-0.214C0.227,-0.22 0.206,-0.228 0.188,-0.236C0.169,-0.244 0.153,-0.254 0.139,-0.266C0.125,-0.277 0.115,-0.29 0.107,-0.306C0.099,-0.321 0.095,-0.339 0.095,-0.36C0.095,-0.374 0.098,-0.389 0.104,-0.405C0.111,-0.421 0.122,-0.436 0.137,-0.45C0.153,-0.464 0.173,-0.476 0.199,-0.485C0.225,-0.494 0.258,-0.499 0.297,-0.499C0.316,-0.499 0.337,-0.498 0.361,-0.496C0.384,-0.494 0.409,-0.49 0.434,-0.485L0.434,-0.409C0.407,-0.416 0.382,-0.42 0.358,-0.423C0.334,-0.427 0.313,-0.428 0.296,-0.428C0.275,-0.428 0.257,-0.427 0.242,-0.423C0.228,-0.42 0.216,-0.416 0.207,-0.41C0.198,-0.404 0.192,-0.397 0.188,-0.39C0.184,-0.382 0.182,-0.374 0.182,-0.365C0.182,-0.356 0.184,-0.348 0.187,-0.341C0.191,-0.334 0.197,-0.327 0.206,-0.32C0.215,-0.314 0.229,-0.307 0.245,-0.3C0.262,-0.294 0.283,-0.287 0.31,-0.279C0.339,-0.27 0.363,-0.261 0.383,-0.252C0.403,-0.243 0.419,-0.233 0.432,-0.221C0.444,-0.21 0.453,-0.197 0.458,-0.183C0.464,-0.168 0.466,-0.152 0.466,-0.134Z" style="fill-rule:nonzero;"/>
            </g>
        </g>
    </g>
</svg>
