<?xml version="1.0" encoding="UTF-8" standalone="no"?>
<!DOCTYPE svg PUBLIC "-//W3C//DTD SVG 1.1//EN" "http://www.w3.org/Graphics/SVG/1.1/DTD/svg11.dtd">
<svg width="100%" height="100%" viewBox="0 0 236 150" version="1.1" xmlns="http://www.w3.org/2000/svg" xmlns:xlink="http://www.w3.org/1999/xlink" xml:space="preserve" xmlns:serif="http://www.serif.com/" style="fill-rule:evenodd;clip-rule:evenodd;stroke-linejoin:round;stroke-miterlimit:2;">
    <g transform="matrix(1,0,0,1,-272.003,-186.878)">
        <g transform="matrix(1,0,0,1,-31.169,-36.665)">
            <rect x="303.172" y="223.543" width="235.096" height="149.417" style="fill:white;"/>
        </g>
        <g transform="matrix(1,0,0,1,345.828,267.127)">
            <g transform="matrix(20,0,0,20,0,0)">
                <path d="M0.545,-0L0.45,-0L0.406,-0.139L0.14,-0.139L0.095,-0L0.005,-0L0.217,-0.638L0.336,-0.638L0.545,-0ZM0.381,-0.217L0.273,-0.558L0.165,-0.217L0.381,-0.217Z" style="fill-rule:nonzero;"/>
            </g>
            <g transform="matrix(20,0,0,20,10.9961,0)">
                <path d="M0.078,-0.49L0.154,-0.49L0.157,-0.411C0.172,-0.428 0.185,-0.442 0.199,-0.453C0.212,-0.465 0.225,-0.474 0.238,-0.48C0.251,-0.487 0.264,-0.492 0.277,-0.495C0.291,-0.498 0.305,-0.499 0.319,-0.499C0.369,-0.499 0.407,-0.484 0.433,-0.454C0.459,-0.424 0.472,-0.38 0.472,-0.32L0.472,-0L0.387,-0L0.387,-0.313C0.387,-0.351 0.38,-0.38 0.366,-0.398C0.351,-0.417 0.33,-0.426 0.302,-0.426C0.291,-0.426 0.281,-0.424 0.271,-0.421C0.261,-0.418 0.251,-0.413 0.24,-0.405C0.229,-0.397 0.218,-0.387 0.205,-0.374C0.193,-0.361 0.179,-0.345 0.163,-0.325L0.163,-0L0.078,-0L0.078,-0.49Z" style="fill-rule:nonzero;"/>
            </g>
            <g transform="matrix(20,0,0,20,21.9922,0)">
                <path d="M0.393,-0L0.391,-0.066C0.364,-0.04 0.337,-0.021 0.31,-0.009C0.282,0.003 0.253,0.009 0.223,0.009C0.195,0.009 0.171,0.005 0.151,-0.002C0.132,-0.009 0.115,-0.019 0.102,-0.031C0.089,-0.044 0.08,-0.059 0.074,-0.076C0.068,-0.093 0.065,-0.111 0.065,-0.131C0.065,-0.18 0.083,-0.218 0.12,-0.246C0.156,-0.274 0.211,-0.288 0.282,-0.288L0.384,-0.288L0.384,-0.331C0.384,-0.36 0.375,-0.383 0.356,-0.4C0.337,-0.418 0.309,-0.427 0.271,-0.427C0.243,-0.427 0.216,-0.424 0.189,-0.417C0.162,-0.411 0.135,-0.403 0.106,-0.391L0.106,-0.468C0.117,-0.472 0.129,-0.475 0.142,-0.479C0.155,-0.483 0.169,-0.486 0.184,-0.489C0.198,-0.492 0.214,-0.494 0.229,-0.496C0.245,-0.498 0.262,-0.499 0.278,-0.499C0.307,-0.499 0.334,-0.496 0.358,-0.489C0.382,-0.483 0.402,-0.473 0.418,-0.459C0.435,-0.446 0.447,-0.429 0.456,-0.409C0.465,-0.389 0.469,-0.365 0.469,-0.338L0.469,-0L0.393,-0ZM0.384,-0.223L0.276,-0.223C0.255,-0.223 0.236,-0.221 0.221,-0.217C0.206,-0.213 0.193,-0.207 0.184,-0.199C0.174,-0.191 0.167,-0.181 0.162,-0.17C0.157,-0.16 0.155,-0.147 0.155,-0.134C0.155,-0.124 0.156,-0.115 0.159,-0.106C0.162,-0.098 0.167,-0.09 0.173,-0.083C0.18,-0.077 0.188,-0.072 0.199,-0.068C0.209,-0.064 0.222,-0.062 0.237,-0.062C0.256,-0.062 0.279,-0.068 0.304,-0.08C0.329,-0.092 0.356,-0.111 0.384,-0.136L0.384,-0.223Z" style="fill-rule:nonzero;"/>
            </g>
            <g transform="matrix(20,0,0,20,32.9883,0)">
                <path d="M0.245,-0.62L0.1,-0.62L0.1,-0.69L0.331,-0.69L0.331,-0.071L0.477,-0.071L0.477,-0L0.084,-0L0.084,-0.071L0.245,-0.071L0.245,-0.62Z" style="fill-rule:nonzero;"/>
            </g>
            <g transform="matrix(20,0,0,20,43.9844,0)">
                <path d="M0.514,-0.49L0.347,-0.052C0.33,-0.007 0.312,0.031 0.293,0.063C0.275,0.096 0.255,0.122 0.233,0.143C0.212,0.163 0.188,0.179 0.162,0.188C0.136,0.198 0.106,0.203 0.074,0.203C0.066,0.203 0.058,0.203 0.051,0.203C0.044,0.202 0.037,0.202 0.029,0.201L0.029,0.124C0.036,0.125 0.044,0.126 0.052,0.126C0.061,0.127 0.07,0.128 0.079,0.128C0.095,0.128 0.109,0.126 0.123,0.121C0.136,0.117 0.149,0.109 0.161,0.099C0.173,0.089 0.185,0.075 0.196,0.059C0.207,0.043 0.218,0.023 0.228,-0L0.032,-0.49L0.129,-0.49L0.253,-0.166L0.278,-0.09L0.306,-0.168L0.421,-0.49L0.514,-0.49Z" style="fill-rule:nonzero;"/>
            </g>
            <g transform="matrix(20,0,0,20,54.9805,0)">
                <path d="M0.466,-0.134C0.466,-0.117 0.463,-0.101 0.458,-0.087C0.452,-0.074 0.444,-0.062 0.434,-0.051C0.424,-0.04 0.412,-0.031 0.398,-0.024C0.385,-0.016 0.371,-0.01 0.355,-0.005C0.34,-0 0.325,0.003 0.309,0.005C0.293,0.008 0.278,0.009 0.262,0.009C0.229,0.009 0.198,0.007 0.17,0.004C0.143,0.001 0.116,-0.003 0.089,-0.01L0.089,-0.088C0.118,-0.08 0.146,-0.074 0.174,-0.069C0.203,-0.065 0.231,-0.063 0.259,-0.063C0.299,-0.063 0.33,-0.069 0.349,-0.08C0.369,-0.091 0.378,-0.106 0.378,-0.127C0.378,-0.136 0.377,-0.144 0.374,-0.15C0.371,-0.158 0.365,-0.164 0.357,-0.17C0.349,-0.177 0.336,-0.184 0.319,-0.19C0.302,-0.197 0.279,-0.205 0.249,-0.214C0.227,-0.22 0.206,-0.228 0.188,-0.236C0.169,-0.244 0.153,-0.254 0.139,-0.266C0.125,-0.277 0.115,-0.29 0.107,-0.306C0.099,-0.321 0.095,-0.339 0.095,-0.36C0.095,-0.374 0.098,-0.389 0.104,-0.405C0.111,-0.421 0.122,-0.436 0.137,-0.45C0.153,-0.464 0.173,-0.476 0.199,-0.485C0.225,-0.494 0.258,-0.499 0.297,-0.499C0.316,-0.499 0.337,-0.498 0.361,-0.496C0.384,-0.494 0.409,-0.49 0.434,-0.485L0.434,-0.409C0.407,-0.416 0.382,-0.42 0.358,-0.423C0.334,-0.427 0.313,-0.428 0.296,-0.428C0.275,-0.428 0.257,-0.427 0.242,-0.423C0.228,-0.42 0.216,-0.416 0.207,-0.41C0.198,-0.404 0.192,-0.397 0.188,-0.39C0.184,-0.382 0.182,-0.374 0.182,-0.365C0.182,-0.356 0.184,-0.348 0.187,-0.341C0.191,-0.334 0.197,-0.327 0.206,-0.32C0.215,-0.314 0.229,-0.307 0.245,-0.3C0.262,-0.294 0.283,-0.287 0.31,-0.279C0.339,-0.27 0.363,-0.261 0.383,-0.252C0.403,-0.243 0.419,-0.233 0.432,-0.221C0.444,-0.21 0.453,-0.197 0.458,-0.183C0.464,-0.168 0.466,-0.152 0.466,-0.134Z" style="fill-rule:nonzero;"/>
            </g>
            <g transform="matrix(20,0,0,20,65.9766,0)">
                <path d="M0.245,-0.42L0.1,-0.42L0.1,-0.49L0.331,-0.49L0.331,-0.071L0.477,-0.071L0.477,-0L0.084,-0L0.084,-0.071L0.245,-0.071L0.245,-0.42ZM0.275,-0.696C0.284,-0.696 0.293,-0.694 0.301,-0.69C0.309,-0.687 0.316,-0.682 0.322,-0.676C0.328,-0.67 0.333,-0.663 0.336,-0.655C0.34,-0.647 0.342,-0.638 0.342,-0.629C0.342,-0.62 0.34,-0.611 0.336,-0.603C0.333,-0.595 0.328,-0.588 0.322,-0.582C0.316,-0.575 0.309,-0.57 0.301,-0.567C0.293,-0.564 0.284,-0.562 0.275,-0.562C0.265,-0.562 0.257,-0.564 0.249,-0.567C0.24,-0.57 0.233,-0.575 0.227,-0.582C0.221,-0.588 0.216,-0.595 0.213,-0.603C0.21,-0.611 0.208,-0.62 0.208,-0.629C0.208,-0.638 0.21,-0.647 0.213,-0.655C0.216,-0.663 0.221,-0.67 0.227,-0.676C0.233,-0.682 0.24,-0.687 0.249,-0.69C0.257,-0.694 0.265,-0.696 0.275,-0.696Z" style="fill-rule:nonzero;"/>
            </g>
            <g transform="matrix(20,0,0,20,76.9727,0)">
                <path d="M0.466,-0.134C0.466,-0.117 0.463,-0.101 0.458,-0.087C0.452,-0.074 0.444,-0.062 0.434,-0.051C0.424,-0.04 0.412,-0.031 0.398,-0.024C0.385,-0.016 0.371,-0.01 0.355,-0.005C0.34,-0 0.325,0.003 0.309,0.005C0.293,0.008 0.278,0.009 0.262,0.009C0.229,0.009 0.198,0.007 0.17,0.004C0.143,0.001 0.116,-0.003 0.089,-0.01L0.089,-0.088C0.118,-0.08 0.146,-0.074 0.174,-0.069C0.203,-0.065 0.231,-0.063 0.259,-0.063C0.299,-0.063 0.33,-0.069 0.349,-0.08C0.369,-0.091 0.378,-0.106 0.378,-0.127C0.378,-0.136 0.377,-0.144 0.374,-0.15C0.371,-0.158 0.365,-0.164 0.357,-0.17C0.349,-0.177 0.336,-0.184 0.319,-0.19C0.302,-0.197 0.279,-0.205 0.249,-0.214C0.227,-0.22 0.206,-0.228 0.188,-0.236C0.169,-0.244 0.153,-0.254 0.139,-0.266C0.125,-0.277 0.115,-0.29 0.107,-0.306C0.099,-0.321 0.095,-0.339 0.095,-0.36C0.095,-0.374 0.098,-0.389 0.104,-0.405C0.111,-0.421 0.122,-0.436 0.137,-0.45C0.153,-0.464 0.173,-0.476 0.199,-0.485C0.225,-0.494 0.258,-0.499 0.297,-0.499C0.316,-0.499 0.337,-0.498 0.361,-0.496C0.384,-0.494 0.409,-0.49 0.434,-0.485L0.434,-0.409C0.407,-0.416 0.382,-0.42 0.358,-0.423C0.334,-0.427 0.313,-0.428 0.296,-0.428C0.275,-0.428 0.257,-0.427 0.242,-0.423C0.228,-0.42 0.216,-0.416 0.207,-0.41C0.198,-0.404 0.192,-0.397 0.188,-0.39C0.184,-0.382 0.182,-0.374 0.182,-0.365C0.182,-0.356 0.184,-0.348 0.187,-0.341C0.191,-0.334 0.197,-0.327 0.206,-0.32C0.215,-0.314 0.229,-0.307 0.245,-0.3C0.262,-0.294 0.283,-0.287 0.31,-0.279C0.339,-0.27 0.363,-0.261 0.383,-0.252C0.403,-0.243 0.419,-0.233 0.432,-0.221C0.444,-0.21 0.453,-0.197 0.458,-0.183C0.464,-0.168 0.466,-0.152 0.466,-0.134Z" style="fill-rule:nonzero;"/>
            </g>
        </g>
    </g>
</svg>
