<?xml version="1.0" encoding="UTF-8" standalone="no"?>
<!DOCTYPE svg PUBLIC "-//W3C//DTD SVG 1.1//EN" "http://www.w3.org/Graphics/SVG/1.1/DTD/svg11.dtd">
<svg width="100%" height="100%" viewBox="0 0 236 150" version="1.1" xmlns="http://www.w3.org/2000/svg" xmlns:xlink="http://www.w3.org/1999/xlink" xml:space="preserve" xmlns:serif="http://www.serif.com/" style="fill-rule:evenodd;clip-rule:evenodd;stroke-linejoin:round;stroke-miterlimit:2;">
    <g transform="matrix(1,0,0,1,-272.003,-186.878)">
        <g transform="matrix(1,0,0,1,-31.169,-36.665)">
            <rect x="303.172" y="223.543" width="235.096" height="149.417" style="fill:white;"/>
        </g>
        <g transform="matrix(1,0,0,1,356.815,267.107)">
            <g transform="matrix(20,0,0,20,0,0)">
                <path d="M0.514,-0.326C0.514,-0.296 0.512,-0.266 0.507,-0.238C0.502,-0.21 0.495,-0.184 0.484,-0.16C0.474,-0.136 0.46,-0.114 0.444,-0.094C0.427,-0.075 0.407,-0.058 0.383,-0.044C0.359,-0.03 0.331,-0.019 0.299,-0.011C0.267,-0.004 0.231,-0 0.19,-0L0.053,-0L0.053,-0.638L0.218,-0.638C0.317,-0.638 0.392,-0.612 0.44,-0.561C0.49,-0.51 0.514,-0.432 0.514,-0.326ZM0.423,-0.32C0.423,-0.365 0.419,-0.403 0.41,-0.435C0.402,-0.466 0.389,-0.491 0.372,-0.51C0.354,-0.529 0.333,-0.543 0.307,-0.552C0.281,-0.561 0.25,-0.565 0.215,-0.565L0.14,-0.565L0.14,-0.075L0.205,-0.075C0.35,-0.075 0.423,-0.157 0.423,-0.32Z" style="fill-rule:nonzero;"/>
            </g>
            <g transform="matrix(20,0,0,20,10.9961,0)">
                <path d="M0.492,-0.271C0.492,-0.259 0.492,-0.249 0.492,-0.241C0.491,-0.233 0.491,-0.225 0.49,-0.218L0.146,-0.218C0.146,-0.168 0.16,-0.129 0.188,-0.102C0.216,-0.075 0.256,-0.062 0.309,-0.062C0.323,-0.062 0.338,-0.063 0.352,-0.063C0.366,-0.065 0.38,-0.066 0.394,-0.068C0.407,-0.07 0.42,-0.072 0.432,-0.075C0.444,-0.077 0.455,-0.08 0.466,-0.083L0.466,-0.013C0.443,-0.007 0.417,-0.001 0.387,0.002C0.358,0.007 0.328,0.009 0.297,0.009C0.255,0.009 0.219,0.003 0.188,-0.008C0.158,-0.02 0.133,-0.036 0.114,-0.058C0.095,-0.079 0.08,-0.106 0.071,-0.137C0.062,-0.169 0.057,-0.204 0.057,-0.244C0.057,-0.279 0.062,-0.311 0.072,-0.342C0.082,-0.373 0.096,-0.4 0.115,-0.423C0.134,-0.446 0.158,-0.465 0.186,-0.479C0.213,-0.492 0.245,-0.499 0.28,-0.499C0.314,-0.499 0.344,-0.494 0.371,-0.483C0.397,-0.472 0.419,-0.457 0.437,-0.437C0.455,-0.417 0.469,-0.394 0.478,-0.365C0.487,-0.337 0.492,-0.306 0.492,-0.271ZM0.404,-0.283C0.405,-0.305 0.403,-0.325 0.397,-0.343C0.392,-0.361 0.384,-0.377 0.373,-0.39C0.362,-0.403 0.349,-0.413 0.333,-0.42C0.316,-0.427 0.297,-0.431 0.276,-0.431C0.257,-0.431 0.24,-0.428 0.225,-0.42C0.21,-0.413 0.197,-0.403 0.186,-0.39C0.174,-0.377 0.166,-0.361 0.159,-0.343C0.152,-0.325 0.148,-0.305 0.146,-0.283L0.404,-0.283Z" style="fill-rule:nonzero;"/>
            </g>
            <g transform="matrix(20,0,0,20,21.9922,0)">
                <path d="M0.466,-0.134C0.466,-0.117 0.463,-0.101 0.458,-0.087C0.452,-0.074 0.444,-0.062 0.434,-0.051C0.424,-0.04 0.412,-0.031 0.398,-0.024C0.385,-0.016 0.371,-0.01 0.355,-0.005C0.34,-0 0.325,0.003 0.309,0.005C0.293,0.008 0.278,0.009 0.262,0.009C0.229,0.009 0.198,0.007 0.17,0.004C0.143,0.001 0.116,-0.003 0.089,-0.01L0.089,-0.088C0.118,-0.08 0.146,-0.074 0.174,-0.069C0.203,-0.065 0.231,-0.063 0.259,-0.063C0.299,-0.063 0.33,-0.069 0.349,-0.08C0.369,-0.091 0.378,-0.106 0.378,-0.127C0.378,-0.136 0.377,-0.144 0.374,-0.15C0.371,-0.158 0.365,-0.164 0.357,-0.17C0.349,-0.177 0.336,-0.184 0.319,-0.19C0.302,-0.197 0.279,-0.205 0.249,-0.214C0.227,-0.22 0.206,-0.228 0.188,-0.236C0.169,-0.244 0.153,-0.254 0.139,-0.266C0.125,-0.277 0.115,-0.29 0.107,-0.306C0.099,-0.321 0.095,-0.339 0.095,-0.36C0.095,-0.374 0.098,-0.389 0.104,-0.405C0.111,-0.421 0.122,-0.436 0.137,-0.45C0.153,-0.464 0.173,-0.476 0.199,-0.485C0.225,-0.494 0.258,-0.499 0.297,-0.499C0.316,-0.499 0.337,-0.498 0.361,-0.496C0.384,-0.494 0.409,-0.49 0.434,-0.485L0.434,-0.409C0.407,-0.416 0.382,-0.42 0.358,-0.423C0.334,-0.427 0.313,-0.428 0.296,-0.428C0.275,-0.428 0.257,-0.427 0.242,-0.423C0.228,-0.42 0.216,-0.416 0.207,-0.41C0.198,-0.404 0.192,-0.397 0.188,-0.39C0.184,-0.382 0.182,-0.374 0.182,-0.365C0.182,-0.356 0.184,-0.348 0.187,-0.341C0.191,-0.334 0.197,-0.327 0.206,-0.32C0.215,-0.314 0.229,-0.307 0.245,-0.3C0.262,-0.294 0.283,-0.287 0.31,-0.279C0.339,-0.27 0.363,-0.261 0.383,-0.252C0.403,-0.243 0.419,-0.233 0.432,-0.221C0.444,-0.21 0.453,-0.197 0.458,-0.183C0.464,-0.168 0.466,-0.152 0.466,-0.134Z" style="fill-rule:nonzero;"/>
            </g>
            <g transform="matrix(20,0,0,20,32.9883,0)">
                <path d="M0.245,-0.42L0.1,-0.42L0.1,-0.49L0.331,-0.49L0.331,-0.071L0.477,-0.071L0.477,-0L0.084,-0L0.084,-0.071L0.245,-0.071L0.245,-0.42ZM0.275,-0.696C0.284,-0.696 0.293,-0.694 0.301,-0.69C0.309,-0.687 0.316,-0.682 0.322,-0.676C0.328,-0.67 0.333,-0.663 0.336,-0.655C0.34,-0.647 0.342,-0.638 0.342,-0.629C0.342,-0.62 0.34,-0.611 0.336,-0.603C0.333,-0.595 0.328,-0.588 0.322,-0.582C0.316,-0.575 0.309,-0.57 0.301,-0.567C0.293,-0.564 0.284,-0.562 0.275,-0.562C0.265,-0.562 0.257,-0.564 0.249,-0.567C0.24,-0.57 0.233,-0.575 0.227,-0.582C0.221,-0.588 0.216,-0.595 0.213,-0.603C0.21,-0.611 0.208,-0.62 0.208,-0.629C0.208,-0.638 0.21,-0.647 0.213,-0.655C0.216,-0.663 0.221,-0.67 0.227,-0.676C0.233,-0.682 0.24,-0.687 0.249,-0.69C0.257,-0.694 0.265,-0.696 0.275,-0.696Z" style="fill-rule:nonzero;"/>
            </g>
            <g transform="matrix(20,0,0,20,43.9844,0)">
                <path d="M0.431,-0.421C0.44,-0.41 0.447,-0.396 0.452,-0.381C0.457,-0.366 0.46,-0.35 0.46,-0.332C0.46,-0.307 0.455,-0.283 0.446,-0.262C0.437,-0.241 0.424,-0.223 0.407,-0.208C0.39,-0.194 0.369,-0.182 0.346,-0.173C0.322,-0.165 0.296,-0.161 0.268,-0.161C0.248,-0.161 0.228,-0.163 0.21,-0.167C0.193,-0.172 0.178,-0.178 0.168,-0.184C0.162,-0.175 0.157,-0.166 0.152,-0.158C0.148,-0.15 0.146,-0.141 0.146,-0.131C0.146,-0.118 0.152,-0.108 0.164,-0.1C0.176,-0.092 0.191,-0.088 0.211,-0.087L0.34,-0.082C0.364,-0.081 0.387,-0.078 0.407,-0.073C0.428,-0.067 0.446,-0.059 0.46,-0.049C0.475,-0.038 0.487,-0.026 0.495,-0.01C0.504,0.005 0.508,0.023 0.508,0.043C0.508,0.065 0.503,0.085 0.494,0.105C0.484,0.125 0.47,0.142 0.45,0.156C0.43,0.171 0.405,0.183 0.375,0.192C0.345,0.201 0.309,0.205 0.267,0.205C0.227,0.205 0.194,0.202 0.166,0.195C0.138,0.189 0.115,0.18 0.097,0.169C0.079,0.158 0.066,0.145 0.058,0.129C0.05,0.114 0.046,0.097 0.046,0.078C0.046,0.054 0.051,0.034 0.063,0.016C0.074,-0.002 0.091,-0.02 0.114,-0.036C0.105,-0.04 0.098,-0.045 0.092,-0.051C0.086,-0.057 0.081,-0.063 0.077,-0.07C0.073,-0.077 0.07,-0.084 0.068,-0.092C0.066,-0.1 0.065,-0.108 0.065,-0.115C0.065,-0.136 0.07,-0.156 0.08,-0.173C0.09,-0.191 0.102,-0.208 0.115,-0.223C0.109,-0.231 0.104,-0.238 0.099,-0.245C0.094,-0.252 0.09,-0.26 0.086,-0.268C0.083,-0.277 0.081,-0.285 0.079,-0.295C0.077,-0.305 0.076,-0.316 0.076,-0.328C0.076,-0.354 0.081,-0.377 0.09,-0.397C0.099,-0.419 0.112,-0.437 0.129,-0.452C0.146,-0.467 0.166,-0.478 0.189,-0.486C0.213,-0.495 0.239,-0.499 0.268,-0.499C0.28,-0.499 0.292,-0.498 0.303,-0.497C0.314,-0.495 0.324,-0.493 0.332,-0.49L0.51,-0.49L0.51,-0.421L0.431,-0.421ZM0.136,0.071C0.136,0.094 0.148,0.111 0.172,0.121C0.196,0.132 0.23,0.137 0.273,0.137C0.3,0.137 0.323,0.135 0.341,0.13C0.359,0.125 0.374,0.118 0.385,0.11C0.397,0.103 0.405,0.093 0.41,0.083C0.415,0.073 0.417,0.063 0.417,0.052C0.417,0.032 0.409,0.017 0.393,0.008C0.376,-0.002 0.351,-0.007 0.318,-0.009L0.19,-0.013C0.179,-0.006 0.17,0.001 0.163,0.008C0.156,0.015 0.151,0.021 0.147,0.028C0.143,0.035 0.14,0.042 0.139,0.049C0.137,0.056 0.136,0.064 0.136,0.071ZM0.162,-0.33C0.162,-0.314 0.165,-0.3 0.17,-0.287C0.175,-0.274 0.182,-0.263 0.192,-0.254C0.201,-0.245 0.212,-0.238 0.225,-0.232C0.238,-0.228 0.252,-0.225 0.268,-0.225C0.285,-0.225 0.3,-0.228 0.313,-0.233C0.326,-0.239 0.337,-0.247 0.346,-0.257C0.355,-0.267 0.362,-0.278 0.367,-0.291C0.372,-0.303 0.374,-0.316 0.374,-0.33C0.374,-0.346 0.371,-0.36 0.366,-0.373C0.361,-0.386 0.354,-0.397 0.344,-0.406C0.335,-0.415 0.324,-0.422 0.311,-0.427C0.298,-0.432 0.284,-0.435 0.268,-0.435C0.251,-0.435 0.236,-0.432 0.223,-0.426C0.21,-0.42 0.199,-0.413 0.189,-0.403C0.181,-0.393 0.174,-0.382 0.169,-0.37C0.164,-0.357 0.162,-0.344 0.162,-0.33Z" style="fill-rule:nonzero;"/>
            </g>
            <g transform="matrix(20,0,0,20,54.9805,0)">
                <path d="M0.078,-0.49L0.154,-0.49L0.157,-0.411C0.172,-0.428 0.185,-0.442 0.199,-0.453C0.212,-0.465 0.225,-0.474 0.238,-0.48C0.251,-0.487 0.264,-0.492 0.277,-0.495C0.291,-0.498 0.305,-0.499 0.319,-0.499C0.369,-0.499 0.407,-0.484 0.433,-0.454C0.459,-0.424 0.472,-0.38 0.472,-0.32L0.472,-0L0.387,-0L0.387,-0.313C0.387,-0.351 0.38,-0.38 0.366,-0.398C0.351,-0.417 0.33,-0.426 0.302,-0.426C0.291,-0.426 0.281,-0.424 0.271,-0.421C0.261,-0.418 0.251,-0.413 0.24,-0.405C0.229,-0.397 0.218,-0.387 0.205,-0.374C0.193,-0.361 0.179,-0.345 0.163,-0.325L0.163,-0L0.078,-0L0.078,-0.49Z" style="fill-rule:nonzero;"/>
            </g>
        </g>
    </g>
</svg>
