<?xml version="1.0" encoding="UTF-8" standalone="no"?>
<!DOCTYPE svg PUBLIC "-//W3C//DTD SVG 1.1//EN" "http://www.w3.org/Graphics/SVG/1.1/DTD/svg11.dtd">
<svg width="100%" height="100%" viewBox="0 0 236 151" version="1.1" xmlns="http://www.w3.org/2000/svg" xmlns:xlink="http://www.w3.org/1999/xlink" xml:space="preserve" xmlns:serif="http://www.serif.com/" style="fill-rule:evenodd;clip-rule:evenodd;stroke-linejoin:round;stroke-miterlimit:2;">
    <g transform="matrix(1,0,0,1,-272.003,-186.686)">
        <g transform="matrix(1,0,0,1,-31.169,-35.897)">
            <rect x="303.172" y="222.583" width="235.288" height="150.569" style="fill:white;"/>
        </g>
        <g>
            <g transform="matrix(1,0,0,1,312.868,258.187)">
                <g transform="matrix(20,0,0,20,0,0)">
                    <path d="M0.514,-0.326C0.514,-0.296 0.512,-0.266 0.507,-0.238C0.502,-0.21 0.495,-0.184 0.484,-0.16C0.474,-0.136 0.46,-0.114 0.444,-0.094C0.427,-0.075 0.407,-0.058 0.383,-0.044C0.359,-0.03 0.331,-0.019 0.299,-0.011C0.267,-0.004 0.231,-0 0.19,-0L0.053,-0L0.053,-0.638L0.218,-0.638C0.317,-0.638 0.392,-0.612 0.44,-0.561C0.49,-0.51 0.514,-0.432 0.514,-0.326ZM0.423,-0.32C0.423,-0.365 0.419,-0.403 0.41,-0.435C0.402,-0.466 0.389,-0.491 0.372,-0.51C0.354,-0.529 0.333,-0.543 0.307,-0.552C0.281,-0.561 0.25,-0.565 0.215,-0.565L0.14,-0.565L0.14,-0.075L0.205,-0.075C0.35,-0.075 0.423,-0.157 0.423,-0.32Z" style="fill-rule:nonzero;"/>
                </g>
                <g transform="matrix(20,0,0,20,10.9961,0)">
                    <path d="M0.393,-0L0.391,-0.066C0.364,-0.04 0.337,-0.021 0.31,-0.009C0.282,0.003 0.253,0.009 0.223,0.009C0.195,0.009 0.171,0.005 0.151,-0.002C0.132,-0.009 0.115,-0.019 0.102,-0.031C0.089,-0.044 0.08,-0.059 0.074,-0.076C0.068,-0.093 0.065,-0.111 0.065,-0.131C0.065,-0.18 0.083,-0.218 0.12,-0.246C0.156,-0.274 0.211,-0.288 0.282,-0.288L0.384,-0.288L0.384,-0.331C0.384,-0.36 0.375,-0.383 0.356,-0.4C0.337,-0.418 0.309,-0.427 0.271,-0.427C0.243,-0.427 0.216,-0.424 0.189,-0.417C0.162,-0.411 0.135,-0.403 0.106,-0.391L0.106,-0.468C0.117,-0.472 0.129,-0.475 0.142,-0.479C0.155,-0.483 0.169,-0.486 0.184,-0.489C0.198,-0.492 0.214,-0.494 0.229,-0.496C0.245,-0.498 0.262,-0.499 0.278,-0.499C0.307,-0.499 0.334,-0.496 0.358,-0.489C0.382,-0.483 0.402,-0.473 0.418,-0.459C0.435,-0.446 0.447,-0.429 0.456,-0.409C0.465,-0.389 0.469,-0.365 0.469,-0.338L0.469,-0L0.393,-0ZM0.384,-0.223L0.276,-0.223C0.255,-0.223 0.236,-0.221 0.221,-0.217C0.206,-0.213 0.193,-0.207 0.184,-0.199C0.174,-0.191 0.167,-0.181 0.162,-0.17C0.157,-0.16 0.155,-0.147 0.155,-0.134C0.155,-0.124 0.156,-0.115 0.159,-0.106C0.162,-0.098 0.167,-0.09 0.173,-0.083C0.18,-0.077 0.188,-0.072 0.199,-0.068C0.209,-0.064 0.222,-0.062 0.237,-0.062C0.256,-0.062 0.279,-0.068 0.304,-0.08C0.329,-0.092 0.356,-0.111 0.384,-0.136L0.384,-0.223Z" style="fill-rule:nonzero;"/>
                </g>
                <g transform="matrix(20,0,0,20,21.9922,0)">
                    <path d="M0.473,-0.007C0.454,-0.002 0.434,0.001 0.414,0.003C0.393,0.006 0.372,0.007 0.351,0.007C0.29,0.007 0.244,-0.007 0.213,-0.035C0.183,-0.063 0.168,-0.105 0.168,-0.163L0.168,-0.419L0.031,-0.419L0.031,-0.49L0.168,-0.49L0.168,-0.625L0.253,-0.647L0.253,-0.49L0.473,-0.49L0.473,-0.419L0.253,-0.419L0.253,-0.17C0.253,-0.135 0.262,-0.108 0.281,-0.091C0.3,-0.074 0.327,-0.065 0.364,-0.065C0.379,-0.065 0.396,-0.066 0.415,-0.068C0.434,-0.071 0.453,-0.075 0.473,-0.08L0.473,-0.007Z" style="fill-rule:nonzero;"/>
                </g>
                <g transform="matrix(20,0,0,20,32.9883,0)">
                    <path d="M0.393,-0L0.391,-0.066C0.364,-0.04 0.337,-0.021 0.31,-0.009C0.282,0.003 0.253,0.009 0.223,0.009C0.195,0.009 0.171,0.005 0.151,-0.002C0.132,-0.009 0.115,-0.019 0.102,-0.031C0.089,-0.044 0.08,-0.059 0.074,-0.076C0.068,-0.093 0.065,-0.111 0.065,-0.131C0.065,-0.18 0.083,-0.218 0.12,-0.246C0.156,-0.274 0.211,-0.288 0.282,-0.288L0.384,-0.288L0.384,-0.331C0.384,-0.36 0.375,-0.383 0.356,-0.4C0.337,-0.418 0.309,-0.427 0.271,-0.427C0.243,-0.427 0.216,-0.424 0.189,-0.417C0.162,-0.411 0.135,-0.403 0.106,-0.391L0.106,-0.468C0.117,-0.472 0.129,-0.475 0.142,-0.479C0.155,-0.483 0.169,-0.486 0.184,-0.489C0.198,-0.492 0.214,-0.494 0.229,-0.496C0.245,-0.498 0.262,-0.499 0.278,-0.499C0.307,-0.499 0.334,-0.496 0.358,-0.489C0.382,-0.483 0.402,-0.473 0.418,-0.459C0.435,-0.446 0.447,-0.429 0.456,-0.409C0.465,-0.389 0.469,-0.365 0.469,-0.338L0.469,-0L0.393,-0ZM0.384,-0.223L0.276,-0.223C0.255,-0.223 0.236,-0.221 0.221,-0.217C0.206,-0.213 0.193,-0.207 0.184,-0.199C0.174,-0.191 0.167,-0.181 0.162,-0.17C0.157,-0.16 0.155,-0.147 0.155,-0.134C0.155,-0.124 0.156,-0.115 0.159,-0.106C0.162,-0.098 0.167,-0.09 0.173,-0.083C0.18,-0.077 0.188,-0.072 0.199,-0.068C0.209,-0.064 0.222,-0.062 0.237,-0.062C0.256,-0.062 0.279,-0.068 0.304,-0.08C0.329,-0.092 0.356,-0.111 0.384,-0.136L0.384,-0.223Z" style="fill-rule:nonzero;"/>
                </g>
                <g transform="matrix(20,0,0,20,54.9805,0)">
                    <path d="M0.487,-0.173C0.487,-0.143 0.481,-0.116 0.468,-0.093C0.456,-0.07 0.439,-0.051 0.417,-0.036C0.394,-0.021 0.368,-0.01 0.336,-0.002C0.306,0.005 0.271,0.009 0.234,0.009C0.217,0.009 0.2,0.008 0.183,0.007C0.167,0.006 0.15,0.004 0.135,0.002C0.119,0 0.105,-0.002 0.091,-0.005C0.078,-0.007 0.065,-0.01 0.054,-0.013L0.054,-0.097C0.079,-0.088 0.106,-0.081 0.136,-0.076C0.167,-0.07 0.201,-0.068 0.24,-0.068C0.268,-0.068 0.292,-0.07 0.312,-0.074C0.331,-0.079 0.347,-0.085 0.36,-0.094C0.373,-0.103 0.382,-0.113 0.387,-0.125C0.393,-0.138 0.396,-0.152 0.396,-0.168C0.396,-0.185 0.391,-0.2 0.381,-0.212C0.372,-0.224 0.359,-0.235 0.344,-0.245C0.328,-0.254 0.31,-0.263 0.29,-0.271C0.27,-0.279 0.25,-0.287 0.229,-0.296C0.208,-0.304 0.188,-0.313 0.167,-0.323C0.148,-0.333 0.13,-0.345 0.114,-0.358C0.099,-0.372 0.086,-0.388 0.076,-0.406C0.067,-0.424 0.062,-0.446 0.062,-0.471C0.062,-0.493 0.067,-0.514 0.076,-0.536C0.085,-0.557 0.099,-0.576 0.118,-0.592C0.137,-0.608 0.162,-0.622 0.192,-0.632C0.222,-0.642 0.258,-0.647 0.3,-0.647C0.311,-0.647 0.322,-0.646 0.334,-0.646C0.347,-0.645 0.36,-0.643 0.373,-0.641C0.386,-0.639 0.398,-0.638 0.411,-0.635C0.423,-0.633 0.435,-0.631 0.446,-0.628L0.446,-0.55C0.421,-0.557 0.396,-0.562 0.371,-0.566C0.346,-0.57 0.321,-0.572 0.298,-0.572C0.248,-0.572 0.211,-0.563 0.188,-0.547C0.165,-0.53 0.153,-0.508 0.153,-0.48C0.153,-0.463 0.158,-0.448 0.167,-0.436C0.177,-0.423 0.189,-0.412 0.205,-0.402C0.221,-0.393 0.238,-0.384 0.258,-0.375C0.278,-0.368 0.299,-0.36 0.32,-0.351C0.341,-0.343 0.361,-0.333 0.381,-0.323C0.401,-0.313 0.419,-0.301 0.435,-0.287C0.45,-0.273 0.463,-0.257 0.472,-0.239C0.482,-0.22 0.487,-0.198 0.487,-0.173Z" style="fill-rule:nonzero;"/>
                </g>
                <g transform="matrix(20,0,0,20,65.9766,0)">
                    <path d="M0.473,-0.007C0.454,-0.002 0.434,0.001 0.414,0.003C0.393,0.006 0.372,0.007 0.351,0.007C0.29,0.007 0.244,-0.007 0.213,-0.035C0.183,-0.063 0.168,-0.105 0.168,-0.163L0.168,-0.419L0.031,-0.419L0.031,-0.49L0.168,-0.49L0.168,-0.625L0.253,-0.647L0.253,-0.49L0.473,-0.49L0.473,-0.419L0.253,-0.419L0.253,-0.17C0.253,-0.135 0.262,-0.108 0.281,-0.091C0.3,-0.074 0.327,-0.065 0.364,-0.065C0.379,-0.065 0.396,-0.066 0.415,-0.068C0.434,-0.071 0.453,-0.075 0.473,-0.08L0.473,-0.007Z" style="fill-rule:nonzero;"/>
                </g>
                <g transform="matrix(20,0,0,20,76.9727,0)">
                    <path d="M0.098,-0.49L0.176,-0.49L0.178,-0.4C0.207,-0.435 0.236,-0.46 0.264,-0.476C0.292,-0.491 0.32,-0.499 0.349,-0.499C0.4,-0.499 0.438,-0.483 0.464,-0.45C0.491,-0.417 0.503,-0.368 0.501,-0.303L0.415,-0.303C0.416,-0.346 0.41,-0.377 0.396,-0.396C0.383,-0.416 0.363,-0.426 0.337,-0.426C0.326,-0.426 0.314,-0.424 0.302,-0.419C0.291,-0.416 0.279,-0.409 0.267,-0.4C0.255,-0.391 0.242,-0.38 0.228,-0.366C0.214,-0.352 0.2,-0.335 0.184,-0.315L0.184,-0L0.098,-0L0.098,-0.49Z" style="fill-rule:nonzero;"/>
                </g>
                <g transform="matrix(20,0,0,20,87.9688,0)">
                    <path d="M0.472,-0L0.396,-0L0.393,-0.079C0.378,-0.062 0.364,-0.048 0.351,-0.037C0.338,-0.026 0.325,-0.017 0.312,-0.01C0.299,-0.003 0.286,0.002 0.272,0.004C0.259,0.007 0.246,0.009 0.231,0.009C0.181,0.009 0.142,-0.006 0.117,-0.036C0.091,-0.065 0.078,-0.11 0.078,-0.17L0.078,-0.49L0.163,-0.49L0.163,-0.177C0.163,-0.102 0.191,-0.064 0.248,-0.064C0.258,-0.064 0.269,-0.065 0.278,-0.068C0.288,-0.072 0.299,-0.077 0.31,-0.084C0.321,-0.092 0.332,-0.103 0.345,-0.116C0.357,-0.129 0.372,-0.145 0.387,-0.165L0.387,-0.49L0.472,-0.49L0.472,-0Z" style="fill-rule:nonzero;"/>
                </g>
                <g transform="matrix(20,0,0,20,98.9648,0)">
                    <path d="M0.459,-0.018C0.437,-0.01 0.414,-0.003 0.391,0C0.368,0.005 0.344,0.007 0.319,0.007C0.241,0.007 0.182,-0.014 0.14,-0.056C0.098,-0.098 0.077,-0.16 0.077,-0.24C0.077,-0.279 0.083,-0.314 0.095,-0.346C0.107,-0.377 0.124,-0.404 0.146,-0.427C0.168,-0.449 0.194,-0.466 0.224,-0.479C0.254,-0.491 0.288,-0.497 0.324,-0.497C0.35,-0.497 0.373,-0.495 0.396,-0.492C0.418,-0.488 0.439,-0.482 0.459,-0.474L0.459,-0.393C0.438,-0.404 0.416,-0.412 0.394,-0.417C0.372,-0.422 0.35,-0.425 0.326,-0.425C0.304,-0.425 0.284,-0.421 0.264,-0.412C0.245,-0.404 0.228,-0.392 0.213,-0.376C0.199,-0.361 0.187,-0.342 0.179,-0.319C0.17,-0.297 0.166,-0.271 0.166,-0.243C0.166,-0.184 0.18,-0.139 0.209,-0.11C0.238,-0.081 0.278,-0.066 0.329,-0.066C0.352,-0.066 0.375,-0.069 0.396,-0.074C0.418,-0.079 0.439,-0.087 0.459,-0.097L0.459,-0.018Z" style="fill-rule:nonzero;"/>
                </g>
                <g transform="matrix(20,0,0,20,109.961,0)">
                    <path d="M0.473,-0.007C0.454,-0.002 0.434,0.001 0.414,0.003C0.393,0.006 0.372,0.007 0.351,0.007C0.29,0.007 0.244,-0.007 0.213,-0.035C0.183,-0.063 0.168,-0.105 0.168,-0.163L0.168,-0.419L0.031,-0.419L0.031,-0.49L0.168,-0.49L0.168,-0.625L0.253,-0.647L0.253,-0.49L0.473,-0.49L0.473,-0.419L0.253,-0.419L0.253,-0.17C0.253,-0.135 0.262,-0.108 0.281,-0.091C0.3,-0.074 0.327,-0.065 0.364,-0.065C0.379,-0.065 0.396,-0.066 0.415,-0.068C0.434,-0.071 0.453,-0.075 0.473,-0.08L0.473,-0.007Z" style="fill-rule:nonzero;"/>
                </g>
                <g transform="matrix(20,0,0,20,120.957,0)">
                    <path d="M0.472,-0L0.396,-0L0.393,-0.079C0.378,-0.062 0.364,-0.048 0.351,-0.037C0.338,-0.026 0.325,-0.017 0.312,-0.01C0.299,-0.003 0.286,0.002 0.272,0.004C0.259,0.007 0.246,0.009 0.231,0.009C0.181,0.009 0.142,-0.006 0.117,-0.036C0.091,-0.065 0.078,-0.11 0.078,-0.17L0.078,-0.49L0.163,-0.49L0.163,-0.177C0.163,-0.102 0.191,-0.064 0.248,-0.064C0.258,-0.064 0.269,-0.065 0.278,-0.068C0.288,-0.072 0.299,-0.077 0.31,-0.084C0.321,-0.092 0.332,-0.103 0.345,-0.116C0.357,-0.129 0.372,-0.145 0.387,-0.165L0.387,-0.49L0.472,-0.49L0.472,-0Z" style="fill-rule:nonzero;"/>
                </g>
            </g>
            <g transform="matrix(1,0,0,1,444.718,258.187)">
                <g transform="matrix(20,0,0,20,0,0)">
                    <path d="M0.098,-0.49L0.176,-0.49L0.178,-0.4C0.207,-0.435 0.236,-0.46 0.264,-0.476C0.292,-0.491 0.32,-0.499 0.349,-0.499C0.4,-0.499 0.438,-0.483 0.464,-0.45C0.491,-0.417 0.503,-0.368 0.501,-0.303L0.415,-0.303C0.416,-0.346 0.41,-0.377 0.396,-0.396C0.383,-0.416 0.363,-0.426 0.337,-0.426C0.326,-0.426 0.314,-0.424 0.302,-0.419C0.291,-0.416 0.279,-0.409 0.267,-0.4C0.255,-0.391 0.242,-0.38 0.228,-0.366C0.214,-0.352 0.2,-0.335 0.184,-0.315L0.184,-0L0.098,-0L0.098,-0.49Z" style="fill-rule:nonzero;"/>
                </g>
                <g transform="matrix(20,0,0,20,10.9961,0)">
                    <path d="M0.492,-0.271C0.492,-0.259 0.492,-0.249 0.492,-0.241C0.491,-0.233 0.491,-0.225 0.49,-0.218L0.146,-0.218C0.146,-0.168 0.16,-0.129 0.188,-0.102C0.216,-0.075 0.256,-0.062 0.309,-0.062C0.323,-0.062 0.338,-0.063 0.352,-0.063C0.366,-0.065 0.38,-0.066 0.394,-0.068C0.407,-0.07 0.42,-0.072 0.432,-0.075C0.444,-0.077 0.455,-0.08 0.466,-0.083L0.466,-0.013C0.443,-0.007 0.417,-0.001 0.387,0.002C0.358,0.007 0.328,0.009 0.297,0.009C0.255,0.009 0.219,0.003 0.188,-0.008C0.158,-0.02 0.133,-0.036 0.114,-0.058C0.095,-0.079 0.08,-0.106 0.071,-0.137C0.062,-0.169 0.057,-0.204 0.057,-0.244C0.057,-0.279 0.062,-0.311 0.072,-0.342C0.082,-0.373 0.096,-0.4 0.115,-0.423C0.134,-0.446 0.158,-0.465 0.186,-0.479C0.213,-0.492 0.245,-0.499 0.28,-0.499C0.314,-0.499 0.344,-0.494 0.371,-0.483C0.397,-0.472 0.419,-0.457 0.437,-0.437C0.455,-0.417 0.469,-0.394 0.478,-0.365C0.487,-0.337 0.492,-0.306 0.492,-0.271ZM0.404,-0.283C0.405,-0.305 0.403,-0.325 0.397,-0.343C0.392,-0.361 0.384,-0.377 0.373,-0.39C0.362,-0.403 0.349,-0.413 0.333,-0.42C0.316,-0.427 0.297,-0.431 0.276,-0.431C0.257,-0.431 0.24,-0.428 0.225,-0.42C0.21,-0.413 0.197,-0.403 0.186,-0.39C0.174,-0.377 0.166,-0.361 0.159,-0.343C0.152,-0.325 0.148,-0.305 0.146,-0.283L0.404,-0.283Z" style="fill-rule:nonzero;"/>
                </g>
            </g>
        </g>
        <g transform="matrix(1,0,0,1,367.802,280.507)">
            <g transform="matrix(16,0,0,16,0,0)">
                <path d="M0.545,-0L0.45,-0L0.406,-0.139L0.14,-0.139L0.095,-0L0.005,-0L0.217,-0.638L0.336,-0.638L0.545,-0ZM0.381,-0.217L0.273,-0.558L0.165,-0.217L0.381,-0.217Z" style="fill-rule:nonzero;"/>
            </g>
            <g transform="matrix(16,0,0,16,8.79688,0)">
                <path d="M0.098,-0.49L0.176,-0.49L0.178,-0.4C0.207,-0.435 0.236,-0.46 0.264,-0.476C0.292,-0.491 0.32,-0.499 0.349,-0.499C0.4,-0.499 0.438,-0.483 0.464,-0.45C0.491,-0.417 0.503,-0.368 0.501,-0.303L0.415,-0.303C0.416,-0.346 0.41,-0.377 0.396,-0.396C0.383,-0.416 0.363,-0.426 0.337,-0.426C0.326,-0.426 0.314,-0.424 0.302,-0.419C0.291,-0.416 0.279,-0.409 0.267,-0.4C0.255,-0.391 0.242,-0.38 0.228,-0.366C0.214,-0.352 0.2,-0.335 0.184,-0.315L0.184,-0L0.098,-0L0.098,-0.49Z" style="fill-rule:nonzero;"/>
            </g>
            <g transform="matrix(16,0,0,16,17.5938,0)">
                <path d="M0.098,-0.49L0.176,-0.49L0.178,-0.4C0.207,-0.435 0.236,-0.46 0.264,-0.476C0.292,-0.491 0.32,-0.499 0.349,-0.499C0.4,-0.499 0.438,-0.483 0.464,-0.45C0.491,-0.417 0.503,-0.368 0.501,-0.303L0.415,-0.303C0.416,-0.346 0.41,-0.377 0.396,-0.396C0.383,-0.416 0.363,-0.426 0.337,-0.426C0.326,-0.426 0.314,-0.424 0.302,-0.419C0.291,-0.416 0.279,-0.409 0.267,-0.4C0.255,-0.391 0.242,-0.38 0.228,-0.366C0.214,-0.352 0.2,-0.335 0.184,-0.315L0.184,-0L0.098,-0L0.098,-0.49Z" style="fill-rule:nonzero;"/>
            </g>
            <g transform="matrix(16,0,0,16,26.3906,0)">
                <path d="M0.393,-0L0.391,-0.066C0.364,-0.04 0.337,-0.021 0.31,-0.009C0.282,0.003 0.253,0.009 0.223,0.009C0.195,0.009 0.171,0.005 0.151,-0.002C0.132,-0.009 0.115,-0.019 0.102,-0.031C0.089,-0.044 0.08,-0.059 0.074,-0.076C0.068,-0.093 0.065,-0.111 0.065,-0.131C0.065,-0.18 0.083,-0.218 0.12,-0.246C0.156,-0.274 0.211,-0.288 0.282,-0.288L0.384,-0.288L0.384,-0.331C0.384,-0.36 0.375,-0.383 0.356,-0.4C0.337,-0.418 0.309,-0.427 0.271,-0.427C0.243,-0.427 0.216,-0.424 0.189,-0.417C0.162,-0.411 0.135,-0.403 0.106,-0.391L0.106,-0.468C0.117,-0.472 0.129,-0.475 0.142,-0.479C0.155,-0.483 0.169,-0.486 0.184,-0.489C0.198,-0.492 0.214,-0.494 0.229,-0.496C0.245,-0.498 0.262,-0.499 0.278,-0.499C0.307,-0.499 0.334,-0.496 0.358,-0.489C0.382,-0.483 0.402,-0.473 0.418,-0.459C0.435,-0.446 0.447,-0.429 0.456,-0.409C0.465,-0.389 0.469,-0.365 0.469,-0.338L0.469,-0L0.393,-0ZM0.384,-0.223L0.276,-0.223C0.255,-0.223 0.236,-0.221 0.221,-0.217C0.206,-0.213 0.193,-0.207 0.184,-0.199C0.174,-0.191 0.167,-0.181 0.162,-0.17C0.157,-0.16 0.155,-0.147 0.155,-0.134C0.155,-0.124 0.156,-0.115 0.159,-0.106C0.162,-0.098 0.167,-0.09 0.173,-0.083C0.18,-0.077 0.188,-0.072 0.199,-0.068C0.209,-0.064 0.222,-0.062 0.237,-0.062C0.256,-0.062 0.279,-0.068 0.304,-0.08C0.329,-0.092 0.356,-0.111 0.384,-0.136L0.384,-0.223Z" style="fill-rule:nonzero;"/>
            </g>
            <g transform="matrix(16,0,0,16,35.1875,0)">
                <path d="M0.514,-0.49L0.347,-0.052C0.33,-0.007 0.312,0.031 0.293,0.063C0.275,0.096 0.255,0.122 0.233,0.143C0.212,0.163 0.188,0.179 0.162,0.188C0.136,0.198 0.106,0.203 0.074,0.203C0.066,0.203 0.058,0.203 0.051,0.203C0.044,0.202 0.037,0.202 0.029,0.201L0.029,0.124C0.036,0.125 0.044,0.126 0.052,0.126C0.061,0.127 0.07,0.128 0.079,0.128C0.095,0.128 0.109,0.126 0.123,0.121C0.136,0.117 0.149,0.109 0.161,0.099C0.173,0.089 0.185,0.075 0.196,0.059C0.207,0.043 0.218,0.023 0.228,-0L0.032,-0.49L0.129,-0.49L0.253,-0.166L0.278,-0.09L0.306,-0.168L0.421,-0.49L0.514,-0.49Z" style="fill-rule:nonzero;"/>
            </g>
        </g>
    </g>
</svg>
