<?xml version="1.0" encoding="UTF-8" standalone="no"?>
<!DOCTYPE svg PUBLIC "-//W3C//DTD SVG 1.1//EN" "http://www.w3.org/Graphics/SVG/1.1/DTD/svg11.dtd">
<svg width="100%" height="100%" viewBox="0 0 236 151" version="1.1" xmlns="http://www.w3.org/2000/svg" xmlns:xlink="http://www.w3.org/1999/xlink" xml:space="preserve" xmlns:serif="http://www.serif.com/" style="fill-rule:evenodd;clip-rule:evenodd;stroke-linejoin:round;stroke-miterlimit:2;">
    <g transform="matrix(1,0,0,1,-272.131,-186.916)">
        <g transform="matrix(1,0,0,1,-31.169,-35.437)">
            <rect x="303.3" y="222.353" width="235.288" height="150.569" style="fill:white;"/>
        </g>
        <g transform="matrix(1,0,0,1,374.861,238.358)">
            <g transform="matrix(16,0,0,16,0,0)">
                <path d="M0.545,-0L0.45,-0L0.406,-0.139L0.14,-0.139L0.095,-0L0.005,-0L0.217,-0.638L0.336,-0.638L0.545,-0ZM0.381,-0.217L0.273,-0.558L0.165,-0.217L0.381,-0.217Z" style="fill-rule:nonzero;"/>
            </g>
            <g transform="matrix(16,0,0,16,8.79688,0)">
                <path d="M0.492,-0L0.379,-0L0.193,-0.398L0.139,-0.526L0.139,-0L0.058,-0L0.058,-0.638L0.17,-0.638L0.347,-0.261L0.411,-0.115L0.411,-0.638L0.492,-0.638L0.492,-0Z" style="fill-rule:nonzero;"/>
            </g>
            <g transform="matrix(16,0,0,16,17.5938,0)">
                <path d="M0.514,-0.326C0.514,-0.296 0.512,-0.266 0.507,-0.238C0.502,-0.21 0.495,-0.184 0.484,-0.16C0.474,-0.136 0.46,-0.114 0.444,-0.094C0.427,-0.075 0.407,-0.058 0.383,-0.044C0.359,-0.03 0.331,-0.019 0.299,-0.011C0.267,-0.004 0.231,-0 0.19,-0L0.053,-0L0.053,-0.638L0.218,-0.638C0.317,-0.638 0.392,-0.612 0.44,-0.561C0.49,-0.51 0.514,-0.432 0.514,-0.326ZM0.423,-0.32C0.423,-0.365 0.419,-0.403 0.41,-0.435C0.402,-0.466 0.389,-0.491 0.372,-0.51C0.354,-0.529 0.333,-0.543 0.307,-0.552C0.281,-0.561 0.25,-0.565 0.215,-0.565L0.14,-0.565L0.14,-0.075L0.205,-0.075C0.35,-0.075 0.423,-0.157 0.423,-0.32Z" style="fill-rule:nonzero;"/>
            </g>
        </g>
        <g transform="matrix(1,0,0,1,379.256,267.089)">
            <g transform="matrix(16,0,0,16,0,0)">
                <path d="M0.523,-0.323C0.523,-0.266 0.516,-0.216 0.502,-0.175C0.489,-0.133 0.471,-0.099 0.448,-0.071C0.425,-0.044 0.398,-0.024 0.367,-0.011C0.337,0.002 0.304,0.009 0.27,0.009C0.229,0.009 0.193,0.001 0.163,-0.013C0.132,-0.028 0.107,-0.05 0.087,-0.078C0.067,-0.106 0.052,-0.14 0.042,-0.18C0.033,-0.22 0.028,-0.265 0.028,-0.316C0.028,-0.373 0.035,-0.422 0.048,-0.463C0.061,-0.505 0.079,-0.539 0.102,-0.566C0.125,-0.594 0.152,-0.614 0.183,-0.627C0.213,-0.64 0.246,-0.647 0.28,-0.647C0.321,-0.647 0.356,-0.639 0.387,-0.625C0.417,-0.61 0.443,-0.588 0.463,-0.56C0.483,-0.532 0.498,-0.499 0.508,-0.458C0.518,-0.418 0.523,-0.373 0.523,-0.323ZM0.433,-0.317C0.433,-0.354 0.43,-0.389 0.424,-0.419C0.418,-0.451 0.409,-0.478 0.396,-0.5C0.384,-0.522 0.367,-0.54 0.347,-0.552C0.327,-0.565 0.303,-0.571 0.275,-0.571C0.248,-0.571 0.224,-0.564 0.204,-0.551C0.185,-0.538 0.168,-0.52 0.156,-0.497C0.143,-0.475 0.134,-0.448 0.127,-0.417C0.121,-0.387 0.118,-0.355 0.118,-0.321C0.118,-0.283 0.121,-0.249 0.127,-0.217C0.133,-0.186 0.142,-0.16 0.154,-0.137C0.167,-0.115 0.183,-0.098 0.203,-0.085C0.223,-0.073 0.247,-0.067 0.275,-0.067C0.302,-0.067 0.326,-0.073 0.346,-0.086C0.366,-0.1 0.382,-0.118 0.395,-0.14C0.408,-0.163 0.417,-0.189 0.423,-0.22C0.43,-0.25 0.433,-0.282 0.433,-0.317Z" style="fill-rule:nonzero;"/>
            </g>
            <g transform="matrix(16,0,0,16,8.79688,0)">
                <path d="M0.513,-0L0.415,-0L0.32,-0.204C0.313,-0.22 0.305,-0.233 0.298,-0.243C0.29,-0.253 0.282,-0.261 0.273,-0.267C0.265,-0.273 0.256,-0.278 0.245,-0.28C0.235,-0.283 0.224,-0.284 0.211,-0.284L0.17,-0.284L0.17,-0L0.083,-0L0.083,-0.638L0.254,-0.638C0.291,-0.638 0.323,-0.634 0.35,-0.626C0.376,-0.618 0.398,-0.606 0.415,-0.592C0.432,-0.577 0.445,-0.559 0.453,-0.539C0.461,-0.518 0.465,-0.495 0.465,-0.47C0.465,-0.45 0.462,-0.431 0.456,-0.414C0.45,-0.396 0.441,-0.38 0.43,-0.365C0.418,-0.351 0.404,-0.338 0.387,-0.328C0.37,-0.317 0.35,-0.309 0.328,-0.304C0.346,-0.298 0.361,-0.287 0.374,-0.271C0.386,-0.256 0.399,-0.236 0.412,-0.21L0.513,-0ZM0.374,-0.463C0.374,-0.497 0.363,-0.523 0.342,-0.54C0.321,-0.556 0.291,-0.565 0.252,-0.565L0.17,-0.565L0.17,-0.354L0.24,-0.354C0.261,-0.354 0.279,-0.356 0.295,-0.361C0.312,-0.366 0.326,-0.373 0.337,-0.382C0.349,-0.391 0.358,-0.403 0.364,-0.416C0.371,-0.43 0.374,-0.445 0.374,-0.463Z" style="fill-rule:nonzero;"/>
            </g>
        </g>
        <g transform="matrix(1,0,0,1,374.861,295.82)">
            <g transform="matrix(16,0,0,16,0,0)">
                <path d="M0.492,-0L0.379,-0L0.193,-0.398L0.139,-0.526L0.139,-0L0.058,-0L0.058,-0.638L0.17,-0.638L0.347,-0.261L0.411,-0.115L0.411,-0.638L0.492,-0.638L0.492,-0Z" style="fill-rule:nonzero;"/>
            </g>
            <g transform="matrix(16,0,0,16,8.79688,0)">
                <path d="M0.523,-0.323C0.523,-0.266 0.516,-0.216 0.502,-0.175C0.489,-0.133 0.471,-0.099 0.448,-0.071C0.425,-0.044 0.398,-0.024 0.367,-0.011C0.337,0.002 0.304,0.009 0.27,0.009C0.229,0.009 0.193,0.001 0.163,-0.013C0.132,-0.028 0.107,-0.05 0.087,-0.078C0.067,-0.106 0.052,-0.14 0.042,-0.18C0.033,-0.22 0.028,-0.265 0.028,-0.316C0.028,-0.373 0.035,-0.422 0.048,-0.463C0.061,-0.505 0.079,-0.539 0.102,-0.566C0.125,-0.594 0.152,-0.614 0.183,-0.627C0.213,-0.64 0.246,-0.647 0.28,-0.647C0.321,-0.647 0.356,-0.639 0.387,-0.625C0.417,-0.61 0.443,-0.588 0.463,-0.56C0.483,-0.532 0.498,-0.499 0.508,-0.458C0.518,-0.418 0.523,-0.373 0.523,-0.323ZM0.433,-0.317C0.433,-0.354 0.43,-0.389 0.424,-0.419C0.418,-0.451 0.409,-0.478 0.396,-0.5C0.384,-0.522 0.367,-0.54 0.347,-0.552C0.327,-0.565 0.303,-0.571 0.275,-0.571C0.248,-0.571 0.224,-0.564 0.204,-0.551C0.185,-0.538 0.168,-0.52 0.156,-0.497C0.143,-0.475 0.134,-0.448 0.127,-0.417C0.121,-0.387 0.118,-0.355 0.118,-0.321C0.118,-0.283 0.121,-0.249 0.127,-0.217C0.133,-0.186 0.142,-0.16 0.154,-0.137C0.167,-0.115 0.183,-0.098 0.203,-0.085C0.223,-0.073 0.247,-0.067 0.275,-0.067C0.302,-0.067 0.326,-0.073 0.346,-0.086C0.366,-0.1 0.382,-0.118 0.395,-0.14C0.408,-0.163 0.417,-0.189 0.423,-0.22C0.43,-0.25 0.433,-0.282 0.433,-0.317Z" style="fill-rule:nonzero;"/>
            </g>
            <g transform="matrix(16,0,0,16,17.5938,0)">
                <path d="M0.508,-0.564L0.319,-0.564L0.319,-0L0.231,-0L0.231,-0.564L0.042,-0.564L0.042,-0.638L0.508,-0.638L0.508,-0.564Z" style="fill-rule:nonzero;"/>
            </g>
        </g>
    </g>
</svg>
